<svg width="38" height="37" viewBox="0 0 38 37" fill="none" xmlns="http://www.w3.org/2000/svg">
<g clip-path="url(#clip0)">
<path d="M16.8634 22.2815L16.2529 22.892L16.8634 23.5025L17.4738 22.892L16.8634 22.2815Z" fill="black"/>
<path d="M18.0846 23.5024L17.4741 24.1129L18.0846 24.7233L18.695 24.1129L18.0846 23.5024Z" fill="black"/>
<path d="M19.3058 24.7235L18.6953 25.3339L19.3058 25.9444L19.9162 25.3339L19.3058 24.7235Z" fill="black"/>
<path d="M15.6427 21.0607L15.0322 21.6711L15.6427 22.2816L16.2531 21.6711L15.6427 21.0607Z" fill="black"/>
<path d="M14.422 19.8398L13.8115 20.4502L14.422 21.0607L15.0324 20.4502L14.422 19.8398Z" fill="black"/>
<path d="M13.2008 18.6188L12.5903 19.2292L13.2008 19.8397L13.8112 19.2292L13.2008 18.6188Z" fill="black"/>
<path d="M11.9801 17.3979L11.3696 18.0084L11.9801 18.6188L12.5905 18.0084L11.9801 17.3979Z" fill="black"/>
<path d="M7.70665 21.6711L7.09619 22.2816L7.70665 22.892L8.3171 22.2816L7.70665 21.6711Z" fill="black"/>
<path d="M22.9684 6.40959L22.3579 7.02005L22.9684 7.63051L23.5788 7.02005L22.9684 6.40959Z" fill="black"/>
<path d="M30.2941 13.7352L29.6836 14.3456L30.2941 14.9561L30.9045 14.3456L30.2941 13.7352Z" fill="black"/>
<path d="M15.0323 28.9967L14.4219 29.6071L15.0323 30.2176L15.6428 29.6071L15.0323 28.9967Z" fill="black"/>
<path d="M26.3256 7.93579C26.4942 7.76723 26.4942 7.49389 26.3256 7.32533L23.2733 4.27303C23.1048 4.10446 22.8314 4.10447 22.6629 4.27303L4.95953 21.9764C4.79096 22.1449 4.79096 22.4183 4.95953 22.5868L8.01183 25.6391C8.18039 25.8077 8.45373 25.8077 8.62229 25.6391C9.46515 24.7963 10.8317 24.7963 11.6746 25.6391C12.5174 26.482 12.5174 27.8486 11.6746 28.6915C11.506 28.86 11.506 29.1333 11.6746 29.3019L14.7269 32.3542C14.8955 32.5228 15.1688 32.5228 15.3374 32.3542L33.0407 14.6509C33.2093 14.4823 33.2093 14.209 33.0407 14.0404L29.9884 10.9881C29.8198 10.8195 29.5465 10.8195 29.378 10.9881C28.5351 11.8309 27.1685 11.8309 26.3256 10.9881C25.4828 10.1452 25.4828 8.77865 26.3256 7.93579ZM26.0387 11.8821C27.1125 12.6863 28.5878 12.6863 29.6615 11.8821L32.125 14.3456L15.0321 31.4385L12.5686 28.975C13.569 27.6393 13.2972 25.7456 11.9615 24.7451C10.8878 23.941 9.41246 23.9409 8.33873 24.7451L5.87522 22.2816L22.9681 5.18872L25.4316 7.65223C24.4312 8.98792 24.703 10.8817 26.0387 11.8821Z" fill="black"/>
<path d="M15.948 15.2613C15.2737 15.9356 15.2737 17.0288 15.948 17.7031C16.6223 18.3774 17.7155 18.3774 18.3898 17.7031C19.0641 17.0288 19.0641 15.9356 18.3898 15.2613C17.7155 14.587 16.6223 14.587 15.948 15.2613ZM17.7793 17.0926C17.4422 17.4298 16.8956 17.4298 16.5584 17.0926C16.2213 16.7555 16.2213 16.2089 16.5584 15.8717C16.8956 15.5346 17.4422 15.5346 17.7793 15.8717C18.1165 16.2089 18.1165 16.7555 17.7793 17.0926Z" fill="black"/>
<path d="M23.2736 15.2613C22.5994 15.9356 22.5994 17.0288 23.2736 17.7031C23.9479 18.3774 25.0412 18.3774 25.7155 17.7031C26.3898 17.0288 26.3898 15.9356 25.7155 15.2613C25.0412 14.587 23.9479 14.587 23.2736 15.2613ZM25.105 17.0927C24.7679 17.4298 24.2213 17.4298 23.8841 17.0927C23.5469 16.7555 23.5469 16.2089 23.8841 15.8718C24.2213 15.5346 24.7679 15.5346 25.105 15.8717C25.4422 16.2089 25.4422 16.7555 25.105 17.0927Z" fill="black"/>
<path d="M20.3994 11.598L20.3994 21.3651L21.2627 21.3651L21.2627 11.598L20.3994 11.598Z" fill="black"/>
</g>
<defs>
<clipPath id="clip0">
<rect x="0.686523" y="18.3136" width="25.8997" height="25.8996" transform="rotate(-45 0.686523 18.3136)" fill="white"/>
</clipPath>
</defs>
</svg>
