<svg width="30" height="30" viewBox="0 0 30 30" fill="none" xmlns="http://www.w3.org/2000/svg">
<path d="M27.1957 6.48106H15.2617C15.019 6.48106 14.8223 6.67782 14.8223 6.92052V17.1699C14.8223 17.4126 15.019 17.6093 15.2617 17.6093H27.1957C27.4384 17.6093 27.6352 17.4126 27.6352 17.1699V6.92052C27.6352 6.67782 27.4384 6.48106 27.1957 6.48106ZM26.7563 16.7304H15.7012V7.35997H26.7563V16.7304Z" fill="black"/>
<path d="M21.2287 8.09698C19.0517 8.09698 17.2805 9.86816 17.2805 12.0452C17.2805 14.2223 19.0517 15.9934 21.2287 15.9934C23.4058 15.9934 25.177 14.2223 25.177 12.0452C25.177 9.86816 23.4057 8.09698 21.2287 8.09698ZM21.2287 15.1146C19.5363 15.1146 18.1594 13.7377 18.1594 12.0453C18.1594 10.3528 19.5363 8.97595 21.2287 8.97595C22.9212 8.97595 24.2981 10.3528 24.2981 12.0453C24.2981 13.7377 22.9212 15.1146 21.2287 15.1146Z" fill="black"/>
<path d="M21.2287 10.4256C20.3356 10.4256 19.6091 11.1521 19.6091 12.0451C19.6091 12.9382 20.3356 13.6647 21.2287 13.6647C22.1216 13.6647 22.8482 12.9382 22.8482 12.0451C22.8482 11.1521 22.1217 10.4256 21.2287 10.4256ZM21.2287 12.7858C20.8203 12.7858 20.488 12.4536 20.488 12.0452C20.488 11.6368 20.8203 11.3046 21.2287 11.3046C21.637 11.3046 21.9693 11.6368 21.9693 12.0452C21.9693 12.4536 21.6371 12.7858 21.2287 12.7858Z" fill="black"/>
<path d="M10.6931 7.74719H2.64307C2.40037 7.74719 2.20361 7.94395 2.20361 8.18665V16.465C2.20361 16.7077 2.40037 16.9045 2.64307 16.9045H10.6931C10.9358 16.9045 11.1326 16.7077 11.1326 16.465V8.18665C11.1326 7.94395 10.9358 7.74719 10.6931 7.74719ZM10.2537 16.0256H3.08252V8.6261H10.2537V16.0256Z" fill="black"/>
<path d="M4.36475 9.51447C4.12205 9.51447 3.92529 9.71122 3.92529 9.95392V11.5181C3.92529 11.7608 4.12205 11.9576 4.36475 11.9576C4.60744 11.9576 4.8042 11.7608 4.8042 11.5181V9.95392C4.8042 9.71122 4.60744 9.51447 4.36475 9.51447Z" fill="black"/>
<path d="M4.36475 12.6941C4.12205 12.6941 3.92529 12.8908 3.92529 13.1335V14.6978C3.92529 14.9405 4.12205 15.1372 4.36475 15.1372C4.60744 15.1372 4.8042 14.9405 4.8042 14.6978V13.1335C4.8042 12.8908 4.60744 12.6941 4.36475 12.6941Z" fill="black"/>
<path d="M6.66812 17.9279C5.20567 17.9279 4.01587 19.1177 4.01587 20.5802C4.01587 22.0426 5.20567 23.2324 6.66812 23.2324C8.13056 23.2324 9.32036 22.0426 9.32036 20.5802C9.32036 19.1177 8.13056 17.9279 6.66812 17.9279ZM6.66812 22.3535C5.6903 22.3535 4.89478 21.558 4.89478 20.5802C4.89478 19.6024 5.6903 18.8068 6.66812 18.8068C7.64593 18.8068 8.44145 19.6024 8.44145 20.5802C8.44145 21.558 7.64593 22.3535 6.66812 22.3535Z" fill="black"/>
<path d="M25.3414 21.7548H19.1201C18.8774 21.7548 18.6807 21.9515 18.6807 22.1943C18.6807 22.437 18.8774 22.6337 19.1201 22.6337H25.3414C25.5841 22.6337 25.7809 22.437 25.7809 22.1943C25.7809 21.9515 25.5841 21.7548 25.3414 21.7548Z" fill="black"/>
<path d="M27.8369 4.11632H18.4055C18.1628 4.11632 17.966 4.31308 17.966 4.55577C17.966 4.79847 18.1628 4.99523 18.4055 4.99523H27.8369C28.545 4.99523 29.1211 5.57132 29.1211 6.27943V17.811C29.1211 18.5191 28.545 19.0952 27.8369 19.0952H14.6205C13.9124 19.0952 13.3363 18.5191 13.3363 17.811V6.27943C13.3363 5.57132 13.9124 4.99523 14.6205 4.99523H16.6477C16.8904 4.99523 17.0871 4.79847 17.0871 4.55577C17.0871 4.31308 16.8904 4.11632 16.6477 4.11632H14.6205C13.5783 4.11632 12.706 4.85724 12.5024 5.83997H9.35596V5.26564C9.35596 4.38058 8.6359 3.66046 7.75078 3.66046H5.02166C4.1366 3.66046 3.41648 4.38052 3.41648 5.26564V5.83997H1.9616C0.879961 5.83997 0 6.71999 0 7.80157V24.378C0 25.4596 0.879961 26.3396 1.9616 26.3396H26.3147V26.3396C27.3963 26.3396 28.2763 25.4596 28.2763 24.378V19.9291C29.2591 19.7255 30 18.8532 30 17.811V6.27943C30 5.08669 29.0296 4.11632 27.8369 4.11632ZM4.29545 5.26564C4.29545 4.86521 4.62123 4.53937 5.02172 4.53937H7.7509C8.15133 4.53937 8.47717 4.86515 8.47717 5.26564V5.83997H4.29545V5.26564ZM27.3975 24.378C27.3975 24.9749 26.9118 25.4607 26.3148 25.4607H1.9616C1.36459 25.4607 0.878906 24.975 0.878906 24.378V7.80157C0.878906 7.20462 1.36459 6.71888 1.9616 6.71888H3.856H8.91656H12.4575V17.811C12.4575 17.8856 12.4613 17.9593 12.4687 18.0319C12.4872 18.2135 12.5282 18.3884 12.589 18.554C12.6012 18.5871 12.6141 18.6199 12.6278 18.6522C12.847 19.1696 13.2621 19.5847 13.7794 19.8039C13.8441 19.8313 13.9104 19.8557 13.9781 19.8768C14.0457 19.8978 14.1149 19.9157 14.1852 19.9301C14.3259 19.959 14.4715 19.9741 14.6206 19.9741H27.3975V24.378Z" fill="black"/>
</svg>
