<svg width="138" height="58" viewBox="0 0 138 58" fill="none" xmlns="http://www.w3.org/2000/svg">
<path fill-rule="evenodd" clip-rule="evenodd" d="M136.594 17.3291L128.617 45.2522C128.233 46.5933 127.008 47.5189 125.612 47.5222C116.678 47.5423 84.5518 47.6142 67.8514 47.648C67.6485 47.6774 67.4434 47.6912 67.2363 47.6916C66.901 47.6923 66.5655 47.6566 66.2397 47.5788C65.9735 47.514 65.7118 47.4262 65.4612 47.3175C65.2498 47.2263 65.0446 47.121 64.8454 47.0067C64.7375 46.9439 64.628 46.8847 64.5189 46.827L62.3368 45.345L60.5852 45.3483C60.3626 47.1099 62.1633 52.4756 60.6224 53.2896C60.5658 53.5043 60.501 53.721 60.4299 53.9205C60.2385 54.7999 59.7092 55.5502 58.8089 55.8607C58.5278 55.9567 58.2285 55.9976 57.9336 55.9828C54.3446 56.4729 54.1611 53.6592 54.1555 50.9173L53.664 47.6365L54.2981 46.4455L54.6789 45.4636L54.6782 45.0729L52.6435 45.2132L52.565 45.2135C51.0412 45.2046 48.9939 44.9486 47.5605 44.0397L33.3501 51.5299L32.1043 54.2863C31.6446 55.3343 30.6933 56.0147 29.4919 56.0132C28.4784 56.1804 27.4658 55.953 26.719 55.1766C25.7662 54.1895 25.758 52.9635 25.8266 51.7067C25.8671 50.9556 25.8868 50.1945 25.9044 49.4415C25.8013 48.6049 25.8072 47.6335 26.1002 46.8192C26.3575 45.09 27.7845 43.8517 29.6364 43.9746C30.9413 44.0598 31.9658 44.6899 32.4666 45.7064L42.8337 39.7402L22.3124 26.5284L1.13167 26.052L1.11902 19.8641L39.7961 20.0215C40.7656 17.9176 42.101 16.0279 43.8307 14.4439L43.8673 14.4116L43.9034 14.3803C47.2172 11.6075 51.046 9.80427 55.2549 9.20024C55.2479 5.55431 54.5181 1.86634 58.0423 1.85889C61.4764 1.85219 60.9169 7.41301 60.899 9.10832C61.8037 9.20429 62.7032 9.35546 63.5867 9.55866L65.4564 9.99001L65.0212 13.8015L63.1012 13.7975C62.3785 13.7971 61.6105 13.8448 60.8495 13.9188L60.7967 18.9653L63.9132 19.072C64.2966 19.2976 64.6801 19.5209 65.0617 19.7483C65.6835 20.0587 66.6183 20.8828 67.3417 21.3357L71.0383 15.5497L83.5072 15.5244C85.3579 15.5207 86.9941 16.2587 88.3628 17.4862C88.714 17.8033 89.0373 18.1401 89.3228 18.4993L91.2384 15.5396L109.798 15.4712C110.35 14.547 111.371 13.9199 112.466 13.9177L134.012 13.8741C135.848 13.8704 137.096 15.5788 136.594 17.3291Z" fill="#FEFEFE"/>
<path fill-rule="evenodd" clip-rule="evenodd" d="M136.594 17.3291L128.617 45.2522C128.233 46.5933 127.008 47.5189 125.612 47.5222C116.678 47.5423 84.5518 47.6142 67.8514 47.648C67.6485 47.6774 67.4434 47.6912 67.2363 47.6916C66.901 47.6923 66.5655 47.6566 66.2397 47.5788C65.9735 47.514 65.7118 47.4262 65.4612 47.3175C65.2498 47.2263 65.0446 47.121 64.8454 47.0067C64.7375 46.9439 64.628 46.8847 64.5189 46.827L62.3368 45.345L60.5852 45.3483C60.3626 47.1099 62.1633 52.4756 60.6224 53.2896C60.5658 53.5043 60.501 53.721 60.4299 53.9205C60.2385 54.7999 59.7092 55.5502 58.8089 55.8607C58.5278 55.9567 58.2285 55.9976 57.9336 55.9828C54.3446 56.4729 54.1611 53.6592 54.1555 50.9173L53.664 47.6365L54.2981 46.4455L54.6789 45.4636L54.6782 45.0729L52.6435 45.2132L52.565 45.2135C51.0412 45.2046 48.9939 44.9486 47.5605 44.0397L33.3501 51.5299L32.1043 54.2863C31.6446 55.3343 30.6933 56.0147 29.4919 56.0132C28.4784 56.1804 27.4658 55.953 26.719 55.1765C25.7662 54.1895 25.758 52.9635 25.8266 51.7067C25.8671 50.9556 25.8868 50.1945 25.9044 49.4415C25.8013 48.6049 25.8072 47.6335 26.1002 46.8192C26.3575 45.09 27.7845 43.8517 29.6364 43.9746C30.9413 44.0598 31.9658 44.6899 32.4666 45.7064L42.8337 39.7402L22.3124 26.5284L1.13167 26.052L1.11902 19.8641L39.7961 20.0215C40.7656 17.9176 42.101 16.0279 43.8307 14.4439L43.8673 14.4116L43.9034 14.3803C47.2172 11.6075 51.046 9.80427 55.2549 9.20024C55.2478 5.55431 54.5181 1.86634 58.0423 1.85889C61.4764 1.85219 60.9169 7.41301 60.899 9.10832C61.8037 9.20429 62.7032 9.35546 63.5867 9.55866L65.4564 9.99001L65.0212 13.8015L63.1012 13.7975C62.3785 13.7971 61.6105 13.8448 60.8495 13.9188L60.7967 18.9653L63.9132 19.072C64.2966 19.2976 64.6801 19.5209 65.0617 19.7483C65.6835 20.0587 66.6183 20.8828 67.3417 21.3357L71.0383 15.5497L83.5071 15.5244C85.3579 15.5207 86.9941 16.2587 88.3628 17.4862C88.714 17.8033 89.0373 18.1401 89.3228 18.4993L91.2384 15.5396L109.798 15.4712C110.35 14.547 111.371 13.9199 112.466 13.9177L134.012 13.8741C135.848 13.8704 137.096 15.5788 136.594 17.3291Z" stroke="#FEFEFE" stroke-width="1.9488" stroke-miterlimit="10"/>
<path fill-rule="evenodd" clip-rule="evenodd" d="M130.451 38.5889L128.703 44.9927C128.269 46.5771 126.832 47.6772 125.188 47.681C115.69 47.7018 84.2154 47.7726 67.7658 47.8057C67.563 47.8347 67.3578 47.8485 67.1504 47.8489C66.8154 47.85 66.4802 47.8143 66.1541 47.7365C65.8875 47.6717 65.6265 47.5839 65.3756 47.4752C65.1642 47.384 64.9586 47.2787 64.7595 47.1644C64.6519 47.1015 64.5424 47.0423 64.4337 46.9846L62.2513 45.5026L60.4996 45.5059C60.2773 47.2671 62.0777 52.6333 60.5371 53.4473C60.4798 53.6616 60.415 53.8786 60.3443 54.0778C60.1529 54.9576 59.6232 55.7075 58.7236 56.018C58.4418 56.1139 58.1429 56.1549 57.848 56.1404C54.2593 56.6302 54.0754 53.8165 54.0698 51.075L53.5784 47.7941L54.2121 46.6032L54.5937 45.6214L54.5929 45.2305L52.5579 45.3709L52.479 45.3712C50.9555 45.3623 48.9082 45.1063 47.4749 44.1974L33.2643 51.6879L32.0182 54.4436C31.5588 55.4924 30.6076 56.1724 29.4062 56.1713C28.3928 56.3377 27.38 56.1102 26.6332 55.3339C25.6805 54.3472 25.6723 53.1212 25.7408 51.8644C25.7814 51.1129 25.8012 50.3526 25.8186 49.5996C25.7155 48.7622 25.7211 47.7911 26.0144 46.9764C26.2714 45.2476 27.6984 44.0094 29.5503 44.1322C30.8555 44.2171 31.8802 44.8472 32.3809 45.864L42.748 39.8975L22.2267 26.6861L1.04549 26.2097L1.0332 20.0218L39.7104 20.1791C40.68 18.0752 42.0154 16.1857 43.7451 14.6013L43.7812 14.5689L43.8177 14.538C47.1312 11.7652 50.9607 9.96198 55.1696 9.35786C55.1622 5.71197 54.4324 2.02361 57.9567 2.01655C61.3908 2.00947 60.8309 7.57063 60.8134 9.26594C61.7181 9.36165 62.6172 9.51308 63.5014 9.71628L65.3704 10.1476L64.9356 13.9592L63.0152 13.9551C62.2926 13.9547 61.5245 14.0024 60.7635 14.0765L60.7107 19.1229L63.8272 19.2298C64.211 19.4549 64.5945 19.6786 64.9761 19.9056C65.5975 20.2164 66.5327 21.0404 67.2565 21.493L70.9527 15.707L83.4212 15.6817C85.2723 15.6783 86.9086 16.4164 88.2772 17.6438C88.6294 17.9606 88.9509 18.2977 89.2373 18.657L91.152 15.6973L109.713 15.6285C110.264 14.7044 111.285 14.0775 112.381 14.0753L133.927 14.0318C135.762 14.028 137.011 15.736 136.508 17.4868L130.457 38.5956L130.451 38.5889Z" fill="#2A2928"/>
<path fill-rule="evenodd" clip-rule="evenodd" d="M128.759 44.8807C128.292 46.5562 126.767 47.7174 125.027 47.7212C115.345 47.7427 84.1623 47.8127 67.8069 47.8458C67.6037 47.8749 67.3985 47.8887 67.1914 47.889C66.8564 47.8901 66.5209 47.8544 66.1952 47.7766C65.9286 47.7115 65.6677 47.6241 65.4163 47.5149C65.2052 47.4242 64.9997 47.3192 64.8006 47.2042C64.6929 47.1417 64.5835 47.0825 64.4743 47.0248L62.2923 45.5428L60.541 45.5461C60.3183 47.3073 62.1189 52.6734 60.5778 53.4874C60.5209 53.7018 60.4561 53.9188 60.3853 54.1179C60.1936 54.9977 59.6646 55.7477 58.7647 56.0581C58.4828 56.1541 58.1836 56.1951 57.8891 56.1806C54.3 56.6703 54.1164 53.8566 54.1109 51.1151L53.6194 47.8343L54.2531 46.643L54.6343 45.6611L54.6336 45.2707L52.599 45.411L52.52 45.4114C50.9965 45.4024 48.9492 45.1464 47.5159 44.2375L33.3053 51.7281L32.0595 54.4837C31.5998 55.5326 30.6485 56.2125 29.4467 56.2114C28.4337 56.3778 27.421 56.1504 26.6742 55.3741C25.7215 54.3874 25.7133 53.1614 25.7817 51.9041C25.8223 51.1531 25.8421 50.3923 25.8595 49.6398C25.7561 48.8023 25.762 47.8313 26.0554 47.0166C26.3123 45.2878 27.7393 44.0496 29.5912 44.172C30.8965 44.2572 31.9211 44.8873 32.4215 45.9042L42.789 39.9376L22.2676 26.7262L1.08632 26.2494L1.07404 20.0615L39.7514 20.2193C40.7209 18.1154 42.0564 16.2257 43.7861 14.6414L43.8222 14.609L43.8587 14.5782C47.1722 11.8053 51.0014 10.0021 55.2107 9.39804C55.2032 5.75213 54.4735 2.06378 57.9978 2.05671C61.4315 2.04963 60.8719 7.61045 60.8545 9.30612C61.7591 9.40173 62.6582 9.55326 63.5421 9.75646L65.4114 10.1874L64.9766 13.9993L63.0563 13.9953C62.3337 13.9949 61.5656 14.0426 60.8046 14.1166L60.7517 19.1631L63.8683 19.2698C64.2522 19.495 64.6356 19.7187 65.0172 19.9458C65.6386 20.2565 66.5738 21.0806 67.2972 21.5332L70.9942 15.7471L83.462 15.7222C85.3134 15.7181 86.9498 16.4565 88.3189 17.6836C88.6702 18.0007 88.9926 18.3376 89.279 18.6971L91.1937 15.7371L109.754 15.6686C110.306 14.7444 111.325 14.1177 112.422 14.1155L133.969 14.0719C135.804 14.0682 137.052 15.7762 136.549 17.5265L130.497 38.6357L128.759 44.8807Z" stroke="#2B2A29" stroke-width="0.0018"/>
<path fill-rule="evenodd" clip-rule="evenodd" d="M112.426 16.2638L133.974 16.2199C134.368 16.2191 134.598 16.5403 134.486 16.9356L128.433 38.0462C128.32 38.4393 127.906 38.7639 127.511 38.7646L105.964 38.8085C105.569 38.8093 105.339 38.4859 105.452 38.0928L111.504 16.9821C111.616 16.5869 112.031 16.2642 112.426 16.2638Z" fill="#E22B31"/>
<path fill-rule="evenodd" clip-rule="evenodd" d="M112.426 16.2638L133.974 16.2199C134.368 16.2191 134.598 16.5403 134.486 16.9356L128.433 38.0462C128.32 38.4393 127.906 38.7639 127.511 38.7646L105.964 38.8085C105.569 38.8093 105.339 38.4859 105.452 38.0928L111.504 16.9821C111.616 16.5869 112.031 16.2642 112.426 16.2638Z" stroke="#E22B31" stroke-width="0.0018"/>
<path fill-rule="evenodd" clip-rule="evenodd" d="M53.6146 21.3139L57.0875 21.3068L57.0946 24.8717L55.7587 24.8746C55.7587 24.8746 49.1712 25.4091 47.4228 27.995C47.4228 27.995 47.2061 22.3076 53.6146 21.3139ZM109.14 17.8176L107.962 22.5005L89.3489 22.538L92.3633 17.8787L109.14 17.8176ZM88.5753 22.5396L69.1748 22.579L72.1722 17.8924L83.4661 17.8698C84.6884 17.8671 85.8277 18.3361 86.8838 19.2825C87.9647 20.2514 88.5267 21.3389 88.5753 22.5396ZM88.9328 24.4165C88.94 27.704 88.3069 30.284 87.0365 32.1546C86.0175 33.6511 85.0867 34.7238 84.2372 35.3595C82.5551 36.6294 80.443 37.2695 77.8994 37.2747L66.7689 37.2974L70.4071 24.4541L77.3137 24.44L75.0055 32.2535C75.4407 32.4255 75.9124 32.5141 76.4102 32.513C77.3532 32.5111 78.3227 32.2275 79.3215 31.6607C80.9523 30.7377 82.0193 29.4194 82.5137 27.7077C82.7784 26.8163 82.9258 25.7221 82.9598 24.4284L88.9328 24.4165ZM127.767 37.1165L120.782 37.1307L116.817 29.3394L114.59 37.1429L107.823 37.1567L111.488 24.3707L126.868 24.3394L123.13 28.1249L127.767 37.1165ZM133.021 17.8537L128.559 22.4855L120.453 22.5019L124.993 17.8698L133.021 17.8537ZM107.608 24.3633L97.1916 32.0228L105.395 32.006L103.982 37.1645L87.1253 37.1987L88.6167 31.9978L99.5728 24.3949L107.608 24.3633ZM47.6667 29.0788C47.6667 29.0788 51.3286 29.0714 52.6507 29.0688C52.8275 29.0685 52.9824 29.0629 52.6886 28.7357C52.921 28.9322 53.1861 29.2787 53.0334 30.5932C53.0334 30.5932 51.8782 29.9404 51.5297 29.9561C50.7359 29.8124 50.5054 30.447 49.2635 30.3096C47.9965 30.249 47.8565 30.1478 47.6667 29.0788ZM119.977 17.7957L118.647 22.4789L112.001 22.4923L113.337 17.8091L119.977 17.7957ZM56.2547 48.2888C56.37 47.4842 57.0517 47.2221 57.0517 47.2221L57.0477 45.2775L56.7792 45.2778L56.7666 38.9518C56.7666 38.9518 56.7457 37.971 55.8838 39.4248C54.4962 40.3553 54.8641 40.2391 54.6064 40.7993C54.784 41.3948 55.6177 43.0521 55.6177 43.0521L52.5286 43.2635C52.5286 43.2635 48.7624 43.2442 48.0736 41.8202C48.0106 41.7454 47.9563 41.6728 47.9101 41.6003L31.2148 50.4027L31.194 50.4988L31.1526 51.8896L30.5104 51.6649C30.5104 51.6649 30.1932 52.2459 30.223 52.7018C30.2241 53.2001 30.2051 54.1812 29.2866 54.0524C27.6984 54.4697 27.8812 52.8023 27.9259 52.0225C27.9683 51.2432 28.0089 49.524 28.0089 49.524C28.0089 49.524 27.8008 48.1011 28.16 47.5641C28.1667 47.0025 28.4698 46.2492 29.4494 46.314C30.4285 46.3787 30.6076 46.9135 30.6087 47.4249C30.6095 47.8194 30.5584 48.9598 30.5364 49.4652L46.9146 40.0412L22.9199 24.5921L3.22932 24.1515L3.22522 22.2183L41.1829 22.3713C41.9737 20.2242 43.2385 18.0529 45.2351 16.225C49.4038 12.7377 53.7039 11.5311 57.3451 11.3438L57.3846 5.37775C57.6147 5.3811 57.9513 4.88833 58.2788 5.06548C58.6701 5.40976 58.7472 5.40789 58.7472 5.40789L58.6865 11.3201C60.3477 11.3454 61.8355 11.5668 63.0604 11.8496C63.0604 11.8496 61.2246 11.8456 58.6764 12.2185L58.5979 19.788L57.2889 19.791L57.3373 12.4414C53.9679 13.069 49.816 14.3556 46.9291 17.0048C45.3033 18.4969 43.9246 20.3124 42.8367 22.3777L47.3078 22.3951C47.3078 22.3951 46.1071 23.7964 46.256 25.1158L41.6562 25.0123C40.8133 27.2574 40.2742 29.7187 40.0786 32.3283C40.0786 32.3283 39.5638 28.9884 40.4275 24.984L25.0319 24.6402L48.7594 39.6421C48.899 39.5674 48.9943 39.5291 48.9943 39.5291C48.9943 39.5291 50.533 38.2234 51.3309 36.645C52.1284 35.0665 53.2572 34.1294 55.3331 34.1253C55.3331 34.1253 57.0517 34.1041 57.2609 33.2897C57.2609 33.2897 53.7054 33.0977 55.2155 31.1578C55.2155 31.1578 55.3611 30.9755 56.4016 30.8869C57.08 30.9911 57.7517 30.5397 57.7517 30.5397C55.4802 30.1994 55.5878 28.4748 55.5878 28.4748C60.64 27.8685 57.7859 25.4932 57.7859 25.4932L61.4579 25.7753C61.6806 24.9066 58.4743 24.846 58.4743 24.846L58.5782 21.2365L63.2525 21.3977C63.2525 21.3977 63.6211 21.6132 63.9986 21.8387C64.5302 22.0807 64.8437 22.6721 65.0992 22.7409C64.8925 27.9121 65.2864 38.7831 64.3791 42.9445C64.655 42.9729 63.2759 43.3931 63.2759 43.3931L58.6459 43.4023L58.4084 45.2748L58.0574 45.2756L57.9907 47.224C59.1541 47.3616 59.0119 48.1243 59.0119 48.1243L59.0198 51.8807L58.7134 52.0426C58.7134 52.0426 58.3962 53.4112 58.306 53.5496C58.2193 54.2121 57.8879 54.0077 57.8879 54.0077C57.8879 54.0077 56.7152 54.2151 56.3175 54.0111C56.4479 53.8057 56.2617 53.6549 56.2617 53.6549L56.2524 49.0227C56.2345 48.7983 56.2341 48.5739 56.2472 48.3498C56.2486 48.3308 56.2505 48.3096 56.2547 48.2903V48.2888Z" fill="#FEFEFE"/>
<path d="M68.6039 45.154C68.2544 45.154 67.926 45.1174 67.6187 45.0443C67.3114 44.9674 67.0579 44.8674 66.8582 44.7443L67.3825 43.7402C67.8165 43.9902 68.2698 44.1153 68.7422 44.1153C68.9151 44.1153 69.0476 44.0941 69.1398 44.0518C69.232 44.0095 69.2781 43.9518 69.2781 43.8787C69.2781 43.8094 69.23 43.7537 69.134 43.7113C69.0418 43.669 68.8939 43.6229 68.6904 43.5728C68.4215 43.5036 68.1987 43.4344 68.022 43.3651C67.8453 43.292 67.6898 43.1824 67.5553 43.0362C67.4247 42.8861 67.3594 42.69 67.3594 42.4476C67.3594 42.1437 67.4401 41.8782 67.6014 41.6513C67.7666 41.4204 68.0028 41.2435 68.3101 41.1204C68.6174 40.9934 68.9804 40.9299 69.399 40.9299C69.6987 40.9299 69.9771 40.9607 70.2345 41.0223C70.4957 41.08 70.7204 41.1646 70.9086 41.2762L70.4189 42.2687C70.2614 42.1687 70.0866 42.0937 69.8945 42.0436C69.7063 41.9936 69.5124 41.9686 69.3126 41.9686C69.1244 41.9686 68.9784 41.9956 68.8747 42.0494C68.771 42.1033 68.7192 42.1668 68.7192 42.2398C68.7192 42.3129 68.7653 42.3706 68.8574 42.413C68.9535 42.4553 69.109 42.5014 69.3241 42.5515C69.5853 42.613 69.8043 42.6784 69.981 42.7477C70.1615 42.8169 70.3171 42.9246 70.4477 43.0708C70.5783 43.217 70.6436 43.4093 70.6436 43.6479C70.6436 43.9479 70.561 44.2115 70.3958 44.4384C70.2306 44.6654 69.9944 44.8424 69.6871 44.9693C69.3798 45.0924 69.0188 45.154 68.6039 45.154Z" fill="white"/>
<path d="M73.7158 42.8631L75.0295 45.0616H73.5142L72.696 43.746L72.3158 44.098L72.1256 45.0616H70.7889L71.5955 41.0223H72.9322L72.6442 42.4534L74.1768 41.0223H75.7382L73.7158 42.8631Z" fill="white"/>
<path d="M77.5644 43.5959L77.2763 45.0616H75.9166L76.2104 43.5786L75.2021 41.0223H76.5676L77.115 42.4187L78.2385 41.0223H79.604L77.5644 43.5959Z" fill="white"/>
<path d="M79.7766 41.0223H81.5973C82.0199 41.0223 82.3848 41.0915 82.692 41.23C83.0032 41.3685 83.2413 41.5666 83.4065 41.8244C83.5717 42.0821 83.6542 42.386 83.6542 42.7361C83.6542 43.2016 83.5467 43.6113 83.3316 43.9652C83.1165 44.3153 82.8169 44.5865 82.4328 44.7789C82.0525 44.9674 81.6185 45.0616 81.1306 45.0616H78.97L79.7766 41.0223ZM81.1767 43.9999C81.5263 43.9999 81.7971 43.8902 81.9891 43.6709C82.185 43.4478 82.283 43.1631 82.283 42.8169C82.283 42.5822 82.21 42.4014 82.064 42.2745C81.9219 42.1475 81.7145 42.084 81.4418 42.084H80.9232L80.5429 43.9999H81.1767Z" fill="white"/>
<path d="M84.5368 41.0223H85.8965L85.0899 45.0616H83.7301L84.5368 41.0223Z" fill="white"/>
<path d="M90.8608 41.0223L88.3487 45.0616H87.012L86.1132 41.0223H87.5075L88.0088 43.3766L89.4665 41.0223H90.8608Z" fill="white"/>
<path d="M92.1254 42.0494L92.0332 42.5226H93.7387L93.5428 43.5036H91.8316L91.7279 44.0345H93.7502L93.5428 45.0616H90.1895L90.9961 41.0223H94.2745L94.0671 42.0494H92.1254Z" fill="white"/>
<path d="M101.429 41.0223L100.633 45.0616H99.3946L99.7519 43.2208L98.6168 44.6981H98.0176L97.3953 43.2439L97.0324 45.0616H95.7936L96.6002 41.0223H97.7065L98.5822 43.1689L100.27 41.0223H101.429Z" fill="white"/>
<path d="M103.561 45.154C103.15 45.154 102.789 45.079 102.478 44.9289C102.17 44.775 101.932 44.5615 101.763 44.2884C101.598 44.0153 101.516 43.7017 101.516 43.3478C101.516 42.8785 101.623 42.4611 101.838 42.0956C102.057 41.7263 102.359 41.4397 102.743 41.2358C103.131 41.0319 103.569 40.9299 104.056 40.9299C104.467 40.9299 104.827 41.0069 105.134 41.1608C105.445 41.3108 105.683 41.5224 105.848 41.7955C106.017 42.0687 106.102 42.3822 106.102 42.7361C106.102 43.2055 105.992 43.6248 105.773 43.9941C105.558 44.3596 105.257 44.6442 104.869 44.8481C104.485 45.052 104.049 45.154 103.561 45.154ZM103.676 44.0518C103.891 44.0518 104.078 43.996 104.235 43.8845C104.396 43.7729 104.519 43.6229 104.604 43.4344C104.688 43.2458 104.731 43.04 104.731 42.8169C104.731 42.5784 104.659 42.388 104.517 42.2456C104.379 42.1033 104.187 42.0321 103.941 42.0321C103.726 42.0321 103.538 42.0879 103.377 42.1995C103.219 42.311 103.098 42.4611 103.014 42.6496C102.929 42.8381 102.887 43.0439 102.887 43.267C102.887 43.5055 102.956 43.696 103.094 43.8383C103.236 43.9806 103.43 44.0518 103.676 44.0518Z" fill="white"/>
<path d="M107.776 45.154C107.427 45.154 107.099 45.1174 106.791 45.0443C106.484 44.9674 106.23 44.8674 106.031 44.7443L106.555 43.7402C106.989 43.9902 107.442 44.1153 107.915 44.1153C108.088 44.1153 108.22 44.0941 108.312 44.0518C108.404 44.0095 108.451 43.9518 108.451 43.8787C108.451 43.8094 108.403 43.7537 108.307 43.7113C108.214 43.669 108.066 43.6229 107.863 43.5728C107.594 43.5036 107.371 43.4344 107.195 43.3651C107.018 43.292 106.862 43.1824 106.728 43.0362C106.597 42.8861 106.532 42.69 106.532 42.4476C106.532 42.1437 106.613 41.8782 106.774 41.6513C106.939 41.4204 107.175 41.2435 107.483 41.1204C107.79 40.9934 108.153 40.9299 108.572 40.9299C108.871 40.9299 109.15 40.9607 109.407 41.0223C109.668 41.08 109.893 41.1646 110.081 41.2762L109.591 42.2687C109.434 42.1687 109.259 42.0937 109.067 42.0436C108.879 41.9936 108.685 41.9686 108.485 41.9686C108.297 41.9686 108.151 41.9956 108.047 42.0494C107.944 42.1033 107.892 42.1668 107.892 42.2398C107.892 42.3129 107.938 42.3706 108.03 42.413C108.126 42.4553 108.282 42.5014 108.497 42.5515C108.758 42.613 108.977 42.6784 109.153 42.7477C109.334 42.8169 109.49 42.9246 109.62 43.0708C109.751 43.217 109.816 43.4093 109.816 43.6479C109.816 43.9479 109.734 44.2115 109.568 44.4384C109.403 44.6654 109.167 44.8424 108.86 44.9693C108.552 45.0924 108.191 45.154 107.776 45.154Z" fill="white"/>
<path d="M112.255 45.154C111.844 45.154 111.481 45.079 111.166 44.9289C110.854 44.775 110.613 44.5615 110.44 44.2884C110.271 44.0153 110.186 43.7017 110.186 43.3478C110.186 42.8785 110.294 42.4611 110.509 42.0956C110.728 41.7301 111.029 41.4454 111.413 41.2415C111.801 41.0338 112.241 40.9299 112.733 40.9299C113.121 40.9299 113.465 41.0011 113.764 41.1434C114.064 41.2819 114.287 41.4801 114.432 41.7378L113.453 42.5053C113.272 42.1898 113.004 42.0321 112.646 42.0321C112.435 42.0321 112.247 42.084 112.082 42.1879C111.917 42.2918 111.788 42.438 111.696 42.6265C111.604 42.8111 111.557 43.0227 111.557 43.2612C111.557 43.4998 111.632 43.6921 111.782 43.8383C111.936 43.9806 112.137 44.0518 112.387 44.0518C112.729 44.0518 113.029 43.896 113.286 43.5844L114.087 44.3519C113.852 44.6404 113.586 44.8462 113.286 44.9693C112.99 45.0924 112.646 45.154 112.255 45.154Z" fill="white"/>
<path d="M116.435 45.154C116.024 45.154 115.663 45.079 115.351 44.9289C115.044 44.775 114.806 44.5615 114.637 44.2884C114.472 44.0153 114.389 43.7017 114.389 43.3478C114.389 42.8785 114.497 42.4611 114.712 42.0956C114.931 41.7263 115.232 41.4397 115.616 41.2358C116.004 41.0319 116.442 40.9299 116.93 40.9299C117.341 40.9299 117.7 41.0069 118.008 41.1608C118.319 41.3108 118.557 41.5224 118.722 41.7955C118.891 42.0687 118.976 42.3822 118.976 42.7361C118.976 43.2055 118.866 43.6248 118.647 43.9941C118.432 44.3596 118.13 44.6442 117.743 44.8481C117.358 45.052 116.922 45.154 116.435 45.154ZM116.55 44.0518C116.765 44.0518 116.951 43.996 117.109 43.8845C117.27 43.7729 117.393 43.6229 117.477 43.4344C117.562 43.2458 117.604 43.04 117.604 42.8169C117.604 42.5784 117.533 42.388 117.391 42.2456C117.253 42.1033 117.061 42.0321 116.815 42.0321C116.6 42.0321 116.412 42.0879 116.25 42.1995C116.093 42.311 115.972 42.4611 115.887 42.6496C115.803 42.8381 115.76 43.0439 115.76 43.267C115.76 43.5055 115.83 43.696 115.968 43.8383C116.11 43.9806 116.304 44.0518 116.55 44.0518Z" fill="white"/>
<path d="M126.271 41.0223L124.174 45.0616H122.716L122.486 42.9323L121.38 45.0616H119.922L119.438 41.0223H120.78L121.04 43.3247L122.238 41.0223H123.488L123.719 43.3593L124.935 41.0223H126.271Z" fill="white"/>
</svg>
