<svg width="26" height="31" viewBox="0 0 26 31" fill="none" xmlns="http://www.w3.org/2000/svg">
<path d="M10.4287 25.7857H15.5716" stroke="black"/>
<path d="M10.4287 27.9286H15.5716" stroke="black"/>
<path d="M19.3571 8.25766C19.3571 11.6062 18.5543 13.0875 17.4518 13.7997C16.8808 14.1686 16.1791 14.367 15.3467 14.4687C14.511 14.5707 13.5848 14.5714 12.5714 14.5714C11.8182 14.5714 11.1118 14.5712 10.4504 14.5284C8.99719 14.4344 7.87909 14.1391 7.10243 13.3081C6.3201 12.4711 5.78564 10.9837 5.78564 8.25766C5.78564 4.46881 8.86319 1 12.5714 1C15.4631 1 17.9764 3.10447 18.942 5.85695C19.2111 6.62386 19.3571 7.43547 19.3571 8.25766Z" stroke="black"/>
<path d="M10.3052 14.6428C10.3383 15.6519 10.1144 17.4983 9.09258 18.0974C8.67307 18.3433 8.179 18.0744 7.86793 17.7006V17.7006C7.60851 17.3889 7.1751 17.2846 6.80227 17.4442L5.37611 18.0549C5.05524 18.1923 4.87433 18.5355 4.94234 18.8779V18.8779C4.99736 19.1549 4.86146 19.4328 4.62112 19.581C3.2609 20.4202 1.1393 22.3434 1.05291 24.953C0.957089 27.8471 1.01298 29.8569 1.05291 30.5H13" stroke="black"/>
<path d="M15.7768 14.6428C15.744 15.6511 15.9656 17.4956 16.9764 18.0961C17.3924 18.3431 17.8842 18.0744 18.192 17.7012V17.7012C18.4491 17.3896 18.8811 17.2854 19.252 17.4456L20.6584 18.0532C20.9791 18.1917 21.1599 18.5352 21.0924 18.878V18.878C21.0378 19.1552 21.1733 19.4331 21.4132 19.5825C22.7615 20.4225 24.862 22.345 24.9476 24.953C25.0425 27.8471 24.9871 29.8569 24.9476 30.5H12.5714" stroke="black"/>
<path d="M4.85718 18.9286C5.72415 21.0601 7.35283 26.3586 6.93173 30.5" stroke="black"/>
<path d="M21.1428 18.9286C20.2758 21.0601 18.6472 26.3586 19.0683 30.5" stroke="black"/>
<path d="M4.42871 27.0714V30.5" stroke="black" stroke-linecap="round"/>
<path d="M21.5713 27.0714V30.5" stroke="black" stroke-linecap="round"/>
<path d="M10 16.3572V16.3572C11.5882 18.1722 14.4118 18.1722 16 16.3572V16.3572" stroke="black"/>
<path d="M7.85718 18.0714C8.91945 20.3698 11.005 26.0732 10.8489 30.5" stroke="black"/>
<path d="M18.1428 18.0714C17.0806 20.3698 14.995 26.0732 15.1511 30.5" stroke="black"/>
</svg>
