<svg width="25" height="25" viewBox="0 0 25 25" fill="none" xmlns="http://www.w3.org/2000/svg">
<path d="M17.1896 11.7826C16.3479 11.7826 15.6625 12.4598 15.6597 13.2959C15.6566 14.1276 16.3454 14.8199 17.1786 14.8219C18.0139 14.8245 18.7001 14.1381 18.6996 13.302C18.6991 12.4634 18.0218 11.7826 17.1896 11.7826ZM17.1896 14.0716C16.7584 14.0716 16.4113 13.7309 16.4124 13.3086C16.4129 12.8698 16.7494 12.5314 17.1847 12.5309C17.6108 12.5304 17.9599 12.8792 17.9564 13.3035C17.9512 13.7268 17.6083 14.0716 17.1896 14.0716Z" fill="#C0C0C0"/>
<path d="M7.80347 9.59443C5.78301 9.57652 4.02163 11.2627 4.05667 13.4105C4.08966 15.4136 5.74055 17.1118 7.84541 17.0934C9.90347 17.076 11.5579 15.3949 11.5618 13.3594C11.5649 11.2694 9.89043 9.59443 7.80347 9.59443ZM7.86383 15.6267C6.51012 15.6885 5.41779 14.6095 5.42009 13.2993C5.42265 11.9717 6.51651 10.9561 7.75385 10.9786C9.03851 10.977 10.0812 12.0141 10.0776 13.2983C10.0743 14.598 9.04976 15.5727 7.86383 15.6267Z" fill="#C0C0C0"/>
<path d="M12.5 0C5.59667 0 0 5.59667 0 12.5C0 19.4033 5.59667 25 12.5 25C19.4033 25 25 19.4033 25 12.5C25 5.59667 19.4033 0 12.5 0ZM19.6857 17.3535C18.9225 17.8384 18.0788 18.0683 17.1775 18.0731C16.799 18.0757 16.4217 18.0248 16.0522 17.9289C15.1514 17.6951 14.3783 17.2455 13.7414 16.5657C13.657 16.4762 13.578 16.3834 13.489 16.2824C13.1524 16.7839 12.8212 17.2778 12.4816 17.7839C12.144 17.279 11.8166 16.79 11.491 16.3038C11.4685 16.3153 11.4621 16.3169 11.4575 16.3205C11.4501 16.3269 11.4435 16.3348 11.4381 16.3414C10.6678 17.2509 9.69872 17.8079 8.51892 17.9949C7.86215 18.0987 7.21228 18.0616 6.57417 17.8854C5.67059 17.6371 4.9023 17.1606 4.28184 16.4568C3.67545 15.7693 3.29821 14.9703 3.15703 14.0621C2.99514 13.2151 3.19207 12.3977 3.24143 12.1997C3.3844 11.6238 3.63299 11.0944 3.97468 10.6077C3.99872 10.5731 4.00716 10.5118 3.99565 10.4708C3.85627 9.95985 3.61662 9.49488 3.33529 9.04962C3.26394 8.93683 3.17852 8.83222 3.09949 8.72353C3.09949 8.711 3.09949 8.69847 3.09949 8.68568C3.11509 8.68772 3.13095 8.69079 3.14655 8.69079C4.09207 8.6913 5.03811 8.6913 5.98389 8.68977C6.02532 8.68977 6.07084 8.67289 6.10639 8.65038C6.77084 8.22379 7.47903 7.88619 8.22276 7.62327C8.75934 7.43401 9.30665 7.28619 9.86573 7.17775C10.4066 7.0734 10.9501 6.99949 11.4997 6.96343C12.8394 6.8601 13.9105 7.00179 14.6228 7.10128C15.1478 7.17519 15.6621 7.30767 16.1703 7.46343C17.0575 7.73657 17.8941 8.11637 18.6813 8.60844C18.7358 8.64246 18.8092 8.66394 18.8737 8.66394C19.7977 8.66803 20.722 8.6665 21.646 8.66752C21.7205 8.66752 21.7949 8.67545 21.8688 8.67954C21.8688 8.69744 21.8714 8.70512 21.8683 8.70946C21.8253 8.77545 21.7813 8.84143 21.7384 8.90767C21.4251 9.38824 21.157 9.89182 20.9985 10.4476C20.9816 10.5069 20.9775 10.557 21.0179 10.6159C21.8412 11.7977 22.1031 13.0949 21.7593 14.4936C21.4573 15.7199 20.7545 16.676 19.6857 17.3535Z" fill="#C0C0C0"/>
<path d="M7.73297 11.7826C6.91226 11.7841 6.22453 12.4769 6.22632 13.3007C6.22837 14.1345 6.91558 14.8202 7.75139 14.8222C8.58208 14.8243 9.27031 14.1324 9.26852 13.2966C9.26596 12.4529 8.58412 11.781 7.73297 11.7826ZM7.75215 14.0795C7.31149 14.08 6.97185 13.7399 6.97185 13.2966C6.97185 12.8616 7.31098 12.524 7.75011 12.5235C8.18208 12.523 8.5299 12.8682 8.53195 13.2997C8.53323 13.7273 8.18259 14.078 7.75215 14.0795Z" fill="#C0C0C0"/>
<path d="M17.1105 9.60871C15.0596 9.65065 13.4544 11.3036 13.436 13.3483C13.436 15.4253 15.1215 17.1223 17.191 17.1143C19.2685 17.1069 20.946 15.4578 20.9445 13.3578C20.9435 11.1934 19.1874 9.56625 17.1105 9.60871ZM17.2793 15.6271C15.9312 15.679 14.8524 14.6041 14.8529 13.3013C14.8534 11.9831 15.9404 10.956 17.1833 10.9785C18.469 10.976 19.5105 12.0115 19.5105 13.2959C19.5102 14.5849 18.4867 15.5811 17.2793 15.6271Z" fill="#C0C0C0"/>
<path d="M13.9979 9.88211C14.8286 9.11996 15.8181 8.72022 16.9406 8.63531C15.6084 8.04349 14.2038 7.79157 12.7578 7.7637C11.1148 7.73173 9.51634 7.97393 7.98975 8.61434C9.13118 8.68365 10.1337 9.08186 10.9808 9.85168C11.8261 10.621 12.3215 11.5796 12.5013 12.7074C12.6864 11.5929 13.1683 10.6427 13.9979 9.88211Z" fill="#C0C0C0"/>
</svg>
