<svg width="46" height="46" viewBox="0 0 46 46" fill="none" xmlns="http://www.w3.org/2000/svg">
<g clip-path="url(#clip0)">
<path d="M43.5107 18.4773C43.1194 18.4773 42.7653 18.2128 42.6517 17.8394C42.5409 17.4752 42.679 17.0701 42.9879 16.8483C43.2802 16.6383 43.6791 16.6276 43.9848 16.8158C44.2992 17.0093 44.4646 17.392 44.3919 17.7539C44.3087 18.1692 43.9346 18.4773 43.5107 18.4773Z" fill="#222222"/>
<path d="M26.4153 24.9251C25.4278 24.9251 24.4404 24.5493 23.6887 23.7975L19.3711 19.4799C18.0907 18.1994 18.0907 16.1158 19.3711 14.8353C20.6516 13.5547 22.7352 13.5548 24.0158 14.8352L26.4153 17.2348L32.4542 11.1958C33.7348 9.91533 35.8183 9.91533 37.0989 11.1958C38.3794 12.4763 38.3794 14.5599 37.0989 15.8404L29.142 23.7974C28.3902 24.5493 27.4027 24.9251 26.4153 24.9251ZM21.6934 15.6709C21.3124 15.6709 20.9316 15.8159 20.6417 16.1058C20.0618 16.6858 20.0618 17.6294 20.6417 18.2093L24.9593 22.527C25.7621 23.3298 27.0686 23.3298 27.8713 22.527L35.8282 14.57C36.4082 13.99 36.4082 13.0464 35.8282 12.4665C35.2484 11.8866 34.3047 11.8866 33.7247 12.4665L27.0505 19.1408C26.882 19.3093 26.6535 19.404 26.4152 19.404C26.1769 19.404 25.9484 19.3093 25.7799 19.1408L22.7451 16.1059C22.4552 15.816 22.0742 15.6709 21.6934 15.6709Z" fill="#6ACA1E"/>
<path d="M43.206 20.8177C42.7257 20.6927 42.2353 20.9811 42.1105 21.4613C42.0884 21.5468 42.0655 21.632 42.0419 21.7167C40.6576 26.6975 36.7904 30.7544 31.8912 32.4033C31.8607 32.3712 31.8297 32.3394 31.7983 32.308L29.685 30.1996C27.8636 28.3824 24.8998 28.3824 23.0783 30.1996L21.6703 31.6044C16.7156 30.0255 14.781 28.0964 13.1984 23.155L14.6049 21.7518C15.488 20.8708 15.9742 19.6993 15.9742 18.4532C15.9742 17.2071 15.4879 16.0356 14.6049 15.1547L12.4915 13.0462C12.3084 12.8636 12.1141 12.6988 11.9107 12.5517C14.0301 6.19437 20.106 1.79688 26.8618 1.79688C34.1301 1.79688 40.4192 6.70639 42.1559 13.7359C42.257 14.1452 42.6238 14.419 43.0274 14.419C43.0987 14.419 43.1712 14.4105 43.2436 14.3926C43.7253 14.2736 44.0193 13.7866 43.9003 13.305C42.9779 9.57141 40.7982 6.19131 37.7626 3.78745C34.634 1.30965 30.8644 0 26.8618 0C23.003 0 19.3418 1.22583 16.2741 3.54505C13.5118 5.63329 11.4018 8.53866 10.2728 11.7879C8.67996 11.3861 6.91983 11.8055 5.67603 13.0464L3.63918 15.0785C2.05452 16.6595 0.665263 18.8264 2.37742 22.911C2.60912 23.4636 3.10452 24.2241 3.89191 25.2359C3.90638 25.2544 3.92147 25.2722 3.93719 25.2896L5.47235 26.972C5.48179 26.9824 5.49158 26.9926 5.50146 27.0025L17.8154 39.2877C17.8253 39.2977 17.8355 39.3073 17.8459 39.3168L19.5324 40.8484C19.5497 40.8642 19.5677 40.8793 19.5862 40.8936C20.6002 41.6791 21.3622 42.1732 21.9157 42.4042C23.2484 42.9602 24.377 43.1881 25.3482 43.1881C27.2476 43.188 28.5441 42.316 29.5822 41.3212L33.3092 45.0482C33.9231 45.6621 34.7393 46.0002 35.6076 46.0002C36.4758 46.0002 37.292 45.6621 37.9059 45.0482C38.5198 44.4343 38.8579 43.6181 38.8579 42.7498C38.8579 41.8816 38.5199 41.0653 37.906 40.4514L35.8143 38.3597L38.5281 35.6459C38.879 35.295 38.879 34.7261 38.528 34.3753C38.1772 34.0245 37.6083 34.0245 37.2575 34.3753L33.9084 37.7244C33.5576 38.0752 33.5576 38.6441 33.9084 38.995L36.6355 41.722C36.91 41.9966 37.0611 42.3615 37.0611 42.7497C37.0611 43.1379 36.9099 43.5029 36.6354 43.7774C36.3609 44.052 35.9959 44.2031 35.6077 44.2031C35.2194 44.2031 34.8544 44.0519 34.5799 43.7774L30.8562 40.0536L31.7985 39.1136C32.7094 38.2048 33.211 36.9964 33.211 35.7108C33.211 35.102 33.0984 34.5103 32.8831 33.9597C35.3371 33.064 37.5813 31.6175 39.4185 29.7401C41.4823 27.631 42.9882 25.023 43.7734 22.1977C43.7996 22.1032 43.8251 22.0084 43.8498 21.9132C43.9744 21.433 43.6863 20.9426 43.206 20.8177ZM30.5292 37.8415L28.4923 39.8736C27.2531 41.11 25.8702 42.107 22.6076 40.7458C22.3844 40.6526 21.8426 40.3663 20.7142 39.4944L19.0695 38.0007L6.78551 25.7453L5.28835 24.1045C4.41453 22.9792 4.12775 22.4388 4.0344 22.2162C2.6712 18.964 3.66982 17.5858 4.90813 16.3504L6.94498 14.3182C8.12418 13.1417 10.043 13.1417 11.2222 14.3182L13.3355 16.4267C13.8782 16.9681 14.177 17.6877 14.177 18.4532C14.177 19.2186 13.8781 19.9383 13.3355 20.4798L11.5441 22.2671C11.3091 22.5015 11.2225 22.8463 11.3189 23.1639C12.2832 26.3425 13.356 28.3586 14.9059 29.905C16.4557 31.4512 18.4761 32.5213 21.6616 33.4831C21.978 33.5786 22.3217 33.4925 22.5559 33.259L24.3473 31.4717C25.4689 30.3527 27.2941 30.3526 28.4157 31.4717L30.529 33.5801C31.0996 34.1493 31.4137 34.906 31.4137 35.7108C31.4139 36.5156 31.0997 37.2723 30.5292 37.8415Z" fill="#222222"/>
</g>
<defs>
<clipPath id="clip0">
<rect width="46" height="46" fill="white"/>
</clipPath>
</defs>
</svg>
