<svg width="66" height="62" viewBox="0 0 66 62" fill="none" xmlns="http://www.w3.org/2000/svg">
<g clip-path="url(#clip0)">
<path d="M39.7827 34.8331C39.4011 34.4749 38.7827 34.4749 38.4012 34.8331C35.7492 37.3246 31.4337 37.3246 28.7817 34.8331C28.4001 34.4749 27.7818 34.4749 27.4002 34.8331C27.0188 35.1915 27.0188 35.7724 27.4002 36.1309C29.1071 37.7341 31.3492 38.536 33.5914 38.536C35.8336 38.536 38.0756 37.7343 39.7825 36.1309C40.1641 35.7723 40.1641 35.1914 39.7827 34.8331Z" fill="#222222"/>
<path d="M44.2568 42.2534C47.1289 39.9491 49.0716 36.7882 49.7446 33.3352C52.4983 32.4415 54.4824 29.9834 54.4824 27.0966V20.349C54.4824 19.1577 53.4507 18.1886 52.1825 18.1886H50.0111V11.9082C50.0111 11.8953 50.0097 11.8827 50.009 11.87C50.0084 11.8557 50.0081 11.8416 50.0067 11.8272C50.0049 11.807 50.0017 11.7876 49.9985 11.7678C49.9966 11.7568 49.9954 11.7458 49.9932 11.7349C49.9881 11.7099 49.9816 11.6856 49.9743 11.6615C49.9729 11.6565 49.972 11.6514 49.9705 11.6465C49.9702 11.6455 49.9693 11.6428 49.9688 11.6413C49.9676 11.6375 49.9664 11.6336 49.9651 11.6299C49.8978 11.4274 49.25 9.60508 47.2354 7.91535C45.3944 6.3714 42.0086 4.6319 36.2589 4.99045C35.6831 4.57086 34.401 3.79744 31.9262 2.97376C27.3899 1.4636 21.0451 0.463735 13.0687 0.00176318C12.6223 -0.0242719 12.2108 0.240317 12.0765 0.643074C11.942 1.04571 12.1174 1.48249 12.5014 1.70155L20.522 6.27961L8.55556 8.08633C8.11367 8.15317 7.77671 8.49332 7.73752 8.91219C7.69846 9.33093 7.96736 9.72109 8.39017 9.85914L16.6701 12.5609V18.1887H14.8445C13.5763 18.1887 12.5447 19.1579 12.5447 20.3491V27.0967C12.5447 29.8522 14.3522 32.2174 16.9114 33.2042C17.213 34.8355 17.7926 36.4015 18.6397 37.8667C18.8167 38.173 19.1525 38.3466 19.499 38.3466C19.6564 38.3466 19.8163 38.3108 19.9643 38.2353C20.4385 37.9934 20.6138 37.4365 20.3565 36.9911C19.7481 35.9386 19.2978 34.8268 19.0079 33.6736C19.1937 33.6876 19.3808 33.6966 19.5703 33.6966H25.8754C29.7493 33.6966 32.9009 30.736 32.9009 27.0969V23.3777H34.126V27.0969C34.126 30.736 37.2776 33.6966 41.1514 33.6966H47.4566C47.5278 33.6966 47.5984 33.6936 47.6691 33.6917C46.1446 39.6825 40.2829 44.0998 33.6659 44.0998H33.0146C29.9395 44.0998 27.0003 43.1907 24.5148 41.4712C24.0805 41.1707 23.4691 41.2578 23.1491 41.6659C22.8293 42.0739 22.922 42.6482 23.3564 42.9488C25.0725 44.1361 26.98 44.981 28.9966 45.4628V45.6348H21.8643C21.4905 45.6348 21.1494 45.8353 20.986 46.1511C20.8224 46.4669 20.8651 46.8426 21.0959 47.1189L21.7442 47.895H19.2902C15.5268 47.895 12.4653 50.7712 12.4653 54.3063C12.4653 54.8132 12.9025 55.2238 13.4421 55.2238C13.9817 55.2238 14.4188 54.813 14.4188 54.3063C14.4188 51.7829 16.6041 49.7301 19.2902 49.7301H23.2773L28.9622 56.5349V60.1654H13.4423C12.9027 60.1654 12.4655 60.5761 12.4655 61.083C12.4655 61.5899 12.9028 62.0006 13.4423 62.0006H53.2877C53.8273 62.0006 54.2646 61.5898 54.2646 61.083V54.3065C54.2646 50.7712 51.2028 47.8951 47.4397 47.8951H45.2249L45.8732 47.119C46.1038 46.8428 46.1467 46.467 45.9832 46.1512C45.8197 45.8354 45.4786 45.6349 45.1048 45.6349H37.7707V45.4374C40.1404 44.8546 42.363 43.7728 44.2568 42.2534ZM52.5287 24.8248H36.0796V23.3775H52.5287V24.8248ZM14.4981 23.3774H30.9473V24.8247H14.4981V23.3774ZM25.8754 31.8615H19.5703C19.1114 31.8615 18.6669 31.8029 18.2439 31.6951C18.1368 31.6412 18.0185 31.6062 17.8942 31.5929C16.8907 31.2618 16.0312 30.6425 15.4277 29.8409H30.0176C29.0984 31.0619 27.5848 31.8615 25.8754 31.8615ZM30.9474 27.0967H30.9473C30.9473 27.4075 30.9144 27.7112 30.8537 28.0057H14.592C14.5311 27.7112 14.4984 27.4075 14.4984 27.0967V26.6599H30.9476V27.0967H30.9474ZM35.1028 21.5404H31.9242C31.9131 21.5404 31.9024 21.5416 31.8913 21.542H14.4981V20.3489C14.4981 20.1698 14.6536 20.0238 14.8444 20.0238H20.9194C21.4591 20.0238 21.8963 19.6131 21.8963 19.1063C21.8963 18.5995 21.4591 18.1888 20.9194 18.1888H18.6235V13.0245L20.9323 13.4522C21.4612 13.5499 21.9753 13.2267 22.0797 12.7295C22.1841 12.2325 21.8396 11.7498 21.3104 11.6517L17.9029 11.0204L12.6931 9.32027L23.4522 7.69605C23.8563 7.63501 24.1772 7.34366 24.2558 6.96621C24.3344 6.58889 24.1543 6.20551 23.8044 6.00582L17.0142 2.1301C31.4151 3.41587 35.0528 6.41887 35.2238 6.5677C35.4273 6.783 35.7047 6.87261 36.0112 6.84791C43.5963 6.25552 46.5916 9.51148 47.6244 11.2051L32.2954 13.687L28.989 13.0743C28.4598 12.9766 27.946 13.2998 27.8416 13.797C27.7372 14.2941 28.0817 14.7767 28.6109 14.8748L32.0943 15.5203C32.1567 15.5319 32.22 15.5376 32.2833 15.5376C32.3387 15.5376 32.3944 15.5332 32.4491 15.5243L48.0569 12.9973V18.1886H39.7744C39.7061 18.1744 39.6349 18.1668 39.562 18.1668H30.3792C29.8396 18.1668 29.4025 18.5775 29.4025 19.0843C29.4025 19.5911 29.8397 20.0019 30.3792 20.0019H39.3497C39.418 20.0161 39.4891 20.0237 39.5621 20.0237H52.1821C52.3732 20.0237 52.5286 20.1696 52.5286 20.349V21.5421H35.1356C35.1246 21.5416 35.1138 21.5404 35.1028 21.5404ZM36.1733 28.0057C36.1124 27.7112 36.0796 27.4075 36.0796 27.0967V26.6599H52.5287V27.0967C52.5287 27.4075 52.4959 27.7112 52.4352 28.0057H36.1733ZM47.4567 31.8615H41.1515C39.442 31.8615 37.9283 31.0619 37.0091 29.8409H51.5991C50.6798 31.0619 49.1664 31.8615 47.4567 31.8615ZM47.4395 49.7297C50.1257 49.7297 52.3109 51.7824 52.3109 54.3058V60.1647H38.017V56.522L43.6917 49.7295H47.4395V49.7297ZM37.9563 47.4697H43.0966L37.9767 53.5979C37.9536 51.2495 37.939 48.7227 37.9563 47.4697ZM30.9504 45.8112C31.6306 45.8921 32.3195 45.9347 33.015 45.9347H33.6662C34.3885 45.9347 35.1068 45.8891 35.8171 45.7997V48.6211C35.8171 49.8814 34.7254 50.9069 33.3838 50.9069C32.151 50.9069 31.1318 50.0405 30.9741 48.9222C30.974 48.6108 30.9732 48.3286 30.9717 48.0771C30.9688 47.5925 30.9632 47.2146 30.9549 46.9535C30.9536 46.9128 30.9522 46.8717 30.9507 46.8309V45.8112H30.9504ZM28.9927 53.5978L23.8729 47.4697H28.9967V48.6211C28.9967 48.766 29.0049 48.9091 29.0205 49.0502C29.0199 50.3508 29.0083 52.0145 28.9927 53.5978ZM36.0636 60.1648H30.9164V56.2196H30.9162C30.9183 56.0695 30.9434 54.1359 30.9599 52.0536C31.6549 52.4881 32.4882 52.742 33.3839 52.742C34.3674 52.742 35.2764 52.4362 36.0088 51.9209C36.0257 54.1273 36.0531 56.2065 36.0537 56.2288C36.0542 56.264 36.0591 56.2984 36.0637 56.3327V60.1648H36.0636Z" fill="#222222"/>
<path d="M61.7109 41.8322L58.5647 40.2157L56.8439 37.2602C56.6726 36.9659 56.3439 36.783 55.987 36.783C55.63 36.783 55.3013 36.9659 55.13 37.2602L53.4091 40.2157L50.2629 41.8322C49.9497 41.9931 49.7549 42.3019 49.7549 42.6372C49.7549 42.9725 49.9497 43.2813 50.2629 43.4423L53.4091 45.0587L55.13 48.0143C55.3013 48.3085 55.63 48.4915 55.987 48.4915C56.3439 48.4915 56.6726 48.3085 56.8439 48.0143L58.5647 45.0587L61.7109 43.4423C62.0242 43.2813 62.2189 42.9725 62.2189 42.6372C62.2189 42.3018 62.0242 41.993 61.7109 41.8322ZM57.3763 43.5775C57.2124 43.6617 57.0776 43.7883 56.9881 43.9422L55.987 45.6617L54.9859 43.9422C54.8963 43.7882 54.7615 43.6617 54.5976 43.5775L52.7673 42.6371L54.5976 41.6967C54.7616 41.6125 54.8963 41.4859 54.9859 41.332L55.987 39.6125L56.9881 41.332C57.0776 41.486 57.2125 41.6125 57.3763 41.6967L59.2067 42.6371L57.3763 43.5775Z" fill="#6ACA1E"/>
<path d="M15.737 37.6723L12.5908 36.0558L10.8701 33.1003C10.6987 32.806 10.37 32.623 10.0131 32.623C9.65615 32.623 9.32744 32.806 9.15612 33.1003L7.43536 36.0558L4.28915 37.6723C3.9759 37.8332 3.78113 38.142 3.78113 38.4773C3.78113 38.8126 3.9759 39.1214 4.28915 39.2824L7.43536 40.899L9.15612 43.8545C9.32744 44.1487 9.65615 44.3317 10.0131 44.3317C10.37 44.3317 10.6987 44.1487 10.8701 43.8545L12.5908 40.899L15.737 39.2824C16.0503 39.1214 16.2451 38.8126 16.2451 38.4773C16.2452 38.142 16.0503 37.8332 15.737 37.6723ZM11.4026 39.4179C11.2386 39.502 11.1039 39.6286 11.0142 39.7826L10.0131 41.502L9.01201 39.7826C8.92242 39.6286 8.78758 39.502 8.62374 39.4179L6.7934 38.4773L8.62374 37.5369C8.78771 37.4527 8.92242 37.3261 9.01201 37.1722L10.0131 35.4528L11.0142 37.1722C11.1038 37.3262 11.2386 37.4527 11.4024 37.5369L13.2328 38.4773L11.4026 39.4179Z" fill="#6ACA1E"/>
</g>
<defs>
<clipPath id="clip0">
<rect width="66" height="62" fill="white"/>
</clipPath>
</defs>
</svg>
