<svg width="48" height="48" viewBox="0 0 48 48" fill="none" xmlns="http://www.w3.org/2000/svg">
<path d="M46.9091 20.7273C46.2546 20.7273 45.8182 21.1637 45.8182 21.8181V26.1817V32.7272V33.818C45.8182 35.018 44.8364 35.9999 43.6364 35.9999H41.4546C39.6 35.9999 38.1818 37.418 38.1818 39.2726V41.4545C38.1818 42.6545 37.2 43.6363 36 43.6363H30.5454H3.27272C2.61816 43.6363 2.18184 43.1999 2.18184 42.5454V21.8181C2.18184 21.1636 1.74544 20.7273 1.09097 20.7273C0.4365 20.7273 0 21.1636 0 21.8181V42.5454C0 44.4 1.41816 45.8181 3.27272 45.8181H30.5454H36H37.4182C38.8363 45.8181 40.2546 45.2727 41.2363 44.1817L46.3636 39.0545C47.3454 38.0726 48 36.6545 48 35.2363V33.8181V32.7273V26.1818V21.8182C48 21.1636 47.5636 20.7273 46.9091 20.7273ZM40.2546 42.2181C40.2546 42 40.3637 41.7817 40.3637 41.4545V39.2727C40.3637 38.6181 40.8001 38.1818 41.4546 38.1818H43.6364C43.8546 38.1818 44.0728 38.1818 44.4 38.0727L40.2546 42.2181Z" fill="#222222"/>
<path d="M44.7273 5.4546H37.0909V3.27276C37.0909 2.6182 36.6545 2.18188 36 2.18188C35.3455 2.18188 34.9091 2.61829 34.9091 3.27276V5.4546H13.0909V3.27276C13.0909 2.6182 12.6545 2.18188 12 2.18188C11.3455 2.18188 10.9091 2.61829 10.9091 3.27276V5.4546H3.27272C1.41816 5.4546 0 6.87276 0 8.72732V17.4546C0 18.1092 0.436406 18.5455 1.09088 18.5455H46.909C47.5636 18.5455 47.9999 18.1091 47.9999 17.4546V8.72732C48 6.87276 46.5818 5.4546 44.7273 5.4546ZM45.8182 16.3636H2.18184V8.72732C2.18184 8.07276 2.61825 7.63645 3.27272 7.63645H10.9091V10.1456C10.2546 10.4729 9.81825 11.2364 9.81825 12.0001C9.81825 13.2001 10.8001 14.182 12.0001 14.182C13.2001 14.182 14.1818 13.2 14.1818 12C14.1818 11.2364 13.7454 10.4728 13.091 10.1455V7.63645H34.9091V10.1456C34.2546 10.4729 33.8183 11.2364 33.8183 12.0001C33.8183 13.2001 34.8001 14.182 36.0001 14.182C37.2001 14.182 38.1818 13.2 38.1818 12C38.1818 11.2364 37.7454 10.4728 37.091 10.1455V7.63645H44.7274C45.3819 7.63645 45.8183 8.07285 45.8183 8.72732V16.3636H45.8182Z" fill="#222222"/>
<path d="M19.6364 27.2727C20.8414 27.2727 21.8183 26.2959 21.8183 25.0909C21.8183 23.8859 20.8414 22.909 19.6364 22.909C18.4314 22.909 17.4546 23.8859 17.4546 25.0909C17.4546 26.2959 18.4314 27.2727 19.6364 27.2727Z" fill="#6ACA1E"/>
<path d="M28.3637 27.2727C29.5687 27.2727 30.5456 26.2959 30.5456 25.0909C30.5456 23.8859 29.5687 22.909 28.3637 22.909C27.1587 22.909 26.1819 23.8859 26.1819 25.0909C26.1819 26.2959 27.1587 27.2727 28.3637 27.2727Z" fill="#6ACA1E"/>
<path d="M37.0908 27.2727C38.2958 27.2727 39.2726 26.2959 39.2726 25.0909C39.2726 23.8859 38.2958 22.909 37.0908 22.909C35.8858 22.909 34.9089 23.8859 34.9089 25.0909C34.9089 26.2959 35.8858 27.2727 37.0908 27.2727Z" fill="#6ACA1E"/>
<path d="M10.9091 37.091C12.1141 37.091 13.091 36.1141 13.091 34.9091C13.091 33.7041 12.1141 32.7273 10.9091 32.7273C9.70414 32.7273 8.72729 33.7041 8.72729 34.9091C8.72729 36.1141 9.70414 37.091 10.9091 37.091Z" fill="#6ACA1E"/>
<path d="M19.6364 37.091C20.8414 37.091 21.8183 36.1141 21.8183 34.9091C21.8183 33.7041 20.8414 32.7273 19.6364 32.7273C18.4314 32.7273 17.4546 33.7041 17.4546 34.9091C17.4546 36.1141 18.4314 37.091 19.6364 37.091Z" fill="#6ACA1E"/>
<path d="M28.3637 37.091C29.5687 37.091 30.5456 36.1141 30.5456 34.9091C30.5456 33.7041 29.5687 32.7273 28.3637 32.7273C27.1587 32.7273 26.1819 33.7041 26.1819 34.9091C26.1819 36.1141 27.1587 37.091 28.3637 37.091Z" fill="#6ACA1E"/>
</svg>
