<svg width="71" height="71" viewBox="0 0 71 71" fill="none" xmlns="http://www.w3.org/2000/svg">
<path d="M58.8516 5.54688V6.04688H59.3516H62.6797C66.9914 6.04688 70.5 9.55551 70.5 13.8672V62.6797C70.5 66.9914 66.9914 70.5 62.6797 70.5H8.32031C4.00863 70.5 0.5 66.9914 0.5 62.6797V13.8672C0.5 9.55551 4.00863 6.04688 8.32031 6.04688H11.6484H12.1484V5.54688V0.5H16.6953V5.54688V6.04688H17.1953H53.8047H54.3047V5.54688V0.5H58.8516V5.54688ZM5.54688 25.5703H5.04688V26.0703V62.6797C5.04688 64.4851 6.5149 65.9531 8.32031 65.9531H62.6797C64.4851 65.9531 65.9531 64.4851 65.9531 62.6797V26.0703V25.5703H65.4531H5.54688ZM65.4531 21.0234H65.9531V20.5234V13.8672C65.9531 12.0618 64.4851 10.5938 62.6797 10.5938H59.3516H58.8516V11.0938V16.1406H54.3047V11.0938V10.5938H53.8047H17.1953H16.6953V11.0938V16.1406H12.1484V11.0938V10.5938H11.6484H8.32031C6.5149 10.5938 5.04688 12.0618 5.04688 13.8672V20.5234V21.0234H5.54688H65.4531Z" fill="#222222" stroke="#F2F2F2"/>
<path fill-rule="evenodd" clip-rule="evenodd" d="M54.9141 31.8945H60.4609V37.4414H54.9141V31.8945ZM10.5391 42.9883H16.0859V48.5352H10.5391V42.9883ZM27.1797 42.9883H21.6328V48.5352H27.1797V42.9883ZM32.7266 42.9883H38.2734V48.5352H32.7266V42.9883ZM49.3672 42.9883H43.8203V48.5352H49.3672V42.9883ZM10.5391 54.082H16.0859V59.6289H10.5391V54.082ZM27.1797 54.082H21.6328V59.6289H27.1797V54.082ZM32.7266 54.082H38.2734V59.6289H32.7266V54.082ZM49.3672 54.082H43.8203V59.6289H49.3672V54.082ZM54.9141 42.9883H60.4609V48.5352H54.9141V42.9883Z" fill="#222222"/>
<path d="M16.0859 31.8945H10.5391V37.4414H16.0859V31.8945Z" fill="#6ACA1E"/>
<path d="M27.1797 31.8945H21.6328V37.4414H27.1797V31.8945Z" fill="#6ACA1E"/>
<path d="M38.2734 31.8945H32.7266V37.4414H38.2734V31.8945Z" fill="#6ACA1E"/>
<path d="M49.3672 31.8945H43.8203V37.4414H49.3672V31.8945Z" fill="#6ACA1E"/>
</svg>
