<svg width="46" height="46" viewBox="0 0 46 46" fill="none" xmlns="http://www.w3.org/2000/svg">
<path d="M19.3226 41.1421C19.1556 40.9749 18.9238 40.8789 18.6875 40.8789C18.4512 40.8789 18.2194 40.9749 18.0523 41.1421C17.8852 41.3093 17.7891 41.5411 17.7891 41.7773C17.7891 42.0136 17.8851 42.2454 18.0523 42.4124C18.2194 42.5796 18.4512 42.6758 18.6875 42.6758C18.9238 42.6758 19.1556 42.5796 19.3226 42.4124C19.4898 42.2454 19.5859 42.0136 19.5859 41.7773C19.5859 41.5411 19.4898 41.3093 19.3226 41.1421Z" fill="#222222"/>
<path d="M31.39 2.50635H25.7505C25.2544 2.50635 24.8521 2.90858 24.8521 3.40479C24.8521 3.90099 25.2544 4.30322 25.7505 4.30322H31.39C31.8861 4.30322 32.2884 3.90099 32.2884 3.40479C32.2884 2.90858 31.8861 2.50635 31.39 2.50635Z" fill="#222222"/>
<path d="M40.7891 20.3047C41.2852 20.3047 41.6875 19.9025 41.6875 19.4062V3.24821C41.6875 1.45709 40.2303 0 38.4393 0H18.7013C16.9103 0 15.4531 1.45709 15.4531 3.24821V9.45192C12.8598 11.5549 10.7218 14.2366 9.25624 17.2354C7.72575 20.3673 6.9168 23.8653 6.9168 27.3511V36.7461H6.10938C5.11858 36.7461 4.3125 37.5522 4.3125 38.543V45.1016C4.3125 45.5977 4.71482 46 5.21094 46C5.70705 46 6.10938 45.5977 6.10938 45.1016V38.543H22.0505V45.1016C22.0505 45.5977 22.4529 46 22.949 46C23.4451 46 23.8474 45.5977 23.8474 45.1016V41.1484H38.4393C40.2303 41.1484 41.6875 39.6913 41.6875 37.9002V26.8749C41.6875 26.3788 41.2852 25.9764 40.7891 25.9764C40.2929 25.9764 39.8906 26.3788 39.8906 26.8749V33.5117H26.4207L29.278 29.4855C29.9596 28.5251 30.0473 27.2786 29.5068 26.2323C28.9663 25.186 27.899 24.536 26.7213 24.536C26.0512 24.536 25.3861 24.7564 24.8484 25.1569L19.174 29.3842C18.9675 29.538 18.7119 29.6227 18.4544 29.6227C17.7902 29.6227 17.25 29.0824 17.25 28.4183V27.3125V6.8319H39.8906V19.4062C39.8906 19.9025 40.2929 20.3047 40.7891 20.3047ZM39.8906 35.3086V37.9002C39.8906 38.7005 39.2395 39.3516 38.4393 39.3516H23.8474V38.543C23.8474 37.9531 23.5604 37.4303 23.1202 37.1026C23.8683 36.6138 24.5447 36.0104 25.1205 35.3068C25.1324 35.3072 25.1442 35.3086 25.1562 35.3086H39.8906ZM18.4544 31.4196C19.0962 31.4196 19.7329 31.2085 20.2475 30.8252L25.9218 26.5979C26.1514 26.427 26.4353 26.3328 26.7212 26.3328C27.2316 26.3328 27.676 26.6035 27.9101 27.057C28.1443 27.5103 28.1078 28.0294 27.8125 28.4455L24.0212 33.788C22.7067 35.6402 20.5659 36.7461 18.2946 36.7461H8.71368V27.3511C8.71368 21.3939 11.1484 15.8354 15.4531 11.8283V27.3125V28.4183C15.4531 30.0732 16.7995 31.4196 18.4544 31.4196ZM17.25 5.03502V3.24821C17.25 2.44797 17.9011 1.79688 18.7013 1.79688H38.4392C39.2395 1.79688 39.8906 2.44797 39.8906 3.24821V5.03502H17.25Z" fill="#222222"/>
<path d="M29.2054 36.6185C29.0384 36.4514 28.8066 36.3552 28.5703 36.3552C28.334 36.3552 28.1022 36.4513 27.9351 36.6185C27.768 36.7855 27.6719 37.0173 27.6719 37.2536C27.6719 37.4909 27.7679 37.7217 27.9351 37.8888C28.1022 38.0569 28.334 38.152 28.5703 38.152C28.8066 38.152 29.0384 38.0568 29.2054 37.8888C29.3725 37.7217 29.4688 37.4908 29.4688 37.2536C29.4688 37.0173 29.3726 36.7855 29.2054 36.6185Z" fill="#222222"/>
<path d="M35.3414 14.266C34.9635 13.8024 34.4037 13.5365 33.8056 13.5365H31.3507L30.59 12.2187C30.3419 11.789 29.7924 11.6418 29.3627 11.8899C28.933 12.138 28.7857 12.6874 29.0339 13.1172L29.2759 13.5365H27.8649L28.1069 13.1172C28.3551 12.6874 28.2078 12.138 27.7781 11.8899C27.3482 11.6417 26.7991 11.789 26.5509 12.2187L25.7901 13.5365H23.3351C22.737 13.5365 22.1772 13.8023 21.7993 14.266C21.4214 14.7297 21.2738 15.3315 21.3944 15.9173L22.5763 21.658C22.7651 22.5745 23.5813 23.2396 24.5169 23.2396H32.6238C33.5595 23.2396 34.3756 22.5745 34.5645 21.6579L35.7463 15.9173C35.8669 15.3315 35.7193 14.7296 35.3414 14.266ZM33.9864 15.555L32.8047 21.2954C32.7871 21.3808 32.7111 21.4428 32.6239 21.4428H24.517C24.4298 21.4428 24.3539 21.3808 24.3363 21.2956L23.1545 15.5551C23.1398 15.4841 23.167 15.4323 23.1921 15.4014C23.2174 15.3704 23.2628 15.3334 23.3352 15.3334H24.7527L24.2427 16.2169C23.9945 16.6466 24.1418 17.1961 24.5715 17.4441C24.713 17.5258 24.8675 17.5646 25.0198 17.5646C25.3303 17.5646 25.6323 17.4035 25.7988 17.1153L26.8276 15.3334H30.3133V15.3333L31.3421 17.1152C31.5086 17.4034 31.8105 17.5645 32.1211 17.5645C32.2734 17.5645 32.428 17.5257 32.5694 17.444C32.9991 17.196 33.1464 16.6465 32.8982 16.2168L32.3882 15.3333H33.8057C33.8781 15.3333 33.9235 15.3703 33.9488 15.4013C33.9739 15.4323 34.001 15.4841 33.9864 15.555Z" fill="#6ACA1E"/>
<path d="M41.4242 22.3648C41.2571 22.1977 41.0254 22.1016 40.7891 22.1016C40.5528 22.1016 40.321 22.1977 40.1539 22.3648C39.9868 22.5319 39.8906 22.7637 39.8906 23C39.8906 23.2363 39.9867 23.4681 40.1539 23.6351C40.321 23.8022 40.5528 23.8984 40.7891 23.8984C41.0254 23.8984 41.2571 23.8023 41.4242 23.6351C41.5914 23.4681 41.6875 23.2363 41.6875 23C41.6875 22.7637 41.5914 22.5319 41.4242 22.3648Z" fill="#222222"/>
</svg>
