<svg width="105" height="109" viewBox="0 0 105 109" fill="none" xmlns="http://www.w3.org/2000/svg">
<path d="M59.4984 37.8027L58.5923 39.2999L59.2306 39.6861L59.9513 39.493L59.4984 37.8027ZM52.6828 63.8615L54.19 62.9721L53.6622 62.0777L52.6242 62.1125L52.6828 63.8615ZM59.0047 73.7309L57.581 74.7485L57.9362 75.2454L58.5234 75.4134L59.0047 73.7309ZM77.663 78.1924L78.0315 76.4816L77.663 78.1924ZM91.286 81.4877L92.8454 82.2818L93.7766 80.4533L91.824 79.8224L91.286 81.4877ZM86.4922 88.1639L85.2001 86.9836L85.2001 86.9836L86.4922 88.1639ZM84.9623 89.8938L84.5665 91.5985L85.619 91.8429L86.309 91.0114L84.9623 89.8938ZM70.2187 86.6275L70.5933 84.918L70.2187 86.6275ZM21.4681 75.5856L20.7128 77.1642L20.876 77.2422L21.0517 77.2853L21.4681 75.5856ZM13.7459 66.3286L12.0484 66.7539L13.7459 66.3286ZM87.2804 30.3585L87.7333 32.0488L90.1082 31.4125L88.7293 29.377L87.2804 30.3585ZM49.0419 37.9416C52.4105 37.039 55.8245 37.6249 58.5923 39.2999L60.4044 36.3054C56.8548 34.1575 52.463 33.4015 48.136 34.5609L49.0419 37.9416ZM40.3469 53.0018C38.5891 46.442 42.482 39.6993 49.0419 37.9416L48.136 34.5609C39.709 36.8189 34.7081 45.4807 36.9661 53.9077L40.3469 53.0018ZM52.6242 62.1125C47.0373 62.2997 41.8552 58.6311 40.3469 53.0018L36.9661 53.9077C38.9051 61.1443 45.564 65.8511 52.7415 65.6105L52.6242 62.1125ZM51.1757 64.7509C53.4507 68.606 55.7242 72.1508 57.581 74.7485L60.4284 72.7133C58.6483 70.2228 56.4308 66.7694 54.19 62.9721L51.1757 64.7509ZM58.5234 75.4134C64.8516 77.2237 71.4686 78.6483 77.2945 79.9031L78.0315 76.4816C72.1873 75.2228 65.6839 73.8214 59.486 72.0484L58.5234 75.4134ZM77.2945 79.9031C82.7839 81.0855 87.4997 82.1034 90.748 83.1529L91.824 79.8224C88.3682 78.7059 83.4461 77.6478 78.0315 76.4816L77.2945 79.9031ZM89.7266 80.6935C88.1935 83.704 86.7112 85.3293 85.2001 86.9836L87.7843 89.3441C89.3468 87.6335 91.0915 85.726 92.8454 82.2818L89.7266 80.6935ZM85.2001 86.9836C84.6848 87.5477 84.1464 88.1367 83.6156 88.7763L86.309 91.0114C86.7782 90.446 87.2609 89.9171 87.7843 89.3441L85.2001 86.9836ZM85.3581 88.1892C82.5976 87.5482 77.2451 86.3755 70.5933 84.918L69.8442 88.3369C76.5098 89.7974 81.8332 90.9638 84.5665 91.5985L85.3581 88.1892ZM70.5933 84.918C56.231 81.7712 35.7624 77.2863 21.8846 73.8858L21.0517 77.2853C34.9807 80.6982 55.4972 85.1934 69.8442 88.3369L70.5933 84.918ZM22.2234 74.007C19.2194 72.5696 17.8974 71.5486 17.14 70.5269C16.3662 69.4833 16.037 68.2727 15.4435 65.9033L12.0484 66.7539C12.5996 68.9541 13.062 70.9032 14.3284 72.6114C15.6111 74.3415 17.5779 75.6642 20.7128 77.1642L22.2234 74.007ZM15.4435 65.9033C15.2929 65.3023 15.1266 64.6382 14.9323 63.9133L11.5516 64.8192C11.7374 65.5127 11.8973 66.1507 12.0484 66.7539L15.4435 65.9033ZM14.9323 63.9133C9.21043 42.5589 21.8831 20.6091 43.2376 14.8872L42.3317 11.5065C19.1101 17.7287 5.3294 41.5976 11.5516 64.8192L14.9323 63.9133ZM43.2376 14.8872C60.1079 10.3668 76.5029 17.5691 85.8316 31.34L88.7293 29.377C78.6452 14.4909 60.7771 6.56404 42.3317 11.5065L43.2376 14.8872ZM86.8275 28.6681L59.0454 36.1123L59.9513 39.493L87.7333 32.0488L86.8275 28.6681Z" fill="#222222"/>
<path d="M54.4761 58.5375L55.931 57.5651L55.2408 56.5324L54.0382 56.8432L54.4761 58.5375ZM59.0115 43.899L57.6936 45.0504L58.4111 45.8716L59.4644 45.5894L59.0115 43.899ZM89.8157 35.6451L91.4709 35.0769L90.9406 33.5319L89.3628 33.9547L89.8157 35.6451ZM93.9258 77.4244L93.5245 79.1277L94.8672 79.4441L95.4884 78.2123L93.9258 77.4244ZM62.0856 69.9223L60.6307 70.8948L61.0136 71.4676L61.6843 71.6257L62.0856 69.9223ZM54.0382 56.8432C50.1887 57.8381 46.2487 55.5455 45.2175 51.6969L41.8368 52.6028C43.3656 58.3084 49.2065 61.707 54.914 60.2319L54.0382 56.8432ZM45.2175 51.6969C44.1806 47.827 46.4771 43.8492 50.347 42.8123L49.4411 39.4316C43.7041 40.9688 40.2995 46.8657 41.8368 52.6028L45.2175 51.6969ZM50.347 42.8123C53.1081 42.0725 55.9272 43.0285 57.6936 45.0504L60.3294 42.7477C57.7184 39.759 53.5405 38.3331 49.4411 39.4316L50.347 42.8123ZM89.3628 33.9547L58.5586 42.2087L59.4644 45.5894L90.2686 37.3354L89.3628 33.9547ZM95.4884 78.2123C96.8715 75.4695 97.4533 71.9765 97.5653 68.2675C97.678 64.5317 97.3171 60.4277 96.7019 56.3647C95.4717 48.2403 93.1972 40.1061 91.4709 35.0769L88.1605 36.2132C89.8333 41.0866 92.0488 49.0134 93.2413 56.8887C93.8375 60.8256 94.1711 64.7061 94.0669 68.162C93.9618 71.6447 93.415 74.5507 92.3632 76.6364L95.4884 78.2123ZM61.6843 71.6257L93.5245 79.1277L94.3271 75.721L62.487 68.219L61.6843 71.6257ZM53.0212 59.51L60.6307 70.8948L63.5406 68.9498L55.931 57.5651L53.0212 59.51Z" fill="#6ACA1E"/>
</svg>
