<svg width="56" height="56" viewBox="0 0 56 56" fill="none" xmlns="http://www.w3.org/2000/svg">
<g clip-path="url(#clip0)">
<path d="M55.7267 40.8733C55.5517 40.6983 55.3142 40.6 55.0666 40.6H51.3333V12.6C51.3316 11.0543 50.079 9.80166 48.5333 9.80002H7.46669C5.921 9.80166 4.66833 11.0543 4.66669 12.6V40.6H0.933286C0.68577 40.5999 0.448317 40.6982 0.273208 40.8733C0.098208 41.0483 -0.000120158 41.2858 -0.000120158 41.5334V43.0232C-0.00121391 43.9597 0.466911 44.8344 1.24675 45.3529L1.81091 45.7294C2.27072 46.037 2.81169 46.2009 3.36491 46.2001H52.6347C53.1876 46.201 53.7283 46.0373 54.1879 45.7298L54.752 45.3533C55.5323 44.8349 56.0009 43.96 55.9998 43.0232V41.5334C56.0001 41.2858 55.9018 41.0483 55.7267 40.8733ZM6.53329 12.6C6.53383 12.0848 6.95132 11.6672 7.46658 11.6667H48.5333C49.0485 11.6673 49.4661 12.0848 49.4666 12.6V40.6H6.53329V12.6ZM3.36513 44.3333C3.18083 44.3334 3.00069 44.2788 2.84746 44.1765L2.28144 43.7991C2.0219 43.6263 1.86615 43.3349 1.86669 43.023V42.4665H20.5335L21.9335 44.3332H3.36513V44.3333ZM31.7334 44.3333H24.2665L22.8665 42.4666H33.1334L31.7334 44.3333ZM54.1333 43.0231C54.1338 43.3353 53.9778 43.627 53.7177 43.7997L53.1516 44.177C52.9986 44.2792 52.8188 44.3335 52.6348 44.3333H34.0666L35.4666 42.4666H54.1334V43.0231H54.1333Z" fill="#222222"/>
<path d="M46.6667 13.5333H9.33331C9.08579 13.5332 8.84834 13.6315 8.67323 13.8067C8.49823 13.9817 8.3999 14.2191 8.3999 14.4667V37.8C8.39979 38.0475 8.49812 38.285 8.67323 38.4601C8.84823 38.6351 9.08568 38.7334 9.33331 38.7334H46.6666C46.9141 38.7335 47.1516 38.6352 47.3267 38.4601C47.5017 38.2851 47.6 38.0477 47.6 37.8V14.4667C47.6001 14.2192 47.5018 13.9818 47.3267 13.8067C47.1517 13.6317 46.9142 13.5333 46.6667 13.5333ZM45.7333 36.8667H10.2667V15.4H45.7334V36.8667H45.7333Z" fill="#222222"/>
<path d="M13.0667 20.0667C13.3143 20.067 13.5518 19.9686 13.7265 19.7932L14.6598 18.8599C15.0187 18.4945 15.016 17.9083 14.6539 17.5461C14.2919 17.184 13.7055 17.1814 13.3401 17.5402L12.4068 18.4735C12.1399 18.7404 12.0602 19.1418 12.2046 19.4905C12.349 19.8392 12.6892 20.0666 13.0667 20.0667Z" fill="#6ACA1E"/>
<path d="M13.0667 25.6667C13.3143 25.667 13.5518 25.5686 13.7265 25.3932L20.2598 18.8599C20.6187 18.4945 20.616 17.9083 20.2539 17.5461C19.8918 17.184 19.3055 17.1814 18.9401 17.5402L12.4068 24.0734C12.1399 24.3403 12.0602 24.7417 12.2046 25.0904C12.349 25.4392 12.6892 25.6666 13.0667 25.6667Z" fill="#6ACA1E"/>
</g>
<defs>
<clipPath id="clip0">
<rect width="56" height="56" fill="white"/>
</clipPath>
</defs>
</svg>
