<svg width="47" height="65" viewBox="0 0 47 65" fill="none" xmlns="http://www.w3.org/2000/svg">
<path d="M41.0976 32.6507C44.1961 32.5983 46.7009 30.0631 46.7009 26.9524C46.7009 24.0938 44.5856 21.7203 41.8382 21.3138V18.5936C41.8382 8.50996 33.6346 0.306396 23.551 0.306396C17.0909 0.306396 11.1182 3.78645 7.96368 9.38838C7.70339 9.85071 7.86715 10.4366 8.32948 10.697C8.79156 10.9573 9.37772 10.7936 9.63813 10.3312C10.8451 8.18788 12.5157 6.39415 14.4841 5.04267C14.748 6.50901 15.6901 8.11561 18.3062 8.95801C20.1592 9.55466 22.2306 9.57349 23.5271 9.57349C23.5715 9.57349 23.6152 9.57336 23.6575 9.57336H23.8878C25.1881 9.57247 27.3727 9.57525 29.2763 8.95725C31.7432 8.15655 32.7049 6.65861 33.0155 5.24938C37.1892 8.21808 39.9168 13.0933 39.9168 18.5938V27.4971C39.9168 36.521 32.5753 43.8627 23.5513 43.8627C19.1222 43.8627 14.8284 42.0331 11.7713 38.8427C8.8929 35.8392 7.40052 32.0063 7.56908 28.0504C7.56971 28.0369 7.56996 28.0231 7.56996 28.0096V19.1063C7.56996 18.5756 7.13985 18.1455 6.60916 18.1455C6.07848 18.1455 5.64836 18.5756 5.64836 19.1063V21.3047C2.86478 21.6789 0.710938 24.0682 0.710938 26.9527C0.710938 30.0046 3.12203 32.5039 6.13938 32.6464C6.84797 35.407 8.2898 37.9872 10.3836 40.1721C12.7334 42.6243 15.7363 44.3574 18.9923 45.201V45.9763H15.2353C8.53329 45.9763 3.08072 51.4289 3.08072 58.1309V64.0392C3.08072 64.5699 3.51083 65 4.04152 65H42.8072C43.3379 65 43.768 64.5699 43.768 64.0392V59.7962C43.768 59.2655 43.3379 58.8354 42.8072 58.8354C42.2765 58.8354 41.8464 59.2655 41.8464 59.7962V63.0784H33.2497V48.0785C35.1179 48.4841 36.9138 49.5719 38.4291 51.2462C38.6188 51.4558 38.8798 51.5622 39.1418 51.5622C39.3717 51.5622 39.6025 51.4801 39.7863 51.3138C40.1797 50.9577 40.21 50.3502 39.8538 49.9566C37.7866 47.6728 35.2418 46.303 32.5991 46.0284C32.5016 45.995 32.3976 45.9762 32.2888 45.9762C32.2339 45.9762 32.1804 45.9819 32.1281 45.9907C31.9568 45.9814 31.7853 45.9762 31.6135 45.9762H28.4802V45.1084C34.5334 43.4121 39.326 38.672 41.0976 32.6507ZM41.8382 27.4969V23.268C43.52 23.6504 44.7793 25.1565 44.7793 26.9524C44.7793 28.8466 43.3786 30.4192 41.5586 30.69C41.7422 29.6529 41.8382 28.5859 41.8382 27.4969ZM28.683 7.12928C27.0692 7.65302 25.0797 7.65227 23.8886 7.65151H23.6567C22.4829 7.65024 20.5237 7.65315 18.8952 7.12865C16.5861 6.38518 16.319 5.01196 16.319 4.04358C16.319 4.01427 16.3172 3.98559 16.3147 3.9569C18.5201 2.84031 20.9923 2.228 23.5512 2.228C26.3198 2.228 28.9294 2.92004 31.218 4.13873C31.1846 5.62655 30.3781 6.57914 28.683 7.12928ZM2.63254 26.9524C2.63254 25.13 3.92906 23.6049 5.64824 23.2507V27.9891C5.61084 28.8927 5.65077 29.7899 5.76297 30.6747C3.98731 30.3661 2.63254 28.8151 2.63254 26.9524ZM15.187 52.5332C14.6563 52.5332 14.2262 52.9634 14.2262 53.494V63.0783H5.00257V58.1307H5.00244C5.00244 52.4883 9.59303 47.8978 15.2354 47.8978H18.9924V50.6152C18.9924 52.7671 20.4331 54.5879 22.4003 55.1663C22.345 55.2777 22.3127 55.3966 22.3033 55.5167L19.4467 57.9163L16.1479 55.1455V53.494C16.1478 52.9634 15.7178 52.5332 15.187 52.5332ZM16.1477 63.0783V57.655L18.8284 59.9068C19.0071 60.0568 19.2267 60.1318 19.4464 60.1318C19.6661 60.1318 19.8859 60.0568 20.0644 59.9068L22.7451 57.655V62.7575C22.7451 62.87 22.7655 62.9778 22.8011 63.0783H16.1477ZM23.7059 53.4039C23.6348 53.4039 23.5657 53.4123 23.4991 53.4268C22.0536 53.3058 20.914 52.0914 20.914 50.6152V45.5893C21.7836 45.7174 22.6648 45.7841 23.551 45.7841C24.5754 45.7841 25.5799 45.6981 26.5588 45.5354V50.6152C26.5588 52.1073 25.3944 53.3321 23.9267 53.4306C23.8558 53.4137 23.782 53.4039 23.7059 53.4039ZM31.3283 63.0783H24.6108C24.6464 62.9778 24.6667 62.87 24.6667 62.7575V58.0295L26.9016 59.9067C27.0802 60.0566 27.2998 60.1317 27.5196 60.1317C27.7393 60.1317 27.959 60.0566 28.1376 59.9067L31.3283 57.2267V63.0783ZM31.3283 47.8978V54.7451C31.27 54.776 31.2138 54.8133 31.1611 54.8575L27.5196 57.9163L24.6667 55.52V55.267C26.8386 54.8334 28.4805 52.9127 28.4805 50.6152V47.8978H31.3283Z" fill="#222222"/>
<path d="M30.5245 34.0364C30.149 33.6612 29.5408 33.6612 29.1654 34.0364C26.1904 37.0116 21.3497 37.0116 18.3748 34.0364C17.9994 33.6612 17.3912 33.6612 17.016 34.0364C16.6407 34.4118 16.6407 35.0199 17.016 35.3952C18.878 37.2573 21.3241 38.1884 23.7702 38.1884C26.2163 38.1884 28.6623 37.2571 30.5245 35.3952C30.8997 35.0198 30.8997 34.4115 30.5245 34.0364Z" fill="#222222"/>
<path d="M20.6382 17.7067C19.5158 16.5842 18.0233 15.9659 16.4358 15.9659C14.8483 15.9659 13.3559 16.5842 12.2333 17.7067C11.8581 18.082 11.8581 18.6903 12.2335 19.0654C12.6086 19.4404 13.2169 19.4406 13.5923 19.0653C14.3518 18.3058 15.3616 17.8875 16.4358 17.8875C17.5098 17.8875 18.5197 18.3059 19.2793 19.0653C19.4669 19.2529 19.7128 19.3467 19.9588 19.3467C20.2047 19.3467 20.4506 19.2529 20.6382 19.0654C21.0135 18.6901 21.0135 18.0817 20.6382 17.7067Z" fill="#222222"/>
<path d="M34.0471 17.7067C32.9247 16.5842 31.4322 15.9659 29.8447 15.9659C28.2573 15.9659 26.765 16.5842 25.6423 17.7066C25.267 18.082 25.267 18.6901 25.6423 19.0654C26.0177 19.4404 26.6258 19.4404 27.0012 19.0654C27.7607 18.3058 28.7706 17.8875 29.8447 17.8875C30.9188 17.8875 31.9288 18.3059 32.6882 19.0653C32.8758 19.2529 33.1217 19.3467 33.3677 19.3467C33.6136 19.3467 33.8595 19.2529 34.0471 19.0654C34.4224 18.6901 34.4224 18.0818 34.0471 17.7067Z" fill="#222222"/>
<path d="M36.3522 21.3174H25.6774C25.2266 21.3174 24.8495 21.6281 24.7458 22.0467H22.1725C22.0389 21.6766 21.6856 21.4116 21.2695 21.4116H10.5946C10.0639 21.4116 9.63367 21.8418 9.63367 22.3724V28.0027C9.63367 29.4861 10.8406 30.6929 12.3239 30.6929H19.54C21.0234 30.6929 22.2302 29.4859 22.2302 28.0027V26.9187H24.7165V27.9084C24.7165 29.3918 25.9234 30.5986 27.4067 30.5986H34.6228C36.1062 30.5986 37.313 29.3917 37.313 27.9084V22.2782C37.313 21.7475 36.883 21.3174 36.3522 21.3174ZM11.5554 27.0659V23.3332H14.5513L11.5554 27.0659ZM14.5041 28.7714H12.6501L17.015 23.3334H18.8356L14.6206 28.5848C14.5736 28.6434 14.5355 28.7063 14.5041 28.7714ZM20.3086 28.0028C20.3086 28.4267 19.9639 28.7714 19.54 28.7714H16.9347L20.3086 24.5679V28.0028ZM24.5521 24.9972H22.4869V23.9684H24.5521V24.9972ZM26.6382 27.5566V23.2391H30.1036L26.6382 27.5566ZM30.0325 28.6772H28.2027L32.5675 23.2391H34.3881L30.0974 28.5848C30.0734 28.6145 30.0523 28.6454 30.0325 28.6772ZM35.3915 27.9085C35.3915 28.3323 35.0467 28.6772 34.6229 28.6772H32.487L35.3915 25.0585V27.9085Z" fill="#6ACA1E"/>
</svg>
