<svg width="65" height="65" viewBox="0 0 65 65" fill="none" xmlns="http://www.w3.org/2000/svg">
<path d="M50.4165 32.6762C53.4546 32.5592 55.8906 30.0525 55.8906 26.9862C55.8906 25.6824 55.4492 24.4802 54.7093 23.5191C54.714 23.4804 54.7173 23.4411 54.7173 23.4011V11.6686C54.7173 5.23453 49.4829 0 43.0488 0H15.1036C14.7455 0 14.4172 0.199443 14.252 0.51708L13.3923 2.17052L10.0068 2.39129C9.71864 2.40995 9.45419 2.55772 9.28674 2.79322C9.11929 3.02872 9.06711 3.32706 9.1443 3.6056L11.1067 10.6878C11.2482 11.1988 11.7773 11.4983 12.2882 11.3566C12.799 11.215 13.0985 10.686 12.957 10.1752L11.3096 4.23046L14.057 4.05133C14.3919 4.02962 14.6914 3.83424 14.8461 3.53628L15.6864 1.92004H43.0487C48.4241 1.92004 52.7974 6.29332 52.7974 11.6689V21.9228C52.2895 21.6606 51.7375 21.4727 51.1555 21.3734V18.6349C51.1555 16.7816 50.8765 14.961 50.3269 13.2083C50.5196 13.1998 50.7123 13.1922 50.9055 13.1822C51.4351 13.1549 51.8422 12.7036 51.8149 12.1743C51.7876 11.645 51.3348 11.2365 50.807 11.2649C45.2592 11.5503 39.9047 11.185 34.892 10.1797C34.3726 10.0754 33.8663 10.4126 33.7622 10.9322C33.6579 11.4519 33.9947 11.958 34.5146 12.0621C38.5506 12.8715 42.7967 13.2787 47.1812 13.2787C47.5612 13.2787 47.943 13.2746 48.3251 13.2684C48.9294 14.992 49.2356 16.7954 49.2356 18.6349V20.0097H45.4361C44.2819 18.3607 42.3696 17.2792 40.2085 17.2792C37.5281 17.2792 35.2301 18.942 34.2878 21.2897H31.7941C30.8518 18.9422 28.5538 17.2792 25.8733 17.2792C23.7122 17.2792 21.7999 18.3606 20.6457 20.0097H16.9175V19.1469C16.9175 19.1327 16.916 19.1189 16.9154 19.1048C21.1703 15.3579 22.6194 10.6497 23.0937 8.33397C23.954 8.7618 25.2552 9.35213 26.9799 9.97775C27.479 10.1587 28.029 9.90095 28.2097 9.40253C28.3905 8.90411 28.1329 8.35364 27.6346 8.17273C24.5348 7.04844 22.8757 6.04005 22.8603 6.03053C22.5767 5.85559 22.2225 5.84124 21.9249 5.99092C21.6272 6.14072 21.4284 6.43487 21.3997 6.76698C21.393 6.84531 20.6451 14.6471 13.6429 19.1825C13.1979 19.4707 13.0707 20.0651 13.359 20.51C13.5428 20.7938 13.851 20.9483 14.1657 20.9483C14.3444 20.9483 14.5255 20.8984 14.6866 20.7939C14.7924 20.7254 14.894 20.6548 14.9973 20.5851V21.3616C14.2747 21.4762 13.5972 21.7275 12.9915 22.0876V17.4196C12.9915 16.8895 12.5618 16.4597 12.0316 16.4597C11.5013 16.4597 11.0717 16.8895 11.0717 17.4196V23.959C10.5186 24.8366 10.1971 25.8744 10.1971 26.9863C10.1971 29.9899 12.5347 32.4562 15.4857 32.6658C16.1929 35.4274 17.6342 38.0086 19.7285 40.1942C22.0464 42.6131 25.0007 44.3306 28.2062 45.185V45.9933H24.4531C24.4401 45.9933 24.4272 45.9938 24.4144 45.9938C24.411 45.9938 24.408 45.9933 24.4046 45.9933C24.3991 45.9933 24.3937 45.9941 24.3883 45.9941C17.722 46.0291 12.3092 51.4626 12.3092 58.137C12.3092 58.6672 12.7389 59.0969 13.2691 59.0969C13.7994 59.0969 14.229 58.6672 14.229 58.137C14.229 52.8398 18.2787 48.4716 23.4444 47.9633V63.0802H13.2691C12.7389 63.0802 12.3092 63.5099 12.3092 64.0401C12.3092 64.5703 12.7389 65 13.2691 65H52.0005C52.5308 65 52.9604 64.5703 52.9604 64.0401V59.8009C52.9604 56.5359 51.6858 53.1268 49.4636 50.448C47.326 47.871 44.6346 46.3336 41.7982 46.0441C41.7018 46.0116 41.5989 45.9932 41.4915 45.9932C41.4364 45.9932 41.3828 45.9988 41.3302 46.0078C41.1595 45.9987 40.9882 45.9932 40.8167 45.9932H37.6863V45.1598C43.7929 43.4946 48.6354 38.7347 50.4165 32.6762ZM51.1555 27.5303V23.3347C52.7738 23.7607 53.9707 25.2362 53.9707 26.9863C53.9707 28.8344 52.6359 30.3754 50.8798 30.6987C51.0605 29.6692 51.1555 28.6107 51.1555 27.5303ZM12.1172 26.9862C12.1172 25.2128 13.3466 23.7217 14.9976 23.3185V28.022C14.9607 28.916 14.9994 29.8039 15.1089 30.6796C13.4021 30.3177 12.1172 28.7994 12.1172 26.9862ZM42.4515 48.0872C47.3981 49.1442 51.0405 54.8363 51.0405 59.8008V63.0801H42.4515V48.0872ZM35.7726 23.2093H37.2326C37.7628 23.2093 38.1924 22.7796 38.1924 22.2494C38.1924 21.7193 37.7627 21.2895 37.2326 21.2895H36.4335C37.2232 20.0351 38.6196 19.199 40.2083 19.199C42.6668 19.199 44.6668 21.199 44.6668 23.6573C44.6668 26.1157 42.6668 28.1157 40.2083 28.1157C37.75 28.1157 35.75 26.1157 35.75 23.6573C35.7501 23.5061 35.7579 23.3566 35.7726 23.2093ZM25.8733 19.1989C27.4622 19.1989 28.8586 20.0349 29.6482 21.2894H28.8491C28.3188 21.2894 27.8892 21.7191 27.8892 22.2493C27.8892 22.7795 28.3189 23.2092 28.8491 23.2092H30.3092C30.3239 23.3565 30.3316 23.506 30.3316 23.6572C30.3316 26.1155 28.3316 28.1155 25.8732 28.1155C23.4148 28.1155 21.4148 26.1155 21.4148 23.6572C21.4148 21.1989 23.415 19.1989 25.8733 19.1989ZM40.5316 47.913V63.0801H25.3645V47.913H28.2067V50.628C28.2067 53.2415 30.3329 55.3678 32.9464 55.3678C35.5599 55.3678 37.6862 53.2415 37.6862 50.628V47.913H40.5316ZM30.1266 50.628V45.5891C31.0353 45.7294 31.9574 45.8013 32.8848 45.8013C33.8652 45.8013 34.8273 45.7227 35.7664 45.5732V50.628H35.7662C35.7662 52.1828 34.5012 53.4479 32.9464 53.4479C31.3916 53.4479 30.1266 52.1828 30.1266 50.628ZM32.8845 43.8815C28.4595 43.8812 24.1695 42.0532 21.1151 38.8657C18.2392 35.8648 16.7483 32.0354 16.9166 28.083C16.9173 28.0695 16.9175 28.0558 16.9175 28.0422V21.9294H19.7347C19.5797 22.4793 19.495 23.0584 19.495 23.6573C19.495 27.1744 22.3563 30.0356 25.8733 30.0356C29.3904 30.0356 32.2517 27.1743 32.2517 23.6573C32.2517 23.5065 32.2446 23.3576 32.2342 23.2093H33.8476C33.8372 23.3575 33.8301 23.5065 33.8301 23.6573C33.8301 27.1744 36.6914 30.0356 40.2083 30.0356C43.7254 30.0356 46.5867 27.1743 46.5867 23.6573C46.5867 23.0585 46.502 22.4795 46.3469 21.9294H49.2356V22.2381C49.2356 22.2423 49.235 22.2464 49.235 22.2506C49.235 22.2548 49.2355 22.2588 49.2356 22.263V27.5304C49.2355 36.5464 41.9004 43.8815 32.8845 43.8815Z" fill="#222222"/>
<path d="M35.726 30.1408C35.351 29.7659 34.7433 29.7659 34.3684 30.1408C33.603 30.9063 32.357 30.9063 31.5916 30.1408C31.2165 29.7659 30.6088 29.7659 30.2339 30.1408C29.859 30.5157 29.859 31.1235 30.2339 31.4983C30.9908 32.2553 31.9855 32.634 32.9799 32.634C33.9745 32.634 34.9689 32.2555 35.726 31.4983C36.1009 31.1234 36.1009 30.5156 35.726 30.1408Z" fill="#222222"/>
<path d="M39.891 34.7502C39.7426 34.3914 39.3924 34.1576 39.0041 34.1576H26.9555C26.5673 34.1576 26.2172 34.3914 26.0686 34.7502C25.92 35.1089 26.0021 35.5217 26.2766 35.7963C27.9766 37.4963 30.3048 39.8245 32.8769 39.8521C32.893 39.8522 32.9087 39.8523 32.9247 39.8523C35.4167 39.8524 37.719 37.7601 39.6828 35.7963C39.9576 35.5217 40.0396 35.1089 39.891 34.7502ZM32.9245 37.9325C32.9156 37.9325 32.9068 37.9324 32.8978 37.9324C31.7525 37.9201 30.4834 37.0587 29.3553 36.0774H36.5931C35.4547 37.054 34.1336 37.9325 32.9245 37.9325Z" fill="#222222"/>
<path d="M29.8508 15.53C28.7292 14.4085 27.2383 13.7909 25.6521 13.7909C24.066 13.7909 22.5752 14.4086 21.4535 15.53C21.0786 15.9049 21.0786 16.5128 21.4535 16.8875C21.8286 17.2626 22.4363 17.2624 22.8112 16.8875C23.5701 16.1286 24.579 15.7108 25.6521 15.7108C26.7253 15.7108 27.7343 16.1287 28.4931 16.8875C28.6806 17.075 28.9262 17.1687 29.1719 17.1687C29.4176 17.1687 29.6632 17.075 29.8507 16.8875C30.2257 16.5126 30.2257 15.9049 29.8508 15.53Z" fill="#222222"/>
<path d="M43.2479 15.1248C42.1263 14.0032 40.6354 13.3856 39.0492 13.3856C37.4633 13.3856 35.9721 14.0032 34.8505 15.1248C34.4756 15.4996 34.4756 16.1074 34.8505 16.4823C35.2254 16.8572 35.8331 16.8573 36.2083 16.4823C36.9671 15.7233 37.9761 15.3055 39.0492 15.3055C40.1224 15.3055 41.1314 15.7235 41.8902 16.4823C42.0777 16.6698 42.3233 16.7635 42.569 16.7635C42.8146 16.7635 43.0603 16.6698 43.2478 16.4823C43.6228 16.1074 43.6228 15.4996 43.2479 15.1248Z" fill="#222222"/>
<path d="M26.0043 21.6094C25.474 21.6094 25.0444 22.0391 25.0444 22.5693V24.7451C25.0444 25.2754 25.4742 25.705 26.0043 25.705C26.5346 25.705 26.9642 25.2753 26.9642 24.7451V22.5693C26.9643 22.0392 26.5346 21.6094 26.0043 21.6094Z" fill="#222222"/>
<path d="M40.0835 21.6094C39.5533 21.6094 39.1237 22.0391 39.1237 22.5693V24.7451C39.1237 25.2754 39.5534 25.705 40.0835 25.705C40.6138 25.705 41.0434 25.2753 41.0434 24.7451V22.5693C41.0434 22.0392 40.6138 21.6094 40.0835 21.6094Z" fill="#222222"/>
<path d="M37.9706 54.7685C37.6121 54.6201 37.1993 54.7021 36.9245 54.9766L35.0687 56.8324C34.6041 56.1929 33.8525 55.7748 33.0035 55.7748C32.1969 55.7748 31.4776 56.1516 31.0093 56.7374L29.2485 54.9767C28.9737 54.702 28.5609 54.62 28.2022 54.7686C27.8435 54.9173 27.6096 55.2673 27.6096 55.6555V61.2018C27.6096 61.5902 27.8435 61.9401 28.2022 62.0887C28.3211 62.1379 28.4457 62.1619 28.5693 62.1619C28.8191 62.1619 29.0646 62.0644 29.2483 61.8807L31.1013 60.0277C31.5694 60.5511 32.2475 60.8831 33.0033 60.8831C33.8014 60.8831 34.5146 60.5146 34.9833 59.9395L36.9243 61.8805C37.1081 62.0642 37.3535 62.1617 37.6034 62.1617C37.727 62.1617 37.8517 62.1377 37.9704 62.0886C38.3292 61.9399 38.563 61.5899 38.563 61.2017V55.6554C38.5633 55.267 38.3294 54.9172 37.9706 54.7685ZM29.5298 58.8844V57.973L29.9855 58.4287L29.5298 58.8844ZM33.0036 58.9633C32.654 58.9633 32.3693 58.6788 32.3693 58.329C32.3693 57.9794 32.6538 57.6948 33.0036 57.6948C33.3532 57.6948 33.6379 57.9793 33.6379 58.329C33.6379 58.6788 33.3532 58.9633 33.0036 58.9633ZM36.6435 58.8844L36.1877 58.4287L36.6435 57.973V58.8844Z" fill="#6ACA1E"/>
</svg>
