<svg width="63" height="59" viewBox="0 0 63 59" fill="none" xmlns="http://www.w3.org/2000/svg">
<path d="M12.76 46.9511C12.1607 46.9511 11.5717 47.0542 11.0149 47.254C9.97345 45.7125 8.22314 44.76 6.31558 44.76C3.18874 44.76 0.64447 47.3043 0.64447 50.4311C0.64447 51.3166 0.844248 52.1647 1.23607 52.9535C1.41136 53.3028 1.76838 53.5245 2.15891 53.5245H16.8664C17.4 53.5245 17.846 53.1185 17.8937 52.5874C17.9091 52.425 17.9156 52.2626 17.9156 52.1067C17.9156 49.2634 15.6033 46.9511 12.76 46.9511ZM2.8562 51.4622C2.75696 51.131 2.70669 50.7856 2.70669 50.4311C2.70669 48.4411 4.32683 46.8222 6.31558 46.8222C7.76171 46.8222 9.06349 47.6806 9.63447 49.0108C9.75434 49.2866 9.98763 49.498 10.2738 49.5882C10.5612 49.6771 10.8731 49.6372 11.1283 49.4786C11.6155 49.1745 12.18 49.0133 12.76 49.0133C14.2448 49.0133 15.4886 50.0651 15.7863 51.4622H2.8562Z" fill="#6ACA1E"/>
<path d="M56.6873 20.4026V20.3414C56.3562 19.7491 55.8795 19.251 55.3023 18.8943C54.7251 18.5376 54.0664 18.3339 53.3886 18.3026C53.2633 18.2938 53.1376 18.2938 53.0123 18.3026C53.2639 17.5558 53.3125 16.7555 53.1529 15.9837C52.9934 15.2119 52.6315 14.4964 52.1044 13.9106C51.5773 13.3247 50.9039 12.8895 50.1532 12.6495C49.4025 12.4096 48.6015 12.3736 47.8323 12.5451C47.5016 12.6149 47.1811 12.7267 46.8786 12.8776C46.8059 11.7971 46.4135 10.7626 45.7513 9.90567C45.0891 9.04874 44.1871 8.40807 43.1598 8.06514C42.3399 7.78707 41.4651 7.71027 40.6092 7.84124C39.7534 7.9722 38.9416 8.30709 38.2423 8.81764C37.8733 9.08507 37.5384 9.39654 37.2448 9.74514C36.7767 8.63503 35.9916 7.68761 34.9878 7.02146C33.9839 6.35531 32.8059 6 31.6011 6C30.3963 6 29.2183 6.35531 28.2144 7.02146C27.2106 7.68761 26.4255 8.63503 25.9573 9.74514C25.6638 9.39654 25.3288 9.08507 24.9598 8.81764C24.3142 8.35089 23.574 8.03135 22.7915 7.88151C22.009 7.73167 21.2032 7.75517 20.4307 7.95036C19.6583 8.14556 18.938 8.5077 18.3206 9.01129C17.7033 9.51488 17.2038 10.1477 16.8573 10.8651C16.549 11.4944 16.3677 12.1783 16.3236 12.8776C16.0211 12.7267 15.7006 12.6149 15.3698 12.5451C14.6006 12.3736 13.7997 12.4096 13.049 12.6495C12.2983 12.8895 11.6249 13.3247 11.0978 13.9106C10.5707 14.4964 10.2088 15.2119 10.0493 15.9837C9.88972 16.7555 9.93824 17.5558 10.1898 18.3026C10.0646 18.2938 9.93885 18.2938 9.81359 18.3026C9.14415 18.3362 8.49402 18.5383 7.92348 18.8901C7.35294 19.2419 6.88046 19.7321 6.54984 20.3151V20.3676C6.20507 20.9544 6.01613 21.6197 6.00099 22.3001C5.98584 22.9805 6.14499 23.6535 6.46331 24.255C6.78163 24.8566 7.24853 25.3667 7.81962 25.7369C8.3907 26.1072 9.047 26.3251 9.72609 26.3701H9.94484C10.8547 26.3743 11.7383 26.0654 12.4473 25.4951L22.3261 30.4389L25.0823 37.5526H22.8511C22.1549 37.5526 21.4872 37.8292 20.9949 38.3215C20.5027 38.8138 20.2261 39.4814 20.2261 40.1776C20.2261 40.8738 20.5027 41.5415 20.9949 42.0338C21.4872 42.5261 22.1549 42.8026 22.8511 42.8026H27.2261V46.4514L24.9773 50.2051C24.7692 50.5508 24.6435 50.9399 24.6102 51.342C24.5768 51.7442 24.6365 52.1486 24.7848 52.5239L26.5348 56.8989C26.7265 57.3829 27.0577 57.799 27.4864 58.0944C27.9151 58.3897 28.4219 58.5509 28.9424 58.5574C29.463 58.564 29.9737 58.4156 30.4097 58.1312C30.8457 57.8468 31.1873 57.4392 31.3911 56.9601C31.656 56.3185 31.656 55.598 31.3911 54.9564L30.1223 51.7889L31.2773 49.8639L32.1523 52.4889C32.2819 52.8858 32.5044 53.246 32.8011 53.5397C33.0979 53.8335 33.4604 54.0521 33.8586 54.1776L38.3211 55.6739C38.8191 55.8398 39.3554 55.8527 39.8608 55.7107C40.3661 55.5688 40.8173 55.2786 41.1561 54.8776C41.376 54.6215 41.5426 54.324 41.6461 54.0026C41.7559 53.6757 41.8003 53.3304 41.7766 52.9863C41.753 52.6423 41.6618 52.3063 41.5082 51.9975C41.3546 51.6887 41.1417 51.4132 40.8816 51.1867C40.6215 50.9603 40.3193 50.7873 39.9923 50.6776L36.3436 49.4526C36.1231 49.3795 35.8827 49.397 35.6751 49.5012C35.4675 49.6054 35.3098 49.7878 35.2367 50.0083C35.1636 50.2287 35.1811 50.4692 35.2853 50.6768C35.3895 50.8844 35.5719 51.042 35.7923 51.1151L39.4761 52.3489C39.6948 52.4227 39.8755 52.5801 39.9788 52.7866C40.0821 52.9931 40.0995 53.2321 40.0273 53.4514C39.9925 53.5563 39.9391 53.654 39.8698 53.7401C39.7566 53.8733 39.606 53.9694 39.4376 54.0162C39.2691 54.063 39.0906 54.0583 38.9248 54.0026L34.4536 52.5064C34.3253 52.4634 34.2088 52.3912 34.1132 52.2955C34.0175 52.1999 33.9454 52.0834 33.9023 51.9551L32.3798 47.4576C32.319 47.2765 32.2005 47.1203 32.0425 47.0129C31.8845 46.9054 31.6956 46.8527 31.5048 46.8626C31.3229 46.864 31.1459 46.922 30.9985 47.0287C30.8511 47.1353 30.7406 47.2853 30.6823 47.4576C30.6595 47.5146 30.6332 47.5701 30.6036 47.6239L28.4248 51.2551C28.355 51.3713 28.3131 51.5022 28.3025 51.6373C28.2919 51.7724 28.3128 51.9082 28.3636 52.0339L29.7898 55.6039C29.8325 55.7107 29.8536 55.825 29.852 55.94C29.8505 56.055 29.8262 56.1686 29.7807 56.2742C29.7352 56.3799 29.6693 56.4755 29.5868 56.5557C29.5043 56.6359 29.4068 56.699 29.2998 56.7414C29.193 56.784 29.0788 56.8051 28.9638 56.8036C28.8487 56.802 28.7351 56.7778 28.6295 56.7323C28.5238 56.6868 28.4282 56.6209 28.348 56.5383C28.2679 56.4558 28.2048 56.3583 28.1623 56.2514L26.4123 51.8764C26.3629 51.7519 26.3428 51.6178 26.3534 51.4843C26.364 51.3508 26.4051 51.2215 26.4736 51.1064L28.8536 47.1776C28.9337 47.0426 28.976 46.8884 28.9761 46.7314V45.4276H34.2261V47.1776C34.2261 47.4097 34.3183 47.6323 34.4824 47.7964C34.6465 47.9605 34.869 48.0526 35.1011 48.0526C35.3332 48.0526 35.5557 47.9605 35.7198 47.7964C35.8839 47.6323 35.9761 47.4097 35.9761 47.1776V42.8026H40.3511C41.0473 42.8026 41.715 42.5261 42.2072 42.0338C42.6995 41.5415 42.9761 40.8738 42.9761 40.1776C42.9761 39.4814 42.6995 38.8138 42.2072 38.3215C41.715 37.8292 41.0473 37.5526 40.3511 37.5526H38.1198L40.8411 30.4126L50.7198 25.4689C51.4289 26.0391 52.3125 26.3481 53.2223 26.3439H53.4761C54.156 26.307 54.8152 26.0968 55.391 25.7331C55.9667 25.3695 56.4398 24.8646 56.7652 24.2664C57.0906 23.6682 57.2575 22.9967 57.25 22.3158C57.2425 21.6349 57.0608 20.9673 56.7223 20.3764L56.6873 20.4026ZM44.3236 21.2776L48.5848 23.4039L49.3723 24.2001L41.7598 28.0064L44.3236 21.2776ZM40.3511 26.8426L38.1461 20.2189L42.6611 20.7789L40.3511 26.8426ZM48.2261 14.2951C48.7615 14.1738 49.3212 14.2183 49.8307 14.4228C50.3402 14.6272 50.7754 14.982 51.0784 15.4398C51.3814 15.8976 51.5379 16.4368 51.527 16.9857C51.516 17.5346 51.3383 18.0672 51.0173 18.5126L49.8448 20.1576L48.8386 21.5576L44.9361 19.6151L46.2486 16.0101C46.4053 15.5798 46.6691 15.1965 47.0151 14.8964C47.3611 14.5964 47.7779 14.3894 48.2261 14.2951ZM39.2661 10.2789C39.9097 9.81628 40.6847 9.57198 41.4773 9.58179C42.2699 9.59161 43.0385 9.85502 43.6705 10.3334C44.3025 10.8118 44.7647 11.4801 44.9893 12.2403C45.2139 13.0004 45.1891 13.8126 44.9186 14.5576L44.6036 15.4326L43.6236 18.1276L43.2648 19.1164L37.7261 18.4076V13.2889C37.7231 12.7005 37.8614 12.1201 38.1294 11.5963C38.3974 11.0725 38.7872 10.6207 39.2661 10.2789ZM14.6173 23.4039L18.8786 21.2776L21.4423 28.0064L13.8298 24.2001L14.6173 23.4039ZM20.5673 20.7789L25.0823 20.2189L22.8511 26.8426L20.5673 20.7789ZM18.4761 11.6701C18.6889 11.2237 18.9902 10.8252 19.3617 10.4988C19.7332 10.1724 20.1672 9.9249 20.6373 9.77139C21.0056 9.63889 21.3924 9.56507 21.7836 9.55264C22.7676 9.56188 23.7081 9.95987 24.3998 10.6598C25.0916 11.3597 25.4784 12.3048 25.4761 13.2889V18.4076L19.9373 19.0989L19.5786 18.1101L18.5986 15.4151L18.2836 14.5401C18.119 14.0738 18.0512 13.5788 18.0843 13.0853C18.1174 12.5919 18.2507 12.1104 18.4761 11.6701ZM12.5348 15.0214C13.0426 14.5186 13.7278 14.2358 14.4423 14.2339C14.6423 14.2326 14.8418 14.2531 15.0373 14.2951C15.4862 14.3954 15.902 14.6088 16.2451 14.9151C16.5881 15.2214 16.8471 15.6104 16.9973 16.0451L18.3098 19.6501L14.4248 21.5926L13.8911 20.8489L12.2023 18.5126C11.83 17.9905 11.6547 17.3533 11.7075 16.7142C11.7604 16.075 12.038 15.4753 12.4911 15.0214H12.5348ZM9.90984 24.6464C9.52712 24.6278 9.15563 24.511 8.83117 24.3071C8.50671 24.1033 8.24021 23.8193 8.05734 23.4826C7.87447 23.1459 7.7814 22.7678 7.7871 22.3846C7.79279 22.0015 7.89705 21.6263 8.08984 21.2951L7.27609 20.8401L8.07234 21.2164C8.2484 20.8791 8.51003 20.5941 8.831 20.3898C9.15197 20.1856 9.521 20.0693 9.90109 20.0526C10.2782 20.0276 10.6553 20.1007 10.9957 20.2648C11.3361 20.4289 11.6283 20.6783 11.8436 20.9889L12.9548 22.5464L11.5723 23.9726C11.3496 24.1973 11.0812 24.3713 10.7853 24.4831C10.4894 24.5948 10.1729 24.6415 9.85734 24.6201L9.90984 24.6464ZM22.8511 41.0526C22.619 41.0526 22.3965 40.9605 22.2324 40.7964C22.0683 40.6323 21.9761 40.4097 21.9761 40.1776C21.9761 39.9456 22.0683 39.723 22.2324 39.5589C22.3965 39.3948 22.619 39.3026 22.8511 39.3026H28.4336L27.5586 41.0526H22.8511ZM28.9761 34.9276C28.9761 34.4085 29.13 33.9009 29.4185 33.4693C29.7069 33.0376 30.1169 32.7011 30.5965 32.5025C31.0762 32.3038 31.604 32.2518 32.1132 32.3531C32.6224 32.4544 33.0901 32.7044 33.4572 33.0715C33.8244 33.4386 34.0744 33.9063 34.1757 34.4155C34.2769 34.9247 34.225 35.4525 34.0263 35.9322C33.8276 36.4118 33.4911 36.8218 33.0595 37.1102C32.6278 37.3987 32.1203 37.5526 31.6011 37.5526C30.9049 37.5526 30.2372 37.2761 29.7449 36.7838C29.2527 36.2915 28.9761 35.6238 28.9761 34.9276ZM28.9761 43.6776V42.1376L30.3936 39.3026H32.8086L34.2261 42.1376V43.6776H28.9761ZM41.2261 40.1776C41.2261 40.4097 41.1339 40.6323 40.9698 40.7964C40.8057 40.9605 40.5832 41.0526 40.3511 41.0526H35.6436L34.7686 39.3026H40.3511C40.5832 39.3026 40.8057 39.3948 40.9698 39.5589C41.1339 39.723 41.2261 39.9456 41.2261 40.1776ZM35.1011 37.5526C35.6737 36.7978 35.9812 35.8751 35.9761 34.9276C35.9761 33.7673 35.5152 32.6545 34.6947 31.834C33.8742 31.0136 32.7614 30.5526 31.6011 30.5526C30.4408 30.5526 29.328 31.0136 28.5075 31.834C27.687 32.6545 27.2261 33.7673 27.2261 34.9276C27.2209 35.8751 27.5285 36.7978 28.1011 37.5526H26.9548L23.8573 29.4239L26.9811 20.0526H33.3511C33.5832 20.0526 33.8057 19.9605 33.9698 19.7964C34.1339 19.6323 34.2261 19.4097 34.2261 19.1776C34.2261 18.9456 34.1339 18.723 33.9698 18.5589C33.8057 18.3948 33.5832 18.3026 33.3511 18.3026H27.2261V12.1776C27.2261 11.0173 27.687 9.90452 28.5075 9.08405C29.328 8.26358 30.4408 7.80264 31.6011 7.80264C32.7614 7.80264 33.8742 8.26358 34.6947 9.08405C35.5152 9.90452 35.9761 11.0173 35.9761 12.1776V19.1776C35.9756 19.2706 35.9935 19.3628 36.0286 19.4489L39.3536 29.4151L36.2473 37.5526H35.1011ZM54.9723 23.7889C54.7744 24.0336 54.5272 24.2341 54.2468 24.3773C53.9665 24.5205 53.6592 24.6032 53.3448 24.6201C53.0236 24.6455 52.7008 24.6007 52.3986 24.4889C52.0964 24.3771 51.8222 24.201 51.5948 23.9726L50.2123 22.5814L51.3236 21.0239C51.5426 20.7191 51.8345 20.4739 52.1726 20.3108C52.5107 20.1477 52.8843 20.0718 53.2592 20.0901C53.6341 20.1083 53.9985 20.2202 54.3192 20.4154C54.6398 20.6106 54.9065 20.883 55.0948 21.2076V21.2689C55.3311 21.6522 55.4458 22.0981 55.424 22.5479C55.4021 22.9976 55.2447 23.4303 54.9723 23.7889Z" fill="black"/>
<path d="M59.7164 1.5C59.3347 1.5 58.9596 1.57059 58.6049 1.70735C57.9416 0.652059 56.8269 0 55.6119 0C53.6204 0 52 1.74176 52 3.88235C52 4.48853 52.1272 5.06912 52.3768 5.60912C52.4884 5.84824 52.7158 6 52.9646 6H62.3326C62.6716 6 62.9557 5.72118 62.986 5.35765C62.9959 5.24647 63 5.13618 63 5.02941C63 3.08294 61.5273 1.5 59.7164 1.5ZM53.4087 4.58824C53.3454 4.36147 53.3134 4.125 53.3134 3.88235C53.3134 2.52 54.3453 1.41176 55.6119 1.41176C56.533 1.41176 57.3629 1.99941 57.7257 2.91C57.8013 3.09882 57.9507 3.24353 58.1329 3.30529C58.316 3.36618 58.5146 3.33882 58.6772 3.23029C58.9875 3.02206 59.347 2.91176 59.7164 2.91176C60.6621 2.91176 61.4543 3.63176 61.6439 4.58824H53.4087Z" fill="#6ACA1E"/>
</svg>
