<svg width="52" height="54" viewBox="0 0 52 54" fill="none" xmlns="http://www.w3.org/2000/svg">
<g clip-path="url(#clip0)">
<path d="M36.5708 48.518L35.7102 38.7245L38.0931 37.4208C38.5454 37.1718 38.8856 36.76 39.0437 36.2701C39.2018 35.7803 39.1659 35.2496 38.9432 34.7872L39.7003 34.373L41.5011 37.6646C41.5953 37.8368 41.7544 37.9642 41.9435 38.019C42.1325 38.0737 42.336 38.0512 42.5092 37.9564C42.6824 37.8617 42.8111 37.7024 42.867 37.5137C42.9229 37.325 42.9013 37.1223 42.8072 36.9501L41.0064 33.6585L41.1929 33.5564C41.3661 33.4617 41.4948 33.3024 41.5507 33.1137C41.6065 32.925 41.585 32.7223 41.4909 32.5501C41.3967 32.378 41.2376 32.2505 41.0485 32.1958C40.8594 32.1411 40.6559 32.1636 40.4827 32.2583L40.2962 32.3604L38.4952 29.0684C38.401 28.8963 38.2419 28.7688 38.0528 28.7141C37.8638 28.6594 37.6603 28.6819 37.4871 28.7766C37.3139 28.8714 37.1852 29.0306 37.1293 29.2194C37.0734 29.4081 37.095 29.6108 37.1891 29.7829L38.9899 33.0746L38.2343 33.488C37.9651 33.0511 37.5375 32.7346 37.0397 32.6036C36.5419 32.4726 36.0117 32.537 35.5581 32.7836L35.2036 32.9775L34.4712 24.6279C36.8103 23.3807 39.0511 21.9575 41.1741 20.3706C41.9495 19.7879 42.5863 19.0414 43.0382 18.185L46.1515 27.1547C46.2685 27.4924 46.4547 27.8019 46.6982 28.0635C46.9418 28.3251 47.2374 28.5333 47.5664 28.6748C47.8953 28.8163 48.2506 28.8881 48.6096 28.8857C48.9685 28.8832 49.3235 28.8066 49.652 28.6605C49.9805 28.5145 50.2753 28.3023 50.5179 28.0373C50.7605 27.7723 50.9456 27.4603 51.0614 27.1211C51.1773 26.7818 51.2213 26.4226 51.1909 26.0663C51.1604 25.7099 51.056 25.3641 50.8844 25.0507L45.9978 16.1186C46.446 15.6892 46.7407 15.1253 46.8364 14.5141C46.9321 13.9028 46.8234 13.2783 46.5271 12.7367C46.2309 12.1952 45.7635 11.7668 45.1972 11.5178C44.6308 11.2687 43.9971 11.2128 43.3937 11.3587L38.507 2.42663C38.3357 2.11309 38.1007 1.83873 37.8171 1.62089C37.5334 1.40305 37.2072 1.24647 36.859 1.16105C36.5108 1.07563 36.1483 1.06323 35.7943 1.12463C35.4403 1.18603 35.1026 1.3199 34.8025 1.51777C34.5024 1.71564 34.2464 1.97321 34.0507 2.2742C33.855 2.57519 33.7239 2.91305 33.6657 3.26642C33.6075 3.61979 33.6233 3.98098 33.7123 4.32716C33.8014 4.67335 33.9615 4.99699 34.1828 5.27764L40.0573 12.7363C39.0924 12.6552 38.1205 12.789 37.2117 13.1279C34.7303 14.0597 32.3233 15.1792 30.0117 16.4766L23.3753 11.357L23.7268 11.1647C24.179 10.9158 24.5192 10.5039 24.6774 10.0141C24.8355 9.52417 24.7995 8.99347 24.5768 8.53116L25.3355 8.11613L27.1363 11.4077C27.2304 11.5799 27.3896 11.7073 27.5786 11.7621C27.7677 11.8168 27.9712 11.7943 28.1444 11.6995C28.3176 11.6048 28.4462 11.4455 28.5021 11.2568C28.558 11.0681 28.5365 10.8654 28.4423 10.6932L26.6415 7.40161L26.8281 7.29954C27.0013 7.20479 27.1299 7.04554 27.1858 6.85682C27.2417 6.6681 27.2202 6.46537 27.126 6.29323C27.0318 6.12109 26.8727 5.99364 26.6836 5.93892C26.4946 5.8842 26.2911 5.90669 26.1179 6.00144L25.9313 6.10351L24.1305 2.8119C24.0363 2.63976 23.8772 2.51231 23.6882 2.45758C23.4991 2.40286 23.2956 2.42535 23.1224 2.5201C22.9492 2.61485 22.8205 2.7741 22.7647 2.96282C22.7088 3.15154 22.7303 3.35427 22.8245 3.52641L24.6253 6.81803L23.8697 7.23142C23.6004 6.7946 23.1729 6.47811 22.6751 6.34708C22.1773 6.21605 21.647 6.28045 21.1934 6.52703L18.8109 7.8305L11.0276 1.82429C10.9132 1.73582 10.7752 1.6828 10.6305 1.67177C10.4858 1.66074 10.3409 1.69218 10.2135 1.76222L5.42786 4.3804C5.33738 4.43146 5.25839 4.50058 5.19583 4.5834C5.13328 4.66622 5.08853 4.76095 5.06439 4.86164C5.04024 4.96233 5.03724 5.06681 5.05555 5.1685C5.07386 5.27019 5.1131 5.36689 5.1708 5.45254L8.80138 10.6947L15.6193 20.5382L17.7566 23.6241L14.8484 25.3255L12.7445 26.5401L6.5252 21.4757C6.41085 21.3826 6.27105 21.3259 6.12371 21.3126C5.97637 21.2994 5.8282 21.3303 5.69817 21.4015L1.87561 23.4927C1.70242 23.5875 1.57374 23.7467 1.51787 23.9355C1.462 24.1242 1.48351 24.3269 1.57769 24.4991C1.59135 24.5238 1.6064 24.5477 1.62275 24.5708L5.85181 30.5187C4.80757 31.1261 3.9399 31.9948 3.33532 33.0384C2.73073 34.0819 2.41035 35.2638 2.40612 36.4662C2.40668 36.5902 2.43808 36.7119 2.4975 36.8205C2.55692 36.9291 2.64251 37.0212 2.7466 37.0885C3.76149 37.7333 4.92957 38.1009 6.13442 38.1546C7.33926 38.2083 8.53881 37.9462 9.61352 37.3946L12.3416 44.1632C12.3522 44.1894 12.3642 44.215 12.3777 44.2399C12.4718 44.412 12.631 44.5394 12.82 44.5942C13.0091 44.6489 13.2126 44.6264 13.3858 44.5316L17.2087 42.4402C17.3387 42.369 17.4447 42.2608 17.513 42.1295C17.5813 41.9982 17.6088 41.8498 17.592 41.7033L16.6831 33.7384L18.8369 32.6238L21.8419 31.0906L23.2882 34.5549L27.9017 45.6064L30.3583 51.4908C30.3992 51.5858 30.4594 51.6711 30.5351 51.7415C30.6108 51.812 30.7004 51.8659 30.7983 51.9C30.8962 51.9341 31.0001 51.9476 31.1037 51.9397C31.2073 51.9317 31.3082 51.9025 31.4001 51.8538L36.1857 49.2357C36.3128 49.166 36.417 49.0611 36.4854 48.9336C36.5538 48.8061 36.5835 48.6617 36.5708 48.518V48.518ZM36.267 34.0828C36.3283 34.0491 36.3957 34.0277 36.4652 34.0199C36.5347 34.0121 36.6051 34.0181 36.6721 34.0374C36.7392 34.0568 36.8017 34.0892 36.8561 34.1327C36.9104 34.1763 36.9556 34.2301 36.9889 34.2912L37.5977 35.4039C37.6648 35.5268 37.6801 35.6716 37.6402 35.8064C37.6003 35.9411 37.5085 36.0549 37.3849 36.1226L35.571 37.115L35.3506 34.5852L36.267 34.0828ZM49.1344 27.2658C48.993 27.3433 48.8364 27.3892 48.6757 27.4003C48.515 27.4114 48.354 27.3874 48.2038 27.3301C48.0537 27.2728 47.918 27.1835 47.8063 27.0685C47.6947 26.9534 47.6096 26.8153 47.5571 26.6638L44.266 17.1822L44.7407 16.9225L49.5784 25.7652C49.7183 26.0219 49.7502 26.324 49.6669 26.6052C49.5836 26.8865 49.3921 27.1239 49.1342 27.2655L49.1344 27.2658ZM45.223 13.4502C45.3925 13.761 45.4311 14.1268 45.3302 14.4672C45.2293 14.8077 44.9973 15.0951 44.685 15.2664L42.9718 16.2036L41.6903 13.8611L43.4019 12.9247C43.7146 12.7535 44.082 12.7127 44.4235 12.8112C44.765 12.9098 45.0525 13.1396 45.223 13.4502V13.4502ZM35.3529 4.35991C35.2584 4.24004 35.1899 4.1018 35.1518 3.95392C35.1138 3.80604 35.107 3.65174 35.1318 3.50078C35.1567 3.34981 35.2126 3.20547 35.2962 3.07687C35.3798 2.94828 35.4891 2.83822 35.6173 2.75367C35.7455 2.66912 35.8898 2.61191 36.041 2.58566C36.1922 2.55941 36.3471 2.56469 36.4958 2.60116C36.6445 2.63764 36.7839 2.70451 36.9051 2.79757C37.0263 2.89062 37.1267 3.00782 37.1999 3.14176L42.0376 11.9844L41.563 12.2441L35.3529 4.35991ZM20.0882 8.8183L21.9021 7.82595C22.0257 7.75795 22.1711 7.74151 22.3062 7.78023C22.4414 7.81895 22.5554 7.90967 22.6231 8.03244L23.2318 9.1451C23.299 9.26808 23.3143 9.41285 23.2744 9.54761C23.2345 9.68238 23.1426 9.79613 23.019 9.86389L22.0973 10.3681L21.4505 9.86906L20.0882 8.8183ZM16.4653 19.1458L10.494 10.5238L11.8885 9.76092L18.6143 17.9701L16.4653 19.1458ZM17.3124 20.369L20.1111 18.8379C20.2069 18.7854 20.2902 18.7126 20.3548 18.6246C20.4194 18.5366 20.4639 18.4356 20.4851 18.3288C20.5062 18.2219 20.5035 18.1119 20.4772 18.0064C20.4509 17.901 20.4015 17.8027 20.3327 17.7187L12.6523 8.34505C12.5429 8.21145 12.3898 8.12043 12.2197 8.08777C12.0495 8.0551 11.8729 8.08284 11.7205 8.16619L9.64504 9.30165L6.86382 5.28144L10.4957 3.29448L18.279 9.30069L19.1559 9.97749L28.6069 17.2712L19.0055 22.8131L17.3124 20.369ZM3.31947 24.3914L5.96884 22.9419L11.3672 27.3379L9.72774 28.2831L7.14856 29.7722L3.31947 24.3914ZM3.91183 36.0511C3.98244 35.1794 4.2644 34.3368 4.73344 33.5957C5.20249 32.8547 5.84457 32.2374 6.60445 31.797L7.46741 31.2988L13.0414 28.0807L15.5928 26.6073L30.1478 18.0902L30.1545 18.0865C32.5764 16.6893 35.1096 15.4946 37.728 14.5147C38.5167 14.2196 39.3658 14.1249 40.1983 14.2393L41.8484 17.2553C41.4959 18.0183 40.9584 18.6826 40.2846 19.1879C38.0946 20.8281 35.7752 22.2885 33.3492 23.5546L33.3462 23.5563L32.6042 23.9405L18.1621 31.3116L15.5501 32.6635L15.5478 32.6647L9.90968 35.583L8.94729 36.0811C8.16626 36.4832 7.29985 36.6906 6.42266 36.6854C5.54547 36.6801 4.68379 36.4625 3.91183 36.0511V36.0511ZM16.0612 41.3876L13.4118 42.837L10.9429 36.7112L15.27 34.4716L16.0612 41.3876ZM28.9586 44.2745L24.918 34.5962L27.067 33.4205L30.3531 43.5116L28.9586 44.2745ZM31.4153 50.1589L29.53 45.6485L31.6055 44.5131C31.7578 44.4297 31.8764 44.2959 31.9407 44.135C32.005 43.9741 32.0108 43.7961 31.9573 43.6319L28.2051 32.1093C28.1714 32.0059 28.1153 31.9114 28.0407 31.8324C27.9661 31.7533 27.8749 31.6917 27.7735 31.6519C27.6721 31.6121 27.5631 31.5951 27.4541 31.6021C27.3452 31.609 27.239 31.6398 27.1431 31.6923L24.3444 33.2234L23.198 30.4773L33.0429 25.3804L35.0475 48.1717L31.4153 50.1589Z" fill="#222222"/>
<mask id="mask0" mask-type="alpha" maskUnits="userSpaceOnUse" x="-11" y="-11" width="71" height="72">
<path d="M36.5708 48.518L35.7102 38.7245L38.0931 37.4208C38.5454 37.1718 38.8856 36.76 39.0437 36.2701C39.2018 35.7803 39.1659 35.2496 38.9432 34.7872L39.7003 34.373L41.5011 37.6646C41.5953 37.8368 41.7544 37.9642 41.9435 38.019C42.1325 38.0737 42.336 38.0512 42.5092 37.9564C42.6824 37.8617 42.8111 37.7024 42.867 37.5137C42.9229 37.325 42.9013 37.1223 42.8072 36.9501L41.0064 33.6585L41.1929 33.5564C41.3661 33.4617 41.4948 33.3024 41.5507 33.1137C41.6065 32.925 41.585 32.7223 41.4909 32.5501C41.3967 32.378 41.2376 32.2505 41.0485 32.1958C40.8594 32.1411 40.6559 32.1636 40.4827 32.2583L40.2962 32.3604L38.4952 29.0684C38.401 28.8963 38.2419 28.7688 38.0528 28.7141C37.8638 28.6594 37.6603 28.6819 37.4871 28.7766C37.3139 28.8714 37.1852 29.0306 37.1293 29.2194C37.0734 29.4081 37.095 29.6108 37.1891 29.7829L38.9899 33.0746L38.2343 33.488C37.9651 33.0511 37.5375 32.7346 37.0397 32.6036C36.5419 32.4726 36.0117 32.537 35.5581 32.7836L35.2036 32.9775L34.4712 24.6279C36.8103 23.3807 39.0511 21.9575 41.1741 20.3706C41.9495 19.7879 42.5863 19.0414 43.0382 18.185L46.1515 27.1547C46.2685 27.4924 46.4547 27.8019 46.6982 28.0635C46.9418 28.3251 47.2374 28.5333 47.5664 28.6748C47.8953 28.8163 48.2506 28.8881 48.6096 28.8857C48.9685 28.8832 49.3235 28.8066 49.652 28.6605C49.9805 28.5145 50.2753 28.3023 50.5179 28.0373C50.7605 27.7723 50.9456 27.4603 51.0614 27.1211C51.1773 26.7818 51.2213 26.4226 51.1909 26.0663C51.1604 25.7099 51.056 25.3641 50.8844 25.0507L45.9978 16.1186C46.446 15.6892 46.7407 15.1253 46.8364 14.5141C46.9321 13.9028 46.8234 13.2783 46.5271 12.7367C46.2309 12.1952 45.7635 11.7668 45.1972 11.5178C44.6308 11.2687 43.9971 11.2128 43.3937 11.3587L38.507 2.42663C38.3357 2.11309 38.1007 1.83873 37.8171 1.62089C37.5334 1.40305 37.2072 1.24647 36.859 1.16105C36.5108 1.07563 36.1483 1.06323 35.7943 1.12463C35.4403 1.18603 35.1026 1.3199 34.8025 1.51777C34.5024 1.71564 34.2464 1.97321 34.0507 2.2742C33.855 2.57519 33.7239 2.91305 33.6657 3.26642C33.6075 3.61979 33.6233 3.98098 33.7123 4.32716C33.8014 4.67335 33.9615 4.99699 34.1828 5.27764L40.0573 12.7363C39.0924 12.6552 38.1205 12.789 37.2117 13.1279C34.7303 14.0597 32.3233 15.1792 30.0117 16.4766L23.3753 11.357L23.7268 11.1647C24.179 10.9157 24.5192 10.5039 24.6774 10.0141C24.8355 9.52417 24.7995 8.99347 24.5768 8.53116L25.3355 8.11613L27.1363 11.4077C27.2304 11.5799 27.3896 11.7073 27.5786 11.7621C27.7677 11.8168 27.9712 11.7943 28.1444 11.6995C28.3176 11.6048 28.4462 11.4455 28.5021 11.2568C28.558 11.0681 28.5365 10.8654 28.4423 10.6932L26.6415 7.40161L26.8281 7.29954C27.0013 7.20479 27.1299 7.04554 27.1858 6.85682C27.2417 6.6681 27.2202 6.46537 27.126 6.29323C27.0318 6.12109 26.8727 5.99364 26.6836 5.93892C26.4946 5.8842 26.2911 5.90669 26.1179 6.00144L25.9313 6.10351L24.1305 2.8119C24.0363 2.63976 23.8772 2.51231 23.6882 2.45758C23.4991 2.40286 23.2956 2.42535 23.1224 2.5201C22.9492 2.61485 22.8205 2.7741 22.7647 2.96282C22.7088 3.15154 22.7303 3.35427 22.8245 3.52641L24.6253 6.81803L23.8697 7.23142C23.6004 6.7946 23.1729 6.47811 22.6751 6.34708C22.1773 6.21605 21.647 6.28045 21.1934 6.52703L18.8109 7.8305L11.0276 1.82429C10.9132 1.73582 10.7752 1.6828 10.6305 1.67177C10.4858 1.66074 10.3409 1.69218 10.2135 1.76222L5.42786 4.3804C5.33738 4.43146 5.25838 4.50058 5.19583 4.5834C5.13328 4.66622 5.08853 4.76095 5.06439 4.86164C5.04025 4.96233 5.03724 5.06681 5.05555 5.1685C5.07386 5.27019 5.1131 5.36689 5.1708 5.45254L8.80138 10.6947L15.6193 20.5382L17.7566 23.6241L14.8484 25.3255L12.7445 26.5401L6.5252 21.4757C6.41085 21.3826 6.27105 21.3259 6.12371 21.3126C5.97637 21.2994 5.8282 21.3303 5.69817 21.4015L1.87562 23.4927C1.70243 23.5875 1.57374 23.7467 1.51787 23.9355C1.462 24.1242 1.48351 24.3269 1.57769 24.4991C1.59135 24.5238 1.6064 24.5477 1.62275 24.5708L5.85181 30.5187C4.80757 31.1261 3.9399 31.9948 3.33532 33.0384C2.73073 34.0819 2.41035 35.2638 2.40612 36.4662C2.40668 36.5902 2.43808 36.7119 2.4975 36.8205C2.55692 36.9291 2.64251 37.0212 2.7466 37.0885C3.76149 37.7333 4.92957 38.1009 6.13442 38.1546C7.33926 38.2083 8.53881 37.9462 9.61352 37.3946L12.3416 44.1632C12.3522 44.1894 12.3642 44.215 12.3777 44.2399C12.4718 44.412 12.631 44.5394 12.82 44.5942C13.0091 44.6489 13.2126 44.6264 13.3858 44.5316L17.2087 42.4402C17.3387 42.369 17.4447 42.2608 17.513 42.1295C17.5813 41.9982 17.6088 41.8498 17.592 41.7033L16.6831 33.7384L18.8369 32.6238L21.8419 31.0906L23.2882 34.5549L27.9017 45.6064L30.3583 51.4908C30.3992 51.5858 30.4594 51.6711 30.5351 51.7415C30.6108 51.812 30.7004 51.8659 30.7983 51.9C30.8962 51.9341 31.0001 51.9476 31.1037 51.9397C31.2073 51.9317 31.3082 51.9025 31.4001 51.8538L36.1857 49.2357C36.3128 49.166 36.417 49.0611 36.4854 48.9336C36.5538 48.8061 36.5835 48.6617 36.5708 48.518ZM36.267 34.0828C36.3283 34.0491 36.3957 34.0277 36.4652 34.0199C36.5347 34.0121 36.6051 34.0181 36.6721 34.0374C36.7392 34.0568 36.8017 34.0892 36.8561 34.1327C36.9104 34.1763 36.9556 34.2301 36.9889 34.2912L37.5977 35.4039C37.6648 35.5268 37.6801 35.6716 37.6402 35.8064C37.6003 35.9411 37.5085 36.0549 37.3849 36.1226L35.571 37.115L35.3506 34.5852L36.267 34.0828ZM49.1344 27.2658C48.993 27.3433 48.8364 27.3892 48.6757 27.4003C48.515 27.4114 48.354 27.3874 48.2038 27.3301C48.0537 27.2728 47.918 27.1835 47.8063 27.0685C47.6947 26.9534 47.6096 26.8153 47.5571 26.6638L44.266 17.1822L44.7407 16.9225L49.5784 25.7652C49.7183 26.0219 49.7502 26.324 49.6669 26.6052C49.5836 26.8865 49.3923 27.1243 49.1344 27.2658ZM45.223 13.4502C45.3925 13.761 45.4311 14.1268 45.3302 14.4672C45.2293 14.8077 44.9973 15.0951 44.685 15.2664L42.9718 16.2036L41.6903 13.8611L43.4019 12.9247C43.7146 12.7535 44.082 12.7127 44.4235 12.8112C44.765 12.9098 45.0525 13.1396 45.223 13.4502ZM35.3529 4.35991C35.2584 4.24004 35.1899 4.1018 35.1518 3.95392C35.1138 3.80604 35.107 3.65174 35.1318 3.50078C35.1567 3.34981 35.2126 3.20547 35.2962 3.07687C35.3798 2.94828 35.4891 2.83822 35.6173 2.75367C35.7455 2.66912 35.8898 2.61191 36.041 2.58566C36.1922 2.55941 36.3471 2.56469 36.4958 2.60116C36.6445 2.63764 36.7839 2.70451 36.9051 2.79757C37.0263 2.89062 37.1267 3.00782 37.1999 3.14176L42.0376 11.9844L41.563 12.2441L35.3529 4.35991ZM20.0882 8.8183L21.9021 7.82595C22.0257 7.75795 22.1711 7.74151 22.3062 7.78023C22.4414 7.81895 22.5554 7.90967 22.6231 8.03244L23.2318 9.1451C23.299 9.26808 23.3143 9.41285 23.2744 9.54761C23.2345 9.68238 23.1426 9.79613 23.019 9.86389L22.0973 10.3681L21.4505 9.86906L20.0882 8.8183ZM16.4653 19.1458L10.494 10.5238L11.8885 9.76092L18.6143 17.9701L16.4653 19.1458ZM17.3124 20.369L20.1111 18.8379C20.2069 18.7854 20.2902 18.7126 20.3548 18.6246C20.4194 18.5366 20.4639 18.4356 20.4851 18.3288C20.5062 18.2219 20.5035 18.1119 20.4772 18.0064C20.4509 17.901 20.4015 17.8027 20.3327 17.7187L12.6523 8.34505C12.5429 8.21145 12.3898 8.12044 12.2197 8.08777C12.0495 8.0551 11.8729 8.08284 11.7205 8.16619L9.64504 9.30165L6.86382 5.28144L10.4957 3.29448L18.279 9.30069L19.1559 9.97749L28.6069 17.2712L19.0055 22.8131L17.3124 20.369ZM3.31947 24.3914L5.96884 22.9419L11.3672 27.3379L9.72774 28.2831L7.14856 29.7722L3.31947 24.3914ZM3.91183 36.0511C3.98244 35.1794 4.2644 34.3368 4.73345 33.5957C5.20249 32.8547 5.84457 32.2374 6.60445 31.797L7.46741 31.2988L13.0414 28.0807L15.5928 26.6073L30.1478 18.0902L30.1545 18.0865C32.5764 16.6893 35.1096 15.4946 37.728 14.5147C38.5167 14.2196 39.3658 14.1249 40.1983 14.2393L41.8484 17.2553C41.4959 18.0183 40.9584 18.6826 40.2846 19.1879C38.0946 20.8281 35.7752 22.2885 33.3492 23.5546L33.3462 23.5563L32.6042 23.9405L18.1621 31.3116L15.5501 32.6635L15.5478 32.6647L9.90968 35.583L8.94729 36.0811C8.16626 36.4832 7.29985 36.6906 6.42266 36.6854C5.54547 36.6801 4.6838 36.4625 3.91183 36.0511ZM16.0612 41.3876L13.4118 42.837L10.9429 36.7112L15.27 34.4716L16.0612 41.3876ZM28.9586 44.2745L24.918 34.5962L27.067 33.4205L30.3531 43.5116L28.9586 44.2745ZM31.4153 50.1589L29.53 45.6485L31.6055 44.5131C31.7578 44.4297 31.8764 44.2959 31.9407 44.135C32.005 43.9741 32.0108 43.7961 31.9573 43.6319L28.2051 32.1093C28.1714 32.0059 28.1153 31.9114 28.0407 31.8324C27.9661 31.7533 27.8749 31.6917 27.7735 31.6519C27.6721 31.6121 27.5631 31.5951 27.4541 31.6021C27.3452 31.609 27.239 31.6398 27.1431 31.6923L24.3444 33.2234L23.198 30.4773L33.0429 25.3804L35.0475 48.1717L31.4153 50.1589Z" fill="#222222"/>
</mask>
<g mask="url(#mask0)">
<path fill-rule="evenodd" clip-rule="evenodd" d="M46.9253 30.7643L58.4105 26.5878C53.0159 18.9311 42.2268 3.30426 42.2268 2.05133C42.2268 0.798401 38.3984 -1.95108 36.4842 -3.1692L29.1755 2.05133L39.0945 12.4924L42.7489 18.757L46.9253 30.7643ZM24.477 0.485169L30.7416 11.4483L27.0873 13.0144L20.8226 2.57338L24.477 0.485169ZM44.8371 37.551L38.5724 26.5878L35.4401 28.6761L41.1827 39.1171L44.8371 37.551Z" fill="#6ACA1E"/>
</g>
</g>
<defs>
<clipPath id="clip0">
<rect width="52" height="54" fill="white"/>
</clipPath>
</defs>
</svg>
