<svg width="44" height="44" viewBox="0 0 44 44" fill="none" xmlns="http://www.w3.org/2000/svg">
<path d="M15.1788 33.9805C14.6754 33.4771 13.8591 33.4771 13.3556 33.9805L12.0663 35.2698C11.5628 35.7732 11.5628 36.5895 12.0663 37.093C12.3181 37.3447 12.6481 37.4707 12.9779 37.4707C13.3077 37.4707 13.6379 37.3448 13.8895 37.093L15.1787 35.8038C15.6823 35.3004 15.6823 34.484 15.1788 33.9805Z" fill="#6ACA1E"/>
<path d="M22.9141 33.9805C22.4107 33.4771 21.5944 33.4771 21.0909 33.9805L19.8016 35.2698C19.2981 35.7732 19.2981 36.5895 19.8016 37.093C20.0534 37.3447 20.3833 37.4707 20.7132 37.4707C21.043 37.4707 21.3732 37.3448 21.6248 37.093L22.914 35.8038C23.4176 35.3004 23.4176 34.484 22.9141 33.9805Z" fill="#6ACA1E"/>
<path d="M30.6494 33.9805C30.146 33.4771 29.3297 33.4771 28.8263 33.9805L27.5371 35.2698C27.0336 35.7732 27.0336 36.5895 27.5371 37.093C27.7888 37.3447 28.1188 37.4707 28.4486 37.4707C28.7785 37.4707 29.1086 37.3448 29.3602 37.093L30.6494 35.8038C31.1529 35.3004 31.1529 34.484 30.6494 33.9805Z" fill="#6ACA1E"/>
<path d="M8.73282 40.4266C8.2294 39.9232 7.41308 39.9232 6.90966 40.4266L5.62043 41.7158C5.11692 42.2192 5.11692 43.0356 5.62043 43.5391C5.87214 43.7908 6.20214 43.9168 6.53197 43.9168C6.86188 43.9168 7.19188 43.7909 7.4435 43.5391L8.73273 42.2498C9.23633 41.7464 9.23633 40.9301 8.73282 40.4266Z" fill="#6ACA1E"/>
<path d="M16.4681 40.4266C15.9647 39.9232 15.1484 39.9232 14.6449 40.4266L13.3557 41.7158C12.8522 42.2192 12.8522 43.0356 13.3557 43.5391C13.6074 43.7908 13.9374 43.9168 14.2673 43.9168C14.5971 43.9168 14.9272 43.7909 15.1788 43.5391L16.468 42.2498C16.9716 41.7464 16.9716 40.9301 16.4681 40.4266Z" fill="#6ACA1E"/>
<path d="M24.2033 40.4266C23.6999 39.9232 22.8836 39.9232 22.3802 40.4266L21.0909 41.7158C20.5874 42.2192 20.5874 43.0356 21.0909 43.5391C21.3427 43.7908 21.6727 43.9168 22.0025 43.9168C22.3323 43.9168 22.6624 43.7909 22.914 43.5391L24.2032 42.2498C24.7068 41.7464 24.7068 40.9301 24.2033 40.4266Z" fill="#6ACA1E"/>
<path d="M41.1981 15.5426C40.4722 14.8336 39.6478 14.2606 38.7557 13.8379C38.5291 6.215 32.2578 0.083374 24.581 0.083374C18.2047 0.083374 12.6532 4.35936 10.9476 10.4117C10.7657 10.4022 10.583 10.3971 10.3996 10.3971C4.66519 10.3971 0 15.0238 0 20.7108C0 26.3978 4.66519 31.0245 10.3996 31.0245H34.8947C43.0674 31.0245 47.0917 21.1393 41.1981 15.5426ZM34.8947 28.446H10.3996C6.08694 28.446 2.57838 24.976 2.57838 20.7107C2.57838 13.8403 11.0182 10.3901 15.8693 15.241C16.121 15.4927 16.451 15.6187 16.7808 15.6187C17.1106 15.6187 17.4407 15.4928 17.6923 15.241C18.1959 14.7376 18.1959 13.9213 17.6923 13.4178C16.4994 12.2248 15.0653 11.3607 13.5004 10.8696C14.9738 6.04665 19.451 2.66167 24.5808 2.66167C30.5714 2.66167 35.5161 7.22511 36.1214 13.0582C35.718 13.0037 35.3085 12.9753 34.8945 12.9753C32.484 12.9753 30.2178 13.914 28.5132 15.6186C28.0097 16.122 28.0097 16.9384 28.5132 17.4419C29.0167 17.9453 29.833 17.9453 30.3365 17.4419C32.6906 15.0879 36.5847 14.8001 39.3474 17.3417C39.3823 17.3752 39.4182 17.4075 39.4526 17.4419C43.6776 21.6666 40.6386 28.446 34.8947 28.446Z" fill="#222222"/>
</svg>
