<svg width="71" height="71" viewBox="0 0 71 71" fill="none" xmlns="http://www.w3.org/2000/svg">
<g clip-path="url(#clip0)">
<path d="M52.5278 53.204C66.8795 51.7464 74.7151 38.0818 69.2502 31.2412C66.7007 28.0499 62.3309 27.5509 58.3735 28.6016C58.3808 28.1785 58.3849 27.751 58.3849 27.3184C58.3849 26.1696 57.4537 25.2383 56.3048 25.2383H10.5431C10.2559 25.2383 9.98229 25.2965 9.73337 25.4018C8.98676 25.7175 8.463 26.4568 8.463 27.3184C8.463 38.2647 10.9728 50.1689 17.9151 58.5195H2.08409C0.237262 58.5195 -0.695999 60.7612 0.61334 62.0704C6.17353 67.6307 13.858 71 22.1711 71H44.6769C52.5403 71 60.3565 67.9488 66.2347 62.0704C67.5407 60.7644 66.6155 58.5195 64.7639 58.5195H48.9327C49.8523 57.4133 50.8536 56.0472 51.8483 54.3895C52.072 54.0166 52.2993 53.6197 52.5278 53.204ZM65.9999 33.8379C68.8478 37.403 64.3081 46.3306 54.6722 48.6346C56.255 44.6525 57.6304 39.499 58.1562 33.0398C61.4584 31.7882 64.5932 32.0769 65.9999 33.8379ZM44.6769 66.8398H22.1711C17.0511 66.8398 12.1546 65.3884 7.95075 62.6797H58.8973C54.6934 65.3884 49.7969 66.8398 44.6769 66.8398ZM23.729 58.5195C16.047 52.1792 12.9603 39.58 12.6552 29.3984H37.5841V33.5586H35.504C35.503 33.5586 35.5021 33.5587 35.5011 33.5587C34.7871 33.5605 34.1468 33.9279 33.7752 34.4822C33.7745 34.4831 33.7738 34.4838 33.7733 34.4848C33.5246 34.8578 31.3439 38.2342 31.3439 41.8789C31.3439 45.5236 33.5246 48.9 33.7733 49.2729C33.7738 49.2737 33.7744 49.2743 33.7749 49.2751C34.1502 49.8353 34.8 50.1992 35.5115 50.1992H43.8167C44.5052 50.1992 45.1642 49.8561 45.5533 49.2751C45.5538 49.2743 45.5544 49.2737 45.555 49.2729C45.8036 48.9 47.9843 45.5235 47.9843 41.8789C47.9843 38.2343 45.8036 34.8578 45.555 34.4848C45.5543 34.4838 45.5536 34.4831 45.553 34.4822C45.1654 33.9037 44.5157 33.56 43.827 33.5587C43.8261 33.5587 43.8252 33.5586 43.8243 33.5586H41.7442V29.3984H54.1927C53.8836 39.7149 50.741 52.2287 43.1197 58.5195H23.729ZM36.7084 46.0391C36.1992 45.052 35.504 43.4223 35.504 41.8789C35.504 40.4154 36.1617 38.7832 36.7062 37.7188H42.62C43.1292 38.7058 43.8243 40.3355 43.8243 41.8789C43.8243 43.3425 43.1666 44.9746 42.6222 46.0391H36.7084Z" fill="#222222"/>
<path d="M19.4728 17.2498C18.6604 18.0621 18.6604 19.3791 19.4728 20.1914C20.285 21.0036 21.6021 21.0038 22.4144 20.1914C25.8891 16.7171 26.0363 12.5503 22.4203 8.93515C20.5138 6.99749 20.5119 5.48457 22.4203 3.54497C23.2268 2.73222 23.225 1.41941 22.4144 0.609011C21.6022 -0.203329 20.2851 -0.203329 19.4728 0.609011C15.9981 4.0833 15.851 8.25011 19.467 11.8653C21.3705 13.8 21.3763 15.3149 19.4728 17.2498Z" fill="#6ACA1E"/>
<path d="M31.9533 17.2498C31.1409 18.0621 31.1409 19.3791 31.9533 20.1914C32.7655 21.0036 34.0826 21.0038 34.8949 20.1914C38.3696 16.7171 38.5168 12.5503 34.9007 8.93515C32.9943 6.99749 32.9923 5.48458 34.9007 3.54497C35.7073 2.73222 35.7055 1.41941 34.8949 0.609011C34.0827 -0.203329 32.7656 -0.203329 31.9533 0.609011C28.4786 4.0833 28.3314 8.25011 31.9474 11.8653C33.851 13.8 33.8568 15.3149 31.9533 17.2498Z" fill="#6ACA1E"/>
<path d="M44.4337 17.2498C43.6214 18.0621 43.6214 19.3791 44.4337 20.1914C45.2459 21.0036 46.563 21.0038 47.3754 20.1914C50.8501 16.7171 50.9972 12.5503 47.3812 8.93515C45.4747 6.99749 45.4728 5.48457 47.3812 3.54497C48.1877 2.73222 48.1859 1.41941 47.3754 0.609011C46.5632 -0.203329 45.2461 -0.203329 44.4337 0.609011C40.959 4.0833 40.8119 8.25011 44.4279 11.8653C46.3314 13.8 46.3373 15.3149 44.4337 17.2498Z" fill="#6ACA1E"/>
</g>
<defs>
<clipPath id="clip0">
<rect width="71" height="71" fill="white"/>
</clipPath>
</defs>
</svg>
