<svg width="44" height="44" viewBox="0 0 44 44" fill="none" xmlns="http://www.w3.org/2000/svg">
<path d="M41.0776 12.4256C41.0776 13.2137 40.4388 13.8525 39.6507 13.8525H34.8947V17.2781C34.8947 24.2119 29.2537 29.8529 22.32 29.8529C14.2566 29.8529 9.2688 23.7252 9.2688 17.2781V12.5747C9.2688 6.10972 14.272 0 22.32 0C28.7201 0 34.0184 4.80614 34.7962 10.9987H39.6507C40.4388 10.9987 41.0776 11.6375 41.0776 12.4256ZM12.2511 10.9987H31.9123C31.1571 6.38547 27.1435 2.85384 22.32 2.85384H21.8435C17.02 2.85384 13.0064 6.38547 12.2511 10.9987ZM32.0409 13.8525H12.1226V17.2781C12.1226 22.6383 16.4834 26.999 21.8435 26.999H22.32C27.6801 26.999 32.0409 22.6383 32.0409 17.2781V13.8525Z" fill="#222222"/>
<path d="M24.25 8.66693C23.7538 9.16323 22.9829 9.21754 22.4267 8.82995C21.8769 9.16795 21.1476 9.09866 20.6714 8.62234C20.1141 8.06512 20.1141 7.16162 20.6714 6.6044L21.4294 5.84635C21.9867 5.28905 22.8902 5.28905 23.4474 5.84635L24.25 6.64899C24.8073 7.20621 24.8073 8.10972 24.25 8.66693Z" fill="#6ACA1E"/>
<path fill-rule="evenodd" clip-rule="evenodd" d="M18.0558 31.2705H15.2742C9.34036 31.2705 4.51282 36.098 4.51282 42.0319V42.5731C4.51282 43.3612 5.15163 44 5.93974 44C6.72784 44 7.36666 43.3612 7.36666 42.5731V42.0319C7.36666 37.6717 10.9139 34.1244 15.2742 34.1244H16.6415C17.2673 36.5442 19.4691 38.3369 22.0818 38.3369C24.6945 38.3369 26.8963 36.5442 27.5221 34.1244H28.8894C33.2497 34.1244 36.7969 37.6717 36.7969 42.0319V42.5731C36.7969 43.3612 37.4357 44 38.2238 44C39.0119 44 39.6507 43.3612 39.6507 42.5731V42.0319C39.6507 36.098 34.8232 31.2705 28.8894 31.2705H25.9442C25.8448 33.9607 24.117 36.1026 22 36.1026C19.883 36.1026 18.1552 33.9607 18.0558 31.2705Z" fill="#6ACA1E"/>
</svg>
