<svg width="35" height="40" viewBox="0 0 35 40" fill="none" xmlns="http://www.w3.org/2000/svg">
<path d="M7.9714 6.48954C9.76343 6.48954 11.2162 5.03681 11.2162 3.24477C11.2162 1.45273 9.76343 0 7.9714 0C6.17936 0 4.72662 1.45273 4.72662 3.24477C4.72662 5.03681 6.17936 6.48954 7.9714 6.48954Z" fill="#B0B0B0"/>
<path d="M12.1738 7.52393C11.339 7.52393 4.74686 7.52393 3.76882 7.52393C1.7009 7.52393 0.0102574 9.17763 0 11.2182V22.7202C0 23.5849 0.700925 24.2858 1.56555 24.2858C2.43018 24.2858 3.13111 23.5849 3.13111 22.7202V11.2261C3.13269 10.9273 3.4676 10.6551 3.79976 10.6551V37.5446C3.79976 38.5822 4.64937 39.4234 5.68696 39.4234C6.72455 39.4234 7.56566 38.5823 7.56566 37.5446V22.5277H8.37691V37.5446C8.37691 38.5822 9.21802 39.4234 10.2556 39.4234C11.2932 39.4234 12.1423 38.5823 12.1423 37.5446C12.1423 37.5319 12.1423 10.6642 12.1423 10.6551C12.4714 10.6551 12.8039 10.9272 12.8054 11.2182V22.7202C12.8054 23.5849 13.5063 24.2858 14.3709 24.2858C15.2356 24.2858 15.9365 23.5849 15.9365 22.7202V11.2103C15.9265 9.17763 14.2384 7.52393 12.1738 7.52393Z" fill="#B0B0B0"/>
<path d="M27.0348 6.48954C28.8268 6.48954 30.2796 5.03681 30.2796 3.24477C30.2796 1.45273 28.8268 0 27.0348 0C25.2428 0 23.79 1.45273 23.79 3.24477C23.79 5.03681 25.2428 6.48954 27.0348 6.48954Z" fill="#6ACA1E"/>
<path d="M31.2375 7.52393C30.4026 7.52393 23.8104 7.52393 22.8324 7.52393C20.7644 7.52393 19.0738 9.17763 19.0635 11.2182V22.7202C19.0635 23.5849 19.7645 24.2858 20.6291 24.2858C21.4937 24.2858 22.1946 23.5849 22.1946 22.7202V11.2261C22.1962 10.9273 22.5311 10.6551 22.8633 10.6551V37.5446C22.8633 38.5822 23.7129 39.4234 24.7505 39.4234C25.7881 39.4234 26.6292 38.5823 26.6292 37.5446V22.5277H27.4405V37.5446C27.4405 38.5822 28.2816 39.4234 29.3191 39.4234C30.3567 39.4234 31.1225 38.5823 31.1225 37.5446C31.1225 37.5319 31.1225 10.6642 31.1225 10.6551C31.4514 10.6551 31.8673 10.9272 31.8689 11.2182V22.7202C31.8689 23.5849 32.5698 24.2858 33.4345 24.2858C34.2991 24.2858 35 23.5849 35 22.7202V11.2103C34.9899 9.17763 33.3019 7.52393 31.2375 7.52393Z" fill="#6ACA1E"/>
</svg>
