<svg width="18" height="20" viewBox="0 0 18 20" fill="none" xmlns="http://www.w3.org/2000/svg">
<path fill-rule="evenodd" clip-rule="evenodd" d="M17.8161 11.5783C18.402 6.56022 17.5347 3.39218 15.9703 1.95928L15.9711 1.95845C13.4462 -0.488562 4.91909 -0.850743 1.89835 2.06835C0.541799 3.49626 0.0639793 5.59191 0.0116154 8.18629C-0.0407484 10.7815 -0.10293 15.643 4.34881 16.9619H4.3529L4.34881 18.9759C4.34881 18.9759 4.31854 19.7919 4.83072 19.9559C5.38239 20.1378 5.64963 19.8125 7.20053 17.9244L7.50373 17.5555C10.5507 17.8245 12.8907 17.2083 13.1566 17.1184C13.2115 17.0997 13.2893 17.0789 13.3859 17.053C14.3704 16.7898 17.3035 16.0056 17.8161 11.5783ZM7.80401 16.1384C7.80401 16.1384 5.87554 18.5854 5.27582 19.2207C5.07945 19.4272 4.86427 19.4081 4.86754 18.9984C4.86754 18.7295 4.88227 15.6547 4.88227 15.6547C1.23769 14.5918 1.31995 10.6953 1.36675 8.47879C1.36841 8.39991 1.37003 8.32315 1.37144 8.24873C1.41235 6.08231 1.8018 4.30804 2.95053 3.11326C5.60063 0.584658 13.0764 1.14999 14.9811 2.97172C17.1006 4.88378 16.6042 9.97243 16.5017 11.0233C16.4916 11.1269 16.4853 11.1913 16.4858 11.2095C16.0548 14.8633 13.7248 15.4359 12.8862 15.6419C12.7935 15.6647 12.719 15.683 12.6673 15.7005C12.4456 15.7754 10.3878 16.3141 7.80401 16.1384ZM8.8709 3.58867C8.5559 3.58867 8.5559 4.08823 8.8709 4.09239C11.3148 4.11154 13.3276 5.84502 13.3496 9.02471C13.3496 9.36025 13.8324 9.35608 13.8283 9.02055H13.8275C13.8013 5.5944 11.6036 3.60782 8.8709 3.58867ZM12.5642 8.50935C12.5602 8.84489 12.0782 8.82907 12.0856 8.4977C12.1232 6.84332 11.1406 5.5478 9.27515 5.40376C8.96097 5.38045 8.99369 4.87673 9.30869 4.90004C11.4597 5.06406 12.6043 6.62019 12.5642 8.50935ZM11.57 10.6466C11.1658 10.4085 10.7543 10.5567 10.5841 10.7906L10.2282 11.2594C10.0474 11.4975 9.70948 11.4659 9.70948 11.4659C7.24347 10.8023 6.58402 8.17629 6.58402 8.17629C6.58402 8.17629 6.55374 7.82077 6.77956 7.6301L7.22466 7.25543C7.4472 7.07559 7.58793 6.64264 7.36129 6.21718C6.90477 5.37782 6.56128 4.95313 6.33118 4.66863L6.33117 4.66862C6.25611 4.57581 6.19311 4.49793 6.1422 4.42543C5.92456 4.14817 5.59729 4.08573 5.25692 4.27306H5.24956C4.54183 4.69436 3.76701 5.48283 4.01492 6.29461C4.08826 6.44302 4.17226 6.64773 4.27393 6.8955L4.27394 6.89553C4.7586 8.0767 5.64479 10.2364 7.69266 11.9405C8.85693 12.9154 10.6995 13.9146 11.4817 14.1452L11.489 14.1568C12.2598 14.4183 13.0092 13.599 13.4093 12.8572V12.8513C13.5869 12.4925 13.5279 12.1528 13.2686 11.9305C12.8088 11.4742 12.1149 10.9705 11.57 10.6466ZM10.8542 8.08138C10.8133 7.22297 10.4321 6.80501 9.64578 6.75838C9.3275 6.73923 9.35696 6.23551 9.67196 6.25466C10.7061 6.31294 11.2805 6.93739 11.3329 8.05807C11.3476 8.39361 10.869 8.41692 10.8542 8.08138Z" fill="#8E24AA"/>
</svg>
