<svg width="32" height="23" viewBox="0 0 32 23" fill="none" xmlns="http://www.w3.org/2000/svg">
<path d="M0.5 2C0.5 1.17157 1.17157 0.5 2 0.5H30C30.8284 0.5 31.5 1.17157 31.5 2V21C31.5 21.8284 30.8284 22.5 30 22.5H2C1.17157 22.5 0.5 21.8284 0.5 21V2Z" stroke="black"/>
<path d="M5.86023 7.84399C5.68956 7.97999 5.4829 8.04799 5.24023 8.04799C4.99756 8.04799 4.78956 7.97999 4.61623 7.84399C4.44556 7.70533 4.3229 7.53466 4.24823 7.33199C4.17356 7.12933 4.13623 6.90799 4.13623 6.66799C4.13623 6.42799 4.17356 6.20666 4.24823 6.00399C4.3229 5.80133 4.44556 5.63199 4.61623 5.49599C4.78956 5.35999 4.99756 5.29199 5.24023 5.29199C5.4829 5.29199 5.68956 5.35999 5.86023 5.49599C6.0309 5.63199 6.15356 5.80133 6.22823 6.00399C6.30556 6.20666 6.34423 6.42799 6.34423 6.66799C6.34423 6.90799 6.30556 7.12933 6.22823 7.33199C6.15356 7.53466 6.0309 7.70533 5.86023 7.84399ZM4.84023 7.30399C4.92556 7.46399 5.0589 7.54399 5.24023 7.54399C5.42156 7.54399 5.55356 7.46399 5.63623 7.30399C5.72156 7.14399 5.76423 6.93199 5.76423 6.66799C5.76423 6.40399 5.72156 6.19333 5.63623 6.03599C5.55356 5.87599 5.42156 5.79599 5.24023 5.79599C5.0589 5.79599 4.92556 5.87599 4.84023 6.03599C4.7549 6.19333 4.71223 6.40399 4.71223 6.66799C4.71223 6.93199 4.7549 7.14399 4.84023 7.30399Z" fill="black"/>
<path d="M8.3407 7.84399C8.17003 7.97999 7.96337 8.04799 7.7207 8.04799C7.47803 8.04799 7.27003 7.97999 7.0967 7.84399C6.92603 7.70533 6.80337 7.53466 6.7287 7.33199C6.65403 7.12933 6.6167 6.90799 6.6167 6.66799C6.6167 6.42799 6.65403 6.20666 6.7287 6.00399C6.80337 5.80133 6.92603 5.63199 7.0967 5.49599C7.27003 5.35999 7.47803 5.29199 7.7207 5.29199C7.96337 5.29199 8.17003 5.35999 8.3407 5.49599C8.51137 5.63199 8.63403 5.80133 8.7087 6.00399C8.78603 6.20666 8.8247 6.42799 8.8247 6.66799C8.8247 6.90799 8.78603 7.12933 8.7087 7.33199C8.63403 7.53466 8.51137 7.70533 8.3407 7.84399ZM7.3207 7.30399C7.40603 7.46399 7.53937 7.54399 7.7207 7.54399C7.90203 7.54399 8.03403 7.46399 8.1167 7.30399C8.20203 7.14399 8.2447 6.93199 8.2447 6.66799C8.2447 6.40399 8.20203 6.19333 8.1167 6.03599C8.03403 5.87599 7.90203 5.79599 7.7207 5.79599C7.53937 5.79599 7.40603 5.87599 7.3207 6.03599C7.23537 6.19333 7.1927 6.40399 7.1927 6.66799C7.1927 6.93199 7.23537 7.14399 7.3207 7.30399Z" fill="black"/>
<path d="M10.8212 7.84399C10.6505 7.97999 10.4438 8.04799 10.2012 8.04799C9.9585 8.04799 9.7505 7.97999 9.57717 7.84399C9.4065 7.70533 9.28383 7.53466 9.20917 7.33199C9.1345 7.12933 9.09717 6.90799 9.09717 6.66799C9.09717 6.42799 9.1345 6.20666 9.20917 6.00399C9.28383 5.80133 9.4065 5.63199 9.57717 5.49599C9.7505 5.35999 9.9585 5.29199 10.2012 5.29199C10.4438 5.29199 10.6505 5.35999 10.8212 5.49599C10.9918 5.63199 11.1145 5.80133 11.1892 6.00399C11.2665 6.20666 11.3052 6.42799 11.3052 6.66799C11.3052 6.90799 11.2665 7.12933 11.1892 7.33199C11.1145 7.53466 10.9918 7.70533 10.8212 7.84399ZM9.80117 7.30399C9.8865 7.46399 10.0198 7.54399 10.2012 7.54399C10.3825 7.54399 10.5145 7.46399 10.5972 7.30399C10.6825 7.14399 10.7252 6.93199 10.7252 6.66799C10.7252 6.40399 10.6825 6.19333 10.5972 6.03599C10.5145 5.87599 10.3825 5.79599 10.2012 5.79599C10.0198 5.79599 9.8865 5.87599 9.80117 6.03599C9.71583 6.19333 9.67317 6.40399 9.67317 6.66799C9.67317 6.93199 9.71583 7.14399 9.80117 7.30399Z" fill="black"/>
<line x1="4.5" y1="15.5" x2="14.5" y2="15.5" stroke="black" stroke-linecap="round"/>
<line x1="4.5" y1="17.5" x2="8.5" y2="17.5" stroke="black" stroke-linecap="round"/>
<circle cx="26" cy="8" r="2.6" stroke="black" stroke-width="0.8"/>
</svg>
