<svg width="25" height="25" viewBox="0 0 25 25" fill="none" xmlns="http://www.w3.org/2000/svg">
<path d="M14.5155 24.8372C14.4113 24.8542 14.3068 24.8699 14.2019 24.8842C14.3068 24.8699 14.4113 24.8542 14.5155 24.8372Z" fill="#C0C0C0"/>
<path d="M14.7656 24.7945C14.7158 24.8037 14.666 24.8121 14.6162 24.8207C14.666 24.8121 14.7158 24.8037 14.7656 24.7945Z" fill="#C0C0C0"/>
<path d="M13.9227 24.9189C13.8008 24.9326 13.6782 24.9449 13.5552 24.9552C13.6782 24.9449 13.8008 24.9326 13.9227 24.9189Z" fill="#C0C0C0"/>
<path d="M14.1628 24.8896C14.1043 24.8974 14.0453 24.9046 13.9866 24.9115C14.0453 24.9046 14.1043 24.8974 14.1628 24.8896Z" fill="#C0C0C0"/>
<path d="M15.1059 24.7271C15.062 24.7364 15.0179 24.7458 14.9739 24.7547C15.0179 24.7458 15.062 24.7364 15.1059 24.7271Z" fill="#C0C0C0"/>
<path d="M15.9504 24.5172C15.9149 24.5274 15.8795 24.5369 15.844 24.5468C15.8795 24.5369 15.9149 24.5274 15.9504 24.5172Z" fill="#C0C0C0"/>
<path d="M15.6951 24.587C15.6565 24.5971 15.6178 24.6074 15.5791 24.6171C15.6178 24.6074 15.6565 24.5973 15.6951 24.587Z" fill="#C0C0C0"/>
<path d="M15.3608 24.6706C15.3199 24.6801 15.2787 24.6891 15.2375 24.6982C15.2787 24.6891 15.3199 24.6801 15.3608 24.6706Z" fill="#C0C0C0"/>
<path d="M13.5511 24.9555C13.4853 24.9611 13.4195 24.966 13.3535 24.9704C13.4195 24.966 13.4853 24.9611 13.5511 24.9555Z" fill="#C0C0C0"/>
<path d="M25 12.5C25 5.5975 19.4025 0 12.5 0C5.5975 0 0 5.5975 0 12.5C0 19.4025 5.5975 25 12.5 25C12.5734 25 12.6465 24.9985 12.7197 24.9971V15.2664H10.0342V12.1367H12.7197V9.83353C12.7197 7.16248 14.3503 5.70869 16.733 5.70869C17.874 5.70869 18.8547 5.79376 19.1406 5.83172V8.62331H17.4976C16.2014 8.62331 15.9504 9.23939 15.9504 10.1433V12.1367H19.0498L18.6459 15.2664H15.9504V24.5171C21.1752 23.0192 25 18.2056 25 12.5Z" fill="#C0C0C0"/>
<path d="M13.3259 24.9721C13.1958 24.9805 13.0651 24.9872 12.9341 24.9916C13.0651 24.9872 13.1958 24.9805 13.3259 24.9721Z" fill="#C0C0C0"/>
<path d="M12.9275 24.992C12.8584 24.9943 12.7892 24.996 12.72 24.9972C12.7892 24.996 12.8584 24.9943 12.9275 24.992Z" fill="#C0C0C0"/>
</svg>
