<svg width="14" height="14" viewBox="0 0 14 14" fill="none" xmlns="http://www.w3.org/2000/svg">
<path d="M12.0807 0.677419L2.82264 0.677419V0.225806C2.82264 0.101105 2.72153 0 2.59683 0L1.91941 0C1.79471 0 1.6936 0.101105 1.6936 0.225806L1.6936 13.7742C1.6936 13.8989 1.79471 14 1.91941 14H2.59683C2.72153 14 2.82264 13.8989 2.82264 13.7742L2.82264 8.35484H12.0807C12.2054 8.35484 12.3065 8.25373 12.3065 8.12903V0.903226C12.3065 0.778524 12.2054 0.677419 12.0807 0.677419ZM2.37102 13.5484H2.14522L2.14522 0.451613H2.37102L2.37102 13.5484ZM11.8549 3.3871L9.59683 3.3871V5.64516H11.8549V7.90323H9.59683V5.64516H7.33877V7.90323H5.0807V5.64516H2.82264V3.3871H5.0807V1.12903L7.33877 1.12903V3.3871H9.59683V1.12903H11.8549V3.3871Z" fill="black"/>
<path d="M7.33887 3.38708H5.08081V5.64515H7.33887V3.38708Z" fill="black"/>
</svg>
