<svg width="146" height="64" viewBox="0 0 146 64" fill="none" xmlns="http://www.w3.org/2000/svg">
<path fill-rule="evenodd" clip-rule="evenodd" d="M140.466 20.4444L132.439 48.5264C132.053 49.875 130.821 50.8059 129.416 50.8093C120.426 50.8295 88.099 50.9017 71.2941 50.9358C71.0899 50.9654 70.8836 50.9792 70.6752 50.9796C70.3378 50.9803 70.0002 50.9444 69.6724 50.8661C69.4045 50.801 69.1411 50.7127 68.889 50.6034C68.6762 50.5117 68.4698 50.4058 68.2693 50.2908C68.1608 50.2276 68.0506 50.1681 67.9408 50.1101L65.7451 48.6196L63.9825 48.623C63.7585 50.3946 65.5705 55.7909 64.0199 56.6095C63.963 56.8254 63.8978 57.0433 63.8263 57.2439C63.6337 58.1284 63.101 58.883 62.1951 59.1952C61.9123 59.2917 61.611 59.3329 61.3143 59.3179C57.7029 59.8109 57.5182 56.9812 57.5126 54.2236L57.0181 50.9242L57.6561 49.7265L58.0393 48.739L58.0386 48.346L55.9912 48.4871L55.9122 48.4874C54.3788 48.4785 52.3187 48.221 50.8763 47.3069L36.5771 54.8398L35.3236 57.6118C34.8609 58.6658 33.9037 59.3501 32.6948 59.3485C31.675 59.5167 30.656 59.288 29.9046 58.5072C28.9458 57.5145 28.9376 56.2815 29.0066 55.0175C29.0473 54.2622 29.0672 53.4967 29.0849 52.7395C28.9811 51.8981 28.9871 50.9212 29.2819 50.1022C29.5408 48.3632 30.9767 47.1179 32.8402 47.2415C34.1532 47.3271 35.1842 47.9608 35.6881 48.9831L46.1201 42.983L25.4704 29.6961L4.15726 29.2169L4.14453 22.9938L43.0635 23.1522C44.039 21.0362 45.3827 19.1359 47.1233 17.5428L47.1601 17.5103L47.1964 17.4788C50.531 14.6903 54.3837 12.8768 58.6189 12.2693C58.6118 8.60267 57.8775 4.89372 61.4237 4.88624C64.8793 4.8795 64.3163 10.4719 64.2982 12.1769C65.2087 12.2734 66.1137 12.4254 67.0028 12.6298L68.8841 13.0636L68.4462 16.8968L66.5142 16.8927C65.787 16.8924 65.0142 16.9403 64.2485 17.0147L64.1953 22.0899L67.3313 22.1973C67.7172 22.4241 68.103 22.6487 68.487 22.8774C69.1127 23.1896 70.0534 24.0183 70.7813 24.4738L74.501 18.6549L87.0478 18.6295C88.9101 18.6258 90.5565 19.3679 91.9338 20.6024C92.2872 20.9213 92.6125 21.2601 92.8998 21.6212L94.8274 18.6448L113.503 18.576C114.058 17.6465 115.086 17.0159 116.188 17.0136L137.869 16.9698C139.716 16.9661 140.972 18.6842 140.466 20.4444Z" fill="#FEFEFE"/>
<path fill-rule="evenodd" clip-rule="evenodd" d="M140.466 20.4444L132.439 48.5264C132.053 49.875 130.821 50.8059 129.416 50.8093C120.426 50.8295 88.099 50.9017 71.2941 50.9358C71.0899 50.9654 70.8836 50.9792 70.6752 50.9796C70.3378 50.9803 70.0002 50.9444 69.6724 50.8661C69.4045 50.801 69.1411 50.7127 68.889 50.6034C68.6762 50.5117 68.4698 50.4058 68.2693 50.2908C68.1608 50.2276 68.0506 50.1681 67.9408 50.1101L65.7451 48.6196L63.9825 48.623C63.7585 50.3946 65.5705 55.7909 64.0199 56.6095C63.963 56.8254 63.8978 57.0433 63.8263 57.2439C63.6337 58.1284 63.101 58.883 62.1951 59.1952C61.9123 59.2917 61.611 59.3329 61.3143 59.3179C57.7029 59.8109 57.5182 56.9812 57.5126 54.2236L57.0181 50.9242L57.6561 49.7265L58.0393 48.739L58.0386 48.346L55.9912 48.4871L55.9122 48.4874C54.3788 48.4785 52.3187 48.221 50.8763 47.3069L36.5771 54.8398L35.3236 57.6118C34.8609 58.6658 33.9037 59.3501 32.6948 59.3485C31.675 59.5167 30.656 59.288 29.9046 58.5071C28.9458 57.5145 28.9376 56.2815 29.0066 55.0175C29.0473 54.2622 29.0672 53.4967 29.0849 52.7395C28.9811 51.8981 28.9871 50.9212 29.2819 50.1022C29.5408 48.3632 30.9767 47.1179 32.8402 47.2415C34.1532 47.3271 35.1842 47.9608 35.6881 48.9831L46.1201 42.983L25.4704 29.6961L4.15726 29.2169L4.14453 22.9938L43.0635 23.1522C44.039 21.0362 45.3827 19.1359 47.1233 17.5428L47.1601 17.5103L47.1964 17.4788C50.531 14.6903 54.3837 12.8768 58.6189 12.2693C58.6117 8.60267 57.8775 4.89372 61.4237 4.88624C64.8793 4.8795 64.3163 10.4719 64.2982 12.1769C65.2087 12.2734 66.1137 12.4254 67.0028 12.6298L68.8841 13.0636L68.4462 16.8968L66.5142 16.8927C65.787 16.8924 65.0142 16.9403 64.2485 17.0147L64.1953 22.0899L67.3313 22.1973C67.7172 22.4241 68.103 22.6487 68.487 22.8774C69.1127 23.1896 70.0534 24.0183 70.7813 24.4738L74.501 18.6549L87.0477 18.6295C88.9101 18.6258 90.5565 19.3679 91.9338 20.6024C92.2872 20.9213 92.6125 21.2601 92.8998 21.6212L94.8274 18.6448L113.503 18.576C114.058 17.6465 115.086 17.0159 116.188 17.0136L137.869 16.9698C139.716 16.9661 140.972 18.6842 140.466 20.4444Z" stroke="#FEFEFE" stroke-width="1.9488" stroke-miterlimit="10"/>
<path fill-rule="evenodd" clip-rule="evenodd" d="M134.284 41.8255L132.525 48.2658C132.089 49.8592 130.643 50.9656 128.989 50.9694C119.432 50.9903 87.7601 51.0614 71.2077 51.0948C71.0036 51.1239 70.7972 51.1378 70.5885 51.1381C70.2513 51.1393 69.9141 51.1034 69.586 51.0251C69.3177 50.9599 69.0551 50.8717 68.8026 50.7624C68.5898 50.6707 68.383 50.5647 68.1826 50.4498C68.0743 50.3865 67.9641 50.327 67.8548 50.269L65.6587 48.7785L63.8961 48.7819C63.6724 50.5531 65.4841 55.9498 63.9339 56.7684C63.8762 56.984 63.811 57.2022 63.7398 57.4025C63.5473 58.2873 63.0142 59.0415 62.1091 59.3537C61.8255 59.4502 61.5247 59.4914 61.2279 59.4768C57.6169 59.9694 57.4318 57.1397 57.4262 54.3826L56.9316 51.0831L57.5693 49.8854L57.9533 48.898L57.9525 48.5049L55.9048 48.6461L55.8254 48.6464C54.2924 48.6375 52.2323 48.38 50.79 47.4659L36.4907 54.9991L35.2368 57.7704C34.7745 58.8252 33.8173 59.509 32.6084 59.5079C31.5887 59.6752 30.5696 59.4465 29.8181 58.6657C28.8594 57.6735 28.8512 56.4405 28.9201 55.1765C28.961 54.4207 28.9808 53.6561 28.9984 52.8989C28.8947 52.0567 28.9003 51.0801 29.1954 50.2608C29.454 48.5221 30.8899 47.2769 32.7534 47.4004C34.0668 47.4858 35.0978 48.1194 35.6017 49.142L46.0336 43.1416L25.384 29.855L4.07047 29.3759L4.05811 23.1528L42.977 23.3111C43.9526 21.1951 45.2964 19.2949 47.0369 17.7015L47.0733 17.6689L47.11 17.6378C50.4442 14.8492 54.2976 13.0358 58.5328 12.4282C58.5254 8.76161 57.791 5.05228 61.3374 5.04517C64.7929 5.03806 64.2295 10.6308 64.2119 12.3358C65.1222 12.432 66.027 12.5843 66.9167 12.7887L68.7973 13.2225L68.3598 17.0558L66.4274 17.0516C65.7003 17.0513 64.9274 17.0992 64.1617 17.1737L64.1085 22.2488L67.2445 22.3563C67.6307 22.5827 68.0166 22.8076 68.4006 23.036C69.0259 23.3486 69.967 24.1772 70.6952 24.6324L74.4146 18.8134L86.9609 18.788C88.8236 18.7847 90.4701 19.5269 91.8474 20.7613C92.2017 21.0799 92.5252 21.419 92.8134 21.7802L94.7401 18.8038L113.417 18.7345C113.972 17.8051 114.999 17.1748 116.101 17.1725L137.782 17.1288C139.629 17.125 140.885 18.8427 140.38 20.6034L134.291 41.8322L134.284 41.8255Z" fill="#2A2928"/>
<path fill-rule="evenodd" clip-rule="evenodd" d="M132.582 48.1532C132.112 49.8383 130.578 51.0061 128.827 51.0099C119.084 51.0315 87.7066 51.1019 71.2491 51.1352C71.0445 51.1645 70.8381 51.1783 70.6298 51.1787C70.2926 51.1798 69.955 51.1438 69.6273 51.0656C69.359 51.0001 69.0965 50.9122 68.8435 50.8025C68.6311 50.7112 68.4243 50.6056 68.2239 50.49C68.1156 50.4271 68.0055 50.3676 67.8957 50.3095L65.7 48.8191L63.9377 48.8224C63.7137 50.5937 65.5255 55.9903 63.9748 56.8089C63.9175 57.0245 63.8524 57.2427 63.7811 57.443C63.5882 58.3278 63.0559 59.082 62.1503 59.3942C61.8668 59.4908 61.5656 59.532 61.2693 59.5174C57.6578 60.0099 57.4731 57.1802 57.4675 54.4231L56.9729 51.1236L57.6106 49.9255L57.9942 48.9381L57.9935 48.5455L55.9461 48.6865L55.8667 48.687C54.3337 48.6779 52.2736 48.4204 50.8313 47.5064L36.5319 55.0396L35.2784 57.8109C34.8158 58.8657 33.8586 59.5495 32.6493 59.5484C31.6299 59.7158 30.6109 59.487 29.8594 58.7063C28.9008 57.714 28.8925 56.4811 28.9614 55.2166C29.0023 54.4613 29.0221 53.6962 29.0397 52.9394C28.9356 52.0972 28.9415 51.1206 29.2368 50.3013C29.4953 48.5627 30.9312 47.3174 32.7946 47.4405C34.1081 47.5262 35.1391 48.1599 35.6426 49.1825L46.0749 43.182L25.4253 29.8955L4.11173 29.416L4.09937 23.1929L43.0183 23.3516C43.9939 21.2357 45.3377 19.3353 47.0782 17.7419L47.1146 17.7094L47.1513 17.6784C50.4854 14.8898 54.3385 13.0762 58.5742 12.4688C58.5667 8.80214 57.8324 5.09281 61.3787 5.0857C64.8338 5.07858 64.2708 10.671 64.2532 12.3763C65.1635 12.4725 66.0682 12.6249 66.9576 12.8292L68.8386 13.2627L68.4011 17.0962L66.4688 17.0922C65.7416 17.0918 64.9688 17.1397 64.203 17.2142L64.1498 22.2893L67.2859 22.3967C67.6721 22.6232 68.0579 22.8482 68.442 23.0765C69.0672 23.389 70.0082 24.2178 70.7361 24.6729L74.4563 18.854L87.002 18.8289C88.8649 18.8248 90.5115 19.5674 91.8892 20.8015C92.2426 21.1204 92.5671 21.4591 92.8553 21.8207L94.7819 18.8438L113.458 18.775C114.013 17.8456 115.039 17.2153 116.143 17.213L137.824 17.1692C139.671 17.1655 140.926 18.8832 140.421 20.6435L134.331 41.8728L132.582 48.1532Z" stroke="#2B2A29" stroke-width="0.0018"/>
<path fill-rule="evenodd" clip-rule="evenodd" d="M116.147 19.3732L137.829 19.3291C138.226 19.3283 138.457 19.6514 138.344 20.0488L132.253 41.2796C132.14 41.6749 131.723 42.0013 131.325 42.002L109.644 42.0462C109.247 42.0469 109.015 41.7217 109.129 41.3264L115.219 20.0957C115.332 19.6982 115.75 19.3737 116.147 19.3732Z" fill="#E22B31"/>
<path fill-rule="evenodd" clip-rule="evenodd" d="M116.147 19.3732L137.829 19.3291C138.226 19.3283 138.457 19.6514 138.344 20.0488L132.253 41.2796C132.14 41.6749 131.723 42.0013 131.325 42.002L109.644 42.0462C109.247 42.0469 109.015 41.7217 109.129 41.3264L115.219 20.0957C115.332 19.6982 115.75 19.3737 116.147 19.3732Z" stroke="#E22B31" stroke-width="0.0018"/>
<path fill-rule="evenodd" clip-rule="evenodd" d="M56.9683 24.452L60.4629 24.4449L60.47 28.03L59.1258 28.033C59.1258 28.033 52.4971 28.5705 50.7378 31.1711C50.7378 31.1711 50.5198 25.4514 56.9683 24.452ZM112.841 20.9358L111.655 25.6453L92.9258 25.6831L95.9591 20.9972L112.841 20.9358ZM92.1474 25.6846L72.6257 25.7243L75.6418 21.0111L87.0063 20.9883C88.2362 20.9856 89.3826 21.4573 90.4454 22.4091C91.5329 23.3834 92.0984 24.4771 92.1474 25.6846ZM92.5072 27.5722C92.5144 30.8784 91.8773 33.4731 90.599 35.3543C89.5736 36.8594 88.637 37.9381 87.7822 38.5774C86.0895 39.8546 83.9643 40.4984 81.4048 40.5036L70.2048 40.5264L73.8657 27.6101L80.8154 27.5958L78.4928 35.4538C78.9307 35.6268 79.4054 35.7159 79.9063 35.7148C80.8552 35.7129 81.8307 35.4277 82.8358 34.8576C84.4768 33.9293 85.5504 32.6036 86.048 30.8822C86.3143 29.9857 86.4627 28.8853 86.4968 27.5842L92.5072 27.5722ZM131.584 40.3445L124.555 40.3587L120.566 32.5231L118.324 40.371L111.515 40.3849L115.203 27.5262L130.679 27.4947L126.917 31.3017L131.584 40.3445ZM136.871 20.9721L132.381 25.6303L124.224 25.6468L128.793 20.9883L136.871 20.9721ZM111.299 27.5187L100.817 35.2218L109.073 35.2049L107.651 40.3928L90.6883 40.4272L92.1891 35.1967L103.214 27.5505L111.299 27.5187ZM50.9832 32.2611C50.9832 32.2611 54.668 32.2536 55.9984 32.251C56.1763 32.2507 56.3322 32.245 56.0366 31.916C56.2704 32.1137 56.5371 32.4621 56.3835 33.7841C56.3835 33.7841 55.221 33.1276 54.8704 33.1433C54.0716 32.9988 53.8397 33.6371 52.59 33.4989C51.3151 33.4379 51.1743 33.3361 50.9832 32.2611ZM123.746 20.9137L122.407 25.6236L115.719 25.6371L117.064 20.9272L123.746 20.9137ZM59.6249 51.5803C59.741 50.7711 60.4269 50.5075 60.4269 50.5075L60.4228 48.5518L60.1527 48.5522L60.14 42.1902C60.14 42.1902 60.119 41.2039 59.2517 42.6659C57.8554 43.6017 58.2256 43.4849 57.9663 44.0482C58.1451 44.6471 58.9839 46.3139 58.9839 46.3139L55.8755 46.5264C55.8755 46.5264 52.0858 46.507 51.3927 45.0749C51.3293 44.9997 51.2747 44.9267 51.2282 44.8537L34.4286 53.7063L34.4076 53.8029L34.366 55.2016L33.7198 54.9756C33.7198 54.9756 33.4006 55.5599 33.4306 56.0184C33.4317 56.5196 33.4126 57.5062 32.4884 57.3767C30.8902 57.7963 31.0742 56.1195 31.1191 55.3353C31.1618 54.5515 31.2027 52.8226 31.2027 52.8226C31.2027 52.8226 30.9932 51.3916 31.3547 50.8515C31.3615 50.2867 31.6664 49.5291 32.6521 49.5943C33.6374 49.6594 33.8176 50.1972 33.8187 50.7115C33.8195 51.1083 33.7681 52.2551 33.746 52.7634L50.2264 43.2858L26.0818 27.7489L6.26828 27.3057L6.26416 25.3616L44.4589 25.5154C45.2547 23.3561 46.5274 21.1724 48.5364 19.3342C52.7312 15.827 57.0582 14.6136 60.7222 14.4252L60.7618 8.42522C60.9934 8.42859 61.3321 7.93301 61.6617 8.11117C62.0554 8.45741 62.133 8.45553 62.133 8.45553L62.0719 14.4013C63.7435 14.4268 65.2405 14.6495 66.4731 14.9339C66.4731 14.9339 64.6258 14.9298 62.0618 15.3049L61.9827 22.9174L60.6655 22.9204L60.7143 15.5291C57.3238 16.1602 53.146 17.4541 50.2411 20.1184C48.605 21.619 47.2178 23.4448 46.1231 25.5218L50.6221 25.5394C50.6221 25.5394 49.4139 26.9486 49.5638 28.2756L44.9352 28.1714C44.087 30.4293 43.5445 32.9046 43.3478 35.5291C43.3478 35.5291 42.8297 32.1702 43.6989 28.143L28.2071 27.7972L52.0828 42.8845C52.2232 42.8093 52.3191 42.7707 52.3191 42.7707C52.3191 42.7707 53.8675 41.4577 54.6703 39.8702C55.4728 38.2828 56.6087 37.3403 58.6976 37.3363C58.6976 37.3363 60.4269 37.3149 60.6374 36.4959C60.6374 36.4959 57.0597 36.3028 58.5792 34.3519C58.5792 34.3519 58.7257 34.1686 59.7728 34.0795C60.4554 34.1842 61.1312 33.7302 61.1312 33.7302C58.8456 33.3881 58.9539 31.6536 58.9539 31.6536C64.0376 31.0439 61.1657 28.655 61.1657 28.655L64.8606 28.9388C65.0847 28.0651 61.8584 28.0042 61.8584 28.0042L61.9629 24.3742L66.6664 24.5363C66.6664 24.5363 67.0373 24.753 67.4172 24.9798C67.9521 25.2231 68.2676 25.8179 68.5246 25.8871C68.3166 31.0877 68.713 42.0206 67.8001 46.2057C68.0776 46.2342 66.69 46.6567 66.69 46.6567L62.031 46.6661L61.7921 48.5492L61.4388 48.5499L61.3718 50.5094C62.5424 50.6479 62.3993 51.4149 62.3993 51.4149L62.4072 55.1926L62.0989 55.3554C62.0989 55.3554 61.7797 56.7318 61.689 56.8711C61.6018 57.5373 61.2683 57.3318 61.2683 57.3318C61.2683 57.3318 60.0882 57.5403 59.6881 57.3352C59.8193 57.1286 59.6319 56.9769 59.6319 56.9769L59.6226 52.3184C59.6046 52.0927 59.6042 51.867 59.6173 51.6417C59.6188 51.6226 59.6207 51.6012 59.6249 51.5818V51.5803Z" fill="#FEFEFE"/>
<path d="M73.0314 48.252C72.6131 48.252 72.2283 48.183 71.877 48.0449C71.5258 47.9069 71.2515 47.7195 71.0542 47.4829L71.7646 46.6309C71.9027 46.8084 72.098 46.9543 72.3506 47.0687C72.6032 47.1792 72.8617 47.2344 73.1261 47.2344C73.2287 47.2344 73.3057 47.2166 73.357 47.1811C73.4122 47.1456 73.4398 47.1062 73.4398 47.0628C73.4398 47.0036 73.3747 46.9484 73.2445 46.8971C73.1143 46.8459 72.9564 46.7906 72.7709 46.7315C72.5854 46.6723 72.3999 46.6013 72.2145 46.5185C72.0329 46.4317 71.877 46.3094 71.7468 46.1517C71.6166 45.99 71.5515 45.8026 71.5515 45.5896C71.5515 45.2149 71.7014 44.8856 72.0014 44.6016C72.3013 44.3176 72.7157 44.1756 73.2445 44.1756C73.572 44.1756 73.8878 44.2328 74.1916 44.3472C74.4955 44.4576 74.754 44.6193 74.9671 44.8323L74.2508 45.6606C74.0969 45.5068 73.9075 45.3885 73.6825 45.3056C73.4615 45.2228 73.2504 45.1814 73.0491 45.1814C72.9742 45.1814 72.915 45.1972 72.8715 45.2287C72.8281 45.2563 72.8064 45.2938 72.8064 45.3411C72.8064 45.3963 72.8715 45.4496 73.0018 45.5009C73.132 45.5521 73.2899 45.6093 73.4754 45.6724C73.6608 45.7316 73.8463 45.8046 74.0318 45.8914C74.2173 45.9742 74.3751 46.0965 74.5054 46.2582C74.6356 46.4159 74.7007 46.6013 74.7007 46.8143C74.7007 47.2324 74.5468 47.5775 74.239 47.8497C73.9351 48.1179 73.5326 48.252 73.0314 48.252Z" fill="white"/>
<path d="M78.9054 48.181H77.5083L76.8986 46.7551L76.5849 47.0865L76.3422 48.181H75.1464L76.0166 44.2348H77.2123L76.9045 45.631L78.1891 44.2348H79.7105L77.8162 46.0688L78.9054 48.181Z" fill="white"/>
<path d="M81.7226 48.181H80.5268L80.8701 46.6132L79.917 44.2348H81.2016L81.6397 45.5659L82.6579 44.2348H84.0608L82.0659 46.6132L81.7226 48.181Z" fill="white"/>
<path d="M85.5174 48.181H83.7593L84.6295 44.2348H86.364C86.6599 44.2348 86.9421 44.3018 87.2105 44.4359C87.4828 44.57 87.7077 44.7712 87.8853 45.0394C88.0629 45.3037 88.1517 45.6034 88.1517 45.9387C88.1517 46.1517 88.1241 46.3587 88.0688 46.5599C88.0175 46.7611 87.9268 46.9622 87.7965 47.1634C87.6663 47.3606 87.5045 47.5341 87.3111 47.684C87.1177 47.83 86.8671 47.9503 86.5593 48.0449C86.2515 48.1356 85.9042 48.181 85.5174 48.181ZM85.7128 47.1397H85.7365C86.0956 47.1397 86.3817 47.0332 86.5948 46.8202C86.8079 46.6072 86.9145 46.343 86.9145 46.0274C86.9145 45.8144 86.8435 45.6369 86.7014 45.495C86.5593 45.349 86.3738 45.276 86.1449 45.276H85.5944L85.1859 47.1397H85.7128Z" fill="white"/>
<path d="M89.6691 48.181H88.4733L89.3435 44.2348H90.5393L89.6691 48.181Z" fill="white"/>
<path d="M93.1947 48.181H91.6911L91.105 44.2348H92.4015L92.6678 46.8912L94.1063 44.2348H95.5211L93.1947 48.181Z" fill="white"/>
<path d="M98.2144 48.181H95.219L96.0892 44.2348H99.0846L98.8537 45.276H97.0541L96.9712 45.6665H98.7294L98.4985 46.7078H96.7404L96.6456 47.1397H98.4452L98.2144 48.181Z" fill="white"/>
<path d="M105.653 48.181H104.457L104.978 45.8085L103.575 48.181H103.042L102.681 45.8085L102.16 48.181H100.965L101.835 44.2348H103.445L103.717 46.128L104.83 44.2348H106.523L105.653 48.181Z" fill="white"/>
<path d="M108.876 48.252C108.284 48.252 107.792 48.0844 107.402 47.7491C107.011 47.4099 106.816 46.9741 106.816 46.4416C106.816 45.8066 107.04 45.2701 107.49 44.8323C107.944 44.3906 108.511 44.1697 109.189 44.1697C109.777 44.1697 110.267 44.3373 110.657 44.6726C111.048 45.0078 111.243 45.4397 111.243 45.9683C111.243 46.6072 111.019 47.1476 110.569 47.5894C110.119 48.0311 109.554 48.252 108.876 48.252ZM108.941 47.1989C109.249 47.1989 109.503 47.0865 109.704 46.8616C109.906 46.6368 110.006 46.3706 110.006 46.0629C110.006 45.8184 109.923 45.6172 109.758 45.4595C109.596 45.3017 109.383 45.2228 109.118 45.2228C108.81 45.2228 108.556 45.3352 108.355 45.56C108.153 45.7849 108.053 46.0511 108.053 46.3587C108.053 46.6033 108.134 46.8045 108.295 46.9622C108.461 47.12 108.676 47.1989 108.941 47.1989Z" fill="white"/>
<path d="M113.408 48.252C112.99 48.252 112.605 48.183 112.254 48.0449C111.902 47.9069 111.628 47.7195 111.431 47.4829L112.141 46.6309C112.279 46.8084 112.475 46.9543 112.727 47.0687C112.98 47.1792 113.238 47.2344 113.503 47.2344C113.605 47.2344 113.682 47.2166 113.733 47.1811C113.789 47.1456 113.816 47.1062 113.816 47.0628C113.816 47.0036 113.751 46.9484 113.621 46.8971C113.491 46.8459 113.333 46.7906 113.147 46.7315C112.962 46.6723 112.776 46.6013 112.591 46.5185C112.409 46.4317 112.254 46.3094 112.123 46.1517C111.993 45.99 111.928 45.8026 111.928 45.5896C111.928 45.2149 112.078 44.8856 112.378 44.6016C112.678 44.3176 113.092 44.1756 113.621 44.1756C113.949 44.1756 114.264 44.2328 114.568 44.3472C114.872 44.4576 115.13 44.6193 115.344 44.8323L114.627 45.6606C114.473 45.5068 114.284 45.3885 114.059 45.3056C113.838 45.2228 113.627 45.1814 113.426 45.1814C113.351 45.1814 113.291 45.1972 113.248 45.2287C113.205 45.2563 113.183 45.2938 113.183 45.3411C113.183 45.3963 113.248 45.4496 113.378 45.5009C113.508 45.5521 113.666 45.6093 113.852 45.6724C114.037 45.7316 114.223 45.8046 114.408 45.8914C114.594 45.9742 114.752 46.0965 114.882 46.2582C115.012 46.4159 115.077 46.6013 115.077 46.8143C115.077 47.2324 114.923 47.5775 114.615 47.8497C114.312 48.1179 113.909 48.252 113.408 48.252Z" fill="white"/>
<path d="M119.282 48.181H117.885L117.275 46.7551L116.961 47.0865L116.719 48.181H115.523L116.393 44.2348H117.589L117.281 45.631L118.566 44.2348H120.087L118.193 46.0688L119.282 48.181Z" fill="white"/>
<path d="M121.838 48.252C121.246 48.252 120.755 48.0844 120.364 47.7491C119.974 47.4099 119.778 46.9741 119.778 46.4416C119.778 45.8066 120.003 45.2701 120.453 44.8323C120.907 44.3906 121.473 44.1697 122.152 44.1697C122.74 44.1697 123.229 44.3373 123.62 44.6726C124.011 45.0078 124.206 45.4397 124.206 45.9683C124.206 46.6072 123.981 47.1476 123.531 47.5894C123.081 48.0311 122.517 48.252 121.838 48.252ZM121.903 47.1989C122.211 47.1989 122.466 47.0865 122.667 46.8616C122.868 46.6368 122.969 46.3706 122.969 46.0629C122.969 45.8184 122.886 45.6172 122.72 45.4595C122.559 45.3017 122.345 45.2228 122.081 45.2228C121.773 45.2228 121.519 45.3352 121.317 45.56C121.116 45.7849 121.016 46.0511 121.016 46.3587C121.016 46.6033 121.096 46.8045 121.258 46.9622C121.424 47.12 121.639 47.1989 121.903 47.1989Z" fill="white"/>
<path d="M128.56 48.181H127.305L127.287 45.9446L126.287 48.181H125.032L124.771 44.2348H126.08L126.056 46.6487L127.187 44.2348H128.086L128.152 46.6487L129.187 44.2348H130.561L128.56 48.181Z" fill="white"/>
</svg>
