<svg width="25" height="25" viewBox="0 0 25 25" fill="none" xmlns="http://www.w3.org/2000/svg">
<path d="M14.8926 12.5C14.8926 13.8214 13.8214 14.8926 12.5 14.8926C11.1786 14.8926 10.1074 13.8214 10.1074 12.5C10.1074 11.1786 11.1786 10.1074 12.5 10.1074C13.8214 10.1074 14.8926 11.1786 14.8926 12.5Z" fill="#C0C0C0"/>
<path d="M18.0954 8.26682C17.9804 7.95516 17.7969 7.67307 17.5585 7.44151C17.327 7.20309 17.0451 7.01961 16.7332 6.90459C16.4803 6.80637 16.1003 6.68945 15.4005 6.65759C14.6435 6.62307 14.4165 6.61563 12.5 6.61563C10.5833 6.61563 10.3564 6.62288 9.59953 6.6574C8.89972 6.68945 8.51958 6.80637 8.26686 6.90459C7.95501 7.01961 7.67291 7.20309 7.44155 7.44151C7.20313 7.67307 7.01965 7.95497 6.90444 8.26682C6.80621 8.51974 6.68929 8.89987 6.65744 9.59968C6.62292 10.3565 6.61548 10.5835 6.61548 12.5002C6.61548 14.4167 6.62292 14.6437 6.65744 15.4007C6.68929 16.1005 6.80621 16.4804 6.90444 16.7334C7.01965 17.0452 7.20294 17.3271 7.44136 17.5587C7.67291 17.7971 7.95482 17.9806 8.26667 18.0956C8.51958 18.194 8.89972 18.3109 9.59953 18.3428C10.3564 18.3773 10.5831 18.3845 12.4998 18.3845C14.4167 18.3845 14.6437 18.3773 15.4003 18.3428C16.1002 18.3109 16.4803 18.194 16.7332 18.0956C17.3592 17.8541 17.854 17.3593 18.0954 16.7334C18.1937 16.4804 18.3106 16.1005 18.3426 15.4007C18.3771 14.6437 18.3844 14.4167 18.3844 12.5002C18.3844 10.5835 18.3771 10.3565 18.3426 9.59968C18.3108 8.89987 18.1938 8.51974 18.0954 8.26682ZM12.5 16.1858C10.4643 16.1858 8.81408 14.5357 8.81408 12.5C8.81408 10.4643 10.4643 8.81423 12.5 8.81423C14.5356 8.81423 16.1858 10.4643 16.1858 12.5C16.1858 14.5357 14.5356 16.1858 12.5 16.1858ZM16.3315 9.52987C15.8558 9.52987 15.4702 9.1442 15.4702 8.66851C15.4702 8.19282 15.8558 7.80715 16.3315 7.80715C16.8072 7.80715 17.1929 8.19282 17.1929 8.66851C17.1927 9.1442 16.8072 9.52987 16.3315 9.52987Z" fill="#C0C0C0"/>
<path d="M12.5 0C5.5975 0 0 5.5975 0 12.5C0 19.4025 5.5975 25 12.5 25C19.4025 25 25 19.4025 25 12.5C25 5.5975 19.4025 0 12.5 0ZM19.6344 15.4593C19.5997 16.2233 19.4782 16.745 19.3008 17.2016C18.928 18.1658 18.1658 18.928 17.2016 19.3008C16.7452 19.4782 16.2233 19.5995 15.4594 19.6344C14.694 19.6693 14.4495 19.6777 12.5002 19.6777C10.5507 19.6777 10.3064 19.6693 9.54075 19.6344C8.77686 19.5995 8.255 19.4782 7.79858 19.3008C7.31945 19.1206 6.88572 18.8381 6.52714 18.4729C6.16207 18.1145 5.87959 17.6805 5.69935 17.2016C5.52197 16.7452 5.40047 16.2233 5.36575 15.4594C5.33047 14.6938 5.32227 14.4493 5.32227 12.5C5.32227 10.5507 5.33047 10.3062 5.36556 9.54075C5.40028 8.77666 5.52158 8.255 5.69897 7.79839C5.87921 7.31945 6.16188 6.88553 6.52714 6.52714C6.88553 6.16188 7.31945 5.8794 7.79839 5.69916C8.255 5.52177 8.77666 5.40047 9.54075 5.36556C10.3062 5.33066 10.5507 5.32227 12.5 5.32227C14.4493 5.32227 14.6938 5.33066 15.4593 5.36575C16.2233 5.40047 16.745 5.52177 17.2016 5.69897C17.6805 5.87921 18.1145 6.16188 18.4731 6.52714C18.8381 6.88572 19.1208 7.31945 19.3008 7.79839C19.4784 8.255 19.5997 8.77666 19.6346 9.54075C19.6695 10.3062 19.6777 10.5507 19.6777 12.5C19.6777 14.4493 19.6695 14.6938 19.6344 15.4593Z" fill="#C0C0C0"/>
</svg>
