<svg width="85" height="24" viewBox="0 0 85 24" fill="none" xmlns="http://www.w3.org/2000/svg">
<path fill-rule="evenodd" clip-rule="evenodd" d="M22.503 9.59654V15.7827C22.503 19.7747 19.3252 23.0264 15.424 23.0264H7.10486C3.17781 23.0264 0 19.7747 0 15.7827V9.59654H4.96049V15.7827C4.96049 17.6598 6.45897 19.1931 8.29331 19.1931H14.2097C16.0441 19.1931 17.5426 17.6598 17.5426 15.7827V9.59654H22.503ZM9.63678 7.66666H12.8921C13.4088 7.66666 13.848 8.08964 13.848 8.64482V14.3816C13.848 14.9103 13.4347 15.3598 12.8921 15.3598C11.807 15.3598 10.7219 15.3598 9.63678 15.3598C9.12006 15.3598 8.68085 14.9368 8.68085 14.3816C8.68085 12.4782 8.68085 10.5483 8.68085 8.64482C8.68085 8.11608 9.12006 7.66666 9.63678 7.66666Z" fill="#696969"/>
<path fill-rule="evenodd" clip-rule="evenodd" d="M17.5682 0.343678C19.9709 1.13678 21.8311 3.19885 22.3736 5.76322H17.5682V0.343678ZM7.10463 0H13.8478V3.83333H8.29308C6.97545 3.83333 5.83868 4.62644 5.29612 5.76322H0.154785C0.826518 2.48506 3.6943 0 7.10463 0Z" fill="#C6C6C6"/>
<path d="M71.333 11.4736V7.69311H73.5291V11.5C73.5291 13.2977 73.8133 13.4828 75.1826 13.4828H76.5777V15.3333H74.9242C72.4956 15.3333 71.333 14.4345 71.333 11.4736ZM66.1917 12.3196C66.295 13.377 66.6826 13.4828 67.8193 13.4828H70.0412V15.3333H67.561C65.1582 15.3333 63.9698 14.4345 63.9698 11.4471C63.9698 8.45978 65.1324 7.66668 67.561 7.66668H70.0412V9.51725H67.8193C66.7601 9.51725 66.3467 9.59656 66.2175 10.4954H69.2661V12.2931H66.1917V12.3196ZM55.8057 7.69311V15.3333H59.1902C61.5929 15.3333 62.7813 14.4345 62.7813 11.4471C62.7813 8.45978 61.6187 7.66668 59.1902 7.66668H55.8057V7.69311ZM60.6111 11.5C60.6111 13.2977 60.3269 13.4828 58.9576 13.4828H57.8984V9.54369H58.9576C60.3011 9.54369 60.6111 9.67587 60.6111 11.5ZM81.2023 7.50806C83.605 7.50806 84.9227 8.3276 84.9227 11.4207C84.9227 14.5667 83.6309 15.492 81.2023 15.492C78.7737 15.492 77.482 14.5667 77.482 11.4207C77.482 8.3276 78.7737 7.50806 81.2023 7.50806ZM81.2023 13.5621C82.5716 13.5621 82.7266 13.377 82.7266 11.4207C82.7266 9.59656 82.5716 9.43794 81.2023 9.43794C79.8072 9.43794 79.678 9.59656 79.678 11.4207C79.6522 13.377 79.8072 13.5621 81.2023 13.5621Z" fill="#C6C6C6"/>
<path d="M42.9392 12.3195C43.0426 13.377 43.4301 13.4827 44.5669 13.4827H46.7888V15.3333H44.3086C41.9058 15.3333 40.7174 14.4345 40.7174 11.4471C40.7174 8.45976 41.88 7.66666 44.3086 7.66666H46.7888V9.51723H44.5669C43.5076 9.51723 43.0943 9.59654 42.9651 10.4954H46.0137V12.2931H42.9392V12.3195ZM33.5092 15.3333C31.1064 15.3333 29.918 14.4345 29.918 11.4471V7.69309H32.114V11.5C32.114 13.2713 32.3982 13.4827 33.7158 13.4827V7.69309H35.7569V13.4827C37.1003 13.4827 37.3845 13.2713 37.3845 11.5V7.69309H39.5806V11.4736C39.5806 14.4609 38.418 15.3598 35.9894 15.3598C35.1885 15.3333 34.3617 15.3333 33.5092 15.3333ZM50.1216 9.46436H51.8785C52.0593 9.46436 52.1885 9.5701 52.1885 10.0195C52.1885 10.4954 52.0593 10.5483 51.8785 10.5483H50.1216V9.46436ZM50.1216 13.5356V12.2402H51.8785C52.1368 12.2402 52.3177 12.3724 52.3177 12.9011C52.3177 13.4034 52.1627 13.5356 51.9301 13.5356H50.1216ZM52.7827 11.3414C54.1262 11.2356 54.4104 10.6276 54.4104 9.54367C54.4104 8.24827 54.0228 7.69309 52.5244 7.69309H48.0806V15.3333H52.5244C53.7386 15.3333 54.5396 14.8575 54.5396 13.2977C54.5137 12.0552 54.2037 11.4207 52.7827 11.3414Z" fill="#696969"/>
<path d="M57.9759 18.1885C57.7692 18.1092 57.4075 18.0563 57.0458 18.0563C56.1674 18.0563 55.8057 18.3471 55.8057 19.0609C55.8057 19.5896 56.064 19.7747 56.6324 19.854C57.1491 19.9069 57.2008 19.9598 57.2008 20.0919C57.2008 20.2241 57.1491 20.277 56.7616 20.277C56.4516 20.277 56.1674 20.2241 55.9865 20.1977L55.8315 20.8586C56.064 20.9379 56.3999 20.9908 56.7616 20.9908C57.6658 20.9908 58.0017 20.7793 58.0017 20.0391C58.0017 19.5103 57.7175 19.246 57.0975 19.1667C56.6324 19.1138 56.5807 19.0873 56.5807 18.9287C56.5807 18.823 56.6324 18.7437 57.0199 18.7437C57.3558 18.7437 57.6142 18.7965 57.795 18.823L57.9759 18.1885ZM60.9728 20.9379V18.7965H61.8771V18.1092H59.3193V18.7965H60.2236V20.9379H60.9728ZM64.9516 18.1356H65.7008V20.2241C65.7008 20.8322 65.2099 21.0172 64.5123 21.0172C63.7889 21.0172 63.3239 20.8586 63.3239 20.2241V18.1356H64.0731V20.0391C64.0731 20.1977 64.1765 20.277 64.5123 20.277C64.8482 20.277 64.9516 20.1977 64.9516 20.0391V18.1356ZM67.3026 18.1356V20.9379H68.5427C69.4212 20.9379 69.8604 20.6207 69.8604 19.5103C69.8604 18.4264 69.4212 18.1356 68.5427 18.1356H67.3026ZM69.0595 19.5368C69.0595 20.1977 68.9561 20.277 68.4394 20.277H68.0519V18.7965H68.4394C68.9561 18.7965 69.0595 18.8494 69.0595 19.5368ZM72.1081 18.1356V20.9379H71.3588V18.1356H72.1081ZM75.2084 18.0563C76.0868 18.0563 76.5777 18.3471 76.5777 19.4839C76.5777 20.6471 76.1126 20.9908 75.2084 20.9908C74.33 20.9908 73.8391 20.6471 73.8391 19.4839C73.8391 18.3471 74.3041 18.0563 75.2084 18.0563ZM75.2084 20.277C75.7251 20.277 75.7768 20.1977 75.7768 19.4839C75.7768 18.823 75.7251 18.7437 75.2084 18.7437C74.6917 18.7437 74.64 18.7965 74.64 19.4839C74.64 20.2241 74.6917 20.277 75.2084 20.277Z" fill="#C6C6C6"/>
</svg>
