<svg width="20" height="20" viewBox="0 0 20 20" fill="none" xmlns="http://www.w3.org/2000/svg">
<g clip-path="url(#clip0)">
<path d="M19.2959 11.5775C19.8926 6.55502 19.0092 3.38419 17.4159 1.95002L17.4167 1.94919C14.8451 -0.499979 6.16007 -0.86248 3.0834 2.05919C1.70173 3.48835 1.21507 5.58585 1.16173 8.18252C1.1084 10.78 1.04507 15.6459 5.57923 16.9659H5.5834L5.57923 18.9817C5.57923 18.9817 5.5484 19.7984 6.07007 19.9625C6.66673 20.1559 6.93673 19.7767 8.79257 17.56C11.8959 17.8292 14.2792 17.2125 14.5501 17.1225C15.1767 16.9125 18.7226 16.4434 19.2959 11.5775ZM9.0984 16.1417C9.0984 16.1417 7.13423 18.5909 6.5234 19.2267C6.3234 19.4334 6.10423 19.4142 6.10757 19.0042C6.10757 18.735 6.12257 15.6575 6.12257 15.6575C2.2784 14.5559 2.50507 10.4125 2.54673 8.24502C2.5884 6.07669 2.98507 4.30085 4.15507 3.10502C6.85423 0.574187 14.4684 1.14002 16.4084 2.96335C18.7801 5.06585 17.9359 11.0059 17.9409 11.2084C17.4534 15.27 14.5801 15.5275 14.0517 15.7034C13.8259 15.7784 11.7301 16.3175 9.0984 16.1417Z" fill="#222222"/>
<path d="M10.185 3.58087C9.86413 3.58087 9.86413 4.08087 10.185 4.08504C12.6741 4.10421 14.7241 5.83921 14.7466 9.02171C14.7466 9.35754 15.2383 9.35337 15.2341 9.01754H15.2333C15.2066 5.58837 12.9683 3.60004 10.185 3.58087Z" fill="#222222"/>
<path d="M13.4592 8.4942C13.4517 8.82586 13.9425 8.8417 13.9467 8.50586C13.9875 6.61503 12.8217 5.05753 10.6309 4.89336C10.31 4.87003 10.2767 5.3742 10.5967 5.39753C12.4967 5.5417 13.4975 6.83836 13.4592 8.4942Z" fill="#222222"/>
<path d="M12.9343 10.645C12.5226 10.4067 12.1034 10.555 11.9301 10.7892L11.5676 11.2583C11.3834 11.4967 11.0393 11.465 11.0393 11.465C8.5276 10.8008 7.85593 8.17251 7.85593 8.17251C7.85593 8.17251 7.8251 7.81667 8.0551 7.62584L8.50844 7.25084C8.7351 7.07084 8.87844 6.63751 8.6476 6.21167C8.03093 5.09751 7.61677 4.71334 7.40593 4.41834C7.18427 4.14084 6.85093 4.07834 6.50427 4.26584H6.49677C5.77593 4.68751 4.98676 5.47667 5.23926 6.28917C5.6701 7.14584 6.46176 9.87667 8.9851 11.94C10.1709 12.9158 12.0476 13.9158 12.8443 14.1467L12.8518 14.1583C13.6368 14.42 14.4001 13.6 14.8076 12.8575V12.8517C14.9884 12.4925 14.9284 12.1525 14.6643 11.93C14.1959 11.4733 13.4893 10.9692 12.9343 10.645Z" fill="#222222"/>
<path d="M10.9741 6.75336C11.775 6.80003 12.1633 7.21836 12.2049 8.07753C12.2199 8.41337 12.7074 8.39003 12.6924 8.0542C12.6391 6.93253 12.0541 6.30752 11.0008 6.24919C10.68 6.23002 10.65 6.73419 10.9741 6.75336Z" fill="#222222"/>
</g>
<defs>
<clipPath id="clip0">
<rect width="20" height="20" fill="white"/>
</clipPath>
</defs>
</svg>
