<svg width="29" height="29" viewBox="0 0 29 29" fill="none" xmlns="http://www.w3.org/2000/svg">
<path d="M26.1589 5.45679H16.545H10.1376H7.2249H4.89316C3.32648 5.45679 2.052 6.73138 2.052 8.29794V23.1473C2.052 24.714 3.32648 25.9886 4.89316 25.9886H26.1588C27.7254 25.9886 28.9999 24.714 28.9999 23.1473V17.3474V8.29794C29 6.73138 27.7254 5.45679 26.1589 5.45679ZM26.1589 7.06341C26.8395 7.06341 27.3934 7.61727 27.3934 8.29794V17.3474C27.3934 18.0281 26.8395 18.5819 26.1589 18.5819H16.545C15.8644 18.5819 15.3105 18.0282 15.3105 17.3474V8.29794C15.3105 7.61727 15.8644 7.06341 16.545 7.06341H26.1589ZM26.1589 24.382H4.89326C4.21259 24.382 3.65873 23.8281 3.65873 23.1473V8.29794C3.65873 7.61727 4.21259 7.06341 4.89326 7.06341H7.22501H10.1377H13.9865C13.8055 7.43701 13.7039 7.8558 13.7039 8.29794V17.3474C13.7039 18.914 14.9784 20.1886 16.545 20.1886H26.1589C26.601 20.1886 27.0199 20.0869 27.3934 19.906V23.1473C27.3934 23.8281 26.8395 24.382 26.1589 24.382Z" fill="#555555"/>
<path d="M21.3515 17.0912C23.7052 17.0912 25.62 15.1763 25.62 12.8226C25.62 10.469 23.7052 8.5542 21.3515 8.5542C18.9978 8.5542 17.0829 10.469 17.0829 12.8226C17.0829 15.1763 18.9978 17.0912 21.3515 17.0912ZM21.3515 10.1608C22.8192 10.1608 24.0133 11.3549 24.0133 12.8226C24.0133 14.2904 22.8193 15.4845 21.3515 15.4845C19.8837 15.4845 18.6895 14.2904 18.6895 12.8226C18.6895 11.355 19.8837 10.1608 21.3515 10.1608Z" fill="#555555"/>
<path d="M11.5942 8.12H5.7684C5.32465 8.12 4.96509 8.47967 4.96509 8.92331V15.5571C4.96509 16.0007 5.32465 16.3604 5.7684 16.3604H11.5942C12.038 16.3604 12.3975 16.0007 12.3975 15.5571V8.92331C12.3975 8.47967 12.038 8.12 11.5942 8.12ZM10.7909 14.7538H6.57171V9.72662H10.7909V14.7538Z" fill="#555555"/>
<path d="M7.22482 4.61798H10.1375C10.5813 4.61798 10.9408 4.25831 10.9408 3.81467C10.9408 3.37102 10.5813 3.01135 10.1375 3.01135H7.22482C6.78107 3.01135 6.42151 3.37102 6.42151 3.81467C6.42151 4.25831 6.78118 4.61798 7.22482 4.61798Z" fill="#555555"/>
<path d="M0.803312 16.9915C0.35967 16.9915 0 17.3511 0 17.7948V22.2854C0 22.729 0.35967 23.0887 0.803312 23.0887C1.24706 23.0887 1.60662 22.729 1.60662 22.2854V17.7948C1.60662 17.3511 1.24706 16.9915 0.803312 16.9915Z" fill="#555555"/>
<path d="M25.3205 21.4821H17.3465C16.9028 21.4821 16.5432 21.8417 16.5432 22.2854C16.5432 22.729 16.9028 23.0887 17.3465 23.0887H25.3205C25.7643 23.0887 26.1238 22.729 26.1238 22.2854C26.1238 21.8417 25.7643 21.4821 25.3205 21.4821Z" fill="#555555"/>
<path d="M8.68153 16.9915C7.00046 16.9915 5.63269 18.3591 5.63269 20.0402C5.63269 21.7211 7.00036 23.0887 8.68153 23.0887C10.3625 23.0887 11.7301 21.7211 11.7301 20.0402C11.7301 18.3591 10.3625 16.9915 8.68153 16.9915ZM8.68153 21.482C7.88625 21.482 7.23931 20.8351 7.23931 20.0401C7.23931 19.2449 7.88625 18.598 8.68153 18.598C9.4767 18.598 10.1235 19.2449 10.1235 20.0401C10.1235 20.8352 9.4767 21.482 8.68153 21.482Z" fill="#555555"/>
<path d="M14.507 4.61798H26.1587C26.6025 4.61798 26.962 4.25831 26.962 3.81467C26.962 3.37102 26.6025 3.01135 26.1587 3.01135H14.507C14.0633 3.01135 13.7037 3.37102 13.7037 3.81467C13.7037 4.25831 14.0634 4.61798 14.507 4.61798Z" fill="#555555"/>
</svg>
