<svg width="42" height="42" viewBox="0 0 42 42" fill="none" xmlns="http://www.w3.org/2000/svg">
<g clip-path="url(#clip0)">
<path d="M39.564 33.031H37.0979L36.7285 31.9373L35.3391 30.9401H33.1435L31.7541 31.9373L31.3847 33.031H30.2646L28.5581 34.7375V37.6019H41.2702V34.7375L39.564 33.031ZM40.0399 36.3714H40.0399H29.7888V35.2471L30.7745 34.2614H32.2681L32.7934 32.706L33.5395 32.1705H34.9434L35.6896 32.706L36.2148 34.2614H39.0544L40.0401 35.2471V36.3714H40.0399Z" fill="#555555"/>
<path d="M7.26861 26.7525L7.06878 26.1609L6.08424 25.4541H4.57077L3.58615 26.1608L3.38632 26.7525H1.926L0.729736 27.9488V30.0573H9.08971V27.9488L7.89344 26.7525H7.26861ZM1.96021 28.8268V28.4584L2.43566 27.983H4.26971L4.6254 26.9296L4.96681 26.6846H5.68844L6.02986 26.9296L6.38555 27.983H7.38362L7.85907 28.4584V28.8268H1.96021Z" fill="#555555"/>
<path d="M33.4466 9.78812L34.5185 9.18396C33.3203 7.05795 31.582 5.26754 29.4915 4.00598L28.8557 5.05951C30.7648 6.21156 32.3524 7.8466 33.4466 9.78812Z" fill="#555555"/>
<path d="M26.7756 2.73931C26.3714 2.60109 25.9557 2.47992 25.5402 2.37927L25.2505 3.57513C25.6296 3.667 26.0088 3.7775 26.3775 3.90358L26.7756 2.73931Z" fill="#555555"/>
<path d="M28.7443 3.58529C28.3656 3.3871 27.9733 3.20417 27.5784 3.0415L27.1099 4.17928C27.4702 4.32767 27.8282 4.49461 28.1737 4.67548L28.7443 3.58529Z" fill="#555555"/>
<path d="M5.92446 15.5179C6.82795 14.4885 7.81979 13.5588 8.88447 12.7365L12.207 25.431L13.3973 25.1194L9.95383 11.9626C11.1513 11.1525 12.427 10.4705 13.7606 9.92496L13.3253 24.301L14.5552 24.3383L15.0057 9.46034C17.1431 8.74051 19.4065 8.36194 21.7189 8.36194C24.0315 8.36194 26.295 8.74051 28.4326 9.4605L28.8831 24.3383L30.113 24.301L29.6777 9.92521C31.0113 10.4708 32.2869 11.1528 33.4844 11.9629L30.0409 25.1194L31.2313 25.431L34.5537 12.7368C35.6184 13.5592 36.6102 14.4889 37.5136 15.5182L31.0985 26.1263L32.1514 26.763L38.9054 15.5946L38.8829 15.3873C38.4279 11.1816 36.4408 7.29701 33.2876 4.44897C30.1113 1.58009 26.0027 0 21.7188 0C17.435 0 13.3265 1.58009 10.1501 4.44905C6.99702 7.29701 5.00981 11.1818 4.55487 15.3874L4.53247 15.5941L11.2868 26.7631L12.3398 26.1264L5.92446 15.5179ZM21.7188 1.23047C29.2369 1.23047 35.619 6.38589 37.3144 13.5144C33.1687 9.43499 27.5925 7.13147 21.7188 7.13147C16.9728 7.13147 12.4214 8.63609 8.66151 11.3656C9.25222 10.0621 10.0383 8.84248 10.9883 7.76926L10.067 6.95371C8.55512 8.6616 7.4244 10.7107 6.78685 12.8895C6.56217 13.0933 6.34028 13.3008 6.12322 13.5143C7.81856 6.38589 14.2008 1.23047 21.7188 1.23047Z" fill="#555555"/>
<path d="M25.394 26.513L29.1734 30.2924L31.6894 27.7765L25.3931 21.4802V21.4525H24.6632C25.4054 20.703 25.8648 19.6727 25.8648 18.5371C25.8648 16.251 24.005 14.3912 21.719 14.3912C19.4329 14.3912 17.5731 16.251 17.5731 18.5371C17.5731 19.6728 18.0324 20.7031 18.7747 21.4525H18.0439V21.481L11.7485 27.7765L14.2644 30.2924L18.0438 26.513V28.8072H15.905V30.0376H18.0438V30.5434L15.9497 41.2984L19.5533 42.0001L21.3773 33.1705H22.0604L23.8844 42L27.4881 41.2983L25.394 30.5437V30.0376H27.5328V28.8071H25.394V26.513ZM21.719 15.6217C23.3265 15.6217 24.6343 16.9296 24.6343 18.5371C24.6343 18.8788 24.5747 19.2068 24.4662 19.5117C24.3798 19.4568 24.322 19.3609 24.322 19.2512V18.2083C24.322 17.6444 23.8632 17.1857 23.2994 17.1857H20.1384C19.5745 17.1857 19.1158 17.6444 19.1158 18.2083V19.2512C19.1158 19.3609 19.0579 19.4568 18.9716 19.5117C18.863 19.2067 18.8034 18.8788 18.8034 18.5371C18.8036 16.9295 20.1114 15.6217 21.719 15.6217ZM23.8187 20.5565C23.288 21.1082 22.5431 21.4526 21.719 21.4526C20.8948 21.4526 20.1499 21.1082 19.6192 20.5565C20.0549 20.2843 20.3462 19.8017 20.3462 19.2512V18.4162H23.0915V19.2512C23.0916 19.8018 23.383 20.2844 23.8187 20.5565ZM24.1627 22.683V27.6268H23.3567V22.683H24.1627ZM22.1262 22.683V27.6268H21.3107V22.683H22.1262ZM20.0803 22.683V27.6268H19.2743V22.683H20.0803ZM19.2743 28.8573H24.1636V29.9875H19.2743V28.8573ZM14.2645 28.5523L13.4887 27.7765L18.0439 23.2212V24.773L14.2645 28.5523ZM26.0451 40.3258L24.8432 40.5598L23.0626 31.94H20.3751L18.5945 40.5598L17.3925 40.3258L19.1659 31.218H24.2717L26.0451 40.3258ZM25.3933 24.7721V23.2203L29.9493 27.7765L29.1735 28.5523L25.3933 24.7721Z" fill="#555555"/>
</g>
<defs>
<clipPath id="clip0">
<rect width="42" height="42" fill="white"/>
</clipPath>
</defs>
</svg>
