<svg width="41" height="41" viewBox="0 0 41 41" fill="none" xmlns="http://www.w3.org/2000/svg">
<path d="M9.30789 30.3023L8.9638 29.2833L7.65032 28.3406H5.57806L4.2645 29.2833L3.92041 30.3023H1.61225L0 31.9146V34.6291H11.9653V31.9146L10.353 30.3023H9.30789ZM10.7727 33.4364H1.19256V32.4085L2.10621 31.4948H4.77626L5.27157 30.0283L5.96166 29.5331H7.26656L7.95665 30.0283L8.45196 31.4948H9.85901L10.7727 32.4085V33.4364Z" fill="#555555"/>
<path d="M39.4711 8.4054H37.907L37.6883 7.75776L36.6741 7.02991H35.1066L34.0925 7.75776L33.8738 8.4054H33.1952L31.9604 9.64009V11.7953H40.7059V9.64009L39.4711 8.4054ZM33.153 10.6027V10.134L33.6892 9.59788H34.7299L35.0997 8.50279L35.4903 8.22246H36.2905L36.6811 8.50279L37.0508 9.59788H38.977L39.5132 10.134V10.6027H33.153Z" fill="#555555"/>
<path d="M11.6399 22.0857L10.7966 21.2424L9.95337 22.0857L10.7966 22.9289L11.6399 22.0857Z" fill="#555555"/>
<path d="M12.2026 24.3351L13.0459 23.4918L12.2026 22.6486L11.3594 23.4918L12.2026 24.3351Z" fill="#555555"/>
<path d="M14.0737 26.2065L14.917 25.3633L13.6075 24.0538L12.7642 24.897L14.0737 26.2065Z" fill="#555555"/>
<path d="M28.6571 8.42599L27.6265 7.82629L25.844 10.8897L26.8747 11.4894L28.6571 8.42599Z" fill="#555555"/>
<path d="M30.6557 4.99121L29.625 4.39136L29.0251 5.42208L30.0559 6.02194L30.6557 4.99121Z" fill="#555555"/>
<path d="M29.6562 6.7096L28.6255 6.10974L28.0256 7.14047L29.0564 7.74032L29.6562 6.7096Z" fill="#555555"/>
<path d="M36.5296 19.9275L33.013 16.4109L26.2277 23.1963V16.504L34.2934 2.48029L29.9825 0.000732422L22.3725 13.232H19.4388L18.7568 12.0462L11.8288 0.000732422L7.51794 2.48029L15.5837 16.504V23.1963L8.79835 16.4109L5.28174 19.9275L15.15 29.7956H17.3104C15.8229 30.8987 14.8566 32.6669 14.8566 34.6569C14.8566 37.9923 17.5702 40.7059 20.9056 40.7059C24.2411 40.7059 26.9548 37.9923 26.9548 34.6569C26.9548 32.6669 25.9886 30.8987 24.501 29.7956H26.6614V29.7957L36.5296 19.9275ZM30.4217 1.62913L32.6652 2.91939L26.5764 13.5059L24.5817 11.7832L30.4217 1.62913ZM15.235 13.5059L9.14617 2.91947L11.3897 1.62913L17.2298 11.7832L15.235 13.5059ZM15.5837 28.5428L6.96825 19.9275L8.79842 18.0973L15.5837 24.8827V28.5428ZM15.8405 14.5587L17.8353 12.836L18.3315 13.6987L16.3367 15.4215L15.8405 14.5587ZM16.7762 28.6031V23.0958H17.7161V28.6031H16.7762ZM25.4335 33.2326H25.5487C25.6872 33.6832 25.7622 34.1614 25.7622 34.6569C25.7622 37.3348 23.5836 39.5134 20.9056 39.5134C18.2277 39.5134 16.0492 37.3348 16.0492 34.6569C16.0492 34.1614 16.1241 33.6832 16.2626 33.2326H16.3778C16.6846 33.2326 16.9344 33.4823 16.9344 33.7891V35.6613C16.9344 36.3825 17.5211 36.9692 18.2423 36.9692H23.569C24.2902 36.9692 24.877 36.3825 24.877 35.6613V33.7891C24.877 33.4823 25.1267 33.2326 25.4335 33.2326ZM18.1269 35.6613V34.2501H23.6845V35.6613C23.6845 35.7249 23.6327 35.7767 23.569 35.7767H18.2423C18.1787 35.7767 18.1269 35.7249 18.1269 35.6613ZM25.0248 32.0887C24.5004 32.2148 24.0673 32.5776 23.8454 33.0576H17.9659C17.7439 32.5776 17.3109 32.2148 16.7864 32.0887C17.6454 30.716 19.1702 29.8004 20.9056 29.8004C22.641 29.8004 24.1658 30.716 25.0248 32.0887ZM18.9087 28.6031V23.0958H22.9026V28.6031H18.9087ZM25.0351 28.6031H24.0952V23.0958H25.0351V28.6031ZM25.0351 21.9033H16.7762V20.5517H25.0351V21.9033ZM25.0351 19.3592H16.7762V16.6177L19.3158 14.4245H22.4956L25.0351 16.6177V19.3592ZM25.4746 15.4215L23.4799 13.6987L23.9761 12.836L25.9708 14.5587L25.4746 15.4215ZM26.2277 28.5429V24.8828L33.0129 18.0974L34.8431 19.9275L26.2277 28.5429Z" fill="#555555"/>
<path d="M19.6662 0H18.4736V1.19256H19.6662V0Z" fill="#555555"/>
<path d="M19.6662 3.97522H18.4736V7.97028H19.6662V3.97522Z" fill="#555555"/>
<path d="M19.6662 1.98767H18.4736V3.18023H19.6662V1.98767Z" fill="#555555"/>
<path d="M23.0849 4.84692H21.8923V9.61715H23.0849V4.84692Z" fill="#555555"/>
<path d="M23.0849 1.06189H21.8923V3.65411H23.0849V1.06189Z" fill="#555555"/>
</svg>
