<svg width="31" height="49" viewBox="0 0 31 49" fill="none" xmlns="http://www.w3.org/2000/svg">
<path d="M29.2844 36.5593L28.6754 36.2879C28.6432 36.1477 28.9255 34.6793 27.5637 34.1234L24.5635 32.8987C23.8694 32.615 23.0906 32.9895 22.8616 33.6987C22.8279 33.6714 21.8516 33.3888 21.8516 32.3151V29.2908C22.1024 29.0403 22.3507 28.7745 22.5956 28.4949C23.5453 27.41 24.3108 26.2507 24.8495 25.1097H26.3805C27.4179 25.1097 28.3709 24.3314 29.0639 22.9183C29.5896 21.8457 29.9163 20.5156 29.9163 19.4468V12.0672C29.9163 8.73405 28.8712 5.89063 26.8944 3.8446C23.9834 0.831447 19.5537 -0.0212819 15.367 0.00040083C13.6185 0.00825147 12.018 0.170498 10.5714 0.485271C10.5684 0.486019 10.5658 0.486393 10.5628 0.487141C10.5392 0.492374 10.5155 0.497234 10.4922 0.502842C10.4722 0.506954 10.4522 0.51144 10.4322 0.515926C10.4263 0.517422 10.42 0.518917 10.4141 0.520039C10.0538 0.60191 9.70339 0.693127 9.36375 0.79369C9.35709 0.795933 9.35043 0.797802 9.34377 0.800045C7.65556 1.30286 6.20858 2.04157 5.01393 3.01243C4.70833 3.26141 4.65986 3.71301 4.90589 4.0218C5.15193 4.33059 5.59886 4.37956 5.90483 4.13096C6.82275 3.3844 7.9201 2.79186 9.19023 2.35447C10.1914 4.38704 11.0597 5.30145 11.9728 5.30145H19.0268C19.9403 5.30145 20.809 4.38667 21.8105 2.35335C23.4625 2.92233 24.8221 3.75488 25.8777 4.84724C28.0413 7.08691 28.4956 10.01 28.4956 12.0676V19.4472C28.4956 21.193 27.402 23.6742 26.3808 23.6742H25.4093C25.6298 22.9508 25.746 22.2521 25.746 21.6039L25.7437 20.3437C26.0945 19.6786 26.2917 18.9302 26.2917 18.1387C26.2917 17.3432 26.0923 16.5903 25.7374 15.9222C25.7367 15.0763 25.7367 14.2224 25.7367 13.4272C25.7367 12.4138 25.1359 11.0033 22.2741 10.0391C20.4756 9.43351 18.07 9.10004 15.4998 9.10004C12.93 9.10004 10.5244 9.43351 8.72591 10.0391C5.86377 11.0033 5.26329 12.4138 5.26329 13.4272C5.26329 14.2224 5.26329 15.0774 5.26181 15.9237C4.90737 16.5914 4.70833 17.3436 4.70833 18.1387C4.70833 18.9294 4.90515 19.6775 5.25552 20.3422C5.25441 21.1183 5.25367 21.6039 5.25367 21.605C5.25367 22.2502 5.36763 22.9478 5.58887 23.6742H4.61916C3.59803 23.6742 2.50437 21.193 2.50437 19.4472V12.0676C2.50437 9.75239 3.04306 7.75272 4.10526 6.1239C4.32096 5.79305 4.23032 5.34781 3.90289 5.12949C3.57546 4.91154 3.13481 5.00313 2.91875 5.33398C1.71817 7.17514 1.08329 9.50342 1.08329 12.0672V19.4468C1.08329 21.4233 2.29793 25.1097 4.61916 25.1097H6.14865C6.22042 25.2615 6.29627 25.4137 6.37618 25.5662C6.50383 25.8096 6.74986 25.9483 7.0044 25.9483C7.11688 25.9483 7.23046 25.9214 7.33627 25.8645C7.68294 25.6791 7.81539 25.2447 7.63152 24.8944C7.49943 24.6421 7.3803 24.392 7.27486 24.146C7.26561 24.1213 7.25562 24.097 7.24378 24.0735C6.93892 23.3467 6.75282 22.6532 6.69436 22.0241C7.60451 22.7116 8.76031 23.1235 10.0168 23.1235C12.8341 23.1235 13.6817 22.0917 14.3658 20.9418C14.7158 20.3538 14.8468 20.1339 15.4998 20.1339C16.1528 20.1339 16.2838 20.3541 16.6338 20.9418C17.3179 22.0917 18.1655 23.1235 20.9829 23.1235C22.2389 23.1235 23.3948 22.7119 24.3049 22.0244C24.1491 23.6637 23.1165 25.7337 21.5315 27.5434C21.2552 27.8593 20.9718 28.1562 20.6858 28.4317C20.6628 28.4511 20.6414 28.4717 20.6214 28.4934C19.2314 29.8153 17.7859 30.6261 16.7511 30.6261H14.2486C12.8844 30.6261 10.7563 29.1648 9.07332 27.0724C8.8258 26.7647 8.3785 26.7184 8.07401 26.9681C7.76989 27.2182 7.72364 27.6705 7.97115 27.9778C8.34927 28.4481 8.74404 28.8867 9.14842 29.2885V32.3151C9.14842 33.3944 8.15503 33.6826 8.13801 33.6987C7.90937 32.9895 7.1302 32.615 6.43612 32.8983L3.43635 34.1238C2.76077 34.3997 2.32457 35.0535 2.32457 35.7896V36.2879L1.71595 36.5593C0.673728 37.0229 0 38.0667 0 39.2181V43.9786C0 44.7685 0.455812 45.5031 1.16099 45.85C5.35209 47.9106 10.3101 49 15.4998 49C20.6895 49 25.6479 47.9106 29.839 45.85C30.5442 45.5031 31 44.7685 31 43.9786V39.2181C30.9996 38.0667 30.3263 37.0229 29.2844 36.5593ZM20.4172 1.95372C19.5396 3.66329 19.0623 3.85133 19.0168 3.86591H11.9828C11.9373 3.85133 11.46 3.66329 10.5828 1.95372C13.5227 1.25912 17.5084 1.2666 20.4172 1.95372ZM15.4998 10.5352C17.8862 10.5352 20.1915 10.8507 21.8246 11.401C22.7551 11.7143 24.316 12.3943 24.316 13.4272V14.2617C23.404 13.5693 22.2441 13.1543 20.9829 13.1543C20.0043 13.1543 19.1556 13.3809 18.3349 13.6C17.4796 13.8284 16.5949 14.0646 15.4998 14.0646C14.4047 14.0646 13.5201 13.8284 12.6651 13.6C11.8441 13.3809 10.9953 13.1543 10.0168 13.1543C8.7555 13.1543 7.59563 13.5693 6.68363 14.2617C6.684 13.9787 6.684 13.6994 6.684 13.4272C6.684 11.8055 10.5562 10.5352 15.4998 10.5352ZM20.9832 21.688C18.7356 21.688 18.3061 20.9661 17.8514 20.2023C17.4526 19.5324 16.9564 18.6984 15.4998 18.6984C14.0436 18.6984 13.5471 19.5324 13.1486 20.2023C12.6939 20.9661 12.2644 21.688 10.0168 21.688C7.87311 21.688 6.12904 20.0958 6.12904 18.1387C6.12904 16.1817 7.87311 14.5895 10.0168 14.5895C10.8111 14.5895 11.5351 14.7832 12.3021 14.9876C13.2011 15.228 14.2204 15.4998 15.4998 15.4998C16.7796 15.4998 17.7989 15.228 18.6979 14.9876C19.4645 14.7832 20.1889 14.5895 20.9832 14.5895C23.1269 14.5895 24.871 16.1817 24.871 18.1387C24.871 20.0958 23.1269 21.688 20.9832 21.688ZM4.95436 44.1864C5.15859 44.1939 5.37133 44.1939 5.57185 44.1864V46.0739C5.36393 46.0078 5.15748 45.9401 4.95436 45.8706V44.1864ZM6.99256 46.2698H14.7895V47.5573C12.0864 47.5035 9.45957 47.1413 6.99256 46.4897V46.2698ZM16.2102 46.2698H24.0071V46.4897C21.5401 47.1413 18.9136 47.5035 16.2102 47.5573V46.2698ZM25.4278 46.0739V44.1864C25.6298 44.1939 25.8422 44.1939 26.0453 44.1864V45.8706C25.8422 45.9397 25.6361 46.0078 25.4278 46.0739ZM22.7984 35.2389V42.6301C22.7984 43.2436 23.2309 43.7019 24.0071 43.9584V44.8343H16.2102V36.0868C18.1156 36.0049 20.0158 35.5851 21.9019 34.8281C21.9737 34.8681 22.048 34.9047 22.1239 34.9387L22.7984 35.2389ZM20.4305 30.5342V32.3151C20.4305 32.8165 20.56 33.2968 20.7927 33.7167C19.2728 34.2643 17.7434 34.5739 16.2102 34.6457V32.0613H16.7511C17.8425 32.0617 19.1311 31.5144 20.4305 30.5342ZM14.2486 32.0617H14.7895V34.6442C13.2626 34.5694 11.7338 34.2591 10.2088 33.7137C10.7582 32.7196 10.5022 31.9626 10.5691 30.5244C11.8678 31.499 13.1715 32.0617 14.2486 32.0617ZM9.09995 34.827C10.9928 35.5806 12.8922 36.0001 14.7895 36.0853V44.8343H6.99256V43.9588C7.76915 43.7019 8.20128 43.2436 8.20128 42.6301V35.2389C8.83357 34.9544 8.92052 34.9268 9.09995 34.827ZM1.42071 43.9786V39.2181C1.42071 38.6357 1.76146 38.1074 2.28905 37.8726L2.32457 37.8569V38.3773C2.32457 38.774 2.64275 39.0951 3.03492 39.0951C3.4271 39.0951 3.74528 38.774 3.74528 38.3773V35.7892C3.74528 35.6416 3.83296 35.51 3.96874 35.4546L6.78057 34.3058V42.4941C6.17011 42.8425 4.35574 42.8425 3.74528 42.4941V41.248C3.74528 40.8514 3.4271 40.5303 3.03492 40.5303C2.64238 40.5303 2.32457 40.8514 2.32457 41.248V42.6301C2.32457 43.2436 2.75707 43.7023 3.53365 43.9588V45.342C2.93614 45.1001 2.35157 44.8388 1.78255 44.5592C1.55945 44.4492 1.42071 44.2268 1.42071 43.9786ZM29.5789 43.9786C29.5789 44.2268 29.4405 44.4492 29.2171 44.5588C28.6481 44.8388 28.0639 45.0997 27.466 45.3416V43.9588C28.2429 43.7023 28.6754 43.2436 28.6754 42.6298V41.2488C28.6754 40.8525 28.3576 40.531 27.9651 40.531C27.5729 40.531 27.2547 40.8525 27.2547 41.2488V42.4941C27.0634 42.6032 26.5259 42.7561 25.7371 42.7561C24.9483 42.7561 24.4107 42.6032 24.2191 42.4941V34.7851C24.2194 34.7761 24.2194 34.7672 24.2191 34.7582V34.3066L27.0313 35.4546C27.167 35.51 27.2547 35.6412 27.2547 35.7892V36.7414V36.7683V38.3781C27.2547 38.7743 27.5729 39.0959 27.9651 39.0959C28.3576 39.0959 28.6754 38.7743 28.6754 38.3781V37.8573L28.7113 37.873C29.2385 38.1074 29.5789 38.6357 29.5789 39.2185V43.9786Z" fill="#222222"/>
<mask id="mask0" mask-type="alpha" maskUnits="userSpaceOnUse" x="0" y="0" width="31" height="49">
<path d="M29.2844 36.5593L28.6754 36.2879C28.6432 36.1477 28.9255 34.6793 27.5637 34.1234L24.5635 32.8987C23.8694 32.615 23.0906 32.9895 22.8616 33.6987C22.8279 33.6714 21.8516 33.3888 21.8516 32.3151V29.2908C22.1024 29.0403 22.3507 28.7745 22.5956 28.4949C23.5453 27.41 24.3108 26.2507 24.8495 25.1097H26.3805C27.4179 25.1097 28.3709 24.3314 29.0639 22.9183C29.5896 21.8457 29.9163 20.5156 29.9163 19.4468V12.0672C29.9163 8.73405 28.8712 5.89063 26.8944 3.8446C23.9834 0.831447 19.5537 -0.0212819 15.367 0.00040083C13.6185 0.00825147 12.018 0.170498 10.5714 0.485271C10.5684 0.486019 10.5658 0.486393 10.5628 0.487141C10.5392 0.492374 10.5155 0.497234 10.4922 0.502842C10.4722 0.506954 10.4522 0.51144 10.4322 0.515926C10.4263 0.517422 10.42 0.518917 10.4141 0.520039C10.0538 0.60191 9.70339 0.693127 9.36375 0.79369C9.35709 0.795933 9.35043 0.797802 9.34377 0.800045C7.65556 1.30286 6.20858 2.04157 5.01393 3.01243C4.70833 3.26141 4.65986 3.71301 4.90589 4.0218C5.15193 4.33059 5.59886 4.37956 5.90483 4.13096C6.82275 3.3844 7.9201 2.79186 9.19023 2.35447C10.1914 4.38704 11.0597 5.30145 11.9728 5.30145H19.0268C19.9403 5.30145 20.809 4.38667 21.8105 2.35335C23.4625 2.92233 24.8221 3.75488 25.8777 4.84724C28.0413 7.08691 28.4956 10.01 28.4956 12.0676V19.4472C28.4956 21.193 27.402 23.6742 26.3808 23.6742H25.4093C25.6298 22.9508 25.746 22.2521 25.746 21.6039L25.7437 20.3437C26.0945 19.6786 26.2917 18.9302 26.2917 18.1387C26.2917 17.3432 26.0923 16.5903 25.7374 15.9222C25.7367 15.0763 25.7367 14.2224 25.7367 13.4272C25.7367 12.4138 25.1359 11.0033 22.2741 10.0391C20.4756 9.43351 18.07 9.10004 15.4998 9.10004C12.93 9.10004 10.5244 9.43351 8.72591 10.0391C5.86377 11.0033 5.26329 12.4138 5.26329 13.4272C5.26329 14.2224 5.26329 15.0774 5.26181 15.9237C4.90737 16.5914 4.70833 17.3436 4.70833 18.1387C4.70833 18.9294 4.90515 19.6775 5.25552 20.3422C5.25441 21.1183 5.25367 21.6039 5.25367 21.605C5.25367 22.2502 5.36763 22.9478 5.58887 23.6742H4.61916C3.59803 23.6742 2.50437 21.193 2.50437 19.4472V12.0676C2.50437 9.75239 3.04306 7.75272 4.10526 6.1239C4.32096 5.79305 4.23032 5.34781 3.90289 5.12949C3.57546 4.91154 3.13481 5.00313 2.91875 5.33398C1.71817 7.17514 1.08329 9.50342 1.08329 12.0672V19.4468C1.08329 21.4233 2.29793 25.1097 4.61916 25.1097H6.14865C6.22042 25.2615 6.29627 25.4137 6.37618 25.5662C6.50383 25.8096 6.74986 25.9483 7.0044 25.9483C7.11688 25.9483 7.23046 25.9214 7.33627 25.8645C7.68294 25.6791 7.81539 25.2447 7.63152 24.8944C7.49943 24.6421 7.3803 24.392 7.27486 24.146C7.26561 24.1213 7.25562 24.097 7.24378 24.0735C6.93892 23.3467 6.75282 22.6532 6.69436 22.0241C7.60451 22.7116 8.76031 23.1235 10.0168 23.1235C12.8341 23.1235 13.6817 22.0917 14.3658 20.9418C14.7158 20.3538 14.8468 20.1339 15.4998 20.1339C16.1528 20.1339 16.2838 20.3541 16.6338 20.9418C17.3179 22.0917 18.1655 23.1235 20.9829 23.1235C22.2389 23.1235 23.3948 22.7119 24.3049 22.0244C24.1491 23.6637 23.1165 25.7337 21.5315 27.5434C21.2552 27.8593 20.9718 28.1562 20.6858 28.4317C20.6628 28.4511 20.6414 28.4717 20.6214 28.4934C19.2314 29.8153 17.7859 30.6261 16.7511 30.6261H14.2486C12.8844 30.6261 10.7563 29.1648 9.07332 27.0724C8.8258 26.7647 8.3785 26.7184 8.07401 26.9681C7.76989 27.2182 7.72364 27.6705 7.97115 27.9778C8.34927 28.4481 8.74404 28.8867 9.14842 29.2885V32.3151C9.14842 33.3944 8.15503 33.6826 8.13801 33.6987C7.90937 32.9895 7.1302 32.615 6.43612 32.8983L3.43635 34.1238C2.76077 34.3997 2.32457 35.0535 2.32457 35.7896V36.2879L1.71595 36.5593C0.673728 37.0229 0 38.0667 0 39.2181V43.9786C0 44.7685 0.455812 45.5031 1.16099 45.85C5.35209 47.9106 10.3101 49 15.4998 49C20.6895 49 25.6479 47.9106 29.839 45.85C30.5442 45.5031 31 44.7685 31 43.9786V39.2181C30.9996 38.0667 30.3263 37.0229 29.2844 36.5593ZM20.4172 1.95372C19.5396 3.66329 19.0623 3.85133 19.0168 3.86591H11.9828C11.9373 3.85133 11.46 3.66329 10.5828 1.95372C13.5227 1.25912 17.5084 1.2666 20.4172 1.95372ZM15.4998 10.5352C17.8862 10.5352 20.1915 10.8507 21.8246 11.401C22.7551 11.7143 24.316 12.3943 24.316 13.4272V14.2617C23.404 13.5693 22.2441 13.1543 20.9829 13.1543C20.0043 13.1543 19.1556 13.3809 18.3349 13.6C17.4796 13.8284 16.5949 14.0646 15.4998 14.0646C14.4047 14.0646 13.5201 13.8284 12.6651 13.6C11.8441 13.3809 10.9953 13.1543 10.0168 13.1543C8.7555 13.1543 7.59563 13.5693 6.68363 14.2617C6.684 13.9787 6.684 13.6994 6.684 13.4272C6.684 11.8055 10.5562 10.5352 15.4998 10.5352ZM20.9832 21.688C18.7356 21.688 18.3061 20.9661 17.8514 20.2023C17.4526 19.5324 16.9564 18.6984 15.4998 18.6984C14.0436 18.6984 13.5471 19.5324 13.1486 20.2023C12.6939 20.9661 12.2644 21.688 10.0168 21.688C7.87311 21.688 6.12904 20.0958 6.12904 18.1387C6.12904 16.1817 7.87311 14.5895 10.0168 14.5895C10.8111 14.5895 11.5351 14.7832 12.3021 14.9876C13.2011 15.228 14.2204 15.4998 15.4998 15.4998C16.7796 15.4998 17.7989 15.228 18.6979 14.9876C19.4645 14.7832 20.1889 14.5895 20.9832 14.5895C23.1269 14.5895 24.871 16.1817 24.871 18.1387C24.871 20.0958 23.1269 21.688 20.9832 21.688ZM4.95436 44.1864C5.15859 44.1939 5.37133 44.1939 5.57185 44.1864V46.0739C5.36393 46.0078 5.15748 45.9401 4.95436 45.8706V44.1864ZM6.99256 46.2698H14.7895V47.5573C12.0864 47.5035 9.45957 47.1413 6.99256 46.4897V46.2698ZM16.2102 46.2698H24.0071V46.4897C21.5401 47.1413 18.9136 47.5035 16.2102 47.5573V46.2698ZM25.4278 46.0739V44.1864C25.6298 44.1939 25.8422 44.1939 26.0453 44.1864V45.8706C25.8422 45.9397 25.6361 46.0078 25.4278 46.0739ZM22.7984 35.2389V42.6301C22.7984 43.2436 23.2309 43.7019 24.0071 43.9584V44.8343H16.2102V36.0868C18.1156 36.0049 20.0158 35.5851 21.9019 34.8281C21.9737 34.8681 22.048 34.9047 22.1239 34.9387L22.7984 35.2389ZM20.4305 30.5342V32.3151C20.4305 32.8165 20.56 33.2968 20.7927 33.7167C19.2728 34.2643 17.7434 34.5739 16.2102 34.6457V32.0613H16.7511C17.8425 32.0617 19.1311 31.5144 20.4305 30.5342ZM14.2486 32.0617H14.7895V34.6442C13.2626 34.5694 11.7338 34.2591 10.2088 33.7137C10.7582 32.7196 10.5022 31.9626 10.5691 30.5244C11.8678 31.499 13.1715 32.0617 14.2486 32.0617ZM9.09995 34.827C10.9928 35.5806 12.8922 36.0001 14.7895 36.0853V44.8343H6.99256V43.9588C7.76915 43.7019 8.20128 43.2436 8.20128 42.6301V35.2389C8.83357 34.9544 8.92052 34.9268 9.09995 34.827ZM1.42071 43.9786V39.2181C1.42071 38.6357 1.76146 38.1074 2.28905 37.8726L2.32457 37.8569V38.3773C2.32457 38.774 2.64275 39.0951 3.03492 39.0951C3.4271 39.0951 3.74528 38.774 3.74528 38.3773V35.7892C3.74528 35.6416 3.83296 35.51 3.96874 35.4546L6.78057 34.3058V42.4941C6.17011 42.8425 4.35574 42.8425 3.74528 42.4941V41.248C3.74528 40.8514 3.4271 40.5303 3.03492 40.5303C2.64238 40.5303 2.32457 40.8514 2.32457 41.248V42.6301C2.32457 43.2436 2.75707 43.7023 3.53365 43.9588V45.342C2.93614 45.1001 2.35157 44.8388 1.78255 44.5592C1.55945 44.4492 1.42071 44.2268 1.42071 43.9786ZM29.5789 43.9786C29.5789 44.2268 29.4405 44.4492 29.2171 44.5588C28.6481 44.8388 28.0639 45.0997 27.466 45.3416V43.9588C28.2429 43.7023 28.6754 43.2436 28.6754 42.6298V41.2488C28.6754 40.8525 28.3576 40.531 27.9651 40.531C27.5729 40.531 27.2547 40.8525 27.2547 41.2488V42.4941C27.0634 42.6032 26.5259 42.7561 25.7371 42.7561C24.9483 42.7561 24.4107 42.6032 24.2191 42.4941V34.7851C24.2194 34.7761 24.2194 34.7672 24.2191 34.7582V34.3066L27.0313 35.4546C27.167 35.51 27.2547 35.6412 27.2547 35.7892V36.7414V36.7683V38.3781C27.2547 38.7743 27.5729 39.0959 27.9651 39.0959C28.3576 39.0959 28.6754 38.7743 28.6754 38.3781V37.8573L28.7113 37.873C29.2385 38.1074 29.5789 38.6357 29.5789 39.2185V43.9786Z" fill="#222222"/>
</mask>
<g mask="url(#mask0)">
<path d="M7.5 23L4.5 20V16.5L8 13L16.5 11.5L23.5 13.5L26 16L27 15L26.5 19L23.5 23.5L16 25L7.5 23Z" fill="#6ACA1E"/>
</g>
</svg>
