<svg width="48" height="44" viewBox="0 0 48 44" fill="none" xmlns="http://www.w3.org/2000/svg">
<path d="M15.6484 16.437L17.4715 23.4025L14.1316 17.8796C14.602 17.3553 15.1094 16.8736 15.6484 16.437ZM18.8245 23.9053L18.7554 23.6413L19.3604 23.6596L19.5603 23.6657L19.5664 23.4658L19.8483 14.1551C21.1467 13.7331 22.5173 13.5115 23.9169 13.5115C25.3165 13.5115 26.6873 13.7331 27.9858 14.1552L28.2677 23.4658L28.2737 23.6657L28.4737 23.6596L29.0786 23.6413L29.0095 23.9053L28.9589 24.0988L29.1524 24.1494L29.8072 24.3208L29.7036 24.492L29.6002 24.6631L29.7713 24.7666L30.4401 25.1711L30.6113 25.2746L30.7148 25.1034L35.0049 18.0092L35.0399 17.9514L35.0326 17.8841L35.0183 17.7525C35.0183 17.7525 35.0183 17.7525 35.0183 17.7525C34.724 15.032 33.4386 12.5194 31.3994 10.6776L31.2654 10.826L31.3994 10.6776C29.345 8.82202 26.6874 7.8 23.9168 7.8C21.1462 7.8 18.4887 8.82203 16.4342 10.6776L16.4342 10.6776C14.3952 12.5194 13.1097 15.0321 12.8154 17.7526C12.8154 17.7526 12.8154 17.7526 12.8154 17.7526L12.8012 17.8838L12.7939 17.951L12.8289 18.0089L17.1193 25.1035L17.2227 25.2746L17.3939 25.1711L18.0627 24.7667L18.2339 24.6632L18.1304 24.4921L18.0268 24.3208L18.6816 24.1494L18.8751 24.0988L18.8245 23.9053ZM29.4161 22.352L29.1817 14.6102C29.87 14.9109 30.5322 15.2705 31.1608 15.686L29.4161 22.352ZM30.3625 23.4025L32.1856 16.4372C32.7246 16.8738 33.232 17.3556 33.7024 17.8798L30.3625 23.4025ZM18.6524 14.61L18.418 22.3521L16.6732 15.6858C17.3018 15.2703 17.964 14.9107 18.6524 14.61ZM16.6481 12.2673L16.5665 12.195C18.3976 10.2089 21.0219 8.9816 23.9168 8.9816C28.3574 8.9816 32.1611 11.8693 33.4422 15.9538C30.8345 13.6309 27.4595 12.3299 23.9168 12.3299C21.1273 12.3299 18.4419 13.1369 16.153 14.614C16.4628 14.0617 16.831 13.5416 17.2505 13.0676L17.3831 12.9179L17.2333 12.7853L16.6481 12.2673Z" fill="#6ACA1E" stroke="#6ACA1E" stroke-width="0.4"/>
<path d="M17.2294 33.3657L17.3445 32.9269H16.8908H1.875C1.02806 32.9269 0.35 32.2513 0.35 31.4281V1.84871C0.35 1.02561 1.02806 0.35 1.875 0.35H46.125C46.9719 0.35 47.65 1.02561 47.65 1.84871V31.4281C47.65 32.2513 46.9719 32.9269 46.125 32.9269H31.1092H30.6555L30.7706 33.3657L32.9767 41.7766C33.1857 42.5732 32.7013 43.3927 31.883 43.6014C31.0593 43.8114 30.2318 43.3198 30.0233 42.5248L27.5742 33.1881L27.5057 32.9269H27.2357H20.7643H20.4943L20.4258 33.1881L17.9767 42.5248C17.7681 43.32 16.9404 43.8114 16.117 43.6014C15.2987 43.3927 14.8143 42.5732 15.0233 41.7766L14.6847 41.6878L15.0233 41.7766L17.2294 33.3657ZM44.25 29.9294H44.6V29.5794V3.69743V3.34743H44.25H3.75H3.4V3.69743V29.5794V29.9294H3.75H44.25Z" fill="#222222" stroke="white" stroke-width="0.7"/>
</svg>
