<svg width="33" height="46" viewBox="0 0 33 46" fill="none" xmlns="http://www.w3.org/2000/svg">
<path d="M31.7396 0.810301H26.3135C25.8173 0.810301 25.4151 1.21253 25.4151 1.70874V7.09047C24.2417 6.29993 22.9606 5.65773 21.5987 5.1909C21.5509 2.32039 19.2009 0 16.319 0C13.4371 0 11.0871 2.32039 11.0394 5.19081C9.67752 5.65764 8.39635 6.29984 7.22299 7.09038V1.70874C7.22299 1.21253 6.82076 0.810301 6.32455 0.810301H0.898438C0.402231 0.810301 0 1.21253 0 1.70874V40.8589C0 43.6937 2.30656 46.0001 5.14167 46.0001H27.4964C30.3315 46.0001 32.638 43.6937 32.638 40.8589V1.70874C32.6381 1.21253 32.2358 0.810301 31.7396 0.810301ZM30.8412 28.7065H20.336C19.8399 28.7065 19.4376 29.1088 19.4376 29.605C19.4376 30.1011 19.8399 30.5034 20.336 30.5034H21.9041V32.1385C21.9041 32.6346 22.3063 33.0369 22.8025 33.0369C23.2986 33.0369 23.701 32.6346 23.701 32.1385V30.5034H25.1454V35.8747C25.1454 37.3897 23.9125 38.6224 22.3972 38.6224H10.2408C8.72545 38.6224 7.4927 37.3897 7.4927 35.8747V30.5034H12.2119C12.7081 30.5034 13.1104 30.1011 13.1104 29.605C13.1104 29.1088 12.7081 28.7065 12.2119 28.7065H1.79688V20.6317C1.79688 12.6252 8.31145 6.11144 16.319 6.11144C24.3265 6.11144 30.8412 12.6252 30.8412 20.6317V28.7065ZM16.319 1.79688C18.0344 1.79688 19.4641 3.04301 19.7503 4.67745C18.6436 4.43972 17.4956 4.31448 16.319 4.31448C15.1424 4.31448 13.9944 4.43972 12.8877 4.67745C13.1739 3.04301 14.6037 1.79688 16.319 1.79688ZM1.79688 2.60718H5.42611V8.49167C3.94836 9.81866 2.71346 11.4108 1.79688 13.1924V2.60718ZM27.4964 44.2031H5.14167C3.29736 44.2031 1.79688 42.7029 1.79688 40.8588V30.5034H5.69573V35.8747C5.69573 38.3806 7.73465 40.4193 10.2408 40.4193H22.3972C24.9034 40.4193 26.9423 38.3806 26.9423 35.8747V30.5034H30.8411V40.8589C30.8412 42.7029 29.3408 44.2031 27.4964 44.2031ZM27.2119 8.49167V2.60718H30.8411V13.1925C29.9246 11.4108 28.6896 9.81866 27.2119 8.49167Z" fill="#222222"/>
<path d="M16.258 30.5028C15.8824 30.5028 15.5389 30.2611 15.4121 29.9075C15.2855 29.5545 15.3977 29.1482 15.6879 28.9105C15.9826 28.669 16.4079 28.6415 16.7318 28.8419C17.0548 29.0418 17.2193 29.4391 17.1323 29.809C17.0378 30.21 16.6703 30.5028 16.258 30.5028Z" fill="#6ACA1E"/>
<path d="M27.7778 21.5301C27.2817 21.5301 26.8794 21.1278 26.8794 20.6317C26.8794 14.8093 22.142 10.0727 16.3191 10.0727C10.496 10.0727 5.75867 14.8094 5.75867 20.6317C5.75867 21.1278 5.35644 21.5301 4.86023 21.5301C4.36402 21.5301 3.96179 21.1278 3.96179 20.6317C3.96179 13.8186 9.50524 8.27582 16.3191 8.27582C23.1329 8.27582 28.6763 13.8186 28.6763 20.6317C28.6763 21.1278 28.274 21.5301 27.7778 21.5301Z" fill="#6ACA1E"/>
</svg>
