<svg width="70" height="72" viewBox="0 0 70 72" fill="none" xmlns="http://www.w3.org/2000/svg">
<path d="M47.0576 59.518L46.197 49.7245L48.58 48.4208C49.0322 48.1718 49.3724 47.76 49.5305 47.2701C49.6886 46.7803 49.6527 46.2496 49.43 45.7872L50.1871 45.373L51.9879 48.6646C52.0821 48.8368 52.2412 48.9642 52.4303 49.019C52.6193 49.0737 52.8229 49.0512 52.9961 48.9564C53.1692 48.8617 53.2979 48.7024 53.3538 48.5137C53.4097 48.325 53.3882 48.1223 53.294 47.9501L51.4932 44.6585L51.6797 44.5564C51.8529 44.4617 51.9816 44.3024 52.0375 44.1137C52.0934 43.925 52.0718 43.7223 51.9777 43.5501C51.8835 43.378 51.7244 43.2505 51.5353 43.1958C51.3463 43.1411 51.1428 43.1636 50.9696 43.2583L50.783 43.3604L48.982 40.0684C48.8878 39.8963 48.7287 39.7688 48.5396 39.7141C48.3506 39.6594 48.1471 39.6819 47.9739 39.7766C47.8007 39.8714 47.672 40.0306 47.6161 40.2194C47.5603 40.4081 47.5818 40.6108 47.676 40.7829L49.4768 44.0746L48.7211 44.488C48.4519 44.0511 48.0244 43.7346 47.5265 43.6036C47.0287 43.4726 46.4985 43.537 46.0449 43.7836L45.6904 43.9775L44.958 35.6279C47.2971 34.3807 49.5379 32.9575 51.6609 31.3706C52.4364 30.7879 53.0731 30.0414 53.525 29.185L56.6383 38.1547C56.7554 38.4924 56.9415 38.8019 57.185 39.0635C57.4286 39.3251 57.7242 39.5333 58.0532 39.6748C58.3822 39.8163 58.7374 39.8881 59.0964 39.8857C59.4554 39.8832 59.8103 39.8066 60.1388 39.6605C60.4673 39.5145 60.7621 39.3023 61.0047 39.0373C61.2473 38.7723 61.4324 38.4603 61.5482 38.1211C61.6641 37.7818 61.7081 37.4226 61.6777 37.0663C61.6472 36.7099 61.5429 36.3641 61.3712 36.0507L56.4846 27.1186C56.9328 26.6892 57.2275 26.1253 57.3232 25.5141C57.4189 24.9028 57.3102 24.2783 57.0139 23.7367C56.7177 23.1952 56.2503 22.7668 55.684 22.5178C55.1177 22.2687 54.4839 22.2128 53.8805 22.3587L48.9938 13.4266C48.8225 13.1131 48.5875 12.8387 48.3039 12.6209C48.0202 12.403 47.694 12.2465 47.3458 12.161C46.9976 12.0756 46.6351 12.0632 46.2811 12.1246C45.9271 12.186 45.5894 12.3199 45.2893 12.5178C44.9892 12.7156 44.7332 12.9732 44.5375 13.2742C44.3418 13.5752 44.2107 13.913 44.1525 14.2664C44.0943 14.6198 44.1102 14.981 44.1992 15.3272C44.2882 15.6733 44.4484 15.997 44.6696 16.2776L50.5441 23.7363C49.5792 23.6552 48.6073 23.789 47.6985 24.1279C45.2172 25.0597 42.8101 26.1792 40.4985 27.4766L33.8621 22.357L34.2136 22.1647C34.6659 21.9158 35.006 21.5039 35.1642 21.0141C35.3223 20.5242 35.2863 19.9935 35.0637 19.5312L35.8223 19.1161L37.6231 22.4077C37.7173 22.5799 37.8764 22.7073 38.0654 22.7621C38.2545 22.8168 38.458 22.7943 38.6312 22.6995C38.8044 22.6048 38.9331 22.4455 38.9889 22.2568C39.0448 22.0681 39.0233 21.8654 38.9291 21.6932L37.1283 18.4016L37.3149 18.2995C37.4881 18.2048 37.6168 18.0455 37.6726 17.8568C37.7285 17.6681 37.707 17.4654 37.6128 17.2932C37.5186 17.1211 37.3595 16.9936 37.1705 16.9389C36.9814 16.8842 36.7779 16.9067 36.6047 17.0014L36.4181 17.1035L34.6173 13.8119C34.5231 13.6398 34.364 13.5123 34.175 13.4576C33.9859 13.4029 33.7824 13.4254 33.6092 13.5201C33.436 13.6149 33.3073 13.7741 33.2515 13.9628C33.1956 14.1515 33.2171 14.3543 33.3113 14.5264L35.1121 17.818L34.3565 18.2314C34.0872 17.7946 33.6597 17.4781 33.1619 17.3471C32.6641 17.2161 32.1338 17.2805 31.6802 17.527L29.2977 18.8305L21.5144 12.8243C21.4 12.7358 21.262 12.6828 21.1173 12.6718C20.9727 12.6607 20.8277 12.6922 20.7003 12.7622L15.9147 15.3804C15.8242 15.4315 15.7452 15.5006 15.6826 15.5834C15.6201 15.6662 15.5753 15.7609 15.5512 15.8616C15.5271 15.9623 15.5241 16.0668 15.5424 16.1685C15.5607 16.2702 15.5999 16.3669 15.6576 16.4525L19.2882 21.6947L26.1062 31.5382L28.2434 34.6241L25.3352 36.3255L23.2313 37.5401L17.012 32.4757C16.8977 32.3826 16.7579 32.3259 16.6105 32.3126C16.4632 32.2994 16.315 32.3303 16.185 32.4015L12.3624 34.4927C12.1892 34.5875 12.0606 34.7467 12.0047 34.9355C11.9488 35.1242 11.9703 35.3269 12.0645 35.4991C12.0782 35.5238 12.0932 35.5477 12.1096 35.5708L16.3386 41.5187C15.2944 42.1261 14.4267 42.9948 13.8221 44.0384C13.2175 45.0819 12.8972 46.2638 12.8929 47.4662C12.8935 47.5902 12.9249 47.7119 12.9843 47.8205C13.0437 47.9291 13.1293 48.0212 13.2334 48.0885C14.2483 48.7333 15.4164 49.1009 16.6212 49.1546C17.8261 49.2083 19.0256 48.9462 20.1003 48.3946L22.8284 55.1632C22.839 55.1894 22.851 55.215 22.8645 55.2399C22.9587 55.412 23.1178 55.5394 23.3068 55.5942C23.4959 55.6489 23.6994 55.6264 23.8726 55.5316L27.6955 53.4402C27.8256 53.369 27.9315 53.2608 27.9998 53.1295C28.0681 52.9982 28.0956 52.8498 28.0788 52.7033L27.1699 44.7384L29.3237 43.6238L32.3287 42.0906L33.775 45.5549L38.3885 56.6064L40.8451 62.4908C40.886 62.5858 40.9462 62.6711 41.0219 62.7415C41.0977 62.812 41.1873 62.8659 41.2851 62.9C41.383 62.9341 41.487 62.9476 41.5905 62.9397C41.6941 62.9317 41.795 62.9025 41.8869 62.8538L46.6725 60.2357C46.7997 60.166 46.9038 60.0611 46.9722 59.9336C47.0406 59.8061 47.0703 59.6617 47.0576 59.518ZM46.7538 45.0828C46.8151 45.0491 46.8825 45.0277 46.952 45.0199C47.0216 45.0121 47.0919 45.0181 47.1589 45.0374C47.226 45.0568 47.2885 45.0892 47.3429 45.1327C47.3973 45.1763 47.4424 45.2301 47.4758 45.2912L48.0845 46.4039C48.1516 46.5268 48.1669 46.6716 48.1271 46.8064C48.0872 46.9411 47.9953 47.0549 47.8717 47.1226L46.0578 48.115L45.8374 45.5852L46.7538 45.0828ZM59.6212 38.2658C59.4798 38.3433 59.3232 38.3892 59.1625 38.4003C59.0018 38.4114 58.8408 38.3874 58.6906 38.3301C58.5405 38.2728 58.4048 38.1835 58.2932 38.0685C58.1815 37.9534 58.0964 37.8153 58.0439 37.6638L54.7528 28.1822L55.2275 27.9225L60.0652 36.7652C60.2051 37.0219 60.237 37.324 60.1537 37.6052C60.0705 37.8865 59.8789 38.1239 59.621 38.2655L59.6212 38.2658ZM55.7098 24.4502C55.8793 24.761 55.9179 25.1268 55.817 25.4672C55.7162 25.8077 55.4841 26.0951 55.1718 26.2664L53.4587 27.2036L52.1771 24.8611L53.8887 23.9247C54.2014 23.7535 54.5689 23.7127 54.9103 23.8112C55.2518 23.9098 55.5393 24.1396 55.7098 24.4502ZM45.8397 15.3599C45.7452 15.24 45.6767 15.1018 45.6387 14.9539C45.6006 14.806 45.5938 14.6517 45.6186 14.5008C45.6435 14.3498 45.6994 14.2055 45.783 14.0769C45.8666 13.9483 45.9759 13.8382 46.1041 13.7537C46.2323 13.6691 46.3766 13.6119 46.5278 13.5857C46.679 13.5594 46.8339 13.5647 46.9826 13.6012C47.1314 13.6376 47.2707 13.7045 47.3919 13.7976C47.5131 13.8906 47.6135 14.0078 47.6867 14.1418L52.5244 22.9844L52.0498 23.2441L45.8397 15.3599ZM30.575 19.8183L32.3889 18.8259C32.5125 18.758 32.6579 18.7415 32.7931 18.7802C32.9283 18.819 33.0422 18.9097 33.1099 19.0324L33.7186 20.1451C33.7858 20.2681 33.8011 20.4128 33.7612 20.5476C33.7213 20.6824 33.6294 20.7961 33.5058 20.8639L32.5841 21.3681L31.9373 20.8691L30.575 19.8183ZM26.9521 30.1458L20.9808 21.5238L22.3753 20.7609L29.1011 28.9701L26.9521 30.1458ZM27.7992 31.369L30.5979 29.8379C30.6938 29.7854 30.777 29.7126 30.8416 29.6246C30.9063 29.5366 30.9507 29.4356 30.9719 29.3288C30.993 29.2219 30.9904 29.1119 30.964 29.0064C30.9377 28.901 30.8883 28.8027 30.8195 28.7187L23.1391 19.3451C23.0297 19.2115 22.8766 19.1204 22.7065 19.0878C22.5363 19.0551 22.3597 19.0828 22.2073 19.1662L20.1319 20.3017L17.3506 16.2814L20.9825 14.2945L28.7658 20.3007L29.6427 20.9775L39.0937 28.2712L29.4923 33.8131L27.7992 31.369ZM13.8063 35.3914L16.4557 33.9419L21.854 38.3379L20.2146 39.2831L17.6354 40.7722L13.8063 35.3914ZM14.3986 47.0511C14.4693 46.1794 14.7512 45.3368 15.2203 44.5957C15.6893 43.8547 16.3314 43.2374 17.0913 42.797L17.9542 42.2988L23.5282 39.0807L26.0796 37.6073L40.6346 29.0902L40.6413 29.0865C43.0632 27.6893 45.5964 26.4946 48.2148 25.5147C49.0035 25.2196 49.8526 25.1249 50.6851 25.2393L52.3352 28.2553C51.9827 29.0183 51.4452 29.6826 50.7714 30.1879C48.5814 31.8281 46.262 33.2885 43.836 34.5546L43.8331 34.5563L43.0911 34.9405L28.6489 42.3116L26.0369 43.6635L26.0347 43.6647L20.3965 46.583L19.4341 47.0811C18.6531 47.4832 17.7867 47.6906 16.9095 47.6854C16.0323 47.6801 15.1706 47.4625 14.3986 47.0511ZM26.548 52.3876L23.8987 53.837L21.4297 47.7112L25.7568 45.4716L26.548 52.3876ZM39.4455 55.2745L35.4049 45.5962L37.5538 44.4205L40.8399 54.5116L39.4455 55.2745ZM41.9021 61.1589L40.0168 56.6485L42.0923 55.5131C42.2447 55.4297 42.3632 55.2959 42.4275 55.135C42.4918 54.9741 42.4977 54.7961 42.4442 54.6319L38.6919 43.1093C38.6583 43.0059 38.6021 42.9114 38.5275 42.8324C38.453 42.7533 38.3617 42.6917 38.2603 42.6519C38.159 42.6121 38.0499 42.5951 37.941 42.6021C37.832 42.609 37.7258 42.6398 37.6299 42.6923L34.8313 44.2234L33.6848 41.4773L43.5297 36.3804L45.5344 59.1717L41.9021 61.1589Z" fill="#222222"/>
<mask id="mask0" mask-type="alpha" maskUnits="userSpaceOnUse" x="0" y="0" width="70" height="72">
<path d="M47.0576 59.518L46.197 49.7245L48.58 48.4208C49.0322 48.1718 49.3724 47.76 49.5305 47.2701C49.6886 46.7803 49.6527 46.2496 49.43 45.7872L50.1871 45.373L51.9879 48.6646C52.0821 48.8368 52.2412 48.9642 52.4303 49.019C52.6194 49.0737 52.8229 49.0512 52.9961 48.9564C53.1692 48.8617 53.2979 48.7024 53.3538 48.5137C53.4097 48.325 53.3882 48.1223 53.294 47.9501L51.4932 44.6585L51.6797 44.5564C51.8529 44.4617 51.9816 44.3024 52.0375 44.1137C52.0934 43.925 52.0718 43.7223 51.9777 43.5501C51.8835 43.378 51.7244 43.2505 51.5353 43.1958C51.3463 43.1411 51.1428 43.1636 50.9696 43.2583L50.783 43.3604L48.982 40.0684C48.8878 39.8963 48.7287 39.7688 48.5396 39.7141C48.3506 39.6594 48.1471 39.6819 47.9739 39.7766C47.8007 39.8714 47.672 40.0306 47.6161 40.2194C47.5603 40.4081 47.5818 40.6108 47.676 40.7829L49.4768 44.0746L48.7211 44.488C48.4519 44.0511 48.0244 43.7346 47.5265 43.6036C47.0287 43.4726 46.4985 43.537 46.0449 43.7836L45.6904 43.9775L44.958 35.6279C47.2971 34.3807 49.5379 32.9575 51.6609 31.3706C52.4364 30.7879 53.0731 30.0414 53.525 29.185L56.6383 38.1547C56.7554 38.4924 56.9415 38.8019 57.185 39.0635C57.4286 39.3251 57.7242 39.5333 58.0532 39.6748C58.3822 39.8163 58.7374 39.8881 59.0964 39.8857C59.4554 39.8832 59.8103 39.8066 60.1388 39.6605C60.4673 39.5145 60.7621 39.3023 61.0047 39.0373C61.2473 38.7723 61.4324 38.4603 61.5482 38.1211C61.6641 37.7818 61.7081 37.4226 61.6777 37.0663C61.6472 36.7099 61.5429 36.3641 61.3712 36.0507L56.4846 27.1186C56.9328 26.6892 57.2275 26.1253 57.3232 25.5141C57.4189 24.9028 57.3102 24.2783 57.0139 23.7367C56.7177 23.1952 56.2503 22.7668 55.684 22.5178C55.1177 22.2687 54.4839 22.2128 53.8805 22.3587L48.9938 13.4266C48.8225 13.1131 48.5875 12.8387 48.3039 12.6209C48.0202 12.403 47.694 12.2465 47.3458 12.161C46.9976 12.0756 46.6351 12.0632 46.2811 12.1246C45.9271 12.186 45.5894 12.3199 45.2893 12.5178C44.9892 12.7156 44.7332 12.9732 44.5375 13.2742C44.3418 13.5752 44.2107 13.913 44.1525 14.2664C44.0943 14.6198 44.1102 14.981 44.1992 15.3272C44.2882 15.6733 44.4484 15.997 44.6696 16.2776L50.5441 23.7363C49.5792 23.6552 48.6073 23.789 47.6985 24.1279C45.2172 25.0597 42.8101 26.1792 40.4985 27.4766L33.8621 22.357L34.2136 22.1647C34.6659 21.9157 35.006 21.5039 35.1642 21.0141C35.3223 20.5242 35.2863 19.9935 35.0637 19.5312L35.8223 19.1161L37.6231 22.4077C37.7173 22.5799 37.8764 22.7073 38.0654 22.7621C38.2545 22.8168 38.458 22.7943 38.6312 22.6995C38.8044 22.6048 38.9331 22.4455 38.9889 22.2568C39.0448 22.0681 39.0233 21.8654 38.9291 21.6932L37.1283 18.4016L37.3149 18.2995C37.4881 18.2048 37.6168 18.0455 37.6726 17.8568C37.7285 17.6681 37.707 17.4654 37.6128 17.2932C37.5186 17.1211 37.3595 16.9936 37.1705 16.9389C36.9814 16.8842 36.7779 16.9067 36.6047 17.0014L36.4181 17.1035L34.6173 13.8119C34.5231 13.6398 34.364 13.5123 34.175 13.4576C33.9859 13.4029 33.7824 13.4254 33.6092 13.5201C33.436 13.6149 33.3073 13.7741 33.2515 13.9628C33.1956 14.1515 33.2171 14.3543 33.3113 14.5264L35.1121 17.818L34.3565 18.2314C34.0872 17.7946 33.6597 17.4781 33.1619 17.3471C32.6641 17.2161 32.1338 17.2805 31.6802 17.527L29.2977 18.8305L21.5144 12.8243C21.4 12.7358 21.262 12.6828 21.1173 12.6718C20.9727 12.6607 20.8277 12.6922 20.7003 12.7622L15.9147 15.3804C15.8242 15.4315 15.7452 15.5006 15.6826 15.5834C15.6201 15.6662 15.5753 15.7609 15.5512 15.8616C15.5271 15.9623 15.5241 16.0668 15.5424 16.1685C15.5607 16.2702 15.5999 16.3669 15.6576 16.4525L19.2882 21.6947L26.1062 31.5382L28.2434 34.6241L25.3352 36.3255L23.2313 37.5401L17.012 32.4757C16.8977 32.3826 16.7579 32.3259 16.6105 32.3126C16.4632 32.2994 16.315 32.3303 16.185 32.4015L12.3624 34.4927C12.1892 34.5875 12.0606 34.7467 12.0047 34.9355C11.9488 35.1242 11.9703 35.3269 12.0645 35.4991C12.0782 35.5238 12.0932 35.5477 12.1096 35.5708L16.3386 41.5187C15.2944 42.1261 14.4267 42.9948 13.8221 44.0384C13.2175 45.0819 12.8972 46.2638 12.8929 47.4662C12.8935 47.5902 12.9249 47.7119 12.9843 47.8205C13.0437 47.9291 13.1293 48.0212 13.2334 48.0885C14.2483 48.7333 15.4164 49.1009 16.6212 49.1546C17.8261 49.2083 19.0256 48.9462 20.1003 48.3946L22.8284 55.1632C22.839 55.1894 22.851 55.215 22.8645 55.2399C22.9587 55.412 23.1178 55.5394 23.3068 55.5942C23.4959 55.6489 23.6994 55.6264 23.8726 55.5316L27.6955 53.4402C27.8256 53.369 27.9315 53.2608 27.9998 53.1295C28.0681 52.9982 28.0956 52.8498 28.0788 52.7033L27.1699 44.7384L29.3237 43.6238L32.3287 42.0906L33.775 45.5549L38.3885 56.6064L40.8451 62.4908C40.886 62.5858 40.9462 62.6711 41.0219 62.7415C41.0977 62.812 41.1873 62.8659 41.2851 62.9C41.383 62.9341 41.487 62.9476 41.5905 62.9397C41.6941 62.9317 41.795 62.9025 41.8869 62.8538L46.6725 60.2357C46.7997 60.166 46.9038 60.0611 46.9722 59.9336C47.0406 59.8061 47.0703 59.6617 47.0576 59.518ZM46.7538 45.0828C46.8151 45.0491 46.8825 45.0277 46.952 45.0199C47.0216 45.0121 47.0919 45.0181 47.1589 45.0374C47.226 45.0568 47.2885 45.0892 47.3429 45.1327C47.3973 45.1763 47.4424 45.2301 47.4758 45.2912L48.0845 46.4039C48.1516 46.5268 48.1669 46.6716 48.1271 46.8064C48.0872 46.9411 47.9953 47.0549 47.8717 47.1226L46.0578 48.115L45.8374 45.5852L46.7538 45.0828ZM59.6212 38.2658C59.4798 38.3433 59.3232 38.3892 59.1625 38.4003C59.0018 38.4114 58.8408 38.3874 58.6906 38.3301C58.5405 38.2728 58.4048 38.1835 58.2932 38.0685C58.1815 37.9534 58.0964 37.8153 58.0439 37.6638L54.7528 28.1822L55.2275 27.9225L60.0652 36.7652C60.2051 37.0219 60.237 37.324 60.1537 37.6052C60.0705 37.8865 59.8791 38.1243 59.6212 38.2658ZM55.7098 24.4502C55.8793 24.761 55.9179 25.1268 55.817 25.4672C55.7162 25.8077 55.4841 26.0951 55.1718 26.2664L53.4587 27.2036L52.1771 24.8611L53.8887 23.9247C54.2014 23.7535 54.5689 23.7127 54.9103 23.8112C55.2518 23.9098 55.5393 24.1396 55.7098 24.4502ZM45.8397 15.3599C45.7452 15.24 45.6767 15.1018 45.6387 14.9539C45.6006 14.806 45.5938 14.6517 45.6186 14.5008C45.6435 14.3498 45.6994 14.2055 45.783 14.0769C45.8666 13.9483 45.9759 13.8382 46.1041 13.7537C46.2323 13.6691 46.3766 13.6119 46.5278 13.5857C46.679 13.5594 46.8339 13.5647 46.9826 13.6012C47.1314 13.6376 47.2707 13.7045 47.3919 13.7976C47.5131 13.8906 47.6135 14.0078 47.6867 14.1418L52.5244 22.9844L52.0498 23.2441L45.8397 15.3599ZM30.575 19.8183L32.3889 18.8259C32.5125 18.758 32.6579 18.7415 32.7931 18.7802C32.9283 18.819 33.0422 18.9097 33.1099 19.0324L33.7186 20.1451C33.7858 20.2681 33.8011 20.4128 33.7612 20.5476C33.7213 20.6824 33.6294 20.7961 33.5058 20.8639L32.5841 21.3681L31.9373 20.8691L30.575 19.8183ZM26.9521 30.1458L20.9808 21.5238L22.3753 20.7609L29.1011 28.9701L26.9521 30.1458ZM27.7992 31.369L30.5979 29.8379C30.6938 29.7854 30.777 29.7126 30.8416 29.6246C30.9063 29.5366 30.9507 29.4356 30.9719 29.3288C30.993 29.2219 30.9904 29.1119 30.964 29.0064C30.9377 28.901 30.8883 28.8027 30.8195 28.7187L23.1391 19.3451C23.0297 19.2115 22.8766 19.1204 22.7065 19.0878C22.5363 19.0551 22.3597 19.0828 22.2073 19.1662L20.1319 20.3017L17.3506 16.2814L20.9825 14.2945L28.7658 20.3007L29.6427 20.9775L39.0937 28.2712L29.4923 33.8131L27.7992 31.369ZM13.8063 35.3914L16.4557 33.9419L21.854 38.3379L20.2146 39.2831L17.6354 40.7722L13.8063 35.3914ZM14.3986 47.0511C14.4693 46.1794 14.7512 45.3368 15.2203 44.5957C15.6893 43.8547 16.3314 43.2374 17.0913 42.797L17.9542 42.2988L23.5282 39.0807L26.0796 37.6073L40.6346 29.0902L40.6413 29.0865C43.0632 27.6893 45.5964 26.4946 48.2148 25.5147C49.0035 25.2196 49.8526 25.1249 50.6851 25.2393L52.3352 28.2553C51.9827 29.0183 51.4452 29.6826 50.7714 30.1879C48.5814 31.8281 46.262 33.2885 43.836 34.5546L43.8331 34.5563L43.0911 34.9405L28.6489 42.3116L26.0369 43.6635L26.0347 43.6647L20.3965 46.583L19.4341 47.0811C18.6531 47.4832 17.7867 47.6906 16.9095 47.6854C16.0323 47.6801 15.1706 47.4625 14.3986 47.0511ZM26.548 52.3876L23.8987 53.837L21.4297 47.7112L25.7568 45.4716L26.548 52.3876ZM39.4455 55.2745L35.4049 45.5962L37.5538 44.4205L40.8399 54.5116L39.4455 55.2745ZM41.9021 61.1589L40.0168 56.6485L42.0923 55.5131C42.2447 55.4297 42.3632 55.2959 42.4275 55.135C42.4918 54.9741 42.4977 54.7961 42.4442 54.6319L38.6919 43.1093C38.6583 43.0059 38.6021 42.9114 38.5275 42.8324C38.453 42.7533 38.3617 42.6917 38.2603 42.6519C38.159 42.6121 38.0499 42.5951 37.941 42.6021C37.832 42.609 37.7258 42.6398 37.6299 42.6923L34.8313 44.2234L33.6848 41.4773L43.5297 36.3804L45.5344 59.1717L41.9021 61.1589Z" fill="#222222"/>
</mask>
<g mask="url(#mask0)">
<path fill-rule="evenodd" clip-rule="evenodd" d="M57.412 41.7643L68.8972 37.5879C63.5026 29.9311 52.7135 14.3043 52.7135 13.0513C52.7135 11.7984 48.8851 9.04894 46.9709 7.83081L39.6622 13.0513L49.5812 23.4924L53.2356 29.7571L57.412 41.7643ZM34.9637 11.4852L41.2283 22.4483L37.574 24.0145L31.3093 13.5734L34.9637 11.4852ZM55.3238 48.551L49.0591 37.5879L45.9268 39.6761L51.6694 50.1171L55.3238 48.551Z" fill="#6ACA1E"/>
</g>
</svg>
