<svg width="71" height="79" viewBox="0 0 71 79" fill="none" xmlns="http://www.w3.org/2000/svg">
<g filter="url(#filter0_d)">
<mask id="path-1-outside-1" maskUnits="userSpaceOnUse" x="20.3943" y="15" width="31" height="39" fill="black">
<rect fill="white" x="20.3943" y="15" width="31" height="39"/>
<path fill-rule="evenodd" clip-rule="evenodd" d="M35.4225 51.2593C35.4225 51.2593 48.4507 37.2234 48.4507 30.0282C48.4507 22.8329 42.6178 17 35.4225 17C28.2273 17 22.3943 22.8329 22.3943 30.0282C22.3943 37.2234 35.4225 51.2593 35.4225 51.2593ZM35.5 34C38.5376 34 41 31.7614 41 29C41 26.2386 38.5376 24 35.5 24C32.4624 24 30 26.2386 30 29C30 31.7614 32.4624 34 35.5 34Z"/>
</mask>
<path fill-rule="evenodd" clip-rule="evenodd" d="M35.4225 51.2593C35.4225 51.2593 48.4507 37.2234 48.4507 30.0282C48.4507 22.8329 42.6178 17 35.4225 17C28.2273 17 22.3943 22.8329 22.3943 30.0282C22.3943 37.2234 35.4225 51.2593 35.4225 51.2593ZM35.5 34C38.5376 34 41 31.7614 41 29C41 26.2386 38.5376 24 35.5 24C32.4624 24 30 26.2386 30 29C30 31.7614 32.4624 34 35.5 34Z" fill="white"/>
<path d="M35.4225 51.2593L33.9567 52.6199C34.3351 53.0276 34.8662 53.2593 35.4225 53.2593C35.9788 53.2593 36.5099 53.0276 36.8884 52.6199L35.4225 51.2593ZM46.4507 30.0282C46.4507 31.3211 45.832 33.1877 44.644 35.4517C43.4887 37.6535 41.9256 39.9911 40.328 42.1535C38.7358 44.3085 37.1391 46.2495 35.9382 47.6539C35.3386 48.3551 34.8398 48.9199 34.4923 49.3079C34.3187 49.5019 34.183 49.6515 34.0915 49.7517C34.0458 49.8018 34.0112 49.8395 33.9885 49.8642C33.9771 49.8765 33.9687 49.8856 33.9634 49.8914C33.9607 49.8943 33.9588 49.8963 33.9577 49.8976C33.9571 49.8982 33.9567 49.8986 33.9566 49.8987C33.9565 49.8988 33.9565 49.8988 33.9565 49.8988C33.9565 49.8988 33.9567 49.8986 35.4225 51.2593C36.8884 52.6199 36.8886 52.6196 36.8889 52.6193C36.889 52.6192 36.8893 52.6188 36.8896 52.6185C36.8903 52.6178 36.8911 52.6169 36.8921 52.6158C36.8941 52.6136 36.897 52.6106 36.9006 52.6067C36.9078 52.5989 36.918 52.5878 36.9313 52.5734C36.9579 52.5445 36.9964 52.5025 37.0461 52.4481C37.1455 52.3391 37.2897 52.1802 37.4723 51.9763C37.8373 51.5686 38.3564 50.9807 38.9782 50.2536C40.22 48.8014 41.8803 46.7838 43.5452 44.5304C45.2046 42.2844 46.8985 39.764 48.186 37.3103C49.4408 34.919 50.4507 32.3329 50.4507 30.0282H46.4507ZM35.4225 19C41.5132 19 46.4507 23.9375 46.4507 30.0282H50.4507C50.4507 21.7283 43.7223 15 35.4225 15V19ZM24.3943 30.0282C24.3943 23.9375 29.3318 19 35.4225 19V15C27.1227 15 20.3943 21.7283 20.3943 30.0282H24.3943ZM35.4225 51.2593C36.8884 49.8986 36.8885 49.8988 36.8886 49.8988C36.8885 49.8988 36.8885 49.8988 36.8885 49.8987C36.8883 49.8986 36.8879 49.8982 36.8874 49.8976C36.8862 49.8963 36.8843 49.8943 36.8817 49.8914C36.8763 49.8856 36.8679 49.8765 36.8566 49.8642C36.8338 49.8395 36.7992 49.8018 36.7535 49.7517C36.6621 49.6515 36.5264 49.5019 36.3527 49.3079C36.0053 48.9199 35.5065 48.3551 34.9069 47.6539C33.7059 46.2495 32.1092 44.3085 30.517 42.1535C28.9194 39.9911 27.3563 37.6535 26.201 35.4517C25.013 33.1877 24.3943 31.3211 24.3943 30.0282H20.3943C20.3943 32.3329 21.4042 34.919 22.659 37.3103C23.9465 39.764 25.6404 42.2844 27.2999 44.5304C28.9647 46.7838 30.6251 48.8014 31.8669 50.2536C32.4887 50.9807 33.0077 51.5686 33.3727 51.9763C33.5553 52.1802 33.6995 52.3391 33.7989 52.4481C33.8486 52.5025 33.8872 52.5445 33.9137 52.5734C33.927 52.5878 33.9373 52.5989 33.9445 52.6067C33.9481 52.6106 33.9509 52.6136 33.9529 52.6158C33.9539 52.6169 33.9548 52.6178 33.9554 52.6185C33.9557 52.6188 33.956 52.6192 33.9562 52.6193C33.9564 52.6196 33.9567 52.6199 35.4225 51.2593ZM39 29C39 30.4817 37.6166 32 35.5 32V36C39.4585 36 43 33.0411 43 29H39ZM35.5 26C37.6166 26 39 27.5183 39 29H43C43 24.9589 39.4585 22 35.5 22V26ZM32 29C32 27.5183 33.3834 26 35.5 26V22C31.5415 22 28 24.9589 28 29H32ZM35.5 32C33.3834 32 32 30.4817 32 29H28C28 33.0411 31.5415 36 35.5 36V32Z" fill="#6ACA1E" mask="url(#path-1-outside-1)"/>
</g>
<defs>
<filter id="filter0_d" x="0.394348" y="0" width="70.0563" height="78.2593" filterUnits="userSpaceOnUse" color-interpolation-filters="sRGB">
<feFlood flood-opacity="0" result="BackgroundImageFix"/>
<feColorMatrix in="SourceAlpha" type="matrix" values="0 0 0 0 0 0 0 0 0 0 0 0 0 0 0 0 0 0 127 0"/>
<feOffset dy="5"/>
<feGaussianBlur stdDeviation="10"/>
<feColorMatrix type="matrix" values="0 0 0 0 0 0 0 0 0 0 0 0 0 0 0 0 0 0 0.2 0"/>
<feBlend mode="normal" in2="BackgroundImageFix" result="effect1_dropShadow"/>
<feBlend mode="normal" in="SourceGraphic" in2="effect1_dropShadow" result="shape"/>
</filter>
</defs>
</svg>
