<svg width="52" height="46" viewBox="0 0 52 46" fill="none" xmlns="http://www.w3.org/2000/svg">
<path d="M51.7151 20.2709L49.9828 18.5387C49.9024 18.4582 49.8069 18.3944 49.7018 18.3509C49.5967 18.3074 49.4841 18.285 49.3703 18.285C49.2566 18.285 49.1439 18.3074 49.0388 18.3509C48.9338 18.3944 48.8383 18.4582 48.7578 18.5387L48.4494 18.8472C48.3875 18.682 48.2766 18.5397 48.1316 18.4392C47.9867 18.3387 47.8144 18.2849 47.638 18.285H45.9058C45.7055 18.285 45.5115 18.3543 45.3566 18.4813C45.2018 18.6082 45.0957 18.7849 45.0564 18.9813L44.2417 23.0548L42.4412 24.8554L38.723 21.1371L37.498 22.362L41.8287 26.6927C41.9092 26.7731 42.0046 26.8369 42.1097 26.8805C42.2148 26.924 42.3275 26.9464 42.4412 26.9464C42.5549 26.9464 42.6676 26.924 42.7727 26.8805C42.8778 26.8369 42.9732 26.7731 43.0537 26.6927L45.0396 24.7067L47.2794 26.9464L44.2788 29.9468C43.7911 30.4334 43.1302 30.7067 42.4412 30.7067C41.7522 30.7067 41.0913 30.4334 40.6036 29.9468L36.1246 25.4678C36.0441 25.3873 35.9486 25.3235 35.8435 25.28C35.7385 25.2365 35.6258 25.2141 35.5121 25.2141C35.3983 25.2141 35.2857 25.2365 35.1806 25.28C35.0755 25.3235 34.98 25.3873 34.8996 25.4678L31.1814 29.1861L29.8078 27.8125L36.8913 20.7291L38.315 20.0173H40.7089C41.6275 20.0162 42.5081 19.6509 43.1576 19.0014C43.8071 18.3519 44.1724 17.4712 44.1735 16.5527V9.19052C44.1735 7.69737 43.5803 6.26538 42.5245 5.20957C41.4687 4.15376 40.0367 3.56061 38.5436 3.56061C37.0504 3.56061 35.6184 4.15376 34.5626 5.20957C33.5068 6.26538 32.9137 7.69737 32.9137 9.19052V13.5955L32.0475 14.4616L30.7794 13.1935L28.0755 10.4897L29.8761 8.68924L31.3513 8.39421L31.0115 6.69549L29.734 6.951L27.2094 4.42675L28.9417 2.69447H31.6888L33.1673 4.17308L34.3923 2.94814L32.66 1.21586C32.5796 1.13543 32.4841 1.07163 32.379 1.02811C32.2739 0.984584 32.1613 0.962185 32.0475 0.962189H28.583C28.4692 0.962185 28.3566 0.984584 28.2515 1.02811C28.1464 1.07163 28.0509 1.13543 27.9705 1.21586L25.3721 3.81428L21.7592 7.42716C20.9481 8.24003 20.4926 9.34143 20.4926 10.4897C20.4926 11.638 20.9481 12.7394 21.7592 13.5523L22.9841 12.3274C22.7428 12.0861 22.5513 11.7996 22.4207 11.4843C22.29 11.169 22.2228 10.831 22.2228 10.4897C22.2228 10.1484 22.29 9.81049 22.4207 9.49518C22.5513 9.17988 22.7428 8.8934 22.9841 8.6521L25.9845 5.65158L28.2243 7.89131L26.2382 9.87726C26.1578 9.95769 26.094 10.0532 26.0504 10.1583C26.0069 10.2633 25.9845 10.376 25.9845 10.4897C25.9845 10.6035 26.0069 10.7161 26.0504 10.8212C26.094 10.9263 26.1578 11.0218 26.2382 11.1022L27.1072 11.971C26.179 12.1031 25.3185 12.5319 24.6543 13.1935L18.2946 19.5531C17.4835 20.3659 17.0279 21.4674 17.0279 22.6157C17.0279 23.764 17.4835 24.8654 18.2946 25.6782L18.443 25.8266L24.5059 31.8896L25.6259 33.0094H19.4142L17.4841 31.0793L18.9854 27.5763L17.3932 26.8942L15.8859 30.4109H14.8574L15.5827 25.3366C15.6003 25.2137 15.5912 25.0884 15.5561 24.9694C15.5211 24.8503 15.4608 24.7401 15.3794 24.6464C15.2981 24.5526 15.1975 24.4775 15.0845 24.426C14.9716 24.3745 14.8489 24.3479 14.7247 24.348H9.52789V15.6866C9.52789 15.4569 9.43664 15.2365 9.2742 15.0741C9.11177 14.9117 8.89147 14.8204 8.66175 14.8204H1.99486C1.56676 14.8203 1.14999 14.958 0.806174 15.2131C0.462355 15.4681 0.209726 15.8271 0.0856323 16.2368C-0.038461 16.6465 -0.0274327 17.0853 0.117087 17.4882C0.261607 17.8912 0.531948 18.237 0.888147 18.4745L2.59877 19.6146V28.32C2.59877 29.334 3.00158 30.3064 3.71858 31.0234C4.43558 31.7404 5.40803 32.1432 6.42202 32.1432H16.0983L17.8306 33.8755L14.7247 36.9814L11.0065 33.263C10.9261 33.1826 10.8306 33.1188 10.7255 33.0753C10.6204 33.0317 10.5078 33.0093 10.394 33.0093C10.2803 33.0093 10.1677 33.0317 10.0626 33.0753C9.95747 33.1188 9.86199 33.1826 9.78156 33.263L6.41639 36.6282L3.33607 38.1684C3.28625 38.1932 3.23138 38.2061 3.17573 38.2062H2.95746C2.88651 38.2062 2.81716 38.1851 2.75817 38.1457C2.69918 38.1063 2.6532 38.0503 2.62605 37.9847C2.5989 37.9191 2.59179 37.847 2.60563 37.7774C2.61947 37.7078 2.65363 37.6439 2.70379 37.5937L5.80966 34.488L4.58472 33.263L1.47896 36.3689C1.18651 36.6613 0.987348 37.0339 0.906652 37.4395C0.825957 37.8451 0.867356 38.2656 1.02561 38.6477C1.18387 39.0297 1.45188 39.3563 1.79575 39.5861C2.13962 39.8159 2.5439 39.9385 2.95746 39.9385H3.17573C3.5003 39.9381 3.82038 39.8626 4.11084 39.7177L6.75841 38.3939L12.0213 43.6567C12.49 44.1255 13.0466 44.4973 13.659 44.751C14.2715 45.0047 14.9279 45.1353 15.5909 45.1353C16.2538 45.1353 16.9102 45.0047 17.5227 44.751C18.1352 44.4973 18.6917 44.1255 19.1604 43.6567L35.5121 27.3051L39.3786 31.1717C39.7808 31.574 40.2582 31.893 40.7837 32.1107C41.3092 32.3284 41.8724 32.4405 42.4412 32.4405C43.01 32.4405 43.5732 32.3284 44.0987 32.1107C44.6242 31.893 45.1016 31.574 45.5038 31.1717L49.1166 27.5589L51.7151 24.9604C51.7955 24.88 51.8593 24.7845 51.9028 24.6794C51.9463 24.5743 51.9687 24.4617 51.9687 24.348V20.8834C51.9687 20.7697 51.9463 20.657 51.9028 20.5519C51.8593 20.4469 51.7955 20.3514 51.7151 20.2709ZM1.73263 16.8149C1.73272 16.7454 1.76037 16.6788 1.80953 16.6296C1.85869 16.5804 1.92534 16.5528 1.99486 16.5527H7.79561V18.285H3.72714L1.84945 17.0332C1.81348 17.0093 1.78398 16.9768 1.7636 16.9388C1.74322 16.9007 1.73258 16.8581 1.73263 16.8149ZM13.1074 30.4109H6.42202C5.86747 30.4109 5.33564 30.1906 4.94352 29.7985C4.55139 29.4064 4.33108 28.8745 4.33105 28.32V20.0173H7.79561V25.2141C7.79561 25.4438 7.88686 25.6641 8.0493 25.8266C8.21173 25.989 8.43204 26.0802 8.66175 26.0802H13.7261L13.1074 30.4109ZM25.1184 30.0523L23.4386 28.3725L24.2027 23.0241L28.9418 18.285H33.4211L35.1534 20.0173L25.1184 30.0523ZM41.0902 18.2417L38.236 14.6738L38.6067 13.747C38.8474 14.0793 39.1633 14.3498 39.5288 14.5364C39.8942 14.723 40.2986 14.8203 40.7089 14.8204H41.5751C41.8702 14.8205 42.1631 14.7702 42.4412 14.6714V16.5527C42.4406 16.9456 42.3067 17.3267 42.0612 17.6336C41.8158 17.9404 41.4734 18.1548 41.0902 18.2417ZM42.4412 12.222C42.4409 12.4516 42.3496 12.6718 42.1872 12.8342C42.0249 12.9966 41.8047 13.0879 41.5751 13.0881H40.7089C40.4792 13.0881 40.2589 12.9969 40.0965 12.8345C39.934 12.672 39.8428 12.4517 39.8428 12.222C39.8428 11.9923 39.934 11.772 40.0965 11.6096C40.2589 11.4471 40.4792 11.3559 40.7089 11.3559H41.5751C41.8047 11.3561 42.0249 11.4475 42.1872 11.6098C42.3496 11.7722 42.4409 11.9924 42.4412 12.222ZM36.9922 13.1187L35.5819 11.3559H37.6973L36.9922 13.1187ZM34.6459 9.19052C34.6459 8.1568 35.0566 7.16542 35.7875 6.43448C36.5185 5.70353 37.5099 5.29289 38.5436 5.29289C39.5773 5.29289 40.5687 5.70353 41.2996 6.43448C42.0306 7.16542 42.4412 8.1568 42.4412 9.19052V9.62359H34.6459V9.19052ZM33.2725 15.6866L34.3923 14.5668C34.4727 14.4863 34.5365 14.3908 34.58 14.2857C34.6235 14.1807 34.6459 14.068 34.6459 13.9543V12.9589L36.568 15.3618L38.9066 18.285H38.1105C37.976 18.285 37.8434 18.3163 37.7231 18.3765L36.5493 18.9634L33.2725 15.6866ZM31.4351 16.299L31.6888 16.5527H29.4491V14.3199C29.4849 14.3518 29.5203 14.3843 29.5544 14.4184L31.4351 16.299ZM25.8792 14.4184C26.3675 13.9325 27.028 13.6593 27.7168 13.6583V17.0602L23.0274 21.7495H18.9081C19.0368 21.3841 19.2457 21.0521 19.5196 20.7781L25.8792 14.4184ZM19.5196 24.4533C19.2454 24.1794 19.0362 23.8474 18.9075 23.4818H22.3875L21.9075 26.8414L19.6679 24.6016L19.5196 24.4533ZM17.9356 42.4319C17.3137 43.0537 16.4703 43.403 15.5909 43.403C14.7114 43.403 13.868 43.0537 13.2461 42.4319L8.1543 37.3401L10.394 35.1003L14.1123 38.8187C14.1927 38.8991 14.2882 38.9629 14.3933 39.0064C14.4983 39.05 14.611 39.0724 14.7247 39.0724C14.8385 39.0724 14.9511 39.05 15.0562 39.0064C15.1613 38.9629 15.2568 38.8991 15.3372 38.8187L17.521 36.6349L21.8691 38.4985L17.9356 42.4319ZM23.1883 37.1791L18.8402 35.3155L19.414 34.7416H25.6257L23.1883 37.1791ZM27.7168 32.6507L26.3432 31.2771L28.583 29.0373L29.9566 30.4109L27.7168 32.6507ZM50.2365 23.9893L48.5042 25.7216L45.9798 23.1972L46.6159 20.0173H46.7719V20.8834C46.7719 21.0547 46.8227 21.2222 46.9179 21.3646C47.013 21.5071 47.1483 21.6181 47.3066 21.6836C47.4648 21.7492 47.639 21.7664 47.807 21.7329C47.975 21.6995 48.1294 21.617 48.2505 21.4959L49.3703 20.376L50.2365 21.2421V23.9893Z" fill="#222222"/>
<path d="M6.06333 0.109375H4.33105V10.5031H6.06333V0.109375Z" fill="#6ACA1E"/>
<path d="M9.52787 3.57393H7.79559V11.3692H9.52787V3.57393Z" fill="#6ACA1E"/>
<path d="M16.457 9.6369H14.7247V15.6999H16.457V9.6369Z" fill="#6ACA1E"/>
<path d="M16.457 6.17236H14.7247V7.90464H16.457V6.17236Z" fill="#6ACA1E"/>
<path d="M49.3703 7.03848H47.638V13.1015H49.3703V7.03848Z" fill="#6ACA1E"/>
</svg>
