<svg width="44" height="62" viewBox="0 0 44 62" fill="none" xmlns="http://www.w3.org/2000/svg">
<path d="M27.0156 32.7831H17.5376C17.0299 32.7831 16.6184 33.1946 16.6184 33.7023C16.6184 36.8223 19.1567 39.3605 22.2766 39.3605C25.3967 39.3605 27.9349 36.8222 27.9349 33.7023C27.9349 33.1946 27.5233 32.7831 27.0156 32.7831ZM22.2766 37.5221C20.4872 37.5221 18.9813 36.2854 18.5687 34.6216H25.9845C25.572 36.2854 24.066 37.5221 22.2766 37.5221Z" fill="#222222"/>
<path d="M17.0418 21.9275C16.534 21.9275 16.1226 22.339 16.1226 22.8467V25.7122C16.1226 26.22 16.5342 26.6314 17.0418 26.6314C17.5495 26.6314 17.961 26.2199 17.961 25.7122V22.8468C17.9611 22.339 17.5495 21.9275 17.0418 21.9275Z" fill="#222222"/>
<path d="M27.1809 21.9275C26.6732 21.9275 26.2617 22.339 26.2617 22.8467V25.7122C26.2617 26.22 26.6733 26.6314 27.1809 26.6314C27.6886 26.6314 28.1002 26.2199 28.1002 25.7122V22.8468C28.1003 22.339 27.6887 21.9275 27.1809 21.9275Z" fill="#222222"/>
<path d="M20.7767 20.1038C18.6566 17.9836 15.2069 17.9836 13.0867 20.1038C12.7276 20.4629 12.7276 21.0449 13.0867 21.4038C13.4457 21.7627 14.0278 21.7627 14.3866 21.4038C15.79 20.0005 18.0734 20.0005 19.4768 21.4038C19.6562 21.5833 19.8915 21.673 20.1268 21.673C20.3621 21.673 20.5974 21.5833 20.7768 21.4038C21.1356 21.0448 21.1356 20.4628 20.7767 20.1038Z" fill="#222222"/>
<path d="M31.2087 20.1038C29.0885 17.9836 25.6388 17.9836 23.5185 20.1038C23.1595 20.4629 23.1595 21.0449 23.5185 21.4038C23.8776 21.7627 24.4597 21.7627 24.8185 21.4038C26.2218 20.0005 28.5053 20.0005 29.9087 21.4038C30.0882 21.5833 30.3235 21.673 30.5588 21.673C30.794 21.673 31.0294 21.5833 31.2088 21.4038C31.5678 21.0448 31.5678 20.4628 31.2087 20.1038Z" fill="#222222"/>
<path d="M34.7038 46.8618H25.8353V44.6446C31.9955 43.2936 36.7855 38.2408 37.7443 31.9444C40.7438 31.8492 43.155 29.3811 43.155 26.3591C43.155 23.396 40.8374 20.9653 37.92 20.7815V20.1708C37.9837 20.2331 38.0481 20.2943 38.1112 20.3576C38.2872 20.5335 38.5222 20.6267 38.7615 20.6267C38.8799 20.6267 38.9995 20.6039 39.1132 20.5568C39.4567 20.4146 39.6807 20.0792 39.6807 19.7074V15.7824C39.6807 15.5386 39.5839 15.3048 39.4114 15.1322C39.1612 14.8821 38.9062 14.6401 38.6479 14.4031C38.6558 14.3548 38.6609 14.3057 38.6609 14.2552V7.44242C38.6608 3.33855 35.322 0 31.2183 0H13.2434C9.13977 0 5.80098 3.33855 5.80098 7.44242V14.2555C5.80098 14.306 5.80618 14.3552 5.81393 14.4035C5.55564 14.6405 5.30062 14.8825 5.05044 15.1326C4.878 15.305 4.78112 15.5388 4.78112 15.7828V19.7078C4.78112 20.0795 5.00503 20.4148 5.34857 20.5571C5.69199 20.6996 6.08761 20.6209 6.35038 20.3579C6.41347 20.2948 6.47789 20.2336 6.54159 20.1712V20.8212C3.81298 21.1891 1.70183 23.5317 1.70183 26.3594C1.70183 29.2463 3.90186 31.6292 6.71342 31.9195C6.90402 33.1798 7.25241 34.4095 7.75604 35.5948C7.90474 35.9447 8.24489 36.1548 8.60248 36.1548C8.72236 36.1548 8.84418 36.1313 8.96152 36.0815C9.42895 35.8829 9.64667 35.3433 9.44808 34.8758C8.73932 33.2077 8.38003 31.4391 8.38003 29.6194V18.7706C8.38003 18.7029 8.37216 18.6372 8.35836 18.5736C11.1207 16.3954 14.3228 14.9157 17.7462 14.2256C18.7432 15.0664 22.0829 17.533 26.9364 17.533C27.4442 17.533 27.8557 17.1216 27.8557 16.6138V14.4874C30.8495 15.2562 33.6496 16.6391 36.1028 18.5736C36.089 18.6371 36.0811 18.7029 36.0811 18.7706V29.6194C36.0811 37.0876 30.0052 43.1635 22.537 43.1635H21.9241C18.6735 43.1635 15.5244 41.9813 13.0569 39.835C12.6739 39.5015 12.0931 39.5422 11.76 39.9251C11.4269 40.3082 11.4672 40.8889 11.8502 41.222C13.5504 42.701 15.5364 43.776 17.6604 44.3936V46.8622H9.02849C4.51617 46.8622 0.844971 50.4636 0.844971 54.8906C0.844971 55.3985 1.25657 55.8099 1.76419 55.8099C2.27182 55.8099 2.68342 55.3985 2.68342 54.8906C2.68342 51.4774 5.52973 48.7008 9.02837 48.7008H13.7148V49.5923C13.7148 54.0866 17.3714 57.7432 21.8658 57.7432C26.3602 57.7432 30.0167 54.0866 30.0167 49.5923V48.7008H34.7032C38.2017 48.7008 41.048 51.4774 41.048 54.8906V60.1618H1.76431C1.25657 60.1618 0.844971 60.5733 0.844971 61.081C0.844971 61.5889 1.25657 62.0004 1.76431 62.0004H41.9676C42.4753 62.0004 42.8869 61.5889 42.8869 61.081V54.8906C42.8872 50.4634 39.2161 46.8618 34.7038 46.8618ZM37.9199 29.6193V22.6252C39.8225 22.8046 41.3165 24.4106 41.3165 26.3593C41.3165 28.3108 39.8184 29.9183 37.9119 30.0941C37.9168 29.9363 37.9199 29.7782 37.9199 29.6193ZM26.399 1.83857H31.2183C34.3083 1.83857 36.8222 4.35247 36.8222 7.44242V12.8855C33.685 10.5261 30.1028 9.02572 26.3992 8.38586V1.83857H26.399ZM19.6387 1.83857H24.5605V8.13859C22.9236 7.98226 21.2741 7.99291 19.6387 8.16681V1.83857ZM7.63942 7.44242H7.63954C7.63954 4.35247 10.1535 1.83857 13.2434 1.83857H17.8002V8.43321C14.1898 9.09765 10.7026 10.5818 7.63954 12.8853V7.44242H7.63942ZM3.54064 26.3593C3.54064 24.5478 4.8315 23.0319 6.54183 22.6834V29.6193C6.54183 29.7585 6.54401 29.8976 6.54776 30.0362C4.83453 29.6899 3.54064 28.1729 3.54064 26.3593ZM26.0175 15.6597C23.6163 15.4772 21.685 14.6126 20.4124 13.8532C21.0142 13.8053 21.6206 13.7799 22.2309 13.7799C23.513 13.7799 24.7784 13.8875 26.0175 14.0965V15.6597ZM22.2309 11.9413C16.4555 11.9413 10.9878 13.9427 6.61981 17.6174V16.168C15.3064 7.7649 29.1554 7.7649 37.842 16.168V17.6174C33.4739 13.9427 28.0062 11.9413 22.2309 11.9413ZM19.4996 44.8076C20.2974 44.9361 21.1081 45.0018 21.9245 45.0018H22.5374C23.0296 45.0018 23.5163 44.9776 23.9969 44.9322V48.9267C23.9969 50.1666 22.9882 51.1754 21.7482 51.1754C20.5083 51.1754 19.4995 50.1668 19.4995 48.9267V44.8076H19.4996ZM28.1786 49.592C28.1786 53.0726 25.3468 55.9044 21.8663 55.9044C18.3857 55.9044 15.5539 53.0726 15.5539 49.592V48.7005H17.6609V48.9268C17.6609 51.1805 19.4944 53.0141 21.7482 53.0141C24.002 53.0141 25.8355 51.1806 25.8355 48.9268V48.7005H28.1787V49.592H28.1786Z" fill="#222222"/>
<mask id="mask0" mask-type="alpha" maskUnits="userSpaceOnUse" x="0" y="0" width="44" height="63">
<path fill-rule="evenodd" clip-rule="evenodd" d="M25.8353 46.8618H34.7038C39.2161 46.8618 42.8872 50.4634 42.8869 54.8906V61.081C42.8869 61.5889 42.4753 62.0004 41.9676 62.0004H1.76431C1.25657 62.0004 0.844971 61.5889 0.844971 61.081C0.844971 60.5733 1.25657 60.1618 1.76431 60.1618H41.048V54.8906C41.048 51.4774 38.2017 48.7008 34.7032 48.7008H30.0167V49.5923C30.0167 54.0866 26.3602 57.7432 21.8658 57.7432C17.3714 57.7432 13.7148 54.0866 13.7148 49.5923V48.7008H9.02837C5.52973 48.7008 2.68342 51.4774 2.68342 54.8906C2.68342 55.3985 2.27182 55.8099 1.76419 55.8099C1.25657 55.8099 0.844971 55.3985 0.844971 54.8906C0.844971 50.4636 4.51617 46.8622 9.02849 46.8622H17.6604V44.3936C15.5364 43.776 13.5504 42.701 11.8502 41.222C11.4672 40.8889 11.4269 40.3082 11.76 39.9251C12.0931 39.5422 12.6739 39.5015 13.0569 39.835C15.5244 41.9813 18.6735 43.1635 21.9241 43.1635H22.537C30.0052 43.1635 36.0811 37.0876 36.0811 29.6194V18.7706C36.0811 18.7029 36.089 18.6371 36.1028 18.5736C33.6496 16.6391 30.8495 15.2562 27.8557 14.4874V16.6138C27.8557 17.1216 27.4442 17.533 26.9364 17.533C22.0829 17.533 18.7432 15.0664 17.7462 14.2256C14.3228 14.9157 11.1207 16.3954 8.35836 18.5736C8.37216 18.6372 8.38003 18.7029 8.38003 18.7706V29.6194C8.38003 31.4391 8.73932 33.2077 9.44808 34.8758C9.64667 35.3433 9.42895 35.8829 8.96152 36.0815C8.84418 36.1313 8.72236 36.1548 8.60248 36.1548C8.24489 36.1548 7.90474 35.9447 7.75604 35.5948C7.25241 34.4095 6.90402 33.1798 6.71342 31.9195C3.90186 31.6292 1.70183 29.2463 1.70183 26.3594C1.70183 23.5317 3.81298 21.1891 6.54159 20.8212V20.1712C6.51826 20.194 6.49484 20.2167 6.47142 20.2394C6.43089 20.2787 6.39036 20.3179 6.35038 20.3579C6.08761 20.6209 5.69199 20.6996 5.34857 20.5571C5.00503 20.4148 4.78112 20.0795 4.78112 19.7078V15.7828C4.78112 15.5388 4.878 15.305 5.05044 15.1326C5.30062 14.8825 5.55564 14.6405 5.81393 14.4035C5.80618 14.3552 5.80098 14.306 5.80098 14.2555V7.44242C5.80098 3.33855 9.13977 0 13.2434 0H31.2183C35.322 0 38.6608 3.33855 38.6609 7.44242V14.2552C38.6609 14.3057 38.6558 14.3548 38.6479 14.4031C38.9062 14.6401 39.1612 14.8821 39.4114 15.1322C39.5839 15.3048 39.6807 15.5386 39.6807 15.7824V19.7074C39.6807 20.0792 39.4567 20.4146 39.1132 20.5568C38.9995 20.6039 38.8799 20.6267 38.7615 20.6267C38.5222 20.6267 38.2872 20.5335 38.1112 20.3576C38.0697 20.3159 38.0276 20.2752 37.9855 20.2344C37.9636 20.2132 37.9418 20.1921 37.92 20.1708V20.7815C40.8374 20.9653 43.155 23.396 43.155 26.3591C43.155 29.3811 40.7438 31.8492 37.7443 31.9444C36.7855 38.2408 31.9955 43.2936 25.8353 44.6446V46.8618ZM37.9199 22.6252V29.6193C37.9199 29.7782 37.9168 29.9363 37.9119 30.0941C39.8184 29.9183 41.3165 28.3108 41.3165 26.3593C41.3165 24.4106 39.8225 22.8046 37.9199 22.6252ZM31.2183 1.83857H26.3992V8.38586C30.1028 9.02572 33.685 10.5261 36.8222 12.8855V7.44242C36.8222 4.35247 34.3083 1.83857 31.2183 1.83857ZM24.5605 1.83857H19.6387V8.16681C21.2741 7.99291 22.9236 7.98226 24.5605 8.13859V1.83857ZM13.2434 1.83857C10.1535 1.83857 7.63954 4.35247 7.63954 7.44242V12.8853C10.7026 10.5818 14.1898 9.09765 17.8002 8.43321V1.83857H13.2434ZM6.54183 22.6834C4.8315 23.0319 3.54064 24.5478 3.54064 26.3593C3.54064 28.1729 4.83453 29.6899 6.54776 30.0362C6.54401 29.8976 6.54183 29.7585 6.54183 29.6193V22.6834ZM20.4124 13.8532C21.685 14.6126 23.6163 15.4772 26.0175 15.6597V14.0965C24.7784 13.8875 23.513 13.7799 22.2309 13.7799C21.6206 13.7799 21.0142 13.8053 20.4124 13.8532ZM6.61981 17.6174C10.9878 13.9427 16.4555 11.9413 22.2309 11.9413C28.0062 11.9413 33.4739 13.9427 37.842 17.6174V16.168C29.1554 7.7649 15.3064 7.7649 6.61981 16.168V17.6174ZM21.9245 45.0018C21.1081 45.0018 20.2974 44.9361 19.4996 44.8076H19.4995V48.9267C19.4995 50.1668 20.5083 51.1754 21.7482 51.1754C22.9882 51.1754 23.9969 50.1666 23.9969 48.9267V44.9322C23.5163 44.9776 23.0296 45.0018 22.5374 45.0018H21.9245ZM21.8663 55.9044C25.3468 55.9044 28.1786 53.0726 28.1786 49.592H28.1787V48.7005H25.8355V48.9268C25.8355 51.1806 24.002 53.0141 21.7482 53.0141C19.4944 53.0141 17.6609 51.1805 17.6609 48.9268V48.7005H15.5539V49.592C15.5539 53.0726 18.3857 55.9044 21.8663 55.9044ZM13.0867 20.1038C15.2069 17.9836 18.6566 17.9836 20.7767 20.1038C21.1356 20.4628 21.1356 21.0448 20.7768 21.4038C20.5974 21.5833 20.3621 21.673 20.1268 21.673C19.8915 21.673 19.6562 21.5833 19.4768 21.4038C18.0734 20.0005 15.79 20.0005 14.3866 21.4038C14.0278 21.7627 13.4457 21.7627 13.0867 21.4038C12.7276 21.0449 12.7276 20.4629 13.0867 20.1038ZM16.1226 22.8467C16.1226 22.339 16.534 21.9275 17.0418 21.9275C17.5495 21.9275 17.9611 22.339 17.961 22.8468V25.7122C17.961 26.2199 17.5495 26.6314 17.0418 26.6314C16.5342 26.6314 16.1226 26.22 16.1226 25.7122V22.8467ZM17.5376 32.7831H27.0156C27.5233 32.7831 27.9349 33.1946 27.9349 33.7023C27.9349 36.8222 25.3967 39.3605 22.2766 39.3605C19.1567 39.3605 16.6184 36.8223 16.6184 33.7023C16.6184 33.1946 17.0299 32.7831 17.5376 32.7831ZM18.5687 34.6216C18.9813 36.2854 20.4872 37.5221 22.2766 37.5221C24.066 37.5221 25.572 36.2854 25.9845 34.6216H18.5687ZM27.1809 21.9275C26.6732 21.9275 26.2617 22.339 26.2617 22.8467V25.7122C26.2617 26.22 26.6733 26.6314 27.1809 26.6314C27.6886 26.6314 28.1002 26.2199 28.1002 25.7122V22.8468C28.1003 22.339 27.6887 21.9275 27.1809 21.9275ZM31.2087 20.1038C29.0885 17.9836 25.6388 17.9836 23.5185 20.1038C23.1595 20.4629 23.1595 21.0449 23.5185 21.4038C23.8776 21.7627 24.4597 21.7627 24.8185 21.4038C26.2218 20.0005 28.5053 20.0005 29.9087 21.4038C30.0882 21.5833 30.3235 21.673 30.5588 21.673C30.794 21.673 31.0294 21.5833 31.2088 21.4038C31.5678 21.0448 31.5678 20.4628 31.2087 20.1038Z" fill="#222222"/>
</mask>
<g mask="url(#mask0)">
<path d="M-5.00008 -6H48.9999C48.9999 -6 60.9999 17.5 48.9999 21C36.9999 24.5 32.4999 14 22.4999 14C12.4999 14 0.999919 27 -5.00008 21C-11.0001 15 -5.00008 -6 -5.00008 -6Z" fill="#6ACA1E"/>
</g>
</svg>
