<svg width="237" height="97" viewBox="0 0 237 97" fill="none" xmlns="http://www.w3.org/2000/svg">
<path fill-rule="evenodd" clip-rule="evenodd" d="M235.608 28.6287L221.805 76.9472C221.141 79.2677 219.022 80.8694 216.606 80.8752C201.146 80.9099 145.555 81.0343 116.656 81.0928C116.305 81.1438 115.95 81.1676 115.592 81.1682C115.011 81.1695 114.431 81.1076 113.867 80.973C113.406 80.861 112.954 80.709 112.52 80.5209C112.154 80.3631 111.799 80.181 111.454 79.9831C111.268 79.8744 111.078 79.772 110.889 79.6722L107.114 77.1076L104.083 77.1134C103.697 80.1617 106.813 89.4466 104.147 90.8551C104.049 91.2267 103.937 91.6016 103.814 91.9468C103.483 93.4686 102.567 94.767 101.009 95.3041C100.522 95.4702 100.004 95.5411 99.4942 95.5154C93.2838 96.3635 92.9662 91.4947 92.9565 86.75L92.1061 81.0729L93.2032 79.0121L93.8623 77.313L93.861 76.6368L90.3402 76.8796L90.2043 76.8802C87.5674 76.8648 84.0248 76.4217 81.5444 74.849L56.9546 87.8102L54.7989 92.5798C54.0034 94.3934 52.3573 95.5707 50.2784 95.5681C48.5247 95.8574 46.7723 95.4638 45.4801 94.1204C43.8314 92.4123 43.8172 90.2909 43.9358 88.116C44.006 86.8164 44.0401 85.4993 44.0705 84.1964C43.892 82.7486 43.9023 81.0678 44.4093 79.6586C44.8545 76.6664 47.3239 74.5237 50.5283 74.7363C52.7864 74.8837 54.5592 75.9741 55.4257 77.733L73.3652 67.4091L37.8548 44.5473L1.20354 43.7229L1.18164 33.0152L68.1089 33.2877C69.7864 29.647 72.0973 26.3772 75.0904 23.6362L75.1537 23.5802L75.2162 23.526C80.9505 18.728 87.5759 15.6077 94.8589 14.5624C94.8467 8.25349 93.5839 1.87178 99.6823 1.8589C105.625 1.84731 104.656 11.4698 104.625 14.4034C106.191 14.5695 107.747 14.831 109.276 15.1827L112.512 15.9291L111.759 22.5246L108.436 22.5176C107.186 22.5169 105.857 22.5993 104.54 22.7274L104.448 31.4599L109.841 31.6447C110.505 32.035 111.168 32.4215 111.829 32.8149C112.905 33.352 114.522 34.778 115.774 35.5618L122.171 25.5496L143.747 25.5058C146.949 25.4994 149.781 26.7765 152.149 28.9006C152.757 29.4493 153.316 30.0321 153.81 30.6535L157.125 25.5322L189.242 25.4138C190.195 23.8145 191.963 22.7294 193.858 22.7255L231.142 22.6501C234.318 22.6437 236.478 25.5999 235.608 28.6287Z" fill="#FEFEFE"/>
<path fill-rule="evenodd" clip-rule="evenodd" d="M235.608 28.6287L221.805 76.9472C221.141 79.2677 219.022 80.8694 216.606 80.8752C201.146 80.9099 145.555 81.0343 116.656 81.0928C116.305 81.1438 115.95 81.1676 115.592 81.1682C115.011 81.1695 114.431 81.1076 113.867 80.973C113.406 80.861 112.954 80.709 112.52 80.5209C112.154 80.3631 111.799 80.181 111.454 79.9831C111.268 79.8744 111.078 79.772 110.889 79.6722L107.114 77.1076L104.083 77.1134C103.697 80.1617 106.813 89.4466 104.147 90.8551C104.049 91.2267 103.937 91.6016 103.814 91.9468C103.483 93.4686 102.567 94.767 101.009 95.3041C100.522 95.4702 100.004 95.5411 99.4942 95.5154C93.2838 96.3635 92.9662 91.4947 92.9565 86.75L92.1061 81.0729L93.2032 79.0121L93.8623 77.313L93.861 76.6368L90.3402 76.8796L90.2043 76.8802C87.5674 76.8648 84.0248 76.4217 81.5444 74.849L56.9546 87.8102L54.7989 92.5798C54.0034 94.3934 52.3573 95.5707 50.2784 95.5681C48.5247 95.8574 46.7723 95.4638 45.4801 94.1203C43.8314 92.4123 43.8172 90.2909 43.9358 88.116C44.006 86.8164 44.0401 85.4993 44.0705 84.1964C43.892 82.7486 43.9023 81.0678 44.4093 79.6586C44.8545 76.6664 47.3239 74.5237 50.5283 74.7363C52.7864 74.8837 54.5592 75.9741 55.4257 77.733L73.3652 67.4091L37.8548 44.5473L1.20354 43.7229L1.18164 33.0152L68.1089 33.2877C69.7864 29.647 72.0973 26.3772 75.0904 23.6362L75.1537 23.5802L75.2162 23.526C80.9505 18.728 87.5759 15.6077 94.8589 14.5624C94.8466 8.25349 93.5839 1.87178 99.6823 1.8589C105.625 1.84731 104.656 11.4698 104.625 14.4034C106.191 14.5695 107.747 14.831 109.276 15.1827L112.512 15.9291L111.759 22.5246L108.436 22.5176C107.186 22.5169 105.857 22.5993 104.54 22.7274L104.448 31.4599L109.841 31.6447C110.505 32.035 111.168 32.4215 111.829 32.8149C112.905 33.352 114.522 34.778 115.774 35.5618L122.171 25.5496L143.747 25.5058C146.949 25.4994 149.781 26.7765 152.149 28.9006C152.757 29.4493 153.316 30.0321 153.81 30.6535L157.125 25.5322L189.242 25.4138C190.195 23.8145 191.963 22.7294 193.858 22.7255L231.142 22.6501C234.318 22.6437 236.478 25.5999 235.608 28.6287Z" stroke="#FEFEFE" stroke-width="1.9488" stroke-miterlimit="10"/>
<path fill-rule="evenodd" clip-rule="evenodd" d="M224.978 65.417L221.953 76.4983C221.204 79.2399 218.717 81.1436 215.872 81.1501C199.437 81.1861 144.972 81.3086 116.508 81.3659C116.157 81.4161 115.802 81.4399 115.443 81.4405C114.863 81.4426 114.283 81.3807 113.719 81.2461C113.258 81.1339 112.806 80.982 112.372 80.794C112.006 80.6362 111.65 80.4539 111.306 80.2562C111.12 80.1473 110.93 80.0449 110.742 79.9451L106.966 77.3806L103.934 77.3863C103.55 80.4339 106.665 89.7195 103.999 91.1281C103.9 91.499 103.788 91.8745 103.666 92.2191C103.335 93.7415 102.418 95.0393 100.861 95.5764C100.374 95.7425 99.8564 95.8134 99.346 95.7883C93.1362 96.6358 92.818 91.767 92.8084 87.0231L91.9579 81.3458L93.0544 79.285L93.7147 77.586L93.7135 76.9097L90.192 77.1526L90.0555 77.1533C87.4193 77.1378 83.8766 76.6948 81.3963 75.122L56.8063 88.0837L54.65 92.8522C53.855 94.6671 52.209 95.8436 50.1301 95.8417C48.3765 96.1296 46.624 95.7361 45.3318 94.3927C43.6831 92.6854 43.6689 90.5639 43.7875 88.3891C43.8578 87.0887 43.8919 85.773 43.9222 84.4701C43.7437 83.021 43.7534 81.3407 44.261 79.9309C44.7056 76.9393 47.1749 74.7967 50.3794 75.0092C52.6381 75.1561 54.4111 76.2464 55.2776 78.0059L73.217 67.6815L37.7066 44.8202L1.05446 43.9959L1.0332 33.2883L67.9607 33.5606C69.6383 29.9199 71.9492 26.6502 74.9424 23.9086L75.0048 23.8525L75.068 23.7991C80.8016 19.0009 87.4283 15.8807 94.7114 14.8353C94.6986 8.52644 93.4358 2.14408 99.5343 2.13185C105.477 2.1196 104.508 11.7427 104.478 14.6763C106.043 14.8419 107.599 15.1039 109.129 15.4555L112.363 16.202L111.611 22.7976L108.287 22.7905C107.037 22.7898 105.708 22.8722 104.391 23.0005L104.3 31.7328L109.693 31.9178C110.357 32.3074 111.02 32.6944 111.681 33.0873C112.756 33.6251 114.374 35.0509 115.627 35.8341L122.023 25.8219L143.598 25.7781C146.801 25.7723 149.633 27.0495 152.001 29.1735C152.611 29.7215 153.167 30.305 153.662 30.9266L156.976 25.8052L189.094 25.686C190.047 24.087 191.815 23.0023 193.71 22.9984L230.994 22.9232C234.17 22.9166 236.33 25.8722 235.46 28.9017L224.989 65.4286L224.978 65.417Z" fill="#2A2928"/>
<path fill-rule="evenodd" clip-rule="evenodd" d="M222.051 76.3042C221.244 79.2035 218.605 81.2129 215.594 81.2195C198.839 81.2567 144.881 81.3778 116.579 81.4351C116.228 81.4854 115.873 81.5093 115.514 81.5099C114.934 81.5118 114.354 81.4499 113.79 81.3153C113.329 81.2027 112.877 81.0514 112.443 80.8626C112.077 80.7055 111.722 80.5239 111.377 80.3249C111.191 80.2166 111.001 80.1143 110.813 80.0144L107.037 77.4499L104.006 77.4557C103.621 80.5033 106.737 89.7889 104.07 91.1974C103.971 91.5684 103.859 91.9438 103.737 92.2884C103.405 93.8108 102.49 95.1086 100.932 95.6458C100.445 95.8119 99.9269 95.8827 99.4173 95.8576C93.2067 96.7052 92.8891 91.8363 92.8795 87.0923L92.029 81.4152L93.1255 79.3537L93.7852 77.6546L93.784 76.9791L90.2633 77.2218L90.1266 77.2226C87.4903 77.207 83.9477 76.764 81.4674 75.1912L56.8773 88.1531L54.7216 92.9214C53.926 94.7364 52.28 95.913 50.2004 95.9111C48.4474 96.199 46.6951 95.8055 45.4027 94.4621C43.7542 92.7547 43.74 90.6333 43.8584 88.4576C43.9287 87.158 43.9629 85.8416 43.9931 84.5394C43.814 83.0902 43.8243 81.41 44.3321 80.0002C44.7765 77.0087 47.2459 74.8661 50.4504 75.078C52.709 75.2253 54.4821 76.3157 55.3479 78.0753L73.288 67.7507L37.7775 44.8896L1.12526 44.0645L1.104 33.3568L68.0317 33.63C69.7094 29.9892 72.0202 26.7194 75.0134 23.9778L75.0759 23.9219L75.139 23.8684C80.8727 19.0703 87.4988 15.9499 94.7826 14.9047C94.7697 8.59578 93.5071 2.21341 99.6054 2.20118C105.547 2.18894 104.579 11.8114 104.549 14.7456C106.114 14.9111 107.67 15.1733 109.199 15.5249L112.434 16.2707L111.682 22.8668L108.359 22.8598C107.108 22.8592 105.779 22.9416 104.462 23.0698L104.371 31.8022L109.764 31.987C110.428 32.3766 111.092 32.7637 111.752 33.1567C112.827 33.6943 114.445 35.1203 115.697 35.9034L122.095 25.8912L143.669 25.8481C146.873 25.8411 149.704 27.1187 152.073 29.2422C152.681 29.7909 153.239 30.3737 153.735 30.9958L157.048 25.8738L189.165 25.7554C190.12 24.1562 191.884 23.0717 193.782 23.0678L231.067 22.9924C234.243 22.986 236.401 25.9416 235.532 28.9703L225.059 65.4979L222.051 76.3042Z" stroke="#2B2A29" stroke-width="0.0018"/>
<path fill-rule="evenodd" clip-rule="evenodd" d="M193.788 26.7853L231.075 26.7095C231.757 26.7081 232.155 27.2639 231.962 27.9479L221.487 64.478C221.292 65.1582 220.575 65.7198 219.891 65.721L182.606 65.7971C181.924 65.7983 181.525 65.2387 181.721 64.5585L192.193 28.0284C192.387 27.3445 193.106 26.7861 193.788 26.7853Z" fill="#E22B31"/>
<path fill-rule="evenodd" clip-rule="evenodd" d="M193.788 26.7853L231.075 26.7095C231.757 26.7081 232.155 27.2639 231.962 27.9479L221.487 64.478C221.292 65.1582 220.575 65.7198 219.891 65.721L182.606 65.7971C181.924 65.7983 181.525 65.2387 181.721 64.5585L192.193 28.0284C192.387 27.3445 193.106 26.7861 193.788 26.7853Z" stroke="#E22B31" stroke-width="0.0018"/>
<path fill-rule="evenodd" clip-rule="evenodd" d="M92.0205 35.5243L98.0301 35.512L98.0424 41.6807L95.7307 41.6858C95.7307 41.6858 84.3316 42.6106 81.3062 47.0853C81.3062 47.0853 80.9312 37.2438 92.0205 35.5243ZM188.103 29.4743L186.064 37.5775L153.856 37.6425L159.072 29.5799L188.103 29.4743ZM152.517 37.6452L118.946 37.7134L124.133 29.6037L143.676 29.5645C145.791 29.56 147.762 30.3715 149.59 32.0092C151.46 33.6857 152.433 35.5675 152.517 37.6452ZM153.136 40.893C153.148 46.5818 152.052 51.0462 149.854 54.2831C148.091 56.8727 146.48 58.7288 145.01 59.8289C142.099 62.0263 138.445 63.134 134.043 63.143L114.783 63.1823L121.078 40.9581L133.03 40.9336L129.036 54.4543C129.789 54.7519 130.605 54.9052 131.466 54.9033C133.098 54.9 134.776 54.4093 136.504 53.4284C139.326 51.8312 141.172 49.5501 142.028 46.5882C142.486 45.0456 142.741 43.1523 142.8 40.9135L153.136 40.893ZM220.334 62.8693L208.247 62.8938L201.387 49.4116L197.533 62.915L185.823 62.9388L192.165 40.8138L218.779 40.7596L212.31 47.3101L220.334 62.8693ZM229.426 29.5367L221.706 37.5517L207.678 37.58L215.534 29.5645L229.426 29.5367ZM185.452 40.8009L167.427 54.055L181.623 54.026L179.177 62.9524L150.008 63.0116L152.589 54.0119L171.547 40.8556L185.452 40.8009ZM81.7282 48.9607C81.7282 48.9607 88.0649 48.948 90.3527 48.9434C90.6586 48.9428 90.9267 48.9332 90.4183 48.367C90.8204 48.7071 91.279 49.3066 91.0149 51.5813C91.0149 51.5813 89.0159 50.4517 88.4129 50.4788C87.0393 50.2301 86.6405 51.3283 84.4914 51.0906C82.2989 50.9856 82.0568 50.8105 81.7282 48.9607ZM206.855 29.4363L204.554 37.5402L193.052 37.5634L195.365 29.4595L206.855 29.4363ZM96.589 82.2018C96.7886 80.8095 97.9682 80.356 97.9682 80.356L97.9612 76.991L97.4966 76.9917L97.4748 66.045C97.4748 66.045 97.4387 64.348 95.9472 66.8635C93.5461 68.4737 94.1827 68.2727 93.7369 69.242C94.0442 70.2725 95.4867 73.1403 95.4867 73.1403L90.1414 73.5061C90.1414 73.5061 83.6242 73.4726 82.4323 71.0086C82.3234 70.8791 82.2294 70.7535 82.1495 70.628L53.2597 85.8599L53.2237 86.0261L53.1522 88.4328L52.0409 88.0439C52.0409 88.0439 51.492 89.0493 51.5436 89.8382C51.5454 90.7005 51.5125 92.3982 49.9232 92.1753C47.1749 92.8974 47.4913 90.0121 47.5686 88.6628C47.642 87.3142 47.7123 84.3393 47.7123 84.3393C47.7123 84.3393 47.3521 81.8772 47.9738 80.9479C47.9853 79.976 48.5097 78.6725 50.2048 78.7847C51.8992 78.8967 52.209 79.8221 52.2109 80.707C52.2123 81.3897 52.1239 83.363 52.0859 84.2376L80.4268 67.9301L38.9061 41.1969L4.83338 40.4345L4.82629 37.0893L70.5086 37.354C71.8771 33.6386 74.0656 29.8814 77.5206 26.7184C84.7342 20.684 92.1751 18.596 98.476 18.272L98.5442 7.94819C98.9424 7.95398 99.5248 7.10128 100.092 7.40783C100.769 8.00357 100.902 8.00035 100.902 8.00035L100.797 18.2308C103.672 18.2746 106.246 18.6579 108.366 19.1472C108.366 19.1472 105.189 19.1402 100.78 19.7855L100.644 32.8838L98.3785 32.8889L98.4624 20.1712C92.6319 21.2571 85.4475 23.4836 80.452 28.0678C77.6385 30.6497 75.2529 33.7913 73.3704 37.365L81.1072 37.3953C81.1072 37.3953 79.0295 39.82 79.2872 42.1032L71.3276 41.924C69.8691 45.8089 68.9362 50.068 68.5978 54.5838C68.5978 54.5838 67.7069 48.8043 69.2016 41.8751L42.5608 41.2801L83.6191 67.2396C83.8607 67.1103 84.0255 67.044 84.0255 67.044C84.0255 67.044 86.6882 64.7846 88.0688 62.0533C89.4488 59.3219 91.4021 57.7003 94.9944 57.6932C94.9944 57.6932 97.9682 57.6565 98.3302 56.2473C98.3302 56.2473 92.1778 55.915 94.7908 52.5583C94.7908 52.5583 95.0427 52.2428 96.8433 52.0895C98.0171 52.2698 99.1794 51.4886 99.1794 51.4886C95.2489 50.8999 95.4351 47.9155 95.4351 47.9155C104.177 46.8664 99.2387 42.7561 99.2387 42.7561L105.593 43.2444C105.978 41.7411 100.43 41.6363 100.43 41.6363L100.61 35.3904L108.698 35.6692C108.698 35.6692 109.336 36.0422 109.989 36.4325C110.909 36.8511 111.452 37.8745 111.894 37.9935C111.536 46.9418 112.218 65.7532 110.648 72.9541C111.125 73.0032 108.739 73.7303 108.739 73.7303L100.727 73.7463L100.316 76.9865L99.7084 76.9878L99.5931 80.3593C101.606 80.5975 101.36 81.9172 101.36 81.9172L101.374 88.4174L100.844 88.6975C100.844 88.6975 100.295 91.0657 100.139 91.3053C99.9886 92.4516 99.4152 92.098 99.4152 92.098C99.4152 92.098 97.3858 92.4568 96.6978 92.1039C96.9233 91.7484 96.6011 91.4874 96.6011 91.4874L96.5851 83.4719C96.5541 83.0835 96.5534 82.6952 96.576 82.3075C96.5785 82.2746 96.5818 82.2378 96.589 82.2045V82.2018Z" fill="#FEFEFE"/>
<path d="M117.958 76.7771C117.353 76.7771 116.785 76.7139 116.253 76.5874C115.722 76.4542 115.283 76.2812 114.937 76.0681L115.845 74.3307C116.596 74.7634 117.38 74.9797 118.198 74.9797C118.497 74.9797 118.726 74.9431 118.886 74.8699C119.045 74.7967 119.125 74.6968 119.125 74.5703C119.125 74.4505 119.042 74.354 118.876 74.2807C118.716 74.2075 118.46 74.1276 118.108 74.0411C117.643 73.9213 117.257 73.8014 116.951 73.6816C116.646 73.5551 116.376 73.3654 116.144 73.1125C115.918 72.8528 115.805 72.5133 115.805 72.0939C115.805 71.568 115.944 71.1087 116.224 70.716C116.509 70.3165 116.918 70.0103 117.45 69.7973C117.982 69.5776 118.61 69.4678 119.334 69.4678C119.853 69.4678 120.334 69.521 120.78 69.6275C121.232 69.7274 121.621 69.8738 121.946 70.0669L121.099 71.7844C120.826 71.6113 120.524 71.4815 120.192 71.395C119.866 71.3084 119.53 71.2651 119.185 71.2651C118.859 71.2651 118.606 71.3117 118.427 71.4049C118.247 71.4981 118.158 71.608 118.158 71.7345C118.158 71.8609 118.237 71.9608 118.397 72.034C118.563 72.1073 118.832 72.1871 119.205 72.2737C119.657 72.3802 120.035 72.4934 120.341 72.6132C120.654 72.733 120.923 72.9194 121.149 73.1724C121.375 73.4253 121.488 73.7582 121.488 74.1709C121.488 74.6902 121.345 75.1462 121.059 75.5389C120.773 75.9317 120.364 76.2379 119.833 76.4576C119.301 76.6706 118.676 76.7771 117.958 76.7771Z" fill="white"/>
<path d="M126.804 72.8129L129.077 76.6173H126.455L125.039 74.3407L124.381 74.9498L124.052 76.6173H121.739L123.135 69.6275H125.448L124.95 72.1039L127.602 69.6275H130.303L126.804 72.8129Z" fill="white"/>
<path d="M133.464 74.081L132.965 76.6173H130.612L131.121 74.0511L129.376 69.6275H131.739L132.686 72.044L134.63 69.6275H136.993L133.464 74.081Z" fill="white"/>
<path d="M137.292 69.6275H140.442C141.173 69.6275 141.805 69.7474 142.337 69.987C142.875 70.2267 143.287 70.5695 143.573 71.0155C143.859 71.4615 144.001 71.9874 144.001 72.5932C144.001 73.3987 143.815 74.1077 143.443 74.7201C143.071 75.3259 142.553 75.7952 141.888 76.1281C141.23 76.4542 140.479 76.6173 139.635 76.6173H135.896L137.292 69.6275ZM139.714 74.78C140.319 74.78 140.788 74.5903 141.12 74.2108C141.459 73.8247 141.629 73.3321 141.629 72.733C141.629 72.3269 141.502 72.0141 141.25 71.7944C141.004 71.5747 140.645 71.4649 140.173 71.4649H139.276L138.618 74.78H139.714Z" fill="white"/>
<path d="M145.529 69.6275H147.882L146.486 76.6173H144.133L145.529 69.6275Z" fill="white"/>
<path d="M156.472 69.6275L152.125 76.6173H149.812L148.257 69.6275H150.669L151.537 73.7016L154.059 69.6275H156.472Z" fill="white"/>
<path d="M158.66 71.4049L158.501 72.2238H161.452L161.113 73.9213H158.152L157.972 74.8399H161.472L161.113 76.6173H155.31L156.706 69.6275H162.379L162.02 71.4049H158.66Z" fill="white"/>
<path d="M174.758 69.6275L173.382 76.6173H171.239L171.857 73.432L169.893 75.9883H168.856L167.779 73.4719L167.151 76.6173H165.008L166.403 69.6275H168.318L169.833 73.3421L172.754 69.6275H174.758Z" fill="white"/>
<path d="M178.448 76.7771C177.737 76.7771 177.112 76.6473 176.574 76.3877C176.042 76.1214 175.63 75.7519 175.338 75.2793C175.052 74.8066 174.909 74.2641 174.909 73.6517C174.909 72.8395 175.095 72.1172 175.467 71.4848C175.846 70.8458 176.368 70.3498 177.032 69.997C177.704 69.6442 178.461 69.4678 179.306 69.4678C180.017 69.4678 180.638 69.6009 181.17 69.8672C181.708 70.1268 182.12 70.4929 182.406 70.9656C182.699 71.4382 182.845 71.9808 182.845 72.5932C182.845 73.4054 182.656 74.131 182.277 74.77C181.904 75.4024 181.383 75.8951 180.711 76.2479C180.047 76.6007 179.292 76.7771 178.448 76.7771ZM178.648 74.8699C179.02 74.8699 179.342 74.7734 179.615 74.5803C179.894 74.3873 180.107 74.1276 180.253 73.8014C180.399 73.4753 180.472 73.1191 180.472 72.733C180.472 72.3203 180.349 71.9908 180.103 71.7444C179.864 71.4981 179.532 71.375 179.106 71.375C178.734 71.375 178.408 71.4715 178.129 71.6646C177.857 71.8576 177.647 72.1172 177.501 72.4434C177.355 72.7696 177.282 73.1258 177.282 73.5119C177.282 73.9246 177.401 74.2541 177.641 74.5004C177.887 74.7467 178.222 74.8699 178.648 74.8699Z" fill="white"/>
<path d="M185.743 76.7771C185.138 76.7771 184.57 76.7139 184.038 76.5874C183.506 76.4542 183.068 76.2812 182.722 76.0681L183.629 74.3307C184.38 74.7634 185.165 74.9797 185.982 74.9797C186.281 74.9797 186.511 74.9431 186.67 74.8699C186.83 74.7967 186.909 74.6968 186.909 74.5703C186.909 74.4505 186.826 74.354 186.66 74.2807C186.501 74.2075 186.245 74.1276 185.892 74.0411C185.427 73.9213 185.042 73.8014 184.736 73.6816C184.43 73.5551 184.161 73.3654 183.928 73.1125C183.702 72.8528 183.589 72.5133 183.589 72.0939C183.589 71.568 183.729 71.1087 184.008 70.716C184.294 70.3165 184.703 70.0103 185.234 69.7973C185.766 69.5776 186.394 69.4678 187.119 69.4678C187.637 69.4678 188.119 69.521 188.564 69.6275C189.016 69.7274 189.405 69.8738 189.731 70.0669L188.883 71.7844C188.611 71.6113 188.308 71.4815 187.976 71.395C187.65 71.3084 187.315 71.2651 186.969 71.2651C186.643 71.2651 186.391 71.3117 186.211 71.4049C186.032 71.4981 185.942 71.608 185.942 71.7345C185.942 71.8609 186.022 71.9608 186.182 72.034C186.348 72.1073 186.617 72.1871 186.989 72.2737C187.441 72.3802 187.82 72.4934 188.126 72.6132C188.438 72.733 188.707 72.9194 188.933 73.1724C189.159 73.4253 189.272 73.7582 189.272 74.1709C189.272 74.6902 189.129 75.1462 188.844 75.5389C188.558 75.9317 188.149 76.2379 187.617 76.4576C187.085 76.6706 186.461 76.7771 185.743 76.7771Z" fill="white"/>
<path d="M193.492 76.7771C192.781 76.7771 192.152 76.6473 191.607 76.3877C191.069 76.1214 190.65 75.7519 190.351 75.2793C190.059 74.8066 189.913 74.2641 189.913 73.6517C189.913 72.8395 190.099 72.1172 190.471 71.4848C190.85 70.8524 191.372 70.3598 192.036 70.007C192.707 69.6475 193.469 69.4678 194.319 69.4678C194.991 69.4678 195.586 69.5909 196.104 69.8372C196.622 70.0769 197.008 70.4197 197.26 70.8657L195.566 72.1938C195.253 71.6479 194.788 71.375 194.17 71.375C193.804 71.375 193.479 71.4649 193.193 71.6446C192.907 71.8243 192.684 72.0773 192.525 72.4035C192.365 72.723 192.285 73.0892 192.285 73.5019C192.285 73.9146 192.415 74.2475 192.674 74.5004C192.94 74.7467 193.289 74.8699 193.721 74.8699C194.313 74.8699 194.831 74.6003 195.276 74.0611L196.662 75.3891C196.257 75.8884 195.795 76.2445 195.276 76.4576C194.765 76.6706 194.17 76.7771 193.492 76.7771Z" fill="white"/>
<path d="M200.725 76.7771C200.014 76.7771 199.389 76.6473 198.851 76.3877C198.319 76.1214 197.907 75.7519 197.614 75.2793C197.329 74.8066 197.186 74.2641 197.186 73.6517C197.186 72.8395 197.372 72.1172 197.744 71.4848C198.123 70.8458 198.645 70.3498 199.309 69.997C199.981 69.6442 200.738 69.4678 201.582 69.4678C202.294 69.4678 202.915 69.6009 203.447 69.8672C203.985 70.1268 204.397 70.4929 204.683 70.9656C204.976 71.4382 205.122 71.9808 205.122 72.5932C205.122 73.4054 204.932 74.131 204.553 74.77C204.181 75.4024 203.659 75.8951 202.988 76.2479C202.324 76.6007 201.569 76.7771 200.725 76.7771ZM200.924 74.8699C201.297 74.8699 201.619 74.7734 201.891 74.5803C202.171 74.3873 202.383 74.1276 202.53 73.8014C202.676 73.4753 202.749 73.1191 202.749 72.733C202.749 72.3203 202.626 71.9908 202.38 71.7444C202.141 71.4981 201.808 71.375 201.383 71.375C201.011 71.375 200.685 71.4715 200.406 71.6646C200.133 71.8576 199.924 72.1172 199.778 72.4434C199.632 72.7696 199.558 73.1258 199.558 73.5119C199.558 73.9246 199.678 74.2541 199.917 74.5004C200.163 74.7467 200.499 74.8699 200.924 74.8699Z" fill="white"/>
<path d="M217.746 69.6275L214.117 76.6173H211.595L211.196 72.9327L209.282 76.6173H206.76L205.922 69.6275H208.245L208.694 73.6117L210.767 69.6275H212.931L213.33 73.6716L215.433 69.6275H217.746Z" fill="white"/>
</svg>
