<svg width="227" height="92" viewBox="0 0 227 92" fill="none" xmlns="http://www.w3.org/2000/svg">
<path fill-rule="evenodd" clip-rule="evenodd" d="M225.486 26.5465L212.315 72.6252C211.682 74.8381 209.659 76.3656 207.354 76.3711C192.603 76.4042 139.558 76.5228 111.984 76.5787C111.649 76.6272 111.31 76.65 110.968 76.6506C110.415 76.6517 109.861 76.5928 109.323 76.4644C108.883 76.3576 108.451 76.2126 108.038 76.0332C107.688 75.8827 107.35 75.7091 107.021 75.5204C106.843 75.4167 106.662 75.3191 106.482 75.2238L102.879 72.7782L99.9866 72.7837C99.619 75.6906 102.592 84.5452 100.048 85.8884C99.9546 86.2428 99.8475 86.6002 99.7302 86.9295C99.4142 88.3807 98.5401 89.6189 97.0537 90.1312C96.5896 90.2896 96.0953 90.3572 95.6085 90.3326C89.6826 91.1415 89.3796 86.4983 89.3704 81.9736L88.5589 76.5596L89.6058 74.5943L90.2346 72.974L90.2334 72.3292L86.8739 72.5607L86.7443 72.5613C84.2282 72.5466 80.8479 72.124 78.4811 70.6242L55.018 82.9846L52.9611 87.5331C52.202 89.2626 50.6314 90.3854 48.6477 90.3829C46.9743 90.6588 45.3023 90.2835 44.0693 89.0023C42.4961 87.3734 42.4826 85.3503 42.5958 83.2763C42.6627 82.0369 42.6952 80.7809 42.7242 79.5383C42.554 78.1577 42.5638 76.5547 43.0475 75.2109C43.4724 72.3574 45.8286 70.314 48.8862 70.5168C51.0408 70.6573 52.7324 71.6972 53.5592 73.3746L70.6767 63.5292L36.7934 41.7272L1.82143 40.941L1.80054 30.7297L65.6613 30.9895C67.2619 27.5175 69.4669 24.3993 72.3229 21.7854L72.3832 21.732L72.4429 21.6803C77.9144 17.1048 84.2362 14.129 91.1856 13.1323C91.174 7.11576 89.969 1.02987 95.7879 1.01759C101.458 1.00653 100.534 10.183 100.505 12.9806C101.999 13.139 103.484 13.3884 104.942 13.7237L108.029 14.4355L107.311 20.7253L104.141 20.7186C102.948 20.718 101.679 20.7966 100.423 20.9187L100.336 29.2465L105.481 29.4227C106.115 29.7949 106.748 30.1635 107.378 30.5386C108.405 31.0509 109.948 32.4107 111.142 33.1582L117.246 23.6101L137.834 23.5684C140.889 23.5623 143.591 24.7801 145.851 26.8057C146.431 27.329 146.965 27.8848 147.436 28.4775L150.599 23.5935L181.244 23.4806C182.154 21.9555 183.84 20.9207 185.648 20.917L221.224 20.8451C224.255 20.839 226.316 23.6581 225.486 26.5465Z" fill="#FEFEFE"/>
<path fill-rule="evenodd" clip-rule="evenodd" d="M225.486 26.5465L212.315 72.6252C211.682 74.8381 209.659 76.3656 207.354 76.3711C192.603 76.4042 139.558 76.5228 111.984 76.5787C111.649 76.6272 111.31 76.65 110.968 76.6506C110.415 76.6517 109.861 76.5928 109.323 76.4644C108.883 76.3576 108.451 76.2126 108.038 76.0332C107.688 75.8827 107.35 75.7091 107.021 75.5204C106.843 75.4167 106.662 75.3191 106.482 75.2238L102.879 72.7782L99.9866 72.7837C99.619 75.6906 102.592 84.5452 100.048 85.8884C99.9546 86.2428 99.8475 86.6002 99.7302 86.9295C99.4142 88.3807 98.5401 89.6189 97.0537 90.1312C96.5896 90.2896 96.0953 90.3572 95.6085 90.3327C89.6826 91.1415 89.3796 86.4983 89.3704 81.9736L88.5589 76.5596L89.6058 74.5943L90.2346 72.974L90.2334 72.3292L86.8739 72.5607L86.7443 72.5613C84.2282 72.5466 80.8479 72.124 78.4811 70.6242L55.018 82.9846L52.9611 87.5331C52.202 89.2626 50.6314 90.3854 48.6477 90.3829C46.9743 90.6588 45.3023 90.2835 44.0693 89.0022C42.4961 87.3734 42.4826 85.3503 42.5958 83.2763C42.6627 82.0369 42.6952 80.7809 42.7242 79.5383C42.554 78.1577 42.5638 76.5547 43.0475 75.2109C43.4724 72.3574 45.8286 70.314 48.8862 70.5168C51.0408 70.6573 52.7324 71.6972 53.5592 73.3746L70.6767 63.5292L36.7934 41.7272L1.82143 40.941L1.80054 30.7297L65.6613 30.9895C67.2619 27.5175 69.4669 24.3993 72.3229 21.7854L72.3832 21.732L72.4429 21.6803C77.9144 17.1048 84.2362 14.129 91.1856 13.1323C91.1738 7.11576 89.969 1.02987 95.7879 1.01759C101.458 1.00653 100.534 10.183 100.505 12.9806C101.999 13.139 103.484 13.3884 104.942 13.7237L108.029 14.4355L107.311 20.7253L104.141 20.7186C102.948 20.718 101.679 20.7966 100.423 20.9187L100.336 29.2465L105.481 29.4227C106.115 29.7949 106.748 30.1635 107.378 30.5386C108.405 31.0509 109.948 32.4107 111.142 33.1582L117.246 23.6101L137.833 23.5684C140.889 23.5623 143.591 24.7801 145.851 26.8057C146.431 27.329 146.965 27.8848 147.436 28.4775L150.599 23.5935L181.244 23.4806C182.154 21.9555 183.84 20.9207 185.648 20.917L221.224 20.8451C224.255 20.839 226.316 23.6581 225.486 26.5465Z" stroke="#FEFEFE" stroke-width="1.9488" stroke-miterlimit="10"/>
<path fill-rule="evenodd" clip-rule="evenodd" d="M215.343 61.6302L212.456 72.1978C211.741 74.8123 209.368 76.6277 206.654 76.634C190.972 76.6683 139.003 76.7851 111.842 76.8397C111.508 76.8876 111.169 76.9103 110.826 76.9109C110.273 76.9128 109.72 76.8539 109.181 76.7255C108.741 76.6185 108.31 76.4737 107.896 76.2943C107.547 76.1438 107.208 75.97 106.879 75.7815C106.701 75.6776 106.52 75.58 106.341 75.4848L102.737 73.0391L99.8451 73.0446C99.4781 75.951 102.451 84.8062 99.9071 86.1494C99.8125 86.5031 99.7055 86.8612 99.5887 87.1898C99.2728 88.6417 98.3981 89.8793 96.9128 90.3915C96.4475 90.5499 95.954 90.6175 95.467 90.5936C89.5417 91.4018 89.2381 86.7587 89.2289 82.2347L88.4174 76.8206L89.4637 74.8553L90.0937 73.2351L90.0925 72.5902L86.7325 72.8218L86.6022 72.8224C84.0867 72.8077 80.7064 72.3851 78.3398 70.8853L54.8765 83.2461L52.819 87.7936C52.0605 89.5243 50.4899 90.6463 48.5062 90.6446C46.833 90.9191 45.1608 90.5438 43.9278 89.2627C42.3546 87.6345 42.3411 85.6114 42.4543 83.5373C42.5213 82.2972 42.5539 81.0425 42.5827 79.8C42.4125 78.4182 42.4217 76.8157 42.906 75.4713C43.3303 72.6184 45.6865 70.5751 48.7441 70.7777C50.8993 70.9178 52.5911 71.9575 53.4179 73.6355L70.5352 63.7897L36.652 41.9881L1.67934 41.2021L1.65906 30.9907L65.5198 31.2504C67.1206 27.7785 69.3255 24.6604 72.1815 22.0458L72.2412 21.9924L72.3014 21.9414C77.7723 17.3657 84.0953 14.3901 91.0447 13.3932C91.0325 7.37675 89.8276 1.29024 95.6466 1.27858C101.317 1.2669 100.392 10.4439 100.363 13.2415C101.857 13.3994 103.342 13.6493 104.802 13.9847L107.887 14.6965L107.169 20.9864L103.999 20.9796C102.806 20.979 101.537 21.0576 100.281 21.1798L100.194 29.5074L105.339 29.6838C105.973 30.0553 106.606 30.4244 107.236 30.7991C108.262 31.312 109.807 32.6717 111.002 33.4185L117.104 23.8705L137.691 23.8287C140.748 23.8232 143.45 25.0412 145.709 27.0667C146.291 27.5893 146.822 28.1457 147.295 28.7385L150.456 23.8546L181.102 23.7409C182.012 22.216 183.699 21.1816 185.507 21.1779L221.083 21.1061C224.113 21.0999 226.174 23.9184 225.344 26.8076L215.353 61.6412L215.343 61.6302Z" fill="#2A2928"/>
<path fill-rule="evenodd" clip-rule="evenodd" d="M212.548 72.0127C211.778 74.7776 209.261 76.6939 206.388 76.7001C190.401 76.7357 138.915 76.8511 111.91 76.9058C111.574 76.9538 111.236 76.9765 110.894 76.9771C110.341 76.9789 109.787 76.9199 109.249 76.7915C108.809 76.6841 108.378 76.5398 107.963 76.3598C107.614 76.21 107.275 76.0368 106.946 75.8471C106.768 75.7438 106.588 75.6462 106.408 75.5509L102.805 73.1053L99.9131 73.1108C99.5455 76.0172 102.518 84.8723 99.9739 86.2155C99.88 86.5693 99.773 86.9274 99.6562 87.256C99.3396 88.7078 98.4661 89.9454 96.9802 90.4577C96.5149 90.6161 96.0208 90.6837 95.5345 90.6598C89.6086 91.468 89.3055 86.8248 89.2963 82.3007L88.4848 76.8868L89.5311 74.9209L90.1605 73.3005L90.1594 72.6563L86.8 72.8878L86.6696 72.8885C84.1541 72.8737 80.7738 72.4512 78.4072 70.9513L54.9439 83.3123L52.887 87.8596C52.1279 89.5905 50.5573 90.7125 48.573 90.7107C46.9004 90.9853 45.2284 90.61 43.9952 89.3289C42.4222 87.7007 42.4086 85.6776 42.5217 83.6028C42.5887 82.3634 42.6213 81.108 42.6501 79.8662C42.4793 78.4842 42.4891 76.8818 42.9736 75.5374C43.3977 72.6846 45.7539 70.6413 48.8115 70.8433C50.9667 70.9839 52.6585 72.0237 53.4847 73.7017L70.6026 63.8557L36.7194 42.0543L1.74672 41.2675L1.72644 31.0562L65.5872 31.3166C67.188 27.8447 69.3929 24.7264 72.2489 22.1119L72.3086 22.0586L72.3688 22.0076C77.8397 17.4319 84.1622 14.4561 91.1122 13.4594C91.0999 7.44291 89.8951 1.3564 95.714 1.34474C101.383 1.33306 100.46 10.5095 100.431 13.3077C101.924 13.4655 103.409 13.7155 104.868 14.0508L107.955 14.7621L107.237 21.0524L104.066 21.0457C102.873 21.0451 101.605 21.1237 100.348 21.246L100.261 29.5736L105.407 29.7498C106.041 30.1214 106.674 30.4906 107.304 30.8653C108.33 31.378 109.874 32.7379 111.068 33.4847L117.173 23.9366L137.758 23.8955C140.815 23.8888 143.517 25.1072 145.778 27.1323C146.358 27.6555 146.89 28.2113 147.363 28.8046L150.524 23.92L181.169 23.8071C182.081 22.282 183.764 21.2478 185.575 21.2441L221.151 21.1722C224.182 21.1661 226.241 23.9846 225.411 26.873L215.418 61.7074L212.548 72.0127Z" stroke="#2B2A29" stroke-width="0.0018"/>
<path fill-rule="evenodd" clip-rule="evenodd" d="M185.581 24.7889L221.158 24.7166C221.809 24.7152 222.189 25.2453 222.004 25.8975L212.01 60.7343C211.824 61.3829 211.14 61.9185 210.487 61.9197L174.911 61.9922C174.26 61.9934 173.879 61.4598 174.067 60.8111L184.058 25.9744C184.244 25.3221 184.929 24.7897 185.581 24.7889Z" fill="#E22B31"/>
<path fill-rule="evenodd" clip-rule="evenodd" d="M185.581 24.7889L221.158 24.7166C221.809 24.7152 222.189 25.2453 222.004 25.8975L212.01 60.7343C211.824 61.3829 211.14 61.9185 210.487 61.9197L174.911 61.9922C174.26 61.9934 173.879 61.4598 174.067 60.8111L184.058 25.9744C184.244 25.3221 184.929 24.7897 185.581 24.7889Z" stroke="#E22B31" stroke-width="0.0018"/>
<path fill-rule="evenodd" clip-rule="evenodd" d="M88.4772 33.1225L94.2113 33.1107L94.2231 38.9934L92.0173 38.9983C92.0173 38.9983 81.1406 39.8802 78.2538 44.1475C78.2538 44.1475 77.896 34.7622 88.4772 33.1225ZM180.156 27.3528L178.211 35.0805L147.479 35.1424L152.456 27.4536L180.156 27.3528ZM146.201 35.145L114.169 35.21L119.118 27.4763L137.766 27.4389C139.784 27.4346 141.665 28.2085 143.409 29.7702C145.193 31.369 146.121 33.1636 146.201 35.145ZM146.792 38.2422C146.804 43.6673 145.758 47.9248 143.661 51.0116C141.978 53.4812 140.441 55.2513 139.039 56.3003C136.261 58.3959 132.774 59.4523 128.574 59.4609L110.196 59.4983L116.204 38.3043L127.607 38.281L123.796 51.1749C124.515 51.4587 125.293 51.6049 126.115 51.6031C127.672 51.6 129.273 51.132 130.922 50.1966C133.615 48.6734 135.377 46.498 136.193 43.6734C136.63 42.2024 136.873 40.3968 136.93 38.2618L146.792 38.2422ZM210.911 59.1999L199.378 59.2232L192.832 46.366L189.154 59.2434L177.981 59.2661L184.033 38.1668L209.427 38.1151L203.254 44.3619L210.911 59.1999ZM219.586 27.4124L212.22 35.0558L198.835 35.0829L206.331 27.4389L219.586 27.4124ZM177.627 38.1544L160.428 50.7941L173.973 50.7665L171.64 59.279L143.807 59.3355L146.27 50.753L164.359 38.2066L177.627 38.1544ZM78.6565 45.936C78.6565 45.936 84.7028 45.9238 86.8857 45.9195C87.1777 45.9189 87.4334 45.9097 86.9483 45.3698C87.332 45.6941 87.7696 46.2658 87.5176 48.4351C87.5176 48.4351 85.6102 47.3578 85.0348 47.3837C83.7242 47.1466 83.3436 48.1938 81.293 47.9671C79.201 47.867 78.97 47.7 78.6565 45.936ZM198.05 27.3166L195.853 35.0448L184.879 35.067L187.086 27.3387L198.05 27.3166ZM92.8363 77.6362C93.0267 76.3084 94.1523 75.876 94.1523 75.876L94.1456 72.667L93.7023 72.6676L93.6815 62.2283C93.6815 62.2283 93.647 60.6099 92.2239 63.0089C89.9328 64.5444 90.5403 64.3528 90.1148 65.2772C90.4081 66.2598 91.7845 68.9947 91.7845 68.9947L86.6841 69.3436C86.6841 69.3436 80.4656 69.3116 79.3283 66.9618C79.2244 66.8384 79.1347 66.7186 79.0584 66.5989L51.4925 81.1247L51.4582 81.2832L51.3899 83.5783L50.3295 83.2075C50.3295 83.2075 49.8058 84.1662 49.855 84.9186C49.8568 85.7409 49.8254 87.3599 48.309 87.1473C45.6866 87.836 45.9884 85.0844 46.0622 83.7976C46.1322 82.5116 46.1993 79.6746 46.1993 79.6746C46.1993 79.6746 45.8556 77.3266 46.4488 76.4404C46.4598 75.5136 46.9602 74.2705 48.5777 74.3775C50.1944 74.4843 50.49 75.3668 50.4918 76.2107C50.4931 76.8617 50.4088 78.7435 50.3725 79.5776L77.4147 64.0261L37.7967 38.5321L5.28533 37.805L5.27856 34.6149L67.951 34.8673C69.2568 31.3242 71.345 27.7411 74.6416 24.7248C81.5247 18.97 88.6247 16.9788 94.6368 16.6698L94.7019 6.8246C95.0818 6.83012 95.6375 6.01695 96.1784 6.30929C96.8245 6.87741 96.9518 6.87434 96.9518 6.87434L96.8516 16.6306C99.5944 16.6723 102.051 17.0378 104.073 17.5045C104.073 17.5045 101.042 17.4978 96.8349 18.1132L96.7052 30.6043L94.5438 30.6092L94.6238 18.481C89.0605 19.5166 82.2053 21.6398 77.4388 26.0115C74.7542 28.4738 72.4779 31.4698 70.6817 34.8778L78.0639 34.9067C78.0639 34.9067 76.0814 37.219 76.3274 39.3963L68.7325 39.2255C67.3408 42.9303 66.4506 46.9919 66.1278 51.2984C66.1278 51.2984 65.2776 45.7868 66.7039 39.1788L41.2839 38.6114L80.4607 63.3676C80.6912 63.2443 80.8485 63.181 80.8485 63.181C80.8485 63.181 83.3891 61.0264 84.7065 58.4216C86.0233 55.8169 87.8871 54.2704 91.3147 54.2637C91.3147 54.2637 94.1523 54.2287 94.4977 52.8848C94.4977 52.8848 88.6272 52.5679 91.1205 49.3668C91.1205 49.3668 91.3608 49.066 93.0789 48.9198C94.199 49.0917 95.308 48.3467 95.308 48.3467C91.5576 47.7853 91.7353 44.9392 91.7353 44.9392C100.077 43.9388 95.3645 40.019 95.3645 40.019L101.427 40.4846C101.795 39.0511 96.5012 38.9511 96.5012 38.9511L96.6727 32.9947L104.391 33.2606C104.391 33.2606 104.999 33.6163 105.622 33.9885C106.5 34.3877 107.018 35.3637 107.44 35.4772C107.098 44.0107 107.749 61.9501 106.251 68.8172C106.706 68.864 104.429 69.5574 104.429 69.5574L96.7845 69.5727L96.3924 72.6627L95.8127 72.6638L95.7027 75.8791C97.6236 76.1062 97.3888 77.3648 97.3888 77.3648L97.4017 83.5636L96.8959 83.8308C96.8959 83.8308 96.3721 86.0892 96.2233 86.3177C96.0801 87.4109 95.533 87.0736 95.533 87.0736C95.533 87.0736 93.5966 87.4158 92.9401 87.0793C93.1552 86.7402 92.8479 86.4914 92.8479 86.4914L92.8326 78.8474C92.803 78.477 92.8024 78.1068 92.8239 77.737C92.8263 77.7056 92.8294 77.6705 92.8363 77.6388V77.6362Z" fill="#FEFEFE"/>
<path d="M114.834 72.1749C114.148 72.1749 113.517 72.0616 112.94 71.8351C112.364 71.6086 111.914 71.3011 111.59 70.9128L112.756 69.5149C112.982 69.8061 113.303 70.0456 113.717 70.2333C114.132 70.4145 114.556 70.5051 114.99 70.5051C115.158 70.5051 115.285 70.476 115.369 70.4177C115.459 70.3595 115.505 70.2947 115.505 70.2235C115.505 70.1265 115.398 70.0359 115.184 69.9517C114.97 69.8676 114.711 69.777 114.407 69.6799C114.103 69.5828 113.798 69.4663 113.494 69.3304C113.196 69.188 112.94 68.9874 112.727 68.7285C112.513 68.4632 112.406 68.1557 112.406 67.8062C112.406 67.1914 112.652 66.651 113.144 66.185C113.637 65.719 114.316 65.486 115.184 65.486C115.722 65.486 116.24 65.5799 116.738 65.7676C117.237 65.9488 117.661 66.2141 118.011 66.5636L116.835 67.9227C116.583 67.6703 116.272 67.4762 115.903 67.3403C115.54 67.2043 115.194 67.1364 114.864 67.1364C114.741 67.1364 114.643 67.1623 114.572 67.2141C114.501 67.2594 114.465 67.3208 114.465 67.3985C114.465 67.4891 114.572 67.5765 114.786 67.6606C115 67.7448 115.259 67.8386 115.563 67.9422C115.867 68.0392 116.172 68.159 116.476 68.3014C116.78 68.4373 117.039 68.6379 117.253 68.9033C117.467 69.1621 117.574 69.4663 117.574 69.8158C117.574 70.5018 117.321 71.0681 116.816 71.5147C116.317 71.9548 115.657 72.1749 114.834 72.1749Z" fill="white"/>
<path d="M124.473 72.0584H122.181L121.18 69.7187L120.665 70.2624L120.267 72.0584H118.305L119.733 65.5831H121.695L121.19 67.8742L123.298 65.5831H125.794L122.686 68.5926L124.473 72.0584Z" fill="white"/>
<path d="M129.096 72.0584H127.133L127.697 69.4857L126.133 65.5831H128.241L128.96 67.7674L130.63 65.5831H132.932L129.659 69.4857L129.096 72.0584Z" fill="white"/>
<path d="M135.322 72.0584H132.438L133.865 65.5831H136.711C137.197 65.5831 137.66 65.6931 138.1 65.9132C138.547 66.1332 138.916 66.4633 139.208 66.9034C139.499 67.337 139.645 67.8289 139.645 68.379C139.645 68.7285 139.6 69.0683 139.509 69.3984C139.425 69.7284 139.276 70.0585 139.062 70.3886C138.848 70.7122 138.583 70.997 138.266 71.2429C137.948 71.4824 137.537 71.6797 137.032 71.8351C136.527 71.9839 135.957 72.0584 135.322 72.0584ZM135.643 70.3497H135.682C136.271 70.3497 136.741 70.175 137.09 69.8255C137.44 69.476 137.615 69.0424 137.615 68.5246C137.615 68.1752 137.498 67.8839 137.265 67.6509C137.032 67.4115 136.728 67.2917 136.352 67.2917H135.449L134.779 70.3497H135.643Z" fill="white"/>
<path d="M142.135 72.0584H140.173L141.601 65.5831H143.563L142.135 72.0584Z" fill="white"/>
<path d="M147.92 72.0584H145.453L144.491 65.5831H146.618L147.055 69.942L149.416 65.5831H151.737L147.92 72.0584Z" fill="white"/>
<path d="M156.156 72.0584H151.241L152.669 65.5831H157.584L157.205 67.2917H154.253L154.117 67.9324H157.001L156.623 69.6411H153.738L153.582 70.3497H156.535L156.156 72.0584Z" fill="white"/>
<path d="M168.362 72.0584H166.4L167.255 68.1654L164.953 72.0584H164.079L163.486 68.1654L162.631 72.0584H160.669L162.097 65.5831H164.739L165.186 68.6897L167.012 65.5831H169.79L168.362 72.0584Z" fill="white"/>
<path d="M173.65 72.1749C172.679 72.1749 171.872 71.8998 171.231 71.3497C170.59 70.7931 170.27 70.0779 170.27 69.2042C170.27 68.1622 170.639 67.282 171.377 66.5636C172.122 65.8388 173.051 65.4763 174.165 65.4763C175.13 65.4763 175.933 65.7514 176.574 66.3015C177.215 66.8516 177.535 67.5603 177.535 68.4276C177.535 69.476 177.166 70.3627 176.428 71.0876C175.69 71.8124 174.764 72.1749 173.65 72.1749ZM173.757 70.4468C174.262 70.4468 174.68 70.2624 175.01 69.8935C175.34 69.5246 175.505 69.0877 175.505 68.5829C175.505 68.1816 175.369 67.8515 175.097 67.5927C174.832 67.3338 174.482 67.2043 174.048 67.2043C173.543 67.2043 173.126 67.3888 172.795 67.7577C172.465 68.1266 172.3 68.5635 172.3 69.0683C172.3 69.4696 172.433 69.7996 172.698 70.0585C172.97 70.3174 173.323 70.4468 173.757 70.4468Z" fill="white"/>
<path d="M181.087 72.1749C180.4 72.1749 179.769 72.0616 179.193 71.8351C178.616 71.6086 178.166 71.3011 177.843 70.9128L179.008 69.5149C179.235 69.8061 179.555 70.0456 179.97 70.2333C180.384 70.4145 180.808 70.5051 181.242 70.5051C181.411 70.5051 181.537 70.476 181.621 70.4177C181.712 70.3595 181.757 70.2947 181.757 70.2235C181.757 70.1265 181.65 70.0359 181.437 69.9517C181.223 69.8676 180.964 69.777 180.659 69.6799C180.355 69.5828 180.051 69.4663 179.746 69.3304C179.449 69.188 179.193 68.9874 178.979 68.7285C178.765 68.4632 178.659 68.1557 178.659 67.8062C178.659 67.1914 178.905 66.651 179.397 66.185C179.889 65.719 180.569 65.486 181.437 65.486C181.974 65.486 182.492 65.5799 182.991 65.7676C183.489 65.9488 183.913 66.2141 184.263 66.5636L183.088 67.9227C182.835 67.6703 182.524 67.4762 182.155 67.3403C181.793 67.2043 181.446 67.1364 181.116 67.1364C180.993 67.1364 180.896 67.1623 180.825 67.2141C180.753 67.2594 180.718 67.3208 180.718 67.3985C180.718 67.4891 180.825 67.5765 181.038 67.6606C181.252 67.7448 181.511 67.8386 181.815 67.9422C182.12 68.0392 182.424 68.159 182.728 68.3014C183.033 68.4373 183.292 68.6379 183.506 68.9033C183.719 69.1621 183.826 69.4663 183.826 69.8158C183.826 70.5018 183.574 71.0681 183.068 71.5147C182.57 71.9548 181.909 72.1749 181.087 72.1749Z" fill="white"/>
<path d="M190.725 72.0584H188.433L187.432 69.7187L186.918 70.2624L186.519 72.0584H184.557L185.985 65.5831H187.947L187.442 67.8742L189.55 65.5831H192.046L188.938 68.5926L190.725 72.0584Z" fill="white"/>
<path d="M194.92 72.1749C193.949 72.1749 193.143 71.8998 192.502 71.3497C191.86 70.7931 191.54 70.0779 191.54 69.2042C191.54 68.1622 191.909 67.282 192.647 66.5636C193.392 65.8388 194.321 65.4763 195.435 65.4763C196.4 65.4763 197.203 65.7514 197.844 66.3015C198.485 66.8516 198.806 67.5603 198.806 68.4276C198.806 69.476 198.436 70.3627 197.698 71.0876C196.96 71.8124 196.034 72.1749 194.92 72.1749ZM195.027 70.4468C195.532 70.4468 195.95 70.2624 196.28 69.8935C196.61 69.5246 196.775 69.0877 196.775 68.5829C196.775 68.1816 196.639 67.8515 196.367 67.5927C196.102 67.3338 195.752 67.2043 195.318 67.2043C194.813 67.2043 194.396 67.3888 194.065 67.7577C193.735 68.1266 193.57 68.5635 193.57 69.0683C193.57 69.4696 193.703 69.7996 193.968 70.0585C194.24 70.3174 194.593 70.4468 195.027 70.4468Z" fill="white"/>
<path d="M205.949 72.0584H203.89L203.861 68.3887L202.219 72.0584H200.16L199.733 65.5831H201.88L201.841 69.544L203.696 65.5831H205.172L205.279 69.544L206.979 65.5831H209.233L205.949 72.0584Z" fill="white"/>
</svg>
