<svg width="71" height="79" viewBox="0 0 71 79" fill="none" xmlns="http://www.w3.org/2000/svg">
<g filter="url(#filter0_d)">
<mask id="path-1-outside-1" maskUnits="userSpaceOnUse" x="20" y="15" width="31" height="39" fill="black">
<rect fill="white" x="20" y="15" width="31" height="39"/>
<path fill-rule="evenodd" clip-rule="evenodd" d="M35.0282 51.2593C35.0282 51.2593 48.0563 37.2234 48.0563 30.0282C48.0563 22.8329 42.2234 17 35.0282 17C27.8329 17 22 22.8329 22 30.0282C22 37.2234 35.0282 51.2593 35.0282 51.2593ZM35.1057 34C38.1432 34 40.6057 31.7614 40.6057 29C40.6057 26.2386 38.1432 24 35.1057 24C32.0681 24 29.6057 26.2386 29.6057 29C29.6057 31.7614 32.0681 34 35.1057 34Z"/>
</mask>
<path fill-rule="evenodd" clip-rule="evenodd" d="M35.0282 51.2593C35.0282 51.2593 48.0563 37.2234 48.0563 30.0282C48.0563 22.8329 42.2234 17 35.0282 17C27.8329 17 22 22.8329 22 30.0282C22 37.2234 35.0282 51.2593 35.0282 51.2593ZM35.1057 34C38.1432 34 40.6057 31.7614 40.6057 29C40.6057 26.2386 38.1432 24 35.1057 24C32.0681 24 29.6057 26.2386 29.6057 29C29.6057 31.7614 32.0681 34 35.1057 34Z" fill="white"/>
<path d="M35.0282 51.2593L33.5623 52.6199C33.9408 53.0276 34.4719 53.2593 35.0282 53.2593C35.5844 53.2593 36.1156 53.0276 36.494 52.6199L35.0282 51.2593ZM46.0563 30.0282C46.0563 31.3211 45.4377 33.1877 44.2497 35.4517C43.0944 37.6535 41.5313 39.9911 39.9337 42.1535C38.3415 44.3085 36.7448 46.2495 35.5438 47.6539C34.9442 48.3551 34.4454 48.9199 34.098 49.3079C33.9243 49.5019 33.7886 49.6515 33.6972 49.7517C33.6515 49.8018 33.6169 49.8395 33.5941 49.8642C33.5827 49.8765 33.5743 49.8856 33.569 49.8914C33.5663 49.8943 33.5644 49.8963 33.5633 49.8976C33.5628 49.8982 33.5624 49.8986 33.5622 49.8987C33.5621 49.8988 33.5622 49.8988 33.5621 49.8988C33.5622 49.8988 33.5623 49.8986 35.0282 51.2593C36.494 52.6199 36.4942 52.6196 36.4945 52.6193C36.4947 52.6192 36.495 52.6188 36.4953 52.6185C36.4959 52.6178 36.4967 52.6169 36.4978 52.6158C36.4998 52.6136 36.5026 52.6106 36.5062 52.6067C36.5134 52.5989 36.5237 52.5878 36.537 52.5734C36.5635 52.5445 36.6021 52.5025 36.6518 52.4481C36.7512 52.3391 36.8954 52.1802 37.078 51.9763C37.443 51.5686 37.962 50.9807 38.5838 50.2536C39.8256 48.8014 41.486 46.7838 43.1508 44.5304C44.8103 42.2844 46.5042 39.764 47.7917 37.3103C49.0465 34.919 50.0563 32.3329 50.0563 30.0282H46.0563ZM35.0282 19C41.1189 19 46.0563 23.9375 46.0563 30.0282H50.0563C50.0563 21.7283 43.328 15 35.0282 15V19ZM24 30.0282C24 23.9375 28.9375 19 35.0282 19V15C26.7283 15 20 21.7283 20 30.0282H24ZM35.0282 51.2593C36.494 49.8986 36.4941 49.8988 36.4942 49.8988C36.4942 49.8988 36.4942 49.8988 36.4941 49.8987C36.4939 49.8986 36.4936 49.8982 36.493 49.8976C36.4919 49.8963 36.49 49.8943 36.4873 49.8914C36.482 49.8856 36.4736 49.8765 36.4622 49.8642C36.4395 49.8395 36.4049 49.8018 36.3591 49.7517C36.2677 49.6515 36.132 49.5019 35.9583 49.3079C35.6109 48.9199 35.1121 48.3551 34.5125 47.6539C33.3115 46.2495 31.7148 44.3085 30.1227 42.1535C28.5251 39.9911 26.9619 37.6535 25.8067 35.4517C24.6186 33.1877 24 31.3211 24 30.0282H20C20 32.3329 21.0099 34.919 22.2647 37.3103C23.5521 39.764 25.2461 42.2844 26.9055 44.5304C28.5704 46.7838 30.2307 48.8014 31.4725 50.2536C32.0943 50.9807 32.6133 51.5686 32.9784 51.9763C33.161 52.1802 33.3051 52.3391 33.4046 52.4481C33.4543 52.5025 33.4928 52.5445 33.5194 52.5734C33.5326 52.5878 33.5429 52.5989 33.5501 52.6067C33.5537 52.6106 33.5565 52.6136 33.5586 52.6158C33.5596 52.6169 33.5604 52.6178 33.561 52.6185C33.5614 52.6188 33.5617 52.6192 33.5618 52.6193C33.5621 52.6196 33.5623 52.6199 35.0282 51.2593ZM38.6057 29C38.6057 30.4817 37.2223 32 35.1057 32V36C39.0641 36 42.6057 33.0411 42.6057 29H38.6057ZM35.1057 26C37.2223 26 38.6057 27.5183 38.6057 29H42.6057C42.6057 24.9589 39.0641 22 35.1057 22V26ZM31.6057 29C31.6057 27.5183 32.989 26 35.1057 26V22C31.1472 22 27.6057 24.9589 27.6057 29H31.6057ZM35.1057 32C32.989 32 31.6057 30.4817 31.6057 29H27.6057C27.6057 33.0411 31.1472 36 35.1057 36V32Z" fill="#6ACA1E" mask="url(#path-1-outside-1)"/>
</g>
<defs>
<filter id="filter0_d" x="0" y="0" width="70.0563" height="78.2593" filterUnits="userSpaceOnUse" color-interpolation-filters="sRGB">
<feFlood flood-opacity="0" result="BackgroundImageFix"/>
<feColorMatrix in="SourceAlpha" type="matrix" values="0 0 0 0 0 0 0 0 0 0 0 0 0 0 0 0 0 0 127 0"/>
<feOffset dy="5"/>
<feGaussianBlur stdDeviation="10"/>
<feColorMatrix type="matrix" values="0 0 0 0 0 0 0 0 0 0 0 0 0 0 0 0 0 0 0.2 0"/>
<feBlend mode="normal" in2="BackgroundImageFix" result="effect1_dropShadow"/>
<feBlend mode="normal" in="SourceGraphic" in2="effect1_dropShadow" result="shape"/>
</filter>
</defs>
</svg>
