<svg width="84" height="84" viewBox="0 0 84 84" fill="none" xmlns="http://www.w3.org/2000/svg">
<path d="M39.3487 72.5895C39.0932 71.9767 38.4797 71.5726 37.8159 71.5776C37.125 71.5828 36.5063 72.0404 36.282 72.6902C36.0564 73.344 36.2855 74.1002 36.8359 74.519C37.379 74.9323 38.1354 74.9671 38.7126 74.6027C39.3804 74.1809 39.6468 73.3171 39.3487 72.5895Z" fill="#222222"/>
<path d="M66.6512 62.487C61.0655 62.487 56.5211 57.9426 56.5211 52.357C56.5211 46.7713 61.0655 42.2269 66.6512 42.2269C72.2368 42.2269 76.7812 46.7713 76.7812 52.357C76.7812 57.9426 72.2368 62.487 66.6512 62.487ZM66.6512 45.5083C62.8748 45.5083 59.8024 48.5807 59.8024 52.3571C59.8024 56.1335 62.8748 59.2059 66.6512 59.2059C70.4277 59.2059 73.4999 56.1335 73.4999 52.3571C73.4999 48.5807 70.4275 45.5083 66.6512 45.5083Z" fill="#6ACA1E"/>
<path d="M27.4788 26.4911C27.4788 20.9055 22.9345 16.3611 17.3488 16.3611C11.7631 16.3611 7.21875 20.9055 7.21875 26.4911C7.21875 32.0768 11.7631 36.6212 17.3488 36.6212C22.9345 36.621 27.4788 32.0766 27.4788 26.4911ZM10.5 26.4911C10.5 22.7147 13.5724 19.6423 17.3488 19.6423C21.1253 19.6423 24.1976 22.7147 24.1976 26.4911C24.1976 30.2675 21.1252 33.3399 17.3488 33.3399C13.5724 33.3397 10.5 30.2675 10.5 26.4911Z" fill="#6ACA1E"/>
<path d="M66.6513 35.0082C57.0851 35.0082 49.3025 42.7908 49.3025 52.357C49.3025 59.9903 54.3135 66.7277 61.5616 68.9468L63.4517 71.5767H45.2209C44.3148 71.5767 43.5803 72.3112 43.5803 73.2174C43.5803 74.1235 44.3148 74.858 45.2209 74.858H66.6513C67.531 74.858 67.981 74.1786 67.9923 74.1625L71.741 68.9466C78.9891 66.7277 84.0001 59.9903 84.0001 52.357C84.0001 42.7908 76.2174 35.0082 66.6513 35.0082ZM70.3146 65.943C69.9493 66.0413 69.6292 66.2627 69.4085 66.5699L66.6515 70.406L63.8942 66.57C63.6736 66.2627 63.3533 66.0414 62.9881 65.9431C56.8623 64.296 52.5839 58.7091 52.5839 52.357C52.5839 44.6001 58.8946 38.2894 66.6515 38.2894C74.4083 38.2894 80.7188 44.6001 80.7188 52.357C80.7188 58.709 76.4404 64.296 70.3146 65.943Z" fill="#222222"/>
<path d="M37.9071 45.7106H20.5483L22.4385 43.0807C29.6866 40.8618 34.6976 34.1244 34.6976 26.4909C34.6976 16.9247 26.9149 9.14209 17.3488 9.14209C7.78263 9.14209 0 16.9247 0 26.4909C0 34.1242 5.01096 40.8616 12.2591 43.0807L16.0077 48.2966C16.0191 48.3127 16.5006 48.9921 17.3488 48.9921H37.9073C40.4393 48.9921 42.4992 51.052 42.4992 53.5842C42.4992 56.1161 40.4393 58.1761 37.9073 58.1761H12.4356C7.83644 58.1761 4.09467 61.9179 4.09467 66.517C4.09467 71.1164 7.83644 74.858 12.4356 74.858H30.3877C31.2938 74.858 32.0283 74.1235 32.0283 73.2174C32.0283 72.3112 31.2938 71.5767 30.3877 71.5767H12.4356C9.64573 71.5767 7.37592 69.3069 7.37592 66.517C7.37592 63.7272 9.64573 61.4573 12.4356 61.4573H37.9071C42.2484 61.4573 45.7803 57.9254 45.7803 53.5842C45.7803 49.2429 42.2486 45.7106 37.9071 45.7106ZM13.6854 40.0771C7.55967 38.4299 3.28125 32.843 3.28125 26.4909C3.28125 18.734 9.59192 12.4233 17.3488 12.4233C25.1057 12.4233 31.4163 18.734 31.4163 26.4909C31.4163 32.843 27.1379 38.4299 21.0121 40.0771C20.6468 40.1753 20.3267 40.3968 20.106 40.7039L17.349 44.54L14.5916 40.7039C14.3709 40.3967 14.0508 40.1753 13.6854 40.0771Z" fill="#222222"/>
</svg>
