<svg width="31" height="39" viewBox="0 0 31 39" fill="none" xmlns="http://www.w3.org/2000/svg">
<mask id="path-1-outside-1" maskUnits="userSpaceOnUse" x="0" y="0" width="31" height="39" fill="black">
<rect fill="white" width="31" height="39"/>
<path fill-rule="evenodd" clip-rule="evenodd" d="M15.0282 36.2593C15.0282 36.2593 28.0563 22.2234 28.0563 15.0282C28.0563 7.83291 22.2234 2 15.0282 2C7.83291 2 2 7.83291 2 15.0282C2 22.2234 15.0282 36.2593 15.0282 36.2593ZM15.1057 19C18.1432 19 20.6057 16.7614 20.6057 14C20.6057 11.2386 18.1432 9 15.1057 9C12.0681 9 9.60565 11.2386 9.60565 14C9.60565 16.7614 12.0681 19 15.1057 19Z"/>
</mask>
<path fill-rule="evenodd" clip-rule="evenodd" d="M15.0282 36.2593C15.0282 36.2593 28.0563 22.2234 28.0563 15.0282C28.0563 7.83291 22.2234 2 15.0282 2C7.83291 2 2 7.83291 2 15.0282C2 22.2234 15.0282 36.2593 15.0282 36.2593ZM15.1057 19C18.1432 19 20.6057 16.7614 20.6057 14C20.6057 11.2386 18.1432 9 15.1057 9C12.0681 9 9.60565 11.2386 9.60565 14C9.60565 16.7614 12.0681 19 15.1057 19Z" fill="white"/>
<path d="M15.0282 36.2593L13.5623 37.6199C13.9408 38.0276 14.4719 38.2593 15.0282 38.2593C15.5844 38.2593 16.1156 38.0276 16.494 37.6199L15.0282 36.2593ZM26.0563 15.0282C26.0563 16.3211 25.4377 18.1877 24.2497 20.4517C23.0944 22.6535 21.5313 24.9911 19.9337 27.1535C18.3415 29.3085 16.7448 31.2495 15.5438 32.6539C14.9442 33.3551 14.4454 33.9199 14.098 34.3079C13.9243 34.5019 13.7886 34.6515 13.6972 34.7517C13.6515 34.8018 13.6169 34.8395 13.5941 34.8642C13.5827 34.8765 13.5743 34.8856 13.569 34.8914C13.5663 34.8943 13.5644 34.8963 13.5633 34.8976C13.5628 34.8982 13.5624 34.8986 13.5622 34.8987C13.5621 34.8988 13.5622 34.8988 13.5621 34.8988C13.5622 34.8988 13.5623 34.8986 15.0282 36.2593C16.494 37.6199 16.4942 37.6196 16.4945 37.6193C16.4947 37.6192 16.495 37.6188 16.4953 37.6185C16.4959 37.6178 16.4967 37.6169 16.4978 37.6158C16.4998 37.6136 16.5026 37.6106 16.5062 37.6067C16.5134 37.5989 16.5237 37.5878 16.537 37.5734C16.5635 37.5445 16.6021 37.5025 16.6518 37.4481C16.7512 37.3391 16.8954 37.1802 17.078 36.9763C17.443 36.5686 17.962 35.9807 18.5838 35.2536C19.8256 33.8014 21.486 31.7838 23.1508 29.5304C24.8103 27.2844 26.5042 24.764 27.7917 22.3103C29.0465 19.919 30.0563 17.3329 30.0563 15.0282H26.0563ZM15.0282 4C21.1189 4 26.0563 8.93748 26.0563 15.0282H30.0563C30.0563 6.72834 23.328 0 15.0282 0V4ZM4 15.0282C4 8.93748 8.93748 4 15.0282 4V0C6.72834 0 0 6.72834 0 15.0282H4ZM15.0282 36.2593C16.494 34.8986 16.4941 34.8988 16.4942 34.8988C16.4942 34.8988 16.4942 34.8988 16.4941 34.8987C16.4939 34.8986 16.4936 34.8982 16.493 34.8976C16.4919 34.8963 16.49 34.8943 16.4873 34.8914C16.482 34.8856 16.4736 34.8765 16.4622 34.8642C16.4395 34.8395 16.4049 34.8018 16.3591 34.7517C16.2677 34.6515 16.132 34.5019 15.9583 34.3079C15.6109 33.9199 15.1121 33.3551 14.5125 32.6539C13.3115 31.2495 11.7148 29.3085 10.1227 27.1535C8.52507 24.9911 6.96195 22.6535 5.80665 20.4517C4.61864 18.1877 4 16.3211 4 15.0282H0C0 17.3329 1.00988 19.919 2.26465 22.3103C3.55214 24.764 5.24605 27.2844 6.9055 29.5304C8.57037 31.7838 10.2307 33.8014 11.4725 35.2536C12.0943 35.9807 12.6133 36.5686 12.9784 36.9763C13.161 37.1802 13.3051 37.3391 13.4046 37.4481C13.4543 37.5025 13.4928 37.5445 13.5194 37.5734C13.5326 37.5878 13.5429 37.5989 13.5501 37.6067C13.5537 37.6106 13.5565 37.6136 13.5586 37.6158C13.5596 37.6169 13.5604 37.6178 13.561 37.6185C13.5614 37.6188 13.5617 37.6192 13.5618 37.6193C13.5621 37.6196 13.5623 37.6199 15.0282 36.2593ZM18.6057 14C18.6057 15.4817 17.2223 17 15.1057 17V21C19.0641 21 22.6057 18.0411 22.6057 14H18.6057ZM15.1057 11C17.2223 11 18.6057 12.5183 18.6057 14H22.6057C22.6057 9.9589 19.0641 7 15.1057 7V11ZM11.6057 14C11.6057 12.5183 12.989 11 15.1057 11V7C11.1472 7 7.60565 9.9589 7.60565 14H11.6057ZM15.1057 17C12.989 17 11.6057 15.4817 11.6057 14H7.60565C7.60565 18.0411 11.1472 21 15.1057 21V17Z" fill="#6ACA1E" mask="url(#path-1-outside-1)"/>
</svg>
