<svg width="26" height="26" viewBox="0 0 26 26" fill="none" xmlns="http://www.w3.org/2000/svg">
<g clip-path="url(#clip0)">
<path d="M12.7218 20.355H14.2754C14.2754 20.355 14.7451 20.303 14.984 20.0446C15.205 19.8073 15.1969 19.3621 15.1969 19.3621C15.1969 19.3621 15.166 17.277 16.1345 16.9699C17.0885 16.6676 18.3138 18.985 19.6123 19.8772C20.5939 20.5516 21.3398 20.4038 21.3398 20.4038L24.8127 20.355C24.8127 20.355 26.6296 20.2429 25.7683 18.8144C25.6984 18.6974 25.2661 17.7581 23.1859 15.8274C21.0083 13.8058 21.3008 14.134 23.9237 10.6384C25.5212 8.5095 26.1599 7.2094 25.96 6.65361C25.7699 6.12382 24.5949 6.26358 24.5949 6.26358L20.6881 6.28633C20.6881 6.28633 20.3989 6.24733 20.1827 6.37572C19.9731 6.50248 19.8382 6.795 19.8382 6.795C19.8382 6.795 19.219 8.44287 18.3935 9.84372C16.653 12.7998 15.9558 12.9558 15.6714 12.7722C15.01 12.3448 15.1757 11.0528 15.1757 10.1362C15.1757 7.27116 15.6096 6.07669 14.329 5.76792C13.9033 5.66554 13.5912 5.59728 12.504 5.58591C11.1097 5.57128 9.92822 5.59078 9.26029 5.91743C8.81501 6.1352 8.47211 6.62111 8.68175 6.64874C8.94014 6.68286 9.52519 6.80637 9.83558 7.2289C10.237 7.77332 10.2224 8.99866 10.2224 8.99866C10.2224 8.99866 10.4531 12.3708 9.68445 12.7901C9.15628 13.0777 8.43311 12.491 6.88112 9.80797C6.08643 8.43474 5.48514 6.91526 5.48514 6.91526C5.48514 6.91526 5.36976 6.63249 5.16337 6.48135C4.9131 6.29771 4.56207 6.23921 4.56207 6.23921L0.84705 6.26196C0.84705 6.26196 0.289634 6.27821 0.084869 6.52035C-0.0971443 6.73649 0.0702429 7.18178 0.0702429 7.18178C0.0702429 7.18178 2.97921 13.9862 6.2717 17.4168C9.29279 20.5614 12.7218 20.355 12.7218 20.355Z" fill="#1E88E5"/>
</g>
<defs>
<clipPath id="clip0">
<rect width="26" height="26" fill="white"/>
</clipPath>
</defs>
</svg>
