<svg width="81" height="85" viewBox="0 0 81 85" fill="none" xmlns="http://www.w3.org/2000/svg">
<line x1="18.5" y1="64" x2="18.5" y2="40" stroke="#6ACA1E" stroke-width="3"/>
<path d="M78.25 76C78.25 76.0582 78.2316 76.2637 77.8927 76.6364C77.5448 77.0189 76.9487 77.472 76.0347 77.9582C74.2097 78.929 71.4537 79.8571 67.9001 80.6566C60.8212 82.2494 50.9561 83.25 40 83.25C29.0439 83.25 19.1788 82.2494 12.0999 80.6566C8.54626 79.8571 5.79025 78.929 3.96528 77.9582C3.05129 77.472 2.45525 77.0189 2.10731 76.6364C1.76841 76.2637 1.75 76.0582 1.75 76C1.75 75.9418 1.76841 75.7363 2.10731 75.3636C2.45525 74.9811 3.05129 74.528 3.96528 74.0418C5.79025 73.071 8.54626 72.1429 12.0999 71.3434C19.1788 69.7506 29.0439 68.75 40 68.75C50.9561 68.75 60.8212 69.7506 67.9001 71.3434C71.4537 72.1429 74.2097 73.071 76.0347 74.0418C76.9487 74.528 77.5448 74.9811 77.8927 75.3636C78.2316 75.7363 78.25 75.9418 78.25 76Z" stroke="#222222" stroke-width="3.5"/>
<line x1="39.5" y1="78" x2="39.5" y2="59" stroke="#6ACA1E" stroke-width="3"/>
<path d="M78.25 9C78.25 9.05817 78.2316 9.26373 77.8927 9.63637C77.5448 10.0189 76.9487 10.472 76.0347 10.9582C74.2097 11.929 71.4537 12.8571 67.9001 13.6566C60.8212 15.2494 50.9561 16.25 40 16.25C29.0439 16.25 19.1788 15.2494 12.0999 13.6566C8.54626 12.8571 5.79025 11.929 3.96528 10.9582C3.05129 10.472 2.45525 10.0189 2.10731 9.63637C1.76841 9.26373 1.75 9.05817 1.75 9C1.75 8.94183 1.76841 8.73627 2.10731 8.36363C2.45525 7.98106 3.05129 7.528 3.96528 7.04179C5.79025 6.07098 8.54626 5.14292 12.0999 4.34336C19.1788 2.7506 29.0439 1.75 40 1.75C50.9561 1.75 60.8212 2.7506 67.9001 4.34336C71.4537 5.14292 74.2097 6.07098 76.0347 7.04179C76.9487 7.528 77.5448 7.98106 77.8927 8.36363C78.2316 8.73627 78.25 8.94183 78.25 9Z" stroke="#222222" stroke-width="3.5"/>
<path d="M78.25 42C78.25 42.0582 78.2316 42.2637 77.8927 42.6364C77.5448 43.0189 76.9487 43.472 76.0347 43.9582C74.2097 44.929 71.4537 45.8571 67.9001 46.6566C60.8212 48.2494 50.9561 49.25 40 49.25C29.0439 49.25 19.1788 48.2494 12.0999 46.6566C8.54626 45.8571 5.79025 44.929 3.96528 43.9582C3.05129 43.472 2.45525 43.0189 2.10731 42.6364C1.76841 42.2637 1.75 42.0582 1.75 42C1.75 41.9418 1.76841 41.7363 2.10731 41.3636C2.45525 40.9811 3.05129 40.528 3.96528 40.0418C5.79025 39.071 8.54626 38.1429 12.0999 37.3434C19.1788 35.7506 29.0439 34.75 40 34.75C50.9561 34.75 60.8212 35.7506 67.9001 37.3434C71.4537 38.1429 74.2097 39.071 76.0347 40.0418C76.9487 40.528 77.5448 40.9811 77.8927 41.3636C78.2316 41.7363 78.25 41.9418 78.25 42Z" stroke="#222222" stroke-width="3.5"/>
<line x1="58.5" y1="44" x2="58.5" y2="27" stroke="#6ACA1E" stroke-width="3"/>
<line x1="1.75" y1="9" x2="1.75" y2="76" stroke="#222222" stroke-width="3.5"/>
<line x1="78.75" y1="9" x2="78.75" y2="76" stroke="#222222" stroke-width="3.5"/>
<line x1="27.25" y1="82" x2="27.25" y2="49" stroke="#222222" stroke-width="3.5"/>
<line x1="50.25" y1="82" x2="50.25" y2="49" stroke="#222222" stroke-width="3.5"/>
<path d="M18.5 32L24.1292 41.75H12.8708L18.5 32Z" fill="#6ACA1E"/>
<path d="M58.5 18L64.1292 27.75H52.8708L58.5 18Z" fill="#6ACA1E"/>
<path d="M39.5 54L45.1292 63.75H33.8708L39.5 54Z" fill="#6ACA1E"/>
</svg>
