<svg width="84" height="75" viewBox="0 0 84 75" fill="none" xmlns="http://www.w3.org/2000/svg">
<g clip-path="url(#clip0)">
<g filter="url(#filter0_d)">
<path fill-rule="evenodd" clip-rule="evenodd" d="M42 52.5818C51.3186 52.5818 58.8727 45.3817 58.8727 36.5C58.8727 27.6183 51.3186 20.4182 42 20.4182C32.6814 20.4182 25.1273 27.6183 25.1273 36.5C25.1273 45.3817 32.6814 52.5818 42 52.5818ZM42 67C59.6731 67 74 53.3447 74 36.5C74 19.6553 59.6731 6 42 6C24.3269 6 10 19.6553 10 36.5C10 53.3447 24.3269 67 42 67Z" fill="white"/>
</g>
</g>
<defs>
<filter id="filter0_d" x="-10" y="-4" width="104" height="101" filterUnits="userSpaceOnUse" color-interpolation-filters="sRGB">
<feFlood flood-opacity="0" result="BackgroundImageFix"/>
<feColorMatrix in="SourceAlpha" type="matrix" values="0 0 0 0 0 0 0 0 0 0 0 0 0 0 0 0 0 0 127 0"/>
<feOffset dy="10"/>
<feGaussianBlur stdDeviation="10"/>
<feColorMatrix type="matrix" values="0 0 0 0 0 0 0 0 0 0 0 0 0 0 0 0 0 0 0.05 0"/>
<feBlend mode="normal" in2="BackgroundImageFix" result="effect1_dropShadow"/>
<feBlend mode="normal" in="SourceGraphic" in2="effect1_dropShadow" result="shape"/>
</filter>
<clipPath id="clip0">
<rect width="84" height="75" fill="white"/>
</clipPath>
</defs>
</svg>
