<svg width="56" height="56" viewBox="0 0 56 56" fill="none" xmlns="http://www.w3.org/2000/svg">
<g clip-path="url(#clip0)">
<path d="M14.0391 40.5729L24.7247 36.224L23.9522 46.0399C23.9346 46.2627 24.0274 46.48 24.2005 46.6213C24.3735 46.763 24.6046 46.8107 24.8195 46.7493L27.5242 45.9756C27.7413 45.9138 27.9137 45.7488 27.9848 45.5347L32.0817 33.1947L37.0348 30.9051C37.6699 30.6119 38.4408 30.2015 39.2213 29.7509C40.3413 29.1123 41.4241 28.4098 42.4638 27.6473L43.9129 26.5505C44.9292 25.7815 45.8323 24.8731 46.5958 23.8521L47.4407 22.723C47.8185 22.2179 47.8798 21.5432 47.5984 20.9786C47.3173 20.4138 46.7418 20.0559 46.1113 20.0533L41.544 20.0328C39.4911 20.0244 37.4725 20.5605 35.694 21.5866L31.2341 24.1615L19.9067 20.3425C19.7164 20.2834 19.51 20.3057 19.3366 20.4046L16.9266 21.8545C16.7291 21.9728 16.6045 22.1821 16.5953 22.412C16.5856 22.6419 16.6925 22.861 16.8798 22.9948L24.1464 28.2536L15.9692 32.9746L9.95869 29.0019C9.74172 28.8586 9.46231 28.8511 9.2381 28.9824L6.87457 30.347C6.70088 30.4473 6.58028 30.6189 6.5445 30.8161C6.50889 31.0136 6.56199 31.2168 6.68933 31.3714L11.644 37.3906L11.5491 37.5347C11.053 38.2866 11.1038 39.274 11.675 39.9709C12.2463 40.6679 13.2042 40.9119 14.0391 40.5729ZM26.8019 44.7619L25.3887 45.1659L26.3214 33.3375L31.37 31.0039L30.9719 32.2021L30.8865 32.2406L30.928 32.3305L26.8019 44.7619ZM18.5135 22.4909L19.7693 21.7351L29.6594 25.0706L25.4413 27.506L18.5135 22.4909ZM13.0177 36.9122L8.25478 31.1258L9.55484 30.3753L15.5681 34.3461C15.7843 34.4886 16.0623 34.497 16.2863 34.3673L36.3763 22.7683C37.8982 21.8916 39.6197 21.4212 41.3759 21.4021L41.7722 21.6641L41.3966 22.2334L39.1724 23.5175L39.8547 24.6993L42.2182 23.3347C42.3102 23.2828 42.3891 23.2103 42.4483 23.123L43.2889 21.8498C43.372 21.7184 43.4071 21.5627 43.3884 21.4085L46.107 21.4211C46.223 21.4207 46.3291 21.486 46.3808 21.59C46.4327 21.6939 46.4209 21.8181 46.3507 21.9105L45.5058 23.0396C44.8188 23.9579 44.0062 24.7752 43.0922 25.4675L41.6431 26.5642C40.0131 27.7523 38.2803 28.792 36.4651 29.6711L32.6717 31.4249L33.1628 29.9462C33.2543 29.686 33.1806 29.3966 32.9758 29.2124C32.7709 29.028 32.4753 28.9852 32.2266 29.1034L25.3857 32.2651C25.1616 32.3687 25.0115 32.585 24.9922 32.8308L24.8471 34.703L13.5256 39.3084C13.2451 39.4222 12.9227 39.3402 12.7307 39.1056C12.5386 38.8715 12.5215 38.5393 12.6883 38.2865L13.0607 37.7222C13.226 37.4721 13.2085 37.1433 13.0177 36.9122Z" fill="#555555"/>
<path d="M36.0051 7.26894C35.2306 6.45854 34.0392 6.20393 33.0012 6.62744C31.9631 7.05095 31.2897 8.06602 31.3031 9.18733C30.6405 9.43487 30.1511 10.0052 30.0069 10.6974C28.9137 11.2247 28.39 12.4884 28.7899 13.6347C29.1895 14.7808 30.3852 15.4445 31.5696 15.1778C31.6995 15.1836 31.8286 15.1521 31.9414 15.0869L39.032 10.9932C39.1368 10.9327 39.222 10.8439 39.278 10.7369C40.0939 9.87539 40.1539 8.54548 39.4186 7.61437C38.683 6.68342 37.3756 6.43308 36.3486 7.02758C36.2271 7.09771 36.1121 7.17834 36.0051 7.26894ZM38.4289 8.58395C38.6724 9.00502 38.5853 9.53921 38.2214 9.86166C38.2016 9.87927 38.1831 9.89799 38.1654 9.91786L31.4441 13.7984C31.418 13.8038 31.392 13.8108 31.3665 13.8193C30.8679 13.9864 30.3237 13.7482 30.1081 13.2687C29.8923 12.789 30.0754 12.2239 30.5311 11.962C30.6181 11.914 30.7119 11.8799 30.8087 11.8598C31.1324 11.7833 31.3536 11.4848 31.3327 11.1529C31.3227 10.961 31.3937 10.7734 31.5284 10.6356C31.663 10.4983 31.849 10.4233 32.0411 10.4289C32.2634 10.4402 32.4771 10.3426 32.6141 10.1673C32.751 9.99209 32.7937 9.76087 32.7287 9.54834C32.5336 8.8466 32.9256 8.1156 33.618 7.8897C34.3104 7.66381 35.0578 8.02284 35.3141 8.70464C35.4087 8.97434 35.6611 9.15636 35.9466 9.16116C36.2326 9.16609 36.4908 8.99237 36.5944 8.726C36.7325 8.35621 37.0728 8.10011 37.4663 8.06947C37.8599 8.03883 38.2355 8.23972 38.4289 8.58395Z" fill="#555555"/>
<path d="M39.2002 39.2584C39.0788 39.3285 38.9638 39.4092 38.8568 39.4998C38.0823 38.6894 36.8909 38.4348 35.8528 38.8583C34.8148 39.2818 34.1414 40.2969 34.1548 41.4182C33.4922 41.6657 33.0028 42.236 32.8585 42.9282C31.7654 43.4555 31.2417 44.7192 31.6415 45.8656C32.0412 47.0116 33.2369 47.6754 34.4212 47.4086C34.5511 47.4144 34.6803 47.3829 34.7931 47.3178L41.8837 43.224C41.9884 43.1635 42.0737 43.0747 42.1297 42.9677C42.9456 42.1062 43.0056 40.7763 42.2703 39.8452C41.5347 38.9143 40.2273 38.6639 39.2002 39.2584ZM41.0731 42.0925C41.0532 42.1101 41.0348 42.1288 41.017 42.1487L34.2958 46.0292C34.2697 46.0347 34.2437 46.0416 34.2182 46.0502C33.7196 46.2173 33.1754 45.979 32.9597 45.4996C32.7439 45.0198 32.927 44.4548 33.3828 44.1928C33.4698 44.1449 33.5636 44.1107 33.6604 44.0906C33.9841 44.0142 34.2052 43.7156 34.1844 43.3838C34.1744 43.1918 34.2452 43.004 34.3796 42.8664C34.5145 42.7288 34.7005 42.6538 34.8928 42.6597C35.1151 42.671 35.3288 42.5734 35.4658 42.3982C35.6027 42.2229 35.6454 41.9917 35.5804 41.7792C35.3853 41.0774 35.7772 40.3464 36.4697 40.1205C37.1621 39.8946 37.9095 40.2537 38.1658 40.9355C38.2603 41.2052 38.5128 41.3872 38.7983 41.392C39.0843 41.3969 39.3425 41.2232 39.4461 40.9568C39.5969 40.5578 39.9797 40.294 40.4064 40.2954C40.8333 40.2967 41.2142 40.5626 41.3626 40.9628C41.5112 41.3629 41.3957 41.8131 41.0731 42.0925Z" fill="#555555"/>
<path d="M10.323 17.3694C9.54851 16.559 8.35708 16.3044 7.31904 16.7279C6.281 17.1514 5.60758 18.1665 5.621 19.2878C4.95821 19.535 4.46884 20.1053 4.32474 20.7979C3.23158 21.3251 2.70786 22.5889 3.10772 23.7352C3.50741 24.8812 4.70311 25.545 5.88743 25.2782C6.01733 25.284 6.14649 25.2525 6.2593 25.1874L13.3499 21.0936C13.4546 21.0332 13.5399 20.9443 13.5959 20.8374C14.4118 19.9759 14.4718 18.6459 13.7365 17.7148C13.0009 16.7839 11.6935 16.5335 10.6664 17.128C10.545 17.1982 10.4299 17.2788 10.323 17.3694ZM12.7468 18.6844C12.9903 19.1055 12.9032 19.6397 12.5393 19.9621C12.5194 19.9797 12.501 19.9985 12.4832 20.0183L5.76194 23.8989C5.73585 23.9043 5.71014 23.9111 5.68497 23.9195C5.18633 24.0866 4.64233 23.8486 4.42668 23.3691C4.21074 22.8899 4.39339 22.3247 4.84901 22.0624C4.93598 22.0145 5.02976 21.9804 5.12661 21.9602C5.45024 21.8838 5.67143 21.5853 5.65062 21.2534C5.64059 21.0614 5.71141 20.8736 5.84584 20.736C5.98072 20.5985 6.16667 20.5234 6.35897 20.5294C6.5813 20.5406 6.795 20.443 6.93194 20.2678C7.06889 20.0926 7.11158 19.8613 7.04658 19.6488C6.85147 18.9471 7.24343 18.2161 7.93586 17.9902C8.62829 17.7643 9.37568 18.1233 9.63198 18.8051C9.72653 19.0748 9.97896 19.2568 10.2645 19.2616C10.5505 19.2666 10.8087 19.0928 10.9123 18.8265C11.0504 18.4567 11.3907 18.2006 11.7842 18.1699C12.1778 18.1393 12.5534 18.3402 12.7468 18.6844Z" fill="#555555"/>
</g>
<defs>
<clipPath id="clip0">
<rect x="0.379517" y="20.4612" width="40.6373" height="40.6373" transform="rotate(-30 0.379517 20.4612)" fill="white"/>
</clipPath>
</defs>
</svg>
