<svg width="44" height="44" viewBox="0 0 44 44" fill="none" xmlns="http://www.w3.org/2000/svg">
<path d="M30.9375 37.125C31.1198 37.125 31.2947 37.1974 31.4236 37.3264C31.5526 37.4553 31.625 37.6302 31.625 37.8125V41.9375C31.625 42.1198 31.5526 42.2947 31.4236 42.4236C31.2947 42.5526 31.1198 42.625 30.9375 42.625H26.8125C26.6302 42.625 26.4553 42.5526 26.3264 42.4236C26.1974 42.2947 26.125 42.1198 26.125 41.9375V37.8125C26.125 37.6302 26.1974 37.4553 26.3264 37.3264C26.4553 37.1974 26.6302 37.125 26.8125 37.125H30.9375ZM27.5 41.25H30.25V38.5H27.5V41.25Z" fill="#555555"/>
<path d="M32.3125 30.8254L33.7225 26.5952C33.7681 26.4583 33.8557 26.3392 33.9728 26.2548C34.0899 26.1704 34.2306 26.125 34.375 26.125H37.125C37.2339 26.125 37.3413 26.1508 37.4383 26.2005C37.5352 26.2501 37.619 26.322 37.6828 26.4104C37.7465 26.4987 37.7883 26.601 37.8047 26.7087C37.8212 26.8163 37.8118 26.9264 37.7774 27.0298L35.0274 35.2798C34.9818 35.4167 34.8942 35.5358 34.7771 35.6202C34.66 35.7046 34.5193 35.75 34.375 35.75H23.375C23.2306 35.75 23.0899 35.7046 22.9728 35.6202C22.8557 35.5358 22.7681 35.4167 22.7225 35.2798L19.9725 27.0298C19.9381 26.9264 19.9287 26.8163 19.9452 26.7087C19.9616 26.601 20.0034 26.4987 20.0672 26.4104C20.1309 26.322 20.2147 26.2501 20.3117 26.2005C20.4086 26.1508 20.516 26.125 20.625 26.125H23.375C23.5193 26.125 23.66 26.1704 23.7771 26.2548C23.8942 26.3392 23.9818 26.4583 24.0274 26.5952L25.4375 30.8254V13.0625C25.4375 12.8802 25.5099 12.7053 25.6388 12.5764C25.7678 12.4474 25.9426 12.375 26.125 12.375H31.625C31.8073 12.375 31.9822 12.4474 32.1111 12.5764C32.24 12.7053 32.3125 12.8802 32.3125 13.0625V30.8254ZM33.8793 34.375L36.1714 27.5H34.8706L32.5785 34.375H33.8793ZM22.8793 27.5H21.5785L23.8706 34.375H25.1714L22.8793 27.5ZM28.1875 13.75H26.8125V15.125H28.1875V13.75ZM28.1875 16.5H26.8125V23.375H28.1875V16.5ZM30.9375 13.75H29.5625V15.125H30.9375V13.75ZM30.9375 16.5H29.5625V23.375H30.9375V16.5ZM30.9375 24.75H26.8125V27.5H30.9375V24.75ZM30.9375 28.875H26.8125V30.25H30.9375V28.875ZM30.9375 31.625H26.8125V34.375H28.1875V33H29.5625V34.375H30.9375V31.625Z" fill="#555555"/>
<path d="M14.4375 32.3125C14.6198 32.3125 14.7947 32.3849 14.9236 32.5139C15.0526 32.6428 15.125 32.8177 15.125 33V37.125C15.125 37.3073 15.0526 37.4822 14.9236 37.6111C14.7947 37.7401 14.6198 37.8125 14.4375 37.8125H10.3125C10.1302 37.8125 9.95529 37.7401 9.82636 37.6111C9.69743 37.4822 9.625 37.3073 9.625 37.125V33C9.625 32.8177 9.69743 32.6428 9.82636 32.5139C9.95529 32.3849 10.1302 32.3125 10.3125 32.3125H14.4375ZM11 36.4375H13.75V33.6875H11V36.4375Z" fill="#555555"/>
<path d="M17.875 21.3125C18.0573 21.3125 18.2322 21.3849 18.3611 21.5139C18.4901 21.6428 18.5625 21.8177 18.5625 22V28.875C18.5625 29.422 18.3452 29.9466 17.9584 30.3334C17.5716 30.7202 17.047 30.9375 16.5 30.9375H8.25C7.70299 30.9375 7.17839 30.7202 6.79159 30.3334C6.4048 29.9466 6.1875 29.422 6.1875 28.875V22C6.1875 21.8177 6.25993 21.6428 6.38886 21.5139C6.51779 21.3849 6.69266 21.3125 6.875 21.3125H8.9375V19.3064L7.57419 11.1251L6.88669 7.69725C6.86672 7.59738 6.8692 7.49432 6.89394 7.39552C6.91868 7.29672 6.96506 7.20465 7.02973 7.12596C7.0944 7.04728 7.17574 6.98395 7.26788 6.94055C7.36002 6.89715 7.46065 6.87476 7.5625 6.875H10.3125C10.471 6.87497 10.6246 6.9297 10.7474 7.02992C10.8702 7.13015 10.9546 7.26971 10.9862 7.425L11.6737 10.8625C11.6737 10.8625 11.6737 10.8694 11.6737 10.8728C11.6737 10.8763 11.6772 10.8804 11.6779 10.8845L12.375 15.0686L13.0721 10.8873C13.0721 10.8831 13.0721 10.8797 13.0763 10.8756L13.7638 7.42775C13.7949 7.27196 13.879 7.13176 14.0019 7.03099C14.1247 6.93022 14.2786 6.8751 14.4375 6.875H17.1875C17.2895 6.87498 17.3901 6.89764 17.4823 6.94133C17.5744 6.98503 17.6556 7.04866 17.7201 7.12763C17.7846 7.2066 17.8307 7.29893 17.8552 7.39793C17.8796 7.49692 17.8816 7.6001 17.8612 7.7L17.1737 11.1279L15.8125 19.3064V21.3125H17.875ZM15.8125 29.5625H16.5C16.6823 29.5625 16.8572 29.4901 16.9861 29.3611C17.1151 29.2322 17.1875 29.0573 17.1875 28.875V22.6875H15.8125V29.5625ZM10.3125 29.5625H11.6875V28.1875H13.0625V29.5625H14.4375V26.8125H10.3125V29.5625ZM10.3125 25.4375H14.4375V24.0625H10.3125V25.4375ZM7.5625 22.6875V28.875C7.5625 29.0573 7.63493 29.2322 7.76386 29.3611C7.89279 29.4901 8.06766 29.5625 8.25 29.5625H8.9375V22.6875H7.5625ZM9.74875 8.25H8.40125L8.81375 10.3125H10.1612L9.74875 8.25ZM10.4177 11.6875H9.06194L10.2073 18.5625H11.5631L10.4177 11.6875ZM10.3125 19.9375V22.6875H14.4375V19.9375H10.3125ZM14.3323 11.6875L13.1869 18.5625H14.5427L15.6881 11.6875H14.3323ZM15.9363 10.3125L16.3487 8.25H15.0012L14.5888 10.3125H15.9363Z" fill="#555555"/>
<path d="M28.1875 2.75H29.5625V9.625H28.1875V2.75Z" fill="#555555"/>
<path d="M30.9375 1.375H32.3125V8.25H30.9375V1.375Z" fill="#555555"/>
<path d="M25.4375 1.375H26.8125V8.25H25.4375V1.375Z" fill="#555555"/>
<path d="M11.6875 2.0625H13.0625V6.1875H11.6875V2.0625Z" fill="#555555"/>
<path d="M14.4375 1.375H15.8125V4.8125H14.4375V1.375Z" fill="#555555"/>
<path d="M8.9375 1.375H10.3125V4.8125H8.9375V1.375Z" fill="#555555"/>
<path d="M41.9375 11.6875H33.6875C33.5052 11.6875 33.3303 11.615 33.2014 11.4861C33.0724 11.3572 33 11.1823 33 11V10.4108C33 8.6281 34.0752 7.97704 35.0164 7.95573C35.2228 7.39424 35.6086 6.91656 36.1142 6.59683C36.6198 6.2771 37.2168 6.13321 37.8125 6.18747C38.404 6.16639 38.9882 6.32375 39.489 6.63911C39.9899 6.95446 40.3843 7.41322 40.6209 7.95573C41.767 7.9901 42.625 9.03441 42.625 10.4108V11C42.625 11.1823 42.5526 11.3572 42.4236 11.4861C42.2947 11.615 42.1198 11.6875 41.9375 11.6875ZM40.5625 9.33004H40.1039C39.943 9.3299 39.7873 9.27334 39.6638 9.17021C39.5403 9.06707 39.4569 8.92389 39.4281 8.7656C39.3526 8.40214 39.1465 8.07897 38.8488 7.85726C38.551 7.63554 38.1824 7.53066 37.8125 7.56248C37.6236 7.53218 37.4305 7.54069 37.245 7.58747C37.0595 7.63425 36.8855 7.71832 36.7335 7.83457C36.5816 7.95081 36.4549 8.09679 36.3612 8.26359C36.2675 8.4304 36.2088 8.61454 36.1886 8.80479C36.1523 8.95447 36.0667 9.0876 35.9457 9.18284C35.8246 9.27809 35.6751 9.32992 35.5211 9.33004H35.0625C34.5317 9.33004 34.3922 9.84292 34.375 10.3125H41.25C41.2177 9.74598 40.9338 9.33004 40.5625 9.33004Z" fill="#555555"/>
<path d="M3.39144 38.8932C3.59775 38.3317 3.98365 37.8541 4.48922 37.5343C4.9948 37.2146 5.59178 37.0707 6.1875 37.125C6.779 37.1039 7.36316 37.2613 7.86402 37.5766C8.36489 37.892 8.75929 38.3507 8.99594 38.8932C10.142 38.9276 11 39.9719 11 41.3483V41.9375C11 42.1198 10.9276 42.2947 10.7986 42.4236C10.6697 42.5526 10.4948 42.625 10.3125 42.625H2.0625C1.88016 42.625 1.70529 42.5526 1.57636 42.4236C1.44743 42.2947 1.375 42.1198 1.375 41.9375V41.3483C1.375 39.5656 2.45025 38.9125 3.39144 38.8932ZM9.625 41.25C9.59544 40.6835 9.3115 40.2675 8.9375 40.2675H8.47894C8.31805 40.2674 8.1623 40.2108 8.03881 40.1077C7.91533 40.0046 7.83192 39.8614 7.80312 39.7031C7.72762 39.3396 7.5215 39.0165 7.22377 38.7948C6.92603 38.573 6.55735 38.4682 6.1875 38.5C5.9986 38.4697 5.80551 38.4782 5.62 38.525C5.4345 38.5717 5.26046 38.6558 5.10852 38.7721C4.95657 38.8883 4.82989 39.0343 4.73621 39.2011C4.64253 39.3679 4.58381 39.552 4.56363 39.7423C4.52728 39.892 4.44171 40.0251 4.32066 40.1203C4.19962 40.2156 4.05009 40.2674 3.89606 40.2675H3.4375C2.90675 40.2675 2.76719 40.7804 2.75 41.25H9.625Z" fill="#555555"/>
</svg>
