<svg width="40" height="40" viewBox="0 0 40 40" fill="none" xmlns="http://www.w3.org/2000/svg">
<path d="M33.8556 16.9953C33.2214 17.2929 33.1379 16.4726 32.7093 16.3408C31.6883 16.1281 31.7023 17.2967 32.2568 17.7677C32.8828 18.4373 34.0832 18.6067 34.7388 17.9164C35.1588 17.3663 34.4392 16.6225 33.8556 16.9953Z" fill="#555555"/>
<path d="M30.7389 11.2644C27.8407 11.6586 29.1418 14.4188 30.3499 12.719C30.49 12.6065 30.6686 12.5534 30.8473 12.5709C31.278 12.593 31.3458 13.0902 31.7507 13.2012C33.6654 13.1181 31.8209 11.0427 30.7389 11.2644Z" fill="#555555"/>
<path d="M37.5087 13.0191C35.3334 11.5307 34.669 14.4905 36.4297 13.9224C36.5319 13.9323 36.585 13.9123 36.6621 14.0269C36.7074 14.3537 36.5006 14.7403 36.8539 14.9958C38.1042 15.7354 38.2916 13.5654 37.5087 13.0191Z" fill="#555555"/>
<path d="M20.0106 31.6883C23.0803 31.0889 25.9102 29.3365 27.8816 26.8113C28.9369 27.1325 29.8655 27.6937 30.6615 28.2414C30.6637 28.2447 30.6657 28.2482 30.668 28.2514C30.2952 29.9711 32.0293 30.9062 33.2585 29.9165C35.1927 28.114 32.9798 24.9443 31.4714 23.7136C34.5232 22.9238 37.2155 20.7074 38.5845 17.8504C41.3232 12.1984 38.7977 5.58759 33.3564 3.00615C26.9204 -0.023936 19.5561 3.70845 17.898 10.2882L15.7461 5.98456C20.4343 1.10992 20.8022 2.24614 16.5616 0.0725802C16.2048 -0.142099 15.7612 0.180245 15.6812 0.258288L11.6394 3.14523C11.3184 3.02543 10.6132 2.50615 10.2389 2.62025C10.2411 2.61976 7.71609 3.25077 7.71242 3.25183H6.03299C6.78014 -0.256925 3.59031 -0.953941 1.47867 1.40273C-1.12197 4.20527 -0.111567 8.14437 3.09991 6.89584L4.3687 9.01024C3.26487 8.87353 2.27505 9.35529 2.05826 10.3074C1.67284 12.4594 4.95976 13.9246 6.49051 12.6796C6.56969 15.8202 5.97782 14.9501 8.21161 16.4662C9.39487 17.3896 9.65422 16.8035 9.98413 15.6629C10.3528 14.557 10.9613 12.7312 10.963 12.7263C10.9652 12.7273 15.5319 15.0108 16.4556 15.4726C16.7312 15.6747 17.1337 15.7201 17.7638 15.1419C18.0617 16.6943 18.6936 18.1635 19.6157 19.4475C16.7244 19.6906 13.1298 20.571 11.6741 21.7362C10.1335 24.1271 13.6218 26.2581 15.0139 23.8857C16.1225 23.9058 17.2278 23.9115 18.3559 23.9264C18.1981 24.2035 18.0007 24.4561 17.77 24.6762C17.4291 25.0038 17.0238 25.2569 16.5799 25.4196C16.0736 25.5909 15.536 25.6495 15.0046 25.5913C14.6431 25.5598 14.2613 25.5059 13.9065 25.6104C12.7002 26.374 11.9873 27.3694 11.9453 28.7652C12.0674 30.8303 14.3477 30.6532 15.163 29.256C15.1704 29.254 15.1774 29.2513 15.1847 29.249C15.6811 29.375 16.2182 29.5317 16.7612 29.6773C15.6556 33.207 19.3427 34.7391 19.9061 31.7606C19.9432 31.74 19.9782 31.7158 20.0106 31.6883ZM25.5903 27.3944C23.4356 26.7384 21.4572 25.6033 19.8036 24.0741C19.8235 24.0429 19.843 24.0128 19.8627 23.9821C20.916 23.653 21.8868 23.1026 22.7101 22.3679C24.0614 23.2219 25.5811 23.7743 27.1654 23.9873L26.9839 25.8407C26.5648 26.3976 26.0985 26.9174 25.5903 27.3944ZM21.4148 19.6021C20.2053 18.286 19.3847 16.6601 19.0442 14.9054C19.6354 14.9936 20.2382 14.9647 20.8183 14.8202C20.9074 17.1575 21.8584 19.3792 23.488 21.0571C23.7278 21.3 23.9814 21.529 24.2474 21.743C23.1802 21.2084 22.22 20.4828 21.4144 19.6021H21.4148ZM32.6834 28.4105C32.6439 28.7484 32.3152 29.1732 31.9819 28.9557C31.9269 28.8441 31.9066 28.7187 31.9235 28.5954C31.9958 28.5432 32.0566 28.4767 32.1021 28.4C32.1477 28.3232 32.1769 28.238 32.1881 28.1495C32.3531 28.0547 32.5118 27.9494 32.6633 27.8341C32.7032 28.0236 32.71 28.2186 32.6834 28.4105ZM32.1717 26.5396C31.9275 26.7796 31.6455 26.9777 31.3369 27.126C30.4824 26.542 29.4825 25.9466 28.3177 25.5833L28.4647 24.0829C28.8828 24.0887 29.301 24.0714 29.7172 24.0309C30.6724 24.6361 31.6612 25.5832 32.1717 26.5396ZM31.0962 22.4687C26.0555 23.0126 22.0271 19.1107 22.1165 14.3002C23.0036 13.812 23.8074 13.078 24.441 12.4329C26.3303 15.7729 30.3475 18.1154 33.3403 15.0193C33.6733 14.7325 33.9122 14.5217 34.0754 14.7145C34.6217 16.7187 34.8597 17.8189 36.8627 18.2663C35.5444 20.349 33.4825 21.8516 31.0962 22.4687ZM27.1809 8.4838C26.4448 8.84448 25.7664 9.31235 25.1677 9.87213C23.9247 8.678 22.4641 7.73351 20.8651 7.08993C21.0395 6.86207 21.2235 6.64218 21.4173 6.43027C23.4308 6.82104 25.3739 7.51334 27.1809 8.4838ZM37.5539 16.9806C36.8174 17.1198 35.9488 16.5788 35.7139 15.8355C35.3011 12.9092 33.7635 12.6047 31.8814 14.5943C29.3078 16.359 26.5891 13.6774 25.3777 11.4749C28.9452 7.53614 34.0772 8.7692 38.0982 10.6354C38.6221 12.6991 38.4394 15.0223 37.5539 16.9806ZM37.5104 8.96313C34.9815 7.85205 31.4551 7.12598 28.7773 7.8986C26.8548 6.73264 24.7628 5.87261 22.5762 5.34931C27.65 1.36692 34.9059 3.31254 37.5104 8.96345V8.96313ZM20.129 8.20125C21.6568 8.77665 23.053 9.65384 24.2344 10.7805C22.9161 12.17 21.0142 14.1903 18.8744 13.533C18.8303 12.6768 18.8971 11.8186 19.073 10.9795C19.2799 10.0047 19.6361 9.06769 20.129 8.20158V8.20125ZM16.3155 1.40533L17.7616 2.12806L14.8531 5.03616L12.8852 3.85551L16.3155 1.40533ZM10.321 3.94185L11.3852 4.47399L14.2053 6.16603L13.9009 7.38396L9.33546 4.18818L10.321 3.94185ZM1.62401 5.74115C0.313804 4.58751 3.03579 0.563136 4.56182 1.44342C5.79935 2.78577 3.02008 6.50424 1.62401 5.74115ZM6.59899 7.28972C7.16051 6.54607 9.24496 7.53614 8.96608 8.36604C8.52598 8.99218 6.44518 8.20581 6.59858 7.28972H6.59899ZM5.7314 11.5836C5.37765 12.2573 3.19025 11.5013 3.3434 10.5449C3.8945 9.82526 5.87943 10.7242 5.7314 11.5836ZM9.77914 12.1604L8.7466 15.2581L7.79258 14.6221V11.1411L9.7876 12.1385C9.78492 12.146 9.78158 12.153 9.77914 12.1604ZM16.8384 14.2083L8.18776 9.88312C10.9281 9.91437 10.8201 7.14787 8.86028 6.15952C6.54211 4.87063 4.23605 6.65594 5.77299 8.67569L5.6488 8.6136L4.20049 6.1994C4.73549 5.73397 5.18305 5.17672 5.52209 4.5539H7.58718C14.3391 9.09488 14.6154 10.3675 15.1586 7.72127L16.9757 11.3554C17.0356 11.4753 17.131 11.5737 17.2489 11.6373C17.3668 11.7009 17.5014 11.7266 17.6345 11.7108C17.5594 12.356 17.5399 13.0065 17.5763 13.655L16.8384 14.2083ZM13.3345 23.6211C12.8188 23.6878 12.432 22.9598 12.6902 22.5558C12.8543 22.4156 13.2674 22.3107 13.5435 22.177C13.5951 22.5343 13.7184 22.8776 13.9061 23.1861C13.8586 23.3032 13.7804 23.4053 13.6799 23.4819C13.5793 23.5584 13.4601 23.6065 13.3345 23.6211ZM17.0987 22.6101C16.4348 22.6035 15.7514 22.5963 15.0691 22.5841C14.8896 22.3295 14.8029 22.0209 14.8237 21.7101C16.7097 21.0932 18.6751 20.7528 20.6587 20.6996C20.9623 21.0137 21.2842 21.3095 21.6229 21.5855C21.0479 22.0539 20.3964 22.4196 19.6971 22.6664C18.8818 22.5974 17.9217 22.6333 17.0983 22.6101H17.0987ZM13.5739 28.9934C12.6136 29.0496 13.8785 27.0373 14.371 26.8607C14.4459 26.8637 14.5235 26.8672 14.6038 26.8712C14.4197 27.2817 14.3202 27.7252 14.3112 28.175C14.0511 28.5947 13.8576 28.879 13.5735 28.9934H13.5739ZM16.4698 28.2469C16.1923 28.1698 15.9088 28.0915 15.6234 28.0176C15.6723 27.5885 15.8544 27.1855 16.1442 26.8653C17.2999 26.6911 18.3471 26.0867 19.0761 25.1732C20.6303 26.5731 22.4402 27.6596 24.4065 28.3731C23.0146 29.3886 21.4169 30.0864 19.7261 30.4174C19.5787 30.2147 19.4922 29.9741 19.4769 29.7239C22.6027 28.4907 21.2672 26.7246 20.3274 27.5578C19.6438 28.327 19.3743 28.6223 17.7438 28.5817C17.3229 28.4839 16.8894 28.3637 16.4694 28.2469H16.4698ZM18.3947 32.0383C17.7312 31.7779 17.7607 30.4695 18.0855 29.8851C18.1196 29.8847 18.1534 29.8842 18.1867 29.8835C18.2298 30.3381 18.39 30.7738 18.6515 31.1481C18.6211 31.4617 18.6473 31.8546 18.3944 32.0383H18.3947Z" fill="#555555"/>
<path d="M12.2684 33.8506C12.1695 33.8506 12.0711 33.8549 11.973 33.8611C11.5524 32.8264 10.8136 31.9523 9.86353 31.3651C9.80876 31.3278 9.78736 31.3162 9.67888 31.2546C10.3083 27.6361 5.78723 25.9432 3.80547 28.7525C3.05849 28.254 2.18014 27.9891 1.28214 27.9912C1.10947 27.9912 0.943881 28.0598 0.821788 28.1819C0.699695 28.304 0.631104 28.4696 0.631104 28.6423V38.4078C0.631104 38.5805 0.699695 38.7461 0.821788 38.8682C0.943881 38.9903 1.10947 39.0589 1.28214 39.0589H16.1746C16.3473 39.0589 16.5129 38.9903 16.6349 38.8682C16.757 38.7461 16.8256 38.5805 16.8256 38.4078C16.8242 37.1996 16.3437 36.0412 15.4893 35.1869C14.635 34.3325 13.4766 33.8519 12.2684 33.8506ZM1.93318 29.3584C3.27114 29.5426 3.76918 30.9529 4.51714 30.1868C5.39604 27.7722 8.49497 28.3632 8.43629 30.7593C6.13968 30.0936 6.18851 31.5894 6.96837 31.8742C10.068 31.8992 12.0565 34.9747 10.5247 37.7567H1.93318V29.3584ZM11.9715 37.7568C12.3035 36.9315 12.4198 36.0353 12.3093 35.1526C13.0524 35.163 13.7696 35.4267 14.3423 35.9003C14.915 36.3739 15.3088 37.0289 15.4585 37.7568H11.9715Z" fill="#555555"/>
<path d="M39.6867 30.543C39.5583 29.7384 38.4372 29.9764 37.7933 29.9601C35.6634 30.0878 33.661 31.0179 32.1894 32.563C31.3191 32.4969 30.4461 32.6508 29.6508 33.0106C28.8556 33.3704 28.1637 33.9245 27.6389 34.622C23.3232 33.6417 21.751 39.0842 23.422 39.0586H38.9502C39.5145 39.083 39.7505 38.6522 39.6932 38.1238C39.6851 36.5406 39.7076 30.7493 39.6867 30.543ZM38.3912 37.7568H24.1507C25.4415 34.4055 28.0689 36.6256 28.4089 35.8022C29.7659 33.7765 30.8896 33.9786 32.794 33.7966C34.267 32.2025 36.2015 31.2043 38.3912 31.2469V37.7568Z" fill="#555555"/>
</svg>
