<svg width="28" height="28" viewBox="0 0 28 28" fill="none" xmlns="http://www.w3.org/2000/svg">
<circle cx="14" cy="14" r="14" fill="white"/>
<g clip-path="url(#clip0)">
<path d="M23.2959 16.5775C23.8926 11.555 23.0092 8.38419 21.4159 6.95002L21.4167 6.94919C18.8451 4.50002 10.1601 4.13752 7.0834 7.05919C5.70173 8.48835 5.21507 10.5859 5.16173 13.1825C5.1084 15.78 5.04507 20.6459 9.57923 21.9659H9.5834L9.57923 23.9817C9.57923 23.9817 9.5484 24.7984 10.0701 24.9625C10.6667 25.1559 10.9367 24.7767 12.7926 22.56C15.8959 22.8292 18.2792 22.2125 18.5501 22.1225C19.1767 21.9125 22.7226 21.4434 23.2959 16.5775ZM13.0984 21.1417C13.0984 21.1417 11.1342 23.5909 10.5234 24.2267C10.3234 24.4334 10.1042 24.4142 10.1076 24.0042C10.1076 23.735 10.1226 20.6575 10.1226 20.6575C6.2784 19.5559 6.50507 15.4125 6.54673 13.245C6.5884 11.0767 6.98507 9.30085 8.15507 8.10502C10.8542 5.57419 18.4684 6.14002 20.4084 7.96335C22.7801 10.0659 21.9359 16.0059 21.9409 16.2084C21.4534 20.27 18.5801 20.5275 18.0517 20.7034C17.8259 20.7784 15.7301 21.3175 13.0984 21.1417Z" fill="#222222"/>
<path d="M14.1851 8.58084C13.8642 8.58084 13.8642 9.08084 14.1851 9.08501C16.6742 9.10417 18.7242 10.8392 18.7467 14.0217C18.7467 14.3575 19.2384 14.3533 19.2343 14.0175H19.2334C19.2068 10.5883 16.9684 8.60001 14.1851 8.58084Z" fill="#222222"/>
<path d="M17.4592 13.4942C17.4517 13.8259 17.9425 13.8417 17.9467 13.5059C17.9875 11.615 16.8217 10.0575 14.6309 9.89336C14.31 9.87003 14.2767 10.3742 14.5967 10.3975C16.4967 10.5417 17.4975 11.8384 17.4592 13.4942Z" fill="#222222"/>
<path d="M16.9343 15.645C16.5226 15.4067 16.1034 15.555 15.9301 15.7892L15.5676 16.2583C15.3834 16.4967 15.0393 16.465 15.0393 16.465C12.5276 15.8008 11.8559 13.1725 11.8559 13.1725C11.8559 13.1725 11.8251 12.8167 12.0551 12.6258L12.5084 12.2508C12.7351 12.0708 12.8784 11.6375 12.6476 11.2117C12.0309 10.0975 11.6168 9.71334 11.4059 9.41834C11.1843 9.14084 10.8509 9.07834 10.5043 9.26584H10.4968C9.77593 9.68751 8.98676 10.4767 9.23926 11.2892C9.6701 12.1458 10.4618 14.8767 12.9851 16.94C14.1709 17.9158 16.0476 18.9158 16.8443 19.1467L16.8518 19.1583C17.6368 19.42 18.4001 18.6 18.8076 17.8575V17.8517C18.9884 17.4925 18.9284 17.1525 18.6643 16.93C18.1959 16.4733 17.4893 15.9692 16.9343 15.645Z" fill="#222222"/>
<path d="M14.9742 11.7533C15.7751 11.8 16.1634 12.2183 16.2051 13.0775C16.2201 13.4133 16.7076 13.39 16.6926 13.0542C16.6392 11.9325 16.0542 11.3075 15.0009 11.2492C14.6801 11.23 14.6501 11.7342 14.9742 11.7533Z" fill="#222222"/>
</g>
<defs>
<clipPath id="clip0">
<rect x="4" y="5" width="20" height="20" fill="white"/>
</clipPath>
</defs>
</svg>
