<svg width="27" height="27" viewBox="0 0 27 27" fill="none" xmlns="http://www.w3.org/2000/svg">
<path d="M1.12716 7.46303C0.836595 7.46303 0.599818 7.69928 0.599818 7.99037C0.599818 8.28094 0.836595 8.51719 1.12716 8.51719C1.41826 8.51719 1.65451 8.28094 1.65451 7.99037C1.65451 7.69928 1.41826 7.46303 1.12716 7.46303Z" fill="white"/>
<path d="M26.6171 6.00846C26.261 5.46783 25.659 5.15395 24.8239 5.07237C24.5069 3.90704 23.1399 3.27829 22.3941 3.27829C22.0522 3.27829 21.437 3.42916 20.8756 3.75448C20.3084 2.86322 19.5888 2.07115 18.7595 1.43248C18.5205 1.24844 16.1476 0 13.457 0C9.51623 0 7.47261 2.0009 7.16385 2.32222C6.70258 1.20134 5.19395 0.694302 4.55792 0.694302C3.8121 0.694302 2.44511 1.323 2.12813 2.48838C1.29308 2.56991 0.691058 2.88379 0.334942 3.42447C-0.349288 4.46334 0.215762 5.8539 0.282419 6.00904C0.365686 6.20273 0.556216 6.32814 0.766943 6.32814H0.76863L4.91314 6.31506C4.81247 6.69143 4.73627 7.07433 4.6839 7.46298H3.2366C2.94604 7.46298 2.70926 7.69923 2.70926 7.99033C2.70926 8.2809 2.94604 8.51715 3.2366 8.51715H4.60143C4.59979 8.59039 4.59837 8.66364 4.59837 8.73726C4.59837 9.97024 4.9356 11.4304 5.57364 12.9598C6.17761 14.4076 7.01155 15.8026 7.92191 16.8877C8.31319 17.3542 8.72431 17.7945 9.14376 18.1966C9.19486 18.2456 9.65771 18.428 9.84213 18.4814C10.0119 18.8927 10.7782 20.8166 10.9199 22.3463C10.6907 22.4037 10.5208 22.6104 10.5208 22.8573V26.4717C10.5208 26.7629 10.7569 26.999 11.0482 26.999H15.8223L15.8563 26.9999C15.8595 27 15.8627 27 15.8659 27C16.0039 27 16.1367 26.9458 16.2354 26.8489C16.3363 26.7498 16.3932 26.6142 16.3932 26.4727V22.8573C16.3932 22.6353 16.2559 22.4456 16.0616 22.3679C16.2011 20.8053 17.0029 18.8151 17.1512 18.4578C17.3385 18.4014 17.7998 18.2128 17.8493 18.165C18.2466 17.7809 18.6352 17.3625 19.0044 16.9216C20.371 15.2896 21.4702 13.0741 21.9899 11.0485H25.6377C25.9289 11.0485 26.165 10.8124 26.165 10.5211C26.165 10.2299 25.9289 9.99376 25.6377 9.99376H22.2099C22.2696 9.6145 22.3045 9.24815 22.3129 8.89989L26.1835 8.91213H26.1851C26.3958 8.91213 26.5864 8.78667 26.6696 8.59303C26.7364 8.43789 27.3013 7.04733 26.6171 6.00846ZM13.457 1.00196C16.6881 1.00196 18.0979 2.28778 18.0979 2.29437C18.0979 2.3441 17.8984 2.66067 16.9504 2.96484C16.0249 3.26179 14.7843 3.42532 13.457 3.42532C12.1298 3.42532 10.8892 3.26179 9.96373 2.96484C9.01567 2.66067 8.81623 2.3441 8.81623 2.29437C8.81623 2.28778 10.3863 1.00196 13.457 1.00196ZM5.56631 4.58901C5.45673 4.80938 5.35711 5.03303 5.26604 5.25926L1.14584 5.27229C1.04786 4.89872 0.982521 4.3564 1.21719 4.0026C1.4112 3.71008 1.81562 3.55014 2.41943 3.52546C2.61713 3.55251 2.83266 3.61041 2.9049 3.65798C3.00837 3.78206 3.15829 3.84724 3.31001 3.84719C3.42038 3.84719 3.53171 3.81265 3.62673 3.74114C3.85945 3.56601 3.90607 3.23537 3.73094 3.0027C3.60237 2.83195 3.40414 2.71498 3.19616 2.6343C3.45434 2.06782 4.26725 1.74904 4.55802 1.74904C4.88039 1.74904 6.24621 2.17229 6.24621 3.01889C6.24621 3.12795 6.30137 3.36325 6.28387 3.38803C6.01466 3.76909 5.77429 4.17066 5.56631 4.58901ZM9.79509 17.3593C9.43022 17.0042 9.07225 16.618 8.7299 16.2099C6.947 14.0847 5.653 10.942 5.653 8.73726C5.653 6.53338 6.49459 4.48681 7.9931 2.97765C7.99447 2.97955 7.996 2.9815 7.99747 2.9834C8.25614 3.3354 8.71271 3.62244 9.29363 3.84735C8.77467 4.73382 8.16628 6.1721 8.03713 8.17442C7.84955 11.0823 8.72895 14.2484 10.653 17.5997C10.338 17.5306 10.0496 17.4499 9.79509 17.3593ZM9.08966 8.24235C9.22007 6.22124 9.90377 4.84625 10.3398 4.15996C11.1307 4.34057 12.0306 4.44283 12.9297 4.47151V17.8854C12.5986 17.8727 12.2953 17.8544 12.021 17.834C9.88848 14.3807 8.90182 11.1546 9.08966 8.24235ZM15.3385 25.9443H11.5756V23.3847H15.3385V25.9443ZM15.0072 22.33H11.9766C11.8731 21.0702 11.4006 19.6191 11.0801 18.7523C11.2592 18.7809 12.8328 18.9317 13.457 18.9317C14.1202 18.9317 15.7402 18.768 15.9079 18.7403C15.5874 19.6057 15.1111 21.0643 15.0072 22.33ZM15.0127 17.7971C14.6777 17.8325 14.3339 17.8563 13.9844 17.8681C13.9844 17.8681 13.9993 4.49329 13.9855 4.46925C14.9313 4.44161 15.8348 4.33615 16.6586 4.14024C17.0953 4.82146 17.7792 6.18465 17.918 8.19568C18.1191 11.1092 17.1413 14.3386 15.0127 17.7971ZM18.1958 16.2445C17.8739 16.629 17.5366 16.9946 17.1922 17.3328C16.95 17.4231 16.6746 17.5042 16.3724 17.5745C18.298 14.2123 19.1714 11.0374 18.9702 8.12306C18.831 6.10634 18.1877 4.65429 17.6968 3.81708C18.2445 3.59554 18.6744 3.31658 18.9208 2.97749C20.4193 4.48665 21.2611 6.53338 21.2611 8.73726C21.2611 10.9662 19.9719 14.1235 18.1958 16.2445ZM25.8063 7.85617L22.2738 7.84499C22.1707 6.73857 21.8743 5.67586 21.389 4.67449C21.7935 4.43708 22.2419 4.33298 22.3941 4.33298C22.6849 4.33298 23.4978 4.65176 23.756 5.21824C23.548 5.29892 23.3497 5.41588 23.2212 5.58659C23.046 5.8193 23.0926 6.1499 23.3254 6.32503C23.4204 6.39653 23.5317 6.43108 23.6421 6.43108C23.7938 6.43108 23.9437 6.3659 24.0472 6.24186C24.1195 6.1943 24.335 6.13639 24.5327 6.10934C25.1364 6.13407 25.5409 6.29397 25.7349 6.58648C25.9696 6.94028 25.9043 7.4826 25.8063 7.85617Z" fill="white"/>
<path d="M9.05785 23.3581C8.70173 22.8174 8.09971 22.5035 7.26466 22.4219C6.94762 21.2566 5.58069 20.6278 4.83487 20.6278C4.16271 20.6278 2.51518 21.1937 2.16012 22.4524C1.53485 22.5307 1.04811 22.7765 0.70945 23.1861C-0.00230747 24.047 0.235472 25.2896 0.313625 25.6979C0.315945 25.71 0.318107 25.7209 0.319953 25.7306C0.330869 26.0115 0.561582 26.2362 0.845188 26.2371L8.62416 26.2617H8.62584C8.83657 26.2617 9.0271 26.1363 9.11037 25.9426C9.17703 25.7875 9.74208 24.3969 9.05785 23.3581ZM8.247 25.2058L1.29902 25.1838C1.22245 24.5755 1.29723 24.1304 1.5223 23.8581C1.66173 23.6894 1.87446 23.5769 2.15659 23.521C2.20801 23.7335 2.29539 23.9404 2.44341 24.0884C2.5464 24.1914 2.68135 24.2429 2.8163 24.2429C2.95125 24.2429 3.08619 24.1914 3.18918 24.0884C3.38878 23.8888 3.39495 23.569 3.20764 23.362C3.1769 23.297 3.15285 23.133 3.14605 22.9648C3.14615 22.9606 3.14668 22.9565 3.14668 22.9523C3.14668 22.1057 4.51256 21.6825 4.83492 21.6825C5.1257 21.6825 5.93855 22.0013 6.19674 22.5677C5.98875 22.6484 5.79052 22.7653 5.66196 22.9361C5.48677 23.1687 5.53339 23.4994 5.76611 23.6745C5.86113 23.746 5.97246 23.7806 6.08288 23.7806C6.23455 23.7806 6.38447 23.7154 6.48799 23.5913C6.56024 23.5438 6.77576 23.4858 6.97352 23.4588C7.57727 23.4835 7.98169 23.6434 8.1757 23.9359C8.41032 24.2899 8.34493 24.8322 8.247 25.2058Z" fill="white"/>
<path d="M26.4532 19.7057C26.1145 19.2961 25.6277 19.0502 25.0026 18.972C24.6475 17.7133 23 17.1474 22.3278 17.1474C21.5821 17.1474 20.2151 17.7761 19.8981 18.9415C19.063 19.0231 18.461 19.337 18.1049 19.8776C17.4206 20.9164 17.9856 22.307 18.0523 22.4622C18.1356 22.6559 18.3261 22.7813 18.5369 22.7813H18.5385L26.3175 22.7567C26.6012 22.7558 26.8319 22.531 26.8428 22.2502C26.8446 22.2405 26.8468 22.2296 26.8491 22.2174C26.9272 21.8091 27.165 20.5665 26.4532 19.7057ZM25.8637 21.7034L18.9157 21.7254C18.8177 21.3517 18.7523 20.8095 18.9871 20.4556C19.1811 20.1631 19.5855 20.0032 20.1893 19.9785C20.387 20.0055 20.6026 20.0635 20.6748 20.111C20.7783 20.2351 20.9282 20.3002 21.0799 20.3002C21.1903 20.3002 21.3016 20.2657 21.3966 20.1942C21.6293 20.019 21.6759 19.6884 21.5008 19.4557C21.3722 19.285 21.1741 19.1681 20.966 19.0874C21.2243 18.5209 22.0371 18.2021 22.3279 18.2021C22.6502 18.2021 24.0161 18.6254 24.0161 19.472C24.0161 19.476 24.0166 19.48 24.0167 19.484C24.0101 19.6442 23.988 19.813 23.9552 19.8817C23.7679 20.0887 23.774 20.4085 23.9737 20.6081C24.0766 20.7111 24.2116 20.7625 24.3465 20.7625C24.4815 20.7625 24.6165 20.711 24.7194 20.608C24.8674 20.46 24.9548 20.2531 25.0062 20.0406C25.2883 20.0965 25.501 20.209 25.6404 20.3777C25.8654 20.6499 25.9402 21.0951 25.8637 21.7034Z" fill="white"/>
<path d="M22.5795 23.8624H19.4155C19.1249 23.8624 18.8881 24.0992 18.8881 24.3897C18.8881 24.6803 19.1249 24.9171 19.4155 24.9171H22.5795C22.8701 24.9171 23.1069 24.6803 23.1069 24.3897C23.1069 24.0992 22.87 23.8624 22.5795 23.8624Z" fill="white"/>
<path d="M24.6889 23.8624C24.3984 23.8624 24.1616 24.0992 24.1616 24.3897C24.1616 24.6803 24.3984 24.9171 24.6889 24.9171C24.9795 24.9171 25.2163 24.6803 25.2163 24.3897C25.2163 24.0992 24.9794 23.8624 24.6889 23.8624Z" fill="white"/>
</svg>
