<svg width="22" height="27" viewBox="0 0 22 27" fill="none" xmlns="http://www.w3.org/2000/svg">
<path d="M14.8379 11.8094C14.8379 11.8995 14.8021 11.986 14.7383 12.0497C14.6746 12.1134 14.5882 12.1492 14.498 12.1492C14.4079 12.1492 14.3215 12.1134 14.2577 12.0497C14.194 11.986 14.1582 11.8995 14.1582 11.8094C14.1582 11.5375 14.0555 11.4176 13.9 11.2358C13.7122 11.0164 13.4785 10.7431 13.4785 10.2204C13.4785 9.69782 13.7122 9.42453 13.9 9.20505C14.0555 9.02329 14.1582 8.90321 14.1582 8.6315C14.1582 8.3598 14.0555 8.23983 13.9 8.05813C13.7122 7.83865 13.4785 7.56536 13.4785 7.04279C13.4785 6.52022 13.7122 6.24705 13.9 6.02756C14.0555 5.84586 14.1582 5.72578 14.1582 5.45419C14.1582 5.1826 14.0555 5.06252 13.9 4.88082C13.7122 4.66134 13.4785 4.38804 13.4785 3.86553C13.4785 3.7754 13.5143 3.68896 13.578 3.62523C13.6418 3.5615 13.7282 3.52569 13.8184 3.52569C13.9085 3.52569 13.9949 3.5615 14.0587 3.62523C14.1224 3.68896 14.1582 3.7754 14.1582 3.86553C14.1582 4.13741 14.2609 4.2572 14.4164 4.43891C14.6042 4.65839 14.8379 4.93168 14.8379 5.45419C14.8379 5.9767 14.6042 6.24999 14.4164 6.46947C14.2609 6.65118 14.1582 6.7712 14.1582 7.04279C14.1582 7.31438 14.2609 7.43446 14.4164 7.61622C14.6042 7.83565 14.8379 8.10899 14.8379 8.6315C14.8379 9.15401 14.6042 9.42742 14.4164 9.6469C14.2609 9.82866 14.1582 9.94874 14.1582 10.2204C14.1582 10.4921 14.2609 10.6122 14.4164 10.794C14.6042 11.0135 14.8379 11.2866 14.8379 11.8094Z" fill="white"/>
<path d="M10.9892 11.8094C10.9892 11.8995 10.9534 11.986 10.8896 12.0497C10.8259 12.1134 10.7395 12.1492 10.6493 12.1492C10.5592 12.1492 10.4728 12.1134 10.409 12.0497C10.3453 11.986 10.3095 11.8995 10.3095 11.8094C10.3095 11.5086 10.2043 11.3784 10.0451 11.1813C9.86005 10.9521 9.62981 10.667 9.62981 10.1261C9.62981 9.58518 9.86005 9.30005 10.0451 9.07094C10.2043 8.87378 10.3095 8.74356 10.3095 8.44286C10.3095 8.14215 10.2043 8.01199 10.0451 7.81488C9.86005 7.58583 9.62981 7.3007 9.62981 6.75984C9.62981 6.6697 9.66562 6.58326 9.72935 6.51953C9.79308 6.4558 9.87952 6.41999 9.96965 6.41999C10.0598 6.41999 10.1462 6.4558 10.21 6.51953C10.2737 6.58326 10.3095 6.6697 10.3095 6.75984C10.3095 7.06048 10.4147 7.1907 10.5739 7.38781C10.7589 7.61692 10.9892 7.90199 10.9892 8.44286C10.9892 8.98372 10.7589 9.2689 10.5739 9.49801C10.4147 9.69512 10.3095 9.8254 10.3095 10.1261C10.3095 10.4268 10.4147 10.5571 10.5739 10.7542C10.7589 10.9834 10.9892 11.2685 10.9892 11.8094Z" fill="white"/>
<path d="M18.6866 11.8094C18.6866 11.8995 18.6508 11.986 18.5871 12.0497C18.5234 12.1134 18.4369 12.1492 18.3468 12.1492C18.2567 12.1492 18.1702 12.1134 18.1065 12.0497C18.0428 11.986 18.007 11.8995 18.007 11.8094C18.007 11.5086 17.9018 11.3784 17.7426 11.1813C17.5576 10.9521 17.3273 10.667 17.3273 10.1261C17.3273 9.58518 17.5576 9.30005 17.7426 9.07094C17.9018 8.87378 18.007 8.74356 18.007 8.44286C18.007 8.14215 17.9018 8.01199 17.7426 7.81488C17.5576 7.58583 17.3273 7.3007 17.3273 6.75984C17.3273 6.6697 17.3631 6.58326 17.4268 6.51953C17.4905 6.4558 17.577 6.41999 17.6671 6.41999C17.7572 6.41999 17.8437 6.4558 17.9074 6.51953C17.9711 6.58326 18.007 6.6697 18.007 6.75984C18.007 7.06048 18.1121 7.1907 18.2713 7.38781C18.4564 7.61692 18.6866 7.90199 18.6866 8.44286C18.6866 8.98372 18.4564 9.2689 18.2713 9.49801C18.1121 9.69512 18.007 9.8254 18.007 10.1261C18.007 10.4268 18.1121 10.5571 18.2713 10.7542C18.4564 10.9834 18.6866 11.2685 18.6866 11.8094Z" fill="white"/>
<path d="M0.572243 5.71031C0.53553 6.03834 0.517112 6.36815 0.517075 6.69823C0.517075 6.95765 0.528102 7.21374 0.550154 7.46651C0.383565 7.38683 0.243253 7.26114 0.145783 7.1043C0.0483127 6.94745 -0.00224598 6.766 7.65685e-05 6.58135C0.00239912 6.3967 0.057506 6.21657 0.158891 6.06223C0.260275 5.90788 0.403703 5.78577 0.572243 5.71031Z" fill="white"/>
<path d="M6.9933 14.0274H21.3234C21.2452 15.812 20.4993 17.5022 19.2333 18.7625C18.9748 19.021 18.697 19.2596 18.4025 19.4762C18.421 19.5008 18.436 19.5278 18.4472 19.5565L20.7242 25.4265C20.8074 25.6412 20.8019 25.8802 20.7089 26.0909C20.6159 26.3015 20.443 26.4666 20.2283 26.5498C20.0136 26.633 19.7746 26.6275 19.564 26.5345C19.3533 26.4415 19.1883 26.2687 19.1051 26.0539L18.484 24.4528H9.83219L9.21118 26.0539C9.17042 26.1608 9.10893 26.2586 9.03026 26.3416C8.95158 26.4246 8.85728 26.4913 8.75275 26.5378C8.64822 26.5842 8.53555 26.6096 8.42119 26.6123C8.30684 26.6151 8.19307 26.5952 8.08643 26.5539C7.97978 26.5125 7.88237 26.4505 7.79978 26.3713C7.71719 26.2922 7.65106 26.1975 7.60519 26.0927C7.55932 25.9879 7.53461 25.8751 7.5325 25.7607C7.53038 25.6464 7.55089 25.5327 7.59284 25.4263L9.86951 19.5565C9.88159 19.5253 9.89824 19.4961 9.9189 19.4698C9.05634 18.8381 8.34596 18.0216 7.83976 17.0799C7.33355 16.1382 7.04434 15.0953 6.9933 14.0274ZM18.7924 16.8304C18.8311 16.8526 18.8738 16.8669 18.9181 16.8726C18.9623 16.8783 19.0073 16.8753 19.0504 16.8636C19.0934 16.8519 19.1338 16.8319 19.1691 16.8046C19.2045 16.7773 19.2341 16.7434 19.2563 16.7047C19.3934 16.4656 19.5167 16.2189 19.6256 15.9657C19.6612 15.8829 19.6624 15.7893 19.629 15.7056C19.5956 15.6219 19.5304 15.5548 19.4476 15.5192C19.3647 15.4836 19.2712 15.4824 19.1875 15.5158C19.1037 15.5492 19.0367 15.6145 19.0011 15.6973C18.9026 15.9265 18.791 16.15 18.6669 16.3665C18.6221 16.4446 18.6101 16.5374 18.6336 16.6244C18.6571 16.7114 18.7143 16.7855 18.7924 16.8304ZM18.5608 17.7086C18.6182 17.6392 18.6457 17.5497 18.6372 17.46C18.6287 17.3703 18.5849 17.2876 18.5154 17.2302C18.4459 17.1727 18.3565 17.1452 18.2668 17.1538C18.177 17.1623 18.0944 17.2061 18.0369 17.2756C17.466 17.9677 16.7586 18.5347 15.9588 18.9412C15.919 18.9615 15.8836 18.9894 15.8547 19.0233C15.8257 19.0573 15.8037 19.0966 15.7899 19.139C15.7761 19.1815 15.7708 19.2262 15.7744 19.2707C15.7779 19.3152 15.7901 19.3586 15.8104 19.3983C15.8307 19.4381 15.8586 19.4735 15.8925 19.5024C15.9264 19.5314 15.9658 19.5534 16.0082 19.5672C16.0507 19.581 16.0954 19.5863 16.1399 19.5828C16.1844 19.5792 16.2278 19.567 16.2675 19.5467C17.1501 19.0981 17.9308 18.4724 18.5608 17.7086ZM17.7813 22.6405L16.8845 20.3282C15.1369 21.0397 13.1802 21.0378 11.434 20.323L10.5352 22.6405H17.7813Z" fill="white"/>
<path d="M6.33646 0V13.4273C3.47277 13.2106 1.19683 10.2753 1.19683 6.69838C1.19683 4.90077 1.7761 3.20886 2.82809 1.93439C3.78259 0.777563 5.01775 0.0995742 6.33646 0Z" fill="white"/>
</svg>
