<svg width="45" height="45" viewBox="0 0 45 45" fill="none" xmlns="http://www.w3.org/2000/svg">
<circle cx="22.5" cy="22.5" r="22.5" fill="#6ACA1F"/>
<path d="M33.2976 17.6852H30.257C29.7266 17.6852 29.2945 18.1172 29.2945 18.6477C29.2945 19.1781 29.7266 19.6102 30.257 19.6102H32.0617L30.5742 25.5492L15.7539 26.4187L15.1414 19.6102H16.7711C17.3016 19.6102 17.7336 19.1781 17.7336 18.6477C17.7336 18.1172 17.3016 17.6852 16.7711 17.6852H14.9719L14.6984 14.65C14.6547 14.1523 14.2391 13.775 13.7414 13.775H11.7891C11.2586 13.775 10.8266 14.207 10.8266 14.7375C10.8266 15.268 11.2586 15.7 11.7891 15.7H12.8664C13.0852 18.1391 12.3578 10.0453 13.9711 28.032C14.0531 28.9344 14.5344 29.8914 15.3547 30.5422C13.8617 32.4453 15.2234 35.2562 17.6516 35.2562C19.6641 35.2562 21.0859 33.2492 20.3969 31.3461H25.6633C24.9742 33.2437 26.3906 35.2562 28.4086 35.2562C30.0164 35.2562 31.3234 33.9492 31.3234 32.3414C31.3234 30.7336 30.0164 29.4266 28.4086 29.4266H17.6625C16.9297 29.4266 16.2953 28.9836 16.0219 28.3437L31.4 27.4414C31.8211 27.4141 32.1766 27.1242 32.275 26.7141L34.2328 18.8937C34.3805 18.2758 33.9211 17.6852 33.2976 17.6852ZM17.657 33.3258C17.1102 33.3258 16.6617 32.8828 16.6617 32.3305C16.6617 31.7781 17.1047 31.3352 17.657 31.3352C18.2039 31.3352 18.6523 31.7781 18.6523 32.3305C18.6523 32.8828 18.2039 33.3258 17.657 33.3258ZM28.4086 33.3258C27.8617 33.3258 27.4133 32.8828 27.4133 32.3305C27.4133 31.7781 27.8562 31.3352 28.4086 31.3352C28.9555 31.3352 29.4039 31.7781 29.4039 32.3305C29.4039 32.8828 28.9555 33.3258 28.4086 33.3258Z" fill="white"/>
<path d="M18.6141 18.2102L23.1586 17.9148L23.5961 25.0242L19.9102 25.2648C19.4398 25.2976 19.0242 24.8766 18.9859 24.3406L18.6141 18.2102Z" fill="white"/>
<path d="M28.4359 17.5758L28.8078 23.7062C28.8406 24.2422 28.4852 24.7125 28.0094 24.7398L24.3234 24.9805L23.8859 17.8711L28.4359 17.5758Z" fill="white"/>
<path d="M17.4219 15.0547L17.5148 16.4547C17.5477 16.9906 17.9687 17.4062 18.4391 17.3789L18.5594 17.3734L23.8422 17.0344L23.6234 13.682L18.2203 14.032C17.7445 14.0539 17.3891 14.5187 17.4219 15.0547Z" fill="white"/>
<path d="M28.2883 13.3703L23.6234 13.6711L23.8422 17.0234L28.3867 16.7281L28.507 16.7227C28.9773 16.6898 29.3383 16.225 29.3055 15.6891L29.2125 14.2891C29.1742 13.7586 28.7586 13.343 28.2883 13.3703Z" fill="white"/>
<path d="M23.2898 14.2836C23.1805 14.2891 23.0766 14.2453 23 14.1578C22.9234 14.0703 22.8852 13.95 22.8906 13.8297C22.9836 12.4187 23.7711 9.71172 26.1008 9.56406C27.4297 9.47656 27.9547 10.2641 28.0039 10.9695C28.0914 12.2055 26.6805 14.0648 23.2898 14.2836ZM26.1609 10.3953C24.4 10.5102 23.8586 12.457 23.6945 13.3977C25.0781 13.2336 25.9258 12.7797 26.407 12.4023C27.0742 11.8828 27.293 11.3414 27.2711 11.0023C27.2383 10.5047 26.675 10.3625 26.1609 10.3953Z" fill="white"/>
<path d="M23.2898 14.2836C19.8992 14.5023 18.2641 12.8453 18.182 11.5984C18.1383 10.8984 18.5539 10.0453 19.8883 9.96328C22.218 9.81015 23.35 12.3969 23.6234 13.7805C23.6453 13.9008 23.6234 14.0266 23.5578 14.1195C23.4977 14.2125 23.3992 14.2727 23.2898 14.2836ZM19.943 10.8C19.4289 10.8328 18.8875 11.0461 18.9203 11.5492C18.9641 12.2656 20.1453 13.4961 22.7758 13.4633C22.4969 12.5445 21.7039 10.6852 19.943 10.8Z" fill="white"/>
</svg>
