<svg width="27" height="27" viewBox="0 0 27 27" fill="none" xmlns="http://www.w3.org/2000/svg">
<path d="M25.7508 2.64063L24.8239 2.30589C24.5499 2.20702 24.2475 2.34895 24.1486 2.62271C24.0497 2.89668 24.1917 3.19888 24.4656 3.29796L25.3926 3.6327C25.8126 3.78431 26.0308 4.24924 25.8792 4.66926L25.3994 5.99771C25.2478 6.41773 24.7829 6.63588 24.3629 6.48427L19.0752 4.5745C19.0324 4.55905 18.9914 4.54031 18.9524 4.51847C18.8937 4.48551 18.8398 4.44555 18.7916 4.3992L19.4569 1.7664C19.6559 1.66237 19.8891 1.64507 20.1058 1.72334L20.6735 1.92831C20.9475 2.02739 21.2497 1.88546 21.3486 1.61149C21.4474 1.33752 21.3057 1.03532 21.0317 0.936447L20.464 0.731278C20.0481 0.581314 19.6061 0.58358 19.2052 0.727158C18.8591 0.277267 18.3182 0 17.727 0H9.16485C8.59178 0 8.0564 0.268822 7.70765 0.703468C7.32368 0.58358 6.90572 0.589348 6.51907 0.729012L1.23204 2.63837C0.763817 2.80749 0.38932 3.14882 0.177559 3.59974C-0.0339964 4.05045 -0.0572737 4.55658 0.111847 5.02501L0.591606 6.35346C0.85157 7.07341 1.51137 7.53504 2.2307 7.58036L6.77574 13.1018L5.45058 16.3398C5.44585 16.3516 5.44152 16.3633 5.43761 16.3751C5.12861 17.3162 5.48231 18.3419 6.29783 18.8696C6.53761 19.0247 6.80273 19.1306 7.07999 19.1856C7.27651 19.7124 7.78449 20.0883 8.37878 20.0883H9.8951C10.1485 20.0883 10.3897 20.0347 10.6078 19.9383V25.295C10.6078 26.2351 11.3727 27 12.3128 27C12.7695 27 13.185 26.8198 13.4915 26.5266C13.7981 26.8198 14.2133 27 14.6702 27C15.6104 27 16.3752 26.2351 16.3752 25.295V19.9381C16.5934 20.0345 16.8346 20.0883 17.088 20.0883H18.6043C19.1988 20.0883 19.707 19.7119 19.9033 19.185C20.4624 19.0705 20.9477 18.738 21.2659 18.2397C21.6503 17.6382 21.7193 16.8859 21.4507 16.2265L20.1083 12.826L24.7178 7.58407C25.4503 7.55173 26.1274 7.08742 26.3915 6.35614L26.8712 5.02769C27.2204 4.06075 26.7178 2.99 25.7508 2.64063ZM16.8979 14.8797C16.4844 14.6365 16.0036 14.4964 15.4903 14.4964H15.4545C15.7027 14.1231 15.8477 13.6757 15.8477 13.1947C15.8477 11.8955 14.7907 10.8386 13.4915 10.8386C12.1923 10.8386 11.1352 11.8955 11.1352 13.1947C11.1352 13.6757 11.2804 14.1231 11.5286 14.4964H11.4928C10.8462 14.4964 10.2511 14.7185 9.7781 15.0897L7.91056 12.8208V8.08319L9.64358 7.63186C9.83516 7.58201 9.98182 7.50558 10.0937 7.42092C10.14 7.42401 10.186 7.42545 10.2315 7.42545H16.7887C16.855 7.42545 16.9222 7.42216 16.9893 7.41598C17.1166 7.51382 17.2711 7.58778 17.4458 7.63289L18.9722 8.03046V12.5209L16.8979 14.8797ZM12.1899 13.1947C12.1899 12.477 12.7739 11.8932 13.4915 11.8932C14.2092 11.8932 14.793 12.477 14.793 13.1947C14.793 13.9124 14.2092 14.4962 13.4915 14.4962C12.7739 14.4964 12.1899 13.9124 12.1899 13.1947ZM6.20102 7.43864C6.0113 7.48787 5.49879 7.40877 5.09545 7.16817L4.61651 6.88245L8.26672 5.5643C8.29824 5.55276 8.32934 5.54041 8.36004 5.52743C8.43934 5.49406 8.51536 5.45471 8.58848 5.41125L9.20605 6.65586L6.20102 7.43864ZM3.53731 7.46665L4.55513 8.07392C5.15189 8.42988 5.95547 8.592 6.46634 8.45934L6.85567 8.35799V11.5396L3.46604 7.42154C3.48973 7.43658 3.5126 7.45182 3.53731 7.46665ZM22.4304 6.908L21.9925 7.1694C21.5896 7.4098 21.0773 7.4889 20.8882 7.43967L17.8495 6.64824L18.3971 5.41434C18.4477 5.44462 18.4999 5.47263 18.5534 5.49797C18.607 5.52331 18.6616 5.54679 18.7176 5.56698L22.4304 6.908ZM20.0267 8.30525L20.6228 8.46057C20.7425 8.49147 20.8781 8.50651 21.0233 8.50651C21.4985 8.50651 22.0765 8.34748 22.533 8.07495L23.2668 7.63721L20.0267 11.3216V8.30525ZM9.16485 1.05469H17.727C18.0298 1.05469 18.3019 1.22216 18.4407 1.48254L17.7832 4.08403C17.7647 4.08527 17.7459 4.0865 17.7272 4.0865H15.6743C15.383 4.0865 15.1469 4.32278 15.1469 4.61385C15.1469 4.90512 15.383 5.1414 15.6743 5.1414H17.3644L16.8194 6.36974C16.8091 6.37015 16.7986 6.37077 16.7885 6.37077H10.242L9.63184 5.1414H11.2701C11.5614 5.1414 11.7975 4.90533 11.7975 4.61405C11.7975 4.32298 11.5614 4.0865 11.2701 4.0865H9.17227L8.47622 1.44031C8.62185 1.20506 8.88264 1.05469 9.16485 1.05469ZM1.58367 5.99524L1.10391 4.66679C0.952301 4.24697 1.17045 3.78184 1.59026 3.63023L6.8773 1.72087C7.06887 1.65166 7.27816 1.65928 7.46355 1.73653L8.16846 4.4163C8.09204 4.48407 8.00346 4.53783 7.90726 4.57265L3.26664 6.24841C3.26684 6.2482 3.26643 6.24841 3.26664 6.24841L2.62023 6.4818C2.41671 6.55534 2.19691 6.54524 2.00101 6.45316C1.80532 6.3615 1.657 6.19876 1.58367 5.99524ZM6.43441 16.7203L7.53689 14.0265L9.07772 15.8984C8.84371 16.3058 8.7092 16.7772 8.7092 17.2798V17.3169H8.37878C7.82713 17.3169 7.34984 17.6409 7.12717 18.1085C7.03735 18.0774 6.95125 18.0362 6.8707 17.9841C6.46201 17.7196 6.28403 17.2019 6.43441 16.7203ZM18.6043 19.0336H17.088C16.6949 19.0336 16.3752 18.7139 16.3752 18.3209V17.5805C16.3752 17.2893 16.139 17.0532 15.8479 17.0532C15.5566 17.0532 15.3206 17.2893 15.3206 17.5805V25.295C15.3206 25.6536 15.0287 25.9453 14.6702 25.9453C14.311 25.9453 14.0189 25.6536 14.0189 25.295V20.5433C14.0189 20.2521 13.7828 20.016 13.4915 20.016C13.2003 20.016 12.9642 20.2521 12.9642 20.5433V25.295C12.9642 25.6536 12.6719 25.9453 12.3128 25.9453C11.9542 25.9453 11.6625 25.6536 11.6625 25.295V18.38C11.6631 18.3604 11.6636 18.3406 11.6636 18.3209V17.5805C11.6636 17.2893 11.4265 17.0532 11.1352 17.0532C10.8439 17.0532 10.6078 17.2893 10.6078 17.5805V18.3584C10.5883 18.7341 10.276 19.0336 9.89489 19.0336H8.37878C8.19627 19.0336 8.04775 18.8851 8.04775 18.7026C8.04775 18.5201 8.19627 18.3715 8.37878 18.3715H9.23654C9.52781 18.3715 9.76388 18.1355 9.76388 17.8442V17.2798C9.76388 16.3264 10.5394 15.5509 11.4928 15.5509H15.4903C16.4436 15.5509 17.2192 16.3264 17.2192 17.2798V17.8442C17.2192 18.1355 17.4553 18.3715 17.7465 18.3715H18.6043C18.7868 18.3715 18.9353 18.5201 18.9353 18.7026C18.9353 18.8851 18.7868 19.0336 18.6043 19.0336ZM20.4708 16.6169C20.4716 16.6189 20.4725 16.621 20.4733 16.6229C20.6138 16.9658 20.5777 17.3578 20.3771 17.6718C20.2479 17.8741 20.0654 18.0224 19.8539 18.1038C19.6299 17.6386 19.1539 17.3169 18.6043 17.3169H18.2737V17.2798C18.2737 16.6385 18.0551 16.0477 17.6895 15.5766L19.3257 13.7159L20.4708 16.6169Z" fill="white"/>
<path d="M22.229 2.30713C22.3128 2.50818 22.5184 2.64166 22.737 2.6326C22.9561 2.62333 23.1506 2.47542 23.2177 2.26675C23.2853 2.05746 23.212 1.82078 23.0371 1.68709C22.8618 1.55319 22.616 1.5431 22.4304 1.66216C22.2191 1.79812 22.1324 2.07518 22.229 2.30713Z" fill="white"/>
<path d="M12.97 4.81572C13.0536 5.01636 13.2565 5.14758 13.4738 5.14078C13.6973 5.13378 13.8959 4.98031 13.9614 4.7669C14.0267 4.5539 13.9454 4.31413 13.7637 4.18518C13.589 4.06137 13.3527 4.0554 13.1721 4.17034C12.9588 4.30589 12.8746 4.58316 12.97 4.81572Z" fill="white"/>
</svg>
