<svg width="33" height="28" viewBox="0 0 33 28" fill="none" xmlns="http://www.w3.org/2000/svg">
<path d="M28.6403 1.68962H4.3597C4.06889 1.68962 3.83313 1.92532 3.83313 2.2162V5.56404C3.83313 5.85492 4.06889 6.09062 4.3597 6.09062H28.6403C28.9312 6.09062 29.1669 5.85492 29.1669 5.56404V2.2162C29.1669 1.92539 28.9312 1.68962 28.6403 1.68962ZM28.1137 5.03746H4.88628V2.74278H28.1138L28.1137 5.03746Z" fill="white"/>
<path d="M32.9665 12.1237L31.1047 7.1583V0.526578C31.1047 0.235696 30.869 0 30.5781 0H2.42189C2.13107 0 1.89531 0.235696 1.89531 0.526578V7.15823L0.0335381 12.1237C-0.0271236 12.2854 -0.00458612 12.4666 0.0937787 12.6085C0.192143 12.7504 0.353908 12.8352 0.526626 12.8352H1.89538V26.4074H1.12468C0.833866 26.4074 0.5981 26.6431 0.5981 26.934C0.5981 27.2248 0.833866 27.4605 1.12468 27.4605H31.8754C32.1662 27.4605 32.4019 27.2248 32.4019 26.934C32.4019 26.6431 32.1662 26.4074 31.8754 26.4074H31.1047V12.8352H32.4734C32.6461 12.8352 32.8079 12.7505 32.9062 12.6085C33.0046 12.4666 33.0271 12.2853 32.9665 12.1237ZM2.94846 1.05316H30.0515V6.72707H2.94846V1.05316ZM6.44017 7.78022L5.43988 11.782H3.90501L5.15539 7.78029L6.44017 7.78022ZM7.52569 7.78022H8.82648L8.07628 11.7819H6.5254L7.52569 7.78022ZM9.89796 7.78022H11.2108L10.7106 11.7819H9.14769L9.89796 7.78022ZM12.2721 7.78022H13.5931L13.343 11.7819H11.7719L12.2721 7.78022ZM14.6483 7.78022H15.9734V11.7819H14.3982L14.6483 7.78022ZM17.0265 7.78022H18.3516L18.6017 11.7819H17.0265V7.78022ZM19.6569 11.782L19.4068 7.78029H20.7278L21.2279 11.782H19.6569ZM22.2893 11.782L21.7892 7.78029H23.102L23.8523 11.782H22.2893ZM24.9238 11.782L24.1735 7.78029H25.4742L26.4745 11.782H24.9238ZM27.5601 11.782L26.5598 7.78029H27.8446L29.0949 11.782H27.5601ZM2.78677 7.78022H4.05196L2.80165 11.782H1.28637L2.78677 7.78022ZM22.6638 20.087H26.3864V23.7746H22.6638V20.087ZM22.6638 24.8277H26.3864V26.4072H22.6638V24.8277ZM21.5645 17.5525L22.1488 15.7204H26.9012L27.4855 17.5525H21.5645ZM26.3865 18.6057V19.0339H22.6638V18.6057H26.3865ZM30.0515 26.4073H27.4397V18.6057H28.2062C28.3743 18.6057 28.5323 18.5254 28.6314 18.3898C28.7306 18.2541 28.759 18.0792 28.708 17.9191L27.7876 15.0338C27.718 14.8155 27.5151 14.6672 27.2859 14.6672H21.7641C21.535 14.6672 21.3321 14.8154 21.2624 15.0338L20.3422 17.9191C20.2911 18.0792 20.3196 18.2541 20.4187 18.3898C20.5178 18.5255 20.6758 18.6057 20.8439 18.6057H21.6107V26.4073H2.94846V12.8352H30.0515V26.4073ZM30.1984 11.782L28.9481 7.78029H30.2131L31.7136 11.782H30.1984Z" fill="white"/>
<path d="M4.67906 18.6057H5.31222V24.1481C5.31222 24.439 5.54799 24.6747 5.8388 24.6747H17.2804C17.5713 24.6747 17.807 24.439 17.807 24.1481V18.6057H18.4401C18.6082 18.6057 18.7661 18.5254 18.8653 18.3898C18.9644 18.2541 18.9928 18.0792 18.9418 17.9191L18.0216 15.0338C17.9519 14.8155 17.749 14.6672 17.5198 14.6672H5.59938C5.37021 14.6672 5.16737 14.8155 5.09766 15.0338L4.17741 17.9191C4.12637 18.0792 4.1548 18.2541 4.25394 18.3898C4.35307 18.5255 4.51105 18.6057 4.67906 18.6057ZM16.7538 23.6215H6.36537V18.6057H16.7538V23.6215ZM5.98413 15.7204H17.1349L17.7193 17.5525H5.39977L5.98413 15.7204Z" fill="white"/>
</svg>
