<svg width="23" height="23" viewBox="0 0 23 23" fill="none" xmlns="http://www.w3.org/2000/svg">
<path d="M8.67394 22.644C8.89213 22.8735 9.18237 23 9.49203 23C9.81958 23 10.1308 22.8536 10.3464 22.5966C14.5135 17.6321 20.1247 11.4391 22.2259 10.3258C22.6888 10.08 23 9.58329 23 9.09015V0.985765C22.9995 0.345757 22.5299 0 22.0879 0C21.9274 0 21.6817 0.0438571 21.4323 0.251923C19.8651 1.5554 12.3316 8.05492 9.82366 14.5126L7.42662 10.6246C7.1047 10.1045 6.35968 9.91783 5.83132 10.2253L0.539524 13.2974C0.233442 13.4754 0.0382447 13.7686 0.00503049 14.1026C-0.0281837 14.4361 0.104162 14.7625 0.369876 14.9976C1.46288 15.9665 7.00097 20.8841 8.67394 22.644ZM6.30142 11.7211L9.18135 16.3924C9.37451 16.705 9.6719 16.8845 9.9974 16.8845C10.3106 16.8845 10.7317 16.6932 10.8845 16.1542C12.4639 10.5951 18.7757 4.59786 21.4655 2.23722V8.99581C18.6745 10.5155 11.9202 18.3527 9.46648 21.2625C7.71431 19.4975 3.70203 15.9084 1.87831 14.2893L6.30142 11.7211Z" fill="white"/>
</svg>
