<svg width="27" height="25" viewBox="0 0 27 25" fill="none" xmlns="http://www.w3.org/2000/svg">
<path d="M24.5697 18.1794C23.22 18.1794 22.1259 17.0853 22.1259 15.7372C22.1259 14.3965 23.2195 13.3024 24.5697 13.3024C25.9104 13.3024 27 14.396 27 15.7372C27 17.0853 25.9099 18.1794 24.5697 18.1794Z" fill="white"/>
<path d="M22.5337 18.6322C22.7274 18.9936 22.5886 19.4398 22.2248 19.6285L13.4949 24.1601L12.7172 24.6712C12.4522 24.8455 12.1447 24.9353 11.8342 24.9353C11.692 24.9353 11.5493 24.9163 11.409 24.8779L1.18368 22.0737C0.327173 21.8391 -0.176949 20.9541 0.0576782 20.0981C0.293245 19.2416 1.17773 18.7379 2.03372 18.9726L11.2753 21.5067L11.2573 21.4303L13.9621 19.8485L12.92 17.7641C12.7367 17.3977 12.888 16.9555 13.2563 16.7774L18.1633 14.402C18.6595 14.1618 19.3578 14.3166 19.5424 14.8357C19.6019 15.0024 19.6473 15.1751 19.6852 15.3503L20.0421 10.0579C20.0835 9.4445 20.6161 8.97979 21.2281 9.02222C21.8415 9.06362 22.3052 9.5942 22.2638 10.2077L21.7896 17.2395L22.5337 18.6322Z" fill="white"/>
<path d="M7.28807 18.2957C7.01205 18.2957 6.78896 18.0721 6.78896 17.7966V10.1848C6.78896 9.90927 7.01205 9.68565 7.28807 9.68565C7.56409 9.68565 7.78718 9.90927 7.78718 10.1848V17.7966C7.78724 18.0721 7.56362 18.2957 7.28807 18.2957Z" fill="white"/>
<path d="M9.04001 15.1761C8.76399 15.1761 8.5409 14.9525 8.5409 14.677V7.06513C8.5409 6.78963 8.76399 6.56602 9.04001 6.56602C9.31603 6.56602 9.53913 6.78963 9.53913 7.06513V14.677C9.53913 14.9525 9.31556 15.1761 9.04001 15.1761Z" fill="white"/>
<path d="M17.8149 11.7945C17.5388 11.7945 17.3158 11.5709 17.3158 11.2954V3.68347C17.3158 3.40797 17.5388 3.18436 17.8149 3.18436C18.0909 3.18436 18.314 3.40797 18.314 3.68347V11.2953C18.314 11.5709 18.0904 11.7945 17.8149 11.7945Z" fill="white"/>
<path d="M16.0629 8.67485C15.7869 8.67485 15.5638 8.45124 15.5638 8.17574V0.563839C15.5638 0.288341 15.7869 0.0647278 16.0629 0.0647278C16.3389 0.0647278 16.562 0.288341 16.562 0.563839V8.17568C16.562 8.45123 16.3389 8.67485 16.0629 8.67485Z" fill="white"/>
</svg>
