<svg width="25" height="25" viewBox="0 0 25 25" fill="none" xmlns="http://www.w3.org/2000/svg">
<path d="M21.2574 15.6338C20.7907 15.4127 20.2658 15.3866 19.7796 15.5602C19.4738 15.6693 19.2066 15.8493 18.9953 16.0837C18.8274 15.8983 18.6228 15.7448 18.3882 15.6338C17.9214 15.4127 17.3967 15.3866 16.9104 15.5602C16.4261 15.7331 16.0378 16.0835 15.8163 16.5472L14.5266 19.099C14.4802 18.955 14.455 18.8019 14.455 18.6426V15.6853C14.4606 15.6561 14.4636 15.626 14.4636 15.5952V11.5065C17.2915 11.2585 19.5169 8.87737 19.5169 5.98621V2.67334C19.5169 1.74789 18.7641 0.995064 17.8387 0.995064C16.9132 0.995064 16.1604 1.74789 16.1604 2.67334V5.98621C16.1604 7.1909 15.1802 8.17108 13.9753 8.17108H13.3413C13.8588 7.617 14.1764 6.87408 14.1764 6.05774V5.73635C14.1764 4.02718 12.7859 2.63672 11.0767 2.63672C9.36775 2.63672 7.9773 4.02718 7.9773 5.73635V6.05774C7.9773 6.87408 8.29487 7.617 8.81233 8.17108H8.17833C6.97346 8.17108 5.99327 7.1909 5.99327 5.98621V2.67334C5.99327 1.74789 5.24044 0.995064 4.31499 0.995064C3.38955 0.995064 2.63672 1.74789 2.63672 2.67334V5.98621C2.63672 8.8871 4.87728 11.2743 7.71866 11.5088V15.5952C7.71866 15.6002 7.71923 15.6052 7.71942 15.6103V18.6426C7.71942 18.778 7.72457 18.915 7.73468 19.0496C7.75414 19.306 7.96814 19.5011 8.22105 19.5011C8.23345 19.5011 8.24585 19.5007 8.25844 19.4998C8.52737 19.4794 8.72879 19.245 8.70857 18.976C8.70018 18.8658 8.69598 18.7536 8.69598 18.6426V16.0835H13.4785V18.6426C13.4785 20.006 14.5876 21.1151 15.951 21.1151C16.8991 21.1151 17.7744 20.5626 18.1826 19.7071L19.5599 16.9825C19.5616 16.9788 19.5635 16.975 19.5652 16.9712C19.6747 16.7404 19.8675 16.5657 20.108 16.4799C20.3487 16.394 20.6083 16.407 20.8393 16.5163C21.3144 16.7414 21.5187 17.3098 21.2969 17.7855L19.9202 20.509C19.9183 20.5126 19.9165 20.5164 19.9146 20.5202C19.1929 22.0438 17.6371 23.0284 15.9512 23.0284C13.5328 23.0284 11.5654 21.0609 11.5654 18.6426V18.3887C11.5654 18.119 11.3468 17.9005 11.0771 17.9005C10.8074 17.9005 10.5888 18.119 10.5888 18.3887V18.6426C10.5888 20.4494 11.4872 22.0505 12.8607 23.0225C11.9452 22.9774 11.0849 22.6543 10.3609 22.0797C10.1496 21.912 9.84249 21.9473 9.67484 22.1586C9.50737 22.37 9.54266 22.677 9.75399 22.8447C10.7105 23.6038 11.8614 24.0049 13.0821 24.0049C13.5632 24.0049 14.0429 23.9384 14.51 23.8081C14.9687 23.9363 15.452 24.0049 15.9512 24.0049C18.0105 24.0049 19.9108 22.8037 20.7945 20.944L22.1716 18.2198C22.1735 18.2159 22.1752 18.2123 22.1771 18.2085C22.6332 17.2451 22.2206 16.09 21.2574 15.6338ZM8.95386 6.05774V5.73635C8.95386 4.56562 9.9062 3.61328 11.0769 3.61328C12.2475 3.61328 13.1998 4.56562 13.1998 5.73635V6.05774C13.1998 7.16095 12.3539 8.06999 11.2764 8.17108H10.8772C9.79977 8.07018 8.95386 7.16095 8.95386 6.05774ZM3.61328 5.98621V2.67334C3.61328 2.28634 3.92799 1.97163 4.31499 1.97163C4.702 1.97163 5.01671 2.28634 5.01671 2.67334V5.98621C5.01671 7.72953 6.43501 9.14764 8.17833 9.14764H10.8437C10.9207 9.15356 10.9983 9.15737 11.0769 9.15737C11.1553 9.15737 11.2329 9.15356 11.31 9.14764H13.9753C15.7187 9.14764 17.137 7.72953 17.137 5.98621V2.67334C17.137 2.28634 17.4517 1.97163 17.8387 1.97163C18.2257 1.97163 18.5404 2.28634 18.5404 2.67334V5.98621C18.5404 8.50334 16.4927 10.5513 13.9755 10.5513C13.7058 10.5513 13.4872 10.7698 13.4872 11.0395V15.107H8.69522V11.0395C8.69522 10.7698 8.47664 10.5513 8.20694 10.5513H8.17833C5.6612 10.5513 3.61328 8.50334 3.61328 5.98621ZM17.3082 19.2719C17.3063 19.2755 17.3046 19.2793 17.3027 19.2829C17.0567 19.8027 16.5258 20.1385 15.951 20.1385C15.6736 20.1385 15.414 20.0624 15.1911 19.9305C15.2357 19.858 15.2769 19.7832 15.3133 19.7071L16.6904 16.9825C16.6924 16.9788 16.6941 16.975 16.696 16.9712C16.8053 16.7402 16.9981 16.5657 17.2388 16.4799C17.4793 16.3939 17.7391 16.4068 17.9701 16.5163C18.1898 16.6204 18.3573 16.7994 18.4464 17.02L17.3082 19.2719Z" fill="white"/>
<path d="M9.21401 20.7088C9.08488 20.4721 8.78829 20.385 8.5514 20.5139C8.3147 20.643 8.22734 20.9396 8.35647 21.1761C8.44421 21.3415 8.6132 21.4357 8.7881 21.4357C8.86535 21.4357 8.94355 21.4174 9.0166 21.3787C9.25483 21.2524 9.34543 20.9566 9.21916 20.7186L9.21401 20.7088Z" fill="white"/>
<path d="M2.44141 20.1172C2.17171 20.1172 1.95312 20.3358 1.95312 20.6055V21.2799C1.95312 21.5496 2.17171 21.7682 2.44141 21.7682C2.71111 21.7682 2.92969 21.5496 2.92969 21.2799V20.6055C2.92969 20.3358 2.71111 20.1172 2.44141 20.1172Z" fill="white"/>
<path d="M2.44141 23.349C2.17171 23.349 1.95312 23.5676 1.95312 23.8373V24.5117C1.95312 24.7814 2.17171 25 2.44141 25C2.71111 25 2.92969 24.7814 2.92969 24.5117V23.8373C2.92969 23.5676 2.71111 23.349 2.44141 23.349Z" fill="white"/>
<path d="M4.39453 22.0703H3.72009C3.45039 22.0703 3.23181 22.2889 3.23181 22.5586C3.23181 22.8283 3.45039 23.0469 3.72009 23.0469H4.39453C4.66423 23.0469 4.88281 22.8283 4.88281 22.5586C4.88281 22.2889 4.66423 22.0703 4.39453 22.0703Z" fill="white"/>
<path d="M1.16272 22.0703H0.488281C0.218582 22.0703 0 22.2889 0 22.5586C0 22.8283 0.218582 23.0469 0.488281 23.0469H1.16272C1.43242 23.0469 1.651 22.8283 1.651 22.5586C1.651 22.2889 1.43242 22.0703 1.16272 22.0703Z" fill="white"/>
<path d="M22.5586 0C22.2889 0 22.0703 0.218582 22.0703 0.488281V1.16272C22.0703 1.43242 22.2889 1.651 22.5586 1.651C22.8283 1.651 23.0469 1.43242 23.0469 1.16272V0.488281C23.0469 0.218582 22.8283 0 22.5586 0Z" fill="white"/>
<path d="M22.5586 3.23181C22.2889 3.23181 22.0703 3.45039 22.0703 3.72009V4.39453C22.0703 4.66423 22.2889 4.88281 22.5586 4.88281C22.8283 4.88281 23.0469 4.66423 23.0469 4.39453V3.72009C23.0469 3.45039 22.8283 3.23181 22.5586 3.23181Z" fill="white"/>
<path d="M24.5117 1.95312H23.8373C23.5676 1.95312 23.349 2.17171 23.349 2.44141C23.349 2.71111 23.5676 2.92969 23.8373 2.92969H24.5117C24.7814 2.92969 25 2.71111 25 2.44141C25 2.17171 24.7814 1.95312 24.5117 1.95312Z" fill="white"/>
<path d="M20.6055 2.92969H21.2799C21.5496 2.92969 21.7682 2.71111 21.7682 2.44141C21.7682 2.17171 21.5496 1.95312 21.2799 1.95312H20.6055C20.3358 1.95312 20.1172 2.17171 20.1172 2.44141C20.1172 2.71111 20.3358 2.92969 20.6055 2.92969Z" fill="white"/>
</svg>
