<svg width="22" height="27" viewBox="0 0 22 27" fill="none" xmlns="http://www.w3.org/2000/svg">
<path d="M8.52075 0.0829866C8.84651 0.00946261 9.21217 -0.0665328 9.52404 0.0990507C9.64673 0.249188 9.61289 0.470996 9.64976 0.653261C9.6691 1.12344 9.71261 1.59177 9.74888 2.06072C9.77789 2.361 9.83591 2.66374 9.78756 2.96525C9.5053 3.05855 9.20492 3.04804 8.913 3.08697C8.64283 3.09685 8.36965 3.19695 8.1019 3.11292C7.978 2.74036 7.99492 2.34246 7.97075 1.95507C7.95201 1.44905 7.90849 0.936854 7.98586 0.433925C8.05838 0.20841 8.32432 0.149714 8.52075 0.0829866Z" fill="white"/>
<path d="M12.4028 0.0854361C12.8724 -0.0838545 13.4145 0.0125299 13.837 0.268319C13.9899 0.356672 13.9772 0.558708 13.9996 0.712553C14.0099 1.10612 14.0075 1.50031 13.9815 1.89326C13.9519 2.30042 13.9754 2.71871 13.8473 3.11166C13.5789 3.19754 13.3045 3.0956 13.0338 3.08695C12.7425 3.04988 12.4439 3.05544 12.1616 2.96461C12.103 2.60811 12.1931 2.25223 12.213 1.89635C12.2317 1.54418 12.2771 1.19386 12.2867 0.841683C12.3037 0.587129 12.3103 0.325779 12.4028 0.0854361Z" fill="white"/>
<path d="M10.1659 0.87259C10.7014 0.846023 11.2399 0.839226 11.7748 0.877533C11.8884 1.08637 11.8425 1.32856 11.831 1.55531C11.779 2.01252 11.7736 2.47529 11.6793 2.92632C11.4509 2.99923 11.2091 2.97142 10.9734 2.97575C10.7437 2.97204 10.5044 3.00293 10.2874 2.90593C10.1544 2.45675 10.1732 1.98163 10.1139 1.5201C10.1103 1.30385 10.0444 1.06783 10.1659 0.87259Z" fill="white"/>
<path d="M6.06871 1.50467C6.21981 1.41261 6.40294 1.51827 6.48454 1.65666C6.59031 1.80495 6.53954 2.00081 6.51597 2.16762C6.18355 3.73387 5.95751 5.36252 6.22707 6.95781C6.31047 7.51696 6.49663 8.05078 6.66707 8.58584C6.39448 8.72485 6.08745 8.7576 5.80218 8.86078C5.54531 8.93678 5.31141 9.09062 5.04003 9.11163C4.76685 8.78355 4.60003 8.37948 4.48762 7.96799C4.28454 7.21792 4.26883 6.4314 4.31234 5.65971C4.38608 4.72058 4.57223 3.78948 4.87926 2.90039C4.98141 2.59827 5.09382 2.28069 5.33377 2.06197C5.56223 1.85499 5.80097 1.65605 6.06871 1.50467Z" fill="white"/>
<path d="M15.4193 1.70735C15.4937 1.57822 15.626 1.50531 15.739 1.41696C16.1114 1.63753 16.4643 1.89765 16.7574 2.22202C16.9079 2.42097 16.9762 2.66872 17.0663 2.89856C17.5045 4.17628 17.7215 5.54234 17.6374 6.89605C17.5728 7.63808 17.4217 8.41039 16.9805 9.02206C16.9152 9.14749 16.7562 9.10362 16.6535 9.06037C16.3156 8.91765 15.9681 8.79531 15.6103 8.71623C15.4943 8.69275 15.3879 8.639 15.287 8.57783C15.4006 8.18982 15.5408 7.80984 15.6303 7.41442C16.0068 5.79689 15.8212 4.1114 15.5027 2.5019C15.4562 2.24055 15.3619 1.97488 15.4193 1.70735Z" fill="white"/>
<path d="M14.4577 1.60536C14.6898 1.593 14.928 1.75179 14.9703 1.99399C15.0857 2.50062 15.1679 3.01591 15.2326 3.53243C14.908 3.56641 14.6427 3.32669 14.3375 3.25069C14.2988 2.94177 14.3514 2.63223 14.3653 2.32392C14.3888 2.08358 14.3586 1.83149 14.4577 1.60536Z" fill="white"/>
<path d="M6.98377 1.94207C7.02608 1.6832 7.32525 1.60905 7.54042 1.67887C7.5652 2.20157 7.64498 2.72551 7.61173 3.24883C7.32163 3.33224 7.06476 3.52562 6.75954 3.54725C6.73476 3.00354 6.89009 2.47281 6.98377 1.94207Z" fill="white"/>
<path d="M8.46635 3.55655C9.86976 3.29458 11.3118 3.25813 12.7273 3.4373C13.4218 3.52875 14.1241 3.65479 14.766 3.95135C14.9896 4.06813 15.2628 4.18737 15.3401 4.45614C15.4217 4.78916 15.4145 5.13453 15.429 5.47497C15.4489 6.19229 15.4078 6.92753 15.1679 7.60778C15.1117 7.77399 14.9177 7.72394 14.7865 7.71838C13.866 7.59913 12.9401 7.54662 12.0129 7.53179C11.1638 7.47309 10.3134 7.51263 9.46481 7.54662C8.58784 7.54353 7.71811 7.67822 6.84476 7.7295C6.73355 7.54785 6.69487 7.33469 6.64591 7.12957C6.4785 6.39186 6.50267 5.62696 6.54377 4.87627C6.57218 4.62975 6.57882 4.33071 6.80306 4.17687C7.29201 3.82408 7.88915 3.68074 8.46635 3.55655Z" fill="white"/>
<path d="M17.7855 3.559C18.1355 3.62141 18.3591 3.95752 18.5277 4.24976C18.9012 5.09559 19.0916 6.02793 19.082 6.95594C19.0445 8.01926 18.7066 9.08937 18.0357 9.9142C17.9844 9.99019 17.8955 10.0155 17.8115 10.0316C17.6731 9.84623 17.5033 9.6893 17.357 9.51074C17.2585 9.29326 17.4628 9.1079 17.5426 8.92255C18.0793 7.86788 18.1192 6.63218 18.0249 5.47125C17.9814 4.96337 17.9028 4.45921 17.7928 3.96184C17.7595 3.82962 17.7734 3.69308 17.7855 3.559Z" fill="white"/>
<path d="M3.81976 3.7178C3.91405 3.60845 4.06877 3.63007 4.19388 3.65046C4.16789 3.96247 4.08086 4.26398 4.03614 4.57291C3.87537 5.57135 3.81372 6.5976 3.98053 7.59975C4.06756 8.11566 4.22048 8.62662 4.49004 9.07518C4.5668 9.20184 4.66894 9.35939 4.59097 9.51076C4.45559 9.6714 4.30932 9.82277 4.17092 9.98094C4.11592 10.0594 3.99141 10.0279 3.94548 9.95376C3.12773 8.96582 2.76751 7.62138 2.89081 6.34181C2.90592 5.93774 3.01108 5.54602 3.09993 5.1543C3.24136 4.63593 3.40877 4.08357 3.81976 3.7178Z" fill="white"/>
<path d="M19.3672 8.05074C19.3842 7.95065 19.4301 7.86106 19.4887 7.78012C19.7528 7.92593 19.965 8.14898 20.188 8.35101C20.3862 8.56726 20.6395 8.76189 20.7223 9.05907C20.2297 9.30868 19.6978 9.46376 19.169 9.60958C19.0608 9.65097 18.9466 9.63182 18.8408 9.59598C18.8601 9.42484 18.9496 9.27717 19.0197 9.12395C19.1781 8.78227 19.2923 8.42083 19.3672 8.05074Z" fill="white"/>
<path d="M2.17822 7.97973C2.27009 7.89262 2.39399 7.86358 2.51487 7.85431C2.63333 8.21823 2.69438 8.60191 2.85273 8.95285C2.93493 9.17775 3.08482 9.37855 3.10839 9.62322C2.99839 9.63187 2.88537 9.6467 2.77839 9.60963C2.3263 9.48791 1.87542 9.35322 1.4469 9.16107C1.36289 9.11658 1.24987 9.06159 1.25471 8.94853C1.49405 8.56484 1.83855 8.26704 2.17822 7.97973Z" fill="white"/>
<path d="M7.77372 8.05755C9.9018 7.86293 12.0468 7.86478 14.1749 8.05817C14.4088 8.08659 14.6487 8.09648 14.8723 8.17989C14.8887 8.30778 14.8772 8.43691 14.7926 8.53885C14.4662 8.5438 14.1392 8.53268 13.8147 8.49684C12.4856 8.44618 11.1553 8.40664 9.82504 8.43815C9.32218 8.46471 8.81872 8.47645 8.31526 8.4851C7.93267 8.50364 7.54888 8.56851 7.1657 8.53144C7.02729 8.47027 7.08169 8.29728 7.06718 8.17556C7.29625 8.10142 7.5368 8.08535 7.77372 8.05755Z" fill="white"/>
<path d="M7.46124 8.96082C9.09311 8.83416 10.731 8.83046 12.3671 8.85455C13.2356 8.90213 14.1096 8.8873 14.9721 9.02013C15.7118 9.11467 16.4607 9.34574 17.0476 9.83137C17.5383 10.2503 17.7614 10.886 17.9469 11.4903C18.3561 12.8866 18.4981 14.3454 18.5954 15.7936C18.625 16.4627 18.6274 17.1374 18.7628 17.7961C19.0632 19.3011 19.6755 20.7302 20.4642 22.0327C20.871 22.729 21.4675 23.2931 21.8301 24.0178C21.9951 24.3224 21.9565 24.6808 21.8743 25.0045C21.7123 25.6384 21.4856 26.281 21.0614 26.7839C20.9562 26.9334 20.7664 26.8982 20.6129 26.8797C20.602 26.7536 20.5845 26.6159 20.6643 26.5071C20.9574 26.0172 21.2004 25.4945 21.366 24.9446C21.4276 24.7228 21.4911 24.4874 21.4361 24.2575C21.3533 23.8961 21.0892 23.6261 20.8855 23.3332C20.0079 22.1105 19.305 20.7549 18.8172 19.3234C18.5368 18.4615 18.3343 17.5681 18.289 16.6592C18.2177 15.1931 18.0895 13.7096 17.6399 12.3071C17.4114 11.6108 17.0802 10.9089 16.4976 10.4511C16.0757 10.136 15.5402 10.0717 15.0379 9.99016C13.3227 9.77576 11.5911 9.7492 9.86492 9.77885C8.77036 9.82457 7.67218 9.86473 6.5885 10.0414C6.20531 10.1113 5.80943 10.1934 5.48487 10.4264C5.07328 10.734 4.77531 11.174 4.56498 11.6441C4.10685 12.6716 3.91586 13.7986 3.78773 14.9126C3.69646 15.6707 3.6874 16.4362 3.61668 17.1961C3.43355 18.6505 2.9446 20.0543 2.27251 21.3456C1.86031 22.1562 1.3774 22.9298 0.827398 23.6496C0.569926 23.964 0.397068 24.391 0.543332 24.7981C0.701079 25.403 0.966409 25.9739 1.28432 26.5071C1.36289 26.6152 1.34536 26.753 1.3363 26.8791C1.21905 26.8883 1.09877 26.9112 0.983332 26.8778C0.76998 26.6912 0.632178 26.4311 0.496189 26.1846C0.261684 25.6724 0.0543761 25.1343 0.0060245 24.5658C-0.028426 24.2995 0.0906399 24.0499 0.216354 23.8263C0.62009 23.1417 1.18641 22.5745 1.57685 21.8807C2.53784 20.2001 3.29696 18.3249 3.3302 16.3528C3.39729 14.763 3.54174 13.1634 3.96119 11.6256C4.15943 10.9645 4.38366 10.2534 4.93185 9.80418C5.64745 9.22835 6.57701 9.05041 7.46124 8.96082Z" fill="white"/>
<path d="M20.5639 9.60218C20.6697 9.56202 20.7803 9.53607 20.8933 9.52557C20.9417 9.66088 20.9852 9.79928 20.9967 9.94386C21.1055 10.9682 21.1448 12.0013 21.1024 13.0312C21.0595 13.7294 20.9876 14.4313 20.7972 15.1054C20.7054 15.4532 20.4424 15.7084 20.2176 15.9716C19.9444 16.2558 19.6422 16.5128 19.3195 16.7365C19.2421 16.7958 19.1442 16.7637 19.059 16.7501C18.9919 15.7869 18.9671 14.8199 18.8281 13.8635C18.7078 12.9614 18.5404 12.0631 18.2757 11.1931C18.211 10.9559 18.0702 10.7149 18.1439 10.4628C18.2437 10.3047 18.4093 10.2034 18.5906 10.1768C19.2615 10.0378 19.9239 9.85241 20.5639 9.60218Z" fill="white"/>
<path d="M0.994211 9.58675C1.1852 9.48604 1.38223 9.60343 1.56536 9.6646C2.148 9.89197 2.75421 10.0508 3.36525 10.1786C3.55503 10.2077 3.74844 10.3183 3.81613 10.5104C3.85965 10.7668 3.71883 11.001 3.65657 11.242C3.25707 12.5975 3.06729 14.0087 2.96454 15.418C2.94883 15.8561 2.92525 16.2941 2.88839 16.7316C2.85696 16.7557 2.79471 16.8038 2.76328 16.8279C2.36982 16.561 1.99872 16.2577 1.66992 15.9111C1.46927 15.6713 1.23839 15.4372 1.15498 15.1239C0.871519 14.1193 0.823167 13.0646 0.833441 12.0248C0.833441 11.2092 0.890859 10.3949 0.994211 9.58675Z" fill="white"/>
<path d="M4.96992 11.7671C5.05212 11.5842 5.1591 11.4137 5.29872 11.2722C5.40569 11.562 5.43168 11.874 5.53322 12.1656C5.84932 13.1418 6.33223 14.0593 6.55284 15.0683C6.75894 15.9339 6.76075 16.8471 6.54377 17.7108C5.99075 19.9425 5.14883 22.1254 3.85481 24.0215C3.36344 24.7432 2.80679 25.4173 2.20361 26.0438C2.07427 26.1809 1.92619 26.2965 1.77751 26.4095C1.61251 26.2656 1.52064 26.0604 1.41608 25.8708C1.21421 25.4679 1.02806 25.0509 0.927123 24.6079C0.866683 24.3675 1.00086 24.1433 1.13503 23.9579C2.12745 22.6573 2.91377 21.1936 3.46135 19.6428C3.76778 18.7414 3.99443 17.8054 4.05608 16.8508C4.09295 15.9611 4.15339 15.0708 4.29663 14.1909C4.4302 13.3612 4.61696 12.5308 4.96992 11.7671Z" fill="white"/>
<path d="M16.4111 12.2664C16.5084 11.9426 16.5326 11.5997 16.6523 11.2827C16.9315 11.5527 17.053 11.9395 17.1938 12.2948C17.6568 13.6355 17.7952 15.0646 17.8786 16.4751C17.8967 17.6423 18.1754 18.7896 18.57 19.8795C19.114 21.3444 19.8737 22.7265 20.8166 23.9629C20.9387 24.1377 21.0692 24.3416 21.0275 24.5677C20.9459 24.9811 20.7712 25.3672 20.5942 25.746C20.4757 25.9826 20.3584 26.2279 20.1662 26.4133C19.771 26.121 19.4603 25.7336 19.1303 25.3716C17.4096 23.3944 16.2836 20.9447 15.5886 18.4115C15.3861 17.7454 15.2501 17.0448 15.3317 16.346C15.4544 14.9299 16.037 13.6207 16.4111 12.2664Z" fill="white"/>
</svg>
