<svg width="26" height="23" viewBox="0 0 26 23" fill="none" xmlns="http://www.w3.org/2000/svg">
<path d="M24.9826 11.8291L22.4168 6.56709C21.4568 4.59828 19.9538 2.94247 18.0704 1.77878C16.187 0.615098 14.0147 0 11.7884 0C7.72102 0 3.99684 2.01277 1.82623 5.38409C-0.344432 8.75541 -0.595256 12.9165 1.15523 16.5149L3.46167 21.2562C3.97703 22.3155 5.0837 23 6.28109 23H22.1792C23.6297 23 24.8788 22.0344 25.2167 20.6519L25.7147 18.6148C26.2696 16.3449 26.0096 13.935 24.9826 11.8291ZM24.0661 12.2584C24.4155 12.975 24.6664 13.7306 24.8168 14.5037H21.8995L19.1727 11.8311C18.9743 11.6367 18.6528 11.6367 18.4543 11.8311C18.256 12.0255 18.256 12.3408 18.4543 12.5352L20.4628 14.5037H16.7321L11.6851 8.2455H14.0777L16.4971 10.6168C16.5963 10.7141 16.7263 10.7627 16.8563 10.7627C16.9862 10.7627 17.1162 10.714 17.2154 10.6168C17.4138 10.4224 17.4138 10.1072 17.2154 9.91277L15.5144 8.24545H22.1092L24.0661 12.2584ZM15.4372 14.5037H12.7975C11.9129 14.5037 11.0899 14.1145 10.5394 13.4358L6.94482 9.00403C6.6686 8.66699 6.54943 8.24491 6.60937 7.81546C6.66474 7.41832 6.87056 7.06161 7.18869 6.81104C7.87284 6.27236 8.8766 6.3796 9.42371 7.04702L15.4372 14.5037ZM24.7268 18.3828L24.7178 18.4197H16.2939C16.0134 18.4197 15.786 18.6426 15.786 18.9176C15.786 19.1926 16.0134 19.4155 16.2939 19.4155H24.4743L24.2288 20.4199C24.0008 21.3528 23.158 22.0043 22.1792 22.0043H6.28109C5.47314 22.0043 4.72641 21.5424 4.37867 20.8276L3.69172 19.4155H11.7224C12.0029 19.4155 12.2304 19.1926 12.2304 18.9176C12.2304 18.6426 12.0029 18.4197 11.7224 18.4197H3.20734L2.07223 16.0864C0.472704 12.7983 0.70189 8.99607 2.68532 5.91545C4.66881 2.83488 8.0718 0.995708 11.7884 0.995708C15.9105 0.995708 19.7227 3.35115 21.5002 6.99644L21.6237 7.2498H10.8821L10.2181 6.4265C9.3176 5.32798 7.67317 5.15234 6.55238 6.03483C6.03077 6.44561 5.69354 7.03009 5.60277 7.68059C5.50469 8.38381 5.70004 9.07528 6.1512 9.6257L9.74412 14.0554C10.4884 14.9732 11.6013 15.4994 12.7974 15.4994H24.9536C25.0323 16.4612 24.9584 17.4355 24.7268 18.3828Z" fill="white"/>
<path d="M21.8242 12.5352C21.9234 12.6324 22.0534 12.681 22.1834 12.681C22.3134 12.681 22.4434 12.6324 22.5426 12.5352C22.7409 12.3408 22.7409 12.0256 22.5426 11.8311L20.15 9.48601C19.9515 9.29164 19.63 9.29164 19.4316 9.48601C19.2332 9.68042 19.2332 9.99566 19.4316 10.1901L21.8242 12.5352Z" fill="white"/>
<path d="M8.18534 7.52914C8.05175 7.52914 7.92121 7.58241 7.82622 7.67501C7.73174 7.76761 7.67739 7.89606 7.67739 8.027C7.67739 8.15843 7.73169 8.28638 7.82622 8.37898C7.92121 8.47158 8.05175 8.52485 8.18534 8.52485C8.31944 8.52485 8.44998 8.47158 8.54441 8.37898C8.63939 8.28638 8.69375 8.15793 8.69375 8.027C8.69375 7.89606 8.63939 7.76761 8.54441 7.67501C8.44998 7.58241 8.31939 7.52914 8.18534 7.52914Z" fill="white"/>
<path d="M11.1603 12.1541C11.294 12.1541 11.425 12.1009 11.5195 12.0083C11.6139 11.9157 11.6683 11.7872 11.6683 11.6563C11.6683 11.5254 11.614 11.3969 11.5195 11.3043C11.425 11.2117 11.294 11.1584 11.1603 11.1584C11.0267 11.1584 10.8957 11.2117 10.8013 11.3043C10.7068 11.3969 10.6524 11.5254 10.6524 11.6563C10.6524 11.7877 10.7067 11.9157 10.8013 12.0083C10.8957 12.1009 11.0267 12.1541 11.1603 12.1541Z" fill="white"/>
<path d="M14.0079 18.4142C13.8743 18.4142 13.7433 18.4675 13.6488 18.5601C13.5544 18.6527 13.5 18.7811 13.5 18.9121C13.5 19.0435 13.5543 19.1714 13.6488 19.264C13.7433 19.3567 13.8743 19.4099 14.0079 19.4099C14.142 19.4099 14.2731 19.3567 14.367 19.264C14.4615 19.1714 14.5159 19.0435 14.5159 18.9121C14.5159 18.7811 14.4615 18.6527 14.367 18.5601C14.273 18.4675 14.142 18.4142 14.0079 18.4142Z" fill="white"/>
</svg>
