<svg width="17" height="17" viewBox="0 0 17 17" fill="none" xmlns="http://www.w3.org/2000/svg">
<g clip-path="url(#clip0)">
<path d="M15.4727 2.92261H11.6192C12.1244 2.19798 12.0545 1.1913 11.4085 0.54533C10.6836 -0.179661 9.50396 -0.179661 8.77901 0.54533C8.69763 0.62671 8.60044 0.744548 8.50003 0.943867C8.39959 0.744548 8.30244 0.62671 8.22106 0.54533C7.4961 -0.179661 6.3165 -0.179661 5.59154 0.54533C4.94557 1.1913 4.87571 2.19795 5.3809 2.92261H1.52734C0.68518 2.92261 0 3.60779 0 4.44995V5.64526C0 6.3254 0.446947 6.9029 1.0625 7.10003V15.4734C1.0625 16.3156 1.74768 17.0007 2.58984 17.0007H7.4375H9.5625H14.4102C15.2523 17.0007 15.9375 16.3156 15.9375 15.4734V7.10003C16.5531 6.90286 17 6.32536 17 5.64526V4.44995C17 3.60779 16.3148 2.92261 15.4727 2.92261ZM9.03125 6.11011H7.96875V3.98511H9.03125V6.11011ZM9.15623 2.4729C9.32032 1.52911 9.50928 1.31763 9.53029 1.29662C9.68565 1.14126 9.88972 1.0636 10.0938 1.0636C10.2978 1.0636 10.5019 1.14126 10.6573 1.29662C10.968 1.60733 10.968 2.11285 10.6573 2.42356C10.6364 2.44445 10.4262 2.63235 9.48952 2.79614C9.35319 2.81998 9.22014 2.83993 9.09739 2.85643C9.11353 2.7365 9.13298 2.60651 9.15623 2.4729ZM6.34276 1.29662C6.49812 1.14126 6.70218 1.0636 6.90625 1.0636C7.11032 1.0636 7.31438 1.14126 7.46974 1.29662C7.49062 1.3175 7.67852 1.52771 7.84231 2.46434C7.86615 2.60067 7.88611 2.73375 7.90261 2.8565C7.78268 2.84033 7.65266 2.82087 7.51908 2.79763C6.57528 2.63354 6.36381 2.44458 6.34279 2.42356C6.03208 2.11288 6.03208 1.60733 6.34276 1.29662ZM1.0625 4.44995C1.0625 4.19362 1.27102 3.98511 1.52734 3.98511H6.90625V6.11011H1.59375H1.52734C1.27102 6.11011 1.0625 5.90159 1.0625 5.64526V4.44995ZM2.125 15.4734V7.17261H6.90625V15.9382H2.58984C2.33352 15.9382 2.125 15.7297 2.125 15.4734ZM7.96875 15.9382V7.17261H9.03125V15.9382H7.96875ZM14.875 15.4734C14.875 15.7297 14.6665 15.9382 14.4102 15.9382H10.0938V7.17261H14.875V15.4734ZM15.9375 5.64526C15.9375 5.90159 15.729 6.11011 15.4727 6.11011H15.4062H10.0938V3.98511H15.4727C15.729 3.98511 15.9375 4.19362 15.9375 4.44995V5.64526Z" fill="#6ACA1F"/>
</g>
<defs>
<clipPath id="clip0">
<rect width="17" height="17" fill="white"/>
</clipPath>
</defs>
</svg>
