<svg width="25" height="27" viewBox="0 0 25 27" fill="none" xmlns="http://www.w3.org/2000/svg">
<path d="M23.2976 8.68515H20.257C19.7266 8.68515 19.2945 9.11719 19.2945 9.64765C19.2945 10.1781 19.7266 10.6102 20.257 10.6102H22.0617L20.5742 16.5492L5.7539 17.4187L5.1414 10.6102H6.77109C7.30156 10.6102 7.73359 10.1781 7.73359 9.64765C7.73359 9.11719 7.30156 8.68515 6.77109 8.68515H4.97187L4.69843 5.65C4.65468 5.15234 4.23906 4.775 3.7414 4.775H1.78906C1.25859 4.775 0.826561 5.20703 0.826561 5.7375C0.826561 6.26797 1.25859 6.7 1.78906 6.7H2.8664C3.08515 9.13906 2.35781 1.04531 3.97109 19.032C4.05312 19.9344 4.53437 20.8914 5.35468 21.5422C3.86172 23.4453 5.22343 26.2562 7.65156 26.2562C9.66406 26.2562 11.0859 24.2492 10.3969 22.3461H15.6633C14.9742 24.2437 16.3906 26.2562 18.4086 26.2562C20.0164 26.2562 21.3234 24.9492 21.3234 23.3414C21.3234 21.7336 20.0164 20.4266 18.4086 20.4266H7.6625C6.92968 20.4266 6.29531 19.9836 6.02187 19.3437L21.4 18.4414C21.8211 18.4141 22.1766 18.1242 22.275 17.7141L24.2328 9.89375C24.3805 9.27578 23.9211 8.68515 23.2976 8.68515ZM7.65703 24.3258C7.11015 24.3258 6.66172 23.8828 6.66172 23.3305C6.66172 22.7781 7.10468 22.3352 7.65703 22.3352C8.2039 22.3352 8.65234 22.7781 8.65234 23.3305C8.65234 23.8828 8.2039 24.3258 7.65703 24.3258ZM18.4086 24.3258C17.8617 24.3258 17.4133 23.8828 17.4133 23.3305C17.4133 22.7781 17.8562 22.3352 18.4086 22.3352C18.9555 22.3352 19.4039 22.7781 19.4039 23.3305C19.4039 23.8828 18.9555 24.3258 18.4086 24.3258Z" fill="white"/>
<path d="M8.61406 9.21015L13.1586 8.91484L13.5961 16.0242L9.91015 16.2648C9.43984 16.2976 9.02422 15.8766 8.98594 15.3406L8.61406 9.21015Z" fill="white"/>
<path d="M18.4359 8.57578L18.8078 14.7062C18.8406 15.2422 18.4852 15.7125 18.0094 15.7398L14.3234 15.9805L13.8859 8.87109L18.4359 8.57578Z" fill="white"/>
<path d="M7.42187 6.05469L7.51484 7.45469C7.54765 7.99062 7.96875 8.40625 8.43906 8.3789L8.55937 8.37344L13.8422 8.03437L13.6234 4.68203L8.22031 5.03203C7.74453 5.0539 7.38906 5.51875 7.42187 6.05469Z" fill="white"/>
<path d="M18.2883 4.37031L13.6234 4.67109L13.8422 8.02344L18.3867 7.72812L18.507 7.72265C18.9773 7.68984 19.3383 7.225 19.3055 6.68906L19.2125 5.28906C19.1742 4.75859 18.7586 4.34297 18.2883 4.37031Z" fill="white"/>
<path d="M13.2898 5.28359C13.1805 5.28906 13.0766 5.24531 13 5.15781C12.9234 5.07031 12.8852 4.95 12.8906 4.82968C12.9836 3.41875 13.7711 0.711717 16.1008 0.56406C17.4297 0.47656 17.9547 1.26406 18.0039 1.96953C18.0914 3.20547 16.6805 5.06484 13.2898 5.28359ZM16.1609 1.39531C14.4 1.51015 13.8586 3.45703 13.6945 4.39765C15.0781 4.23359 15.9258 3.77968 16.407 3.40234C17.0742 2.88281 17.293 2.3414 17.2711 2.00234C17.2383 1.50469 16.675 1.3625 16.1609 1.39531Z" fill="white"/>
<path d="M13.2898 5.28359C9.89921 5.50234 8.26406 3.84531 8.18203 2.59843C8.13828 1.89843 8.5539 1.04531 9.88828 0.963278C12.218 0.810153 13.35 3.39687 13.6234 4.78047C13.6453 4.90078 13.6234 5.02656 13.5578 5.11953C13.4977 5.2125 13.3992 5.27265 13.2898 5.28359ZM9.94296 1.8C9.4289 1.83281 8.8875 2.04609 8.92031 2.54922C8.96406 3.26562 10.1453 4.49609 12.7758 4.46328C12.4969 3.54453 11.7039 1.68515 9.94296 1.8Z" fill="white"/>
</svg>
