<svg width="5" height="12" viewBox="0 0 5 12" fill="none" xmlns="http://www.w3.org/2000/svg">
<path d="M2.48084 2.02015C3.03087 2.02015 3.47675 1.56792 3.47675 1.01007C3.47675 0.452225 3.03087 0 2.48084 0C1.93081 0 1.48493 0.452225 1.48493 1.01007C1.48493 1.56792 1.93081 2.02015 2.48084 2.02015Z" fill="#6ACA1F"/>
<path d="M2.82776 2.50176C2.57961 2.45066 2.3098 2.45291 2.06607 2.51117C0.41034 2.70794 -0.127281 4.65167 0.0245254 6.13372C0.0903747 6.77446 1.08629 6.78118 1.01978 6.13372C0.964534 5.59361 0.988178 4.77852 1.27124 4.19919C1.27124 4.90335 1.27124 5.60751 1.27124 6.31144C1.27124 6.33632 1.27367 6.35963 1.27478 6.38361C1.27411 6.39504 1.27146 6.40468 1.27146 6.41633C1.27146 8.09246 1.26859 9.76793 1.20031 11.4427C1.17004 12.1872 2.30826 12.1843 2.33831 11.4427C2.39178 10.1301 2.40526 8.81679 2.40836 7.50327C2.46227 7.50686 2.51619 7.50686 2.57011 7.50372C2.57342 8.81724 2.58646 10.1305 2.63949 11.4427C2.66976 12.1843 3.80798 12.1872 3.77749 11.4427C3.70921 9.76793 3.70678 8.09246 3.70678 6.41633C3.70678 6.36433 3.69993 6.31705 3.68954 6.27155C3.688 5.54386 3.6606 4.8155 3.66899 4.08825C4.00796 4.67027 4.0389 5.55798 3.98012 6.13328C3.91339 6.78029 4.90952 6.77379 4.97537 6.13328C5.13071 4.62052 4.56724 2.62637 2.82776 2.50176Z" fill="#6ACA1F"/>
</svg>
