<svg width="18" height="17" viewBox="0 0 18 17" fill="none" xmlns="http://www.w3.org/2000/svg">
<path d="M16.3798 12.3821C15.48 12.3821 14.7506 11.6342 14.7506 10.7127C14.7506 9.7963 15.4797 9.04843 16.3798 9.04843C17.2736 9.04843 18 9.79598 18 10.7127C18 11.6342 17.2733 12.3821 16.3798 12.3821Z" fill="#6ACA1F"/>
<path d="M15.0225 12.6916C15.1516 12.9386 15.0591 13.2436 14.8165 13.3726L8.99652 16.4701L8.4781 16.8195C8.30143 16.9386 8.09643 17 7.88945 17C7.79459 17 7.69945 16.987 7.60594 16.9608L0.789033 15.044C0.218025 14.8836 -0.118058 14.2787 0.0383607 13.6936C0.195406 13.1081 0.785066 12.7639 1.35573 12.9242L7.51679 14.6564L7.50478 14.6042L9.30804 13.523L8.61325 12.0982C8.49111 11.8478 8.59196 11.5455 8.8375 11.4237L12.1089 9.80005C12.4396 9.63593 12.9052 9.74168 13.0283 10.0965C13.0679 10.2105 13.0981 10.3285 13.1234 10.4483L13.3614 6.83074C13.389 6.41144 13.744 6.09379 14.152 6.1228C14.561 6.15109 14.8701 6.51377 14.8425 6.9331L14.5264 11.7396L15.0225 12.6916Z" fill="#6ACA1F"/>
<path d="M4.85865 12.4616C4.67463 12.4616 4.5259 12.3087 4.5259 12.1204V6.91744C4.5259 6.72913 4.67463 6.57628 4.85865 6.57628C5.04266 6.57628 5.19139 6.72913 5.19139 6.91744V12.1204C5.19142 12.3087 5.04235 12.4616 4.85865 12.4616Z" fill="#6ACA1F"/>
<path d="M6.02661 10.3292C5.8426 10.3292 5.69387 10.1764 5.69387 9.98808V4.78505C5.69387 4.59673 5.8426 4.44389 6.02661 4.44389C6.21063 4.44389 6.35936 4.59673 6.35936 4.78505V9.98804C6.35936 10.1764 6.21032 10.3292 6.02661 10.3292Z" fill="#6ACA1F"/>
<path d="M11.8765 8.01774C11.6925 8.01774 11.5438 7.86489 11.5438 7.67658V2.47355C11.5438 2.28524 11.6925 2.13239 11.8765 2.13239C12.0606 2.13239 12.2093 2.28524 12.2093 2.47355V7.67655C12.2093 7.86489 12.0602 8.01774 11.8765 8.01774Z" fill="#6ACA1F"/>
<path d="M10.7086 5.88535C10.5246 5.88535 10.3758 5.7325 10.3758 5.54419V0.341162C10.3758 0.152849 10.5246 0 10.7086 0C10.8926 0 11.0413 0.152849 11.0413 0.341162V5.54416C11.0413 5.7325 10.8926 5.88535 10.7086 5.88535Z" fill="#6ACA1F"/>
</svg>
