<svg width="10" height="10" viewBox="0 0 10 10" fill="none" xmlns="http://www.w3.org/2000/svg">
<path d="M4.40387 4.08419L4.40395 0.382821C4.40399 0.280969 4.44387 0.184912 4.51626 0.112356C4.58878 0.0398399 4.68492 -0.000120447 4.78677 2.72722e-07L5.11108 4.07694e-05C5.21313 -3.972e-05 5.30907 0.0399605 5.38163 0.112517C5.45406 0.184952 5.49406 0.280889 5.49398 0.382942L5.49402 4.08419L9.19535 4.08431C9.29732 4.08415 9.3933 4.12419 9.46581 4.1967C9.53825 4.26914 9.57829 4.36511 9.57813 4.46709L9.57825 4.79148C9.57825 5.00267 9.4065 5.17442 9.19543 5.1743L5.49402 5.17434L5.49406 8.87566C5.49398 8.97763 5.45406 9.07365 5.38159 9.14613C5.30911 9.2186 5.21309 9.25852 5.11116 9.25856L4.78681 9.25848C4.68488 9.2586 4.58882 9.21856 4.51643 9.14617C4.44391 9.07365 4.40391 8.97763 4.40403 8.8757L4.40395 5.17434H0.702667C0.600653 5.17438 0.504676 5.13442 0.432241 5.06198C0.359765 4.98951 0.319725 4.89345 0.319765 4.79144L0.319725 4.46713C0.319765 4.36528 0.359685 4.26918 0.43216 4.1967C0.504636 4.12423 0.600694 4.08435 0.702586 4.08427L4.40387 4.08419Z" fill="#6ACA1F"/>
</svg>
