<svg width="17" height="17" viewBox="0 0 17 17" fill="none" xmlns="http://www.w3.org/2000/svg">
<g clip-path="url(#clip0)">
<path d="M15.8696 8.72018C15.8012 8.58023 15.8012 8.41973 15.8696 8.27981L16.5037 6.98274C16.8567 6.26054 16.577 5.39976 15.8669 5.023L14.5916 4.34633C14.454 4.27335 14.3596 4.14346 14.3327 3.99009L14.0833 2.56805C13.9444 1.77629 13.212 1.24425 12.4162 1.35684L10.9868 1.55904C10.8325 1.58082 10.6799 1.53122 10.568 1.42294L9.53034 0.419155C8.95257 -0.139783 8.04746 -0.139816 7.46973 0.419155L6.43207 1.42304C6.32011 1.53135 6.16754 1.58086 6.01328 1.55914L4.5838 1.35694C3.78776 1.24428 3.05563 1.77639 2.91674 2.56815L2.66732 3.99013C2.6404 4.14352 2.54607 4.27338 2.40851 4.34639L1.13318 5.02307C0.423104 5.39979 0.143403 6.26064 0.496416 6.98284L1.13043 8.27988C1.19882 8.41983 1.19882 8.58033 1.13043 8.72025L0.496383 10.0173C0.14337 10.7395 0.423071 11.6003 1.13315 11.977L2.40847 12.6537C2.54607 12.7267 2.6404 12.8566 2.66732 13.0099L2.91674 14.432C3.04318 15.1527 3.66122 15.6582 4.37153 15.6582C4.44149 15.6582 4.51248 15.6532 4.58383 15.6432L6.01332 15.4409C6.16748 15.4191 6.32014 15.4688 6.43211 15.577L7.46973 16.5808C7.75866 16.8603 8.12927 17.0001 8.50002 17C8.87066 17 9.2415 16.8603 9.5303 16.5808L10.568 15.577C10.6799 15.4688 10.8325 15.4193 10.9868 15.4409L12.4162 15.6432C13.2124 15.7558 13.9444 15.2237 14.0833 14.4319L14.3327 13.01C14.3597 12.8566 14.454 12.7267 14.5916 12.6537L15.8669 11.977C16.577 11.6003 16.8567 10.7394 16.5037 10.0173L15.8696 8.72018ZM15.4073 11.1109L14.132 11.7875C13.7254 12.0033 13.4465 12.3871 13.367 12.8405L13.1176 14.2625C13.0706 14.5304 12.8229 14.7103 12.5536 14.6723L11.1241 14.4701C10.6682 14.4055 10.2171 14.5522 9.88624 14.8723L8.84858 15.876C8.65315 16.0651 8.34692 16.0651 8.15142 15.876L7.11379 14.8722C6.83416 14.6017 6.4686 14.4552 6.08696 14.4552C6.01704 14.4552 5.94655 14.4601 5.87596 14.4701L4.44647 14.6723C4.17733 14.7103 3.92947 14.5304 3.88245 14.2625L3.633 12.8404C3.55344 12.387 3.27461 12.0032 2.86797 11.7875L1.59264 11.1108C1.35239 10.9834 1.25776 10.6921 1.37719 10.4478L2.01123 9.15072C2.21337 8.73715 2.21337 8.26281 2.01123 7.84923L1.37719 6.55216C1.25776 6.30782 1.35239 6.0166 1.59264 5.88913L2.86797 5.21246C3.27457 4.99667 3.55344 4.61291 3.63296 4.1595L3.88239 2.73748C3.9294 2.4696 4.17703 2.28964 4.4464 2.32769L5.87589 2.5299C6.3316 2.59441 6.78286 2.44775 7.11373 2.12771L8.15139 1.12392C8.34682 0.934862 8.65305 0.934862 8.84855 1.12392L9.88617 2.12771C10.217 2.44779 10.6682 2.59441 11.124 2.5299L12.5535 2.32769C12.8227 2.28961 13.0705 2.4696 13.1175 2.73748L13.3669 4.15953C13.4465 4.61295 13.7253 4.99674 14.132 5.21246L15.4073 5.88913C15.6475 6.0166 15.7422 6.30782 15.6227 6.55216L14.9887 7.8492C14.7866 8.26274 14.7866 8.73715 14.9887 9.15069L15.6227 10.4477C15.7422 10.6921 15.6476 10.9834 15.4073 11.1109Z" fill="#6ACA1F"/>
<path d="M12.0821 4.91788C11.8907 4.72643 11.5802 4.72643 11.3888 4.91788L4.91789 11.3888C4.72644 11.5802 4.72644 11.8907 4.91789 12.0821C5.01361 12.1778 5.13908 12.2257 5.26452 12.2257C5.38997 12.2257 5.51547 12.1779 5.61116 12.0821L12.0821 5.61122C12.2736 5.41974 12.2736 5.10936 12.0821 4.91788Z" fill="#6ACA1F"/>
<path d="M6.53902 4.08781C5.54785 4.08781 4.74145 4.89421 4.74145 5.88539C4.74145 6.87656 5.54785 7.68296 6.53902 7.68296C7.53019 7.68296 8.33659 6.87656 8.33659 5.88539C8.33659 4.89421 7.53019 4.08781 6.53902 4.08781ZM6.53902 6.70245C6.08849 6.70245 5.72196 6.33592 5.72196 5.88535C5.72196 5.43482 6.08849 5.0683 6.53902 5.0683C6.98955 5.0683 7.35611 5.43482 7.35611 5.88535C7.35608 6.33592 6.98955 6.70245 6.53902 6.70245Z" fill="#6ACA1F"/>
<path d="M10.4609 9.31708C9.46978 9.31708 8.66338 10.1235 8.66338 11.1146C8.66338 12.1058 9.46978 12.9122 10.4609 12.9122C11.4521 12.9122 12.2585 12.1058 12.2585 11.1146C12.2585 10.1235 11.4521 9.31708 10.4609 9.31708ZM10.4609 11.9317C10.0104 11.9317 9.64386 11.5652 9.64386 11.1146C9.64386 10.6641 10.0104 10.2976 10.4609 10.2976C10.9115 10.2976 11.278 10.6641 11.278 11.1146C11.278 11.5652 10.9115 11.9317 10.4609 11.9317Z" fill="#6ACA1F"/>
</g>
<defs>
<clipPath id="clip0">
<rect width="17" height="17" fill="white"/>
</clipPath>
</defs>
</svg>
