<svg width="27" height="25" viewBox="0 0 27 25" fill="none" xmlns="http://www.w3.org/2000/svg">
<path d="M26.0807 13.6466C25.0839 13.1244 24.0563 12.6632 23.0037 12.2654L26.134 10.0047C26.2092 9.95039 26.2652 9.87367 26.294 9.78554C26.3229 9.69741 26.323 9.60241 26.2945 9.51419C26.266 9.42596 26.2102 9.34904 26.1352 9.29448C26.0603 9.23993 25.9699 9.21054 25.8772 9.21053H16.5442L13.574 0.299876C13.5449 0.212552 13.489 0.136601 13.4143 0.0827809C13.3397 0.0289609 13.2499 0 13.1579 0C13.0658 0 12.9761 0.0289609 12.9015 0.0827809C12.8268 0.136601 12.7709 0.212552 12.7418 0.299876L9.77159 9.21053H0.438591C0.345865 9.21054 0.255526 9.23993 0.180549 9.29448C0.105571 9.34904 0.0498138 9.42596 0.0212839 9.51419C-0.00724604 9.60241 -0.00708024 9.69741 0.0217575 9.78554C0.0505952 9.87367 0.106621 9.95039 0.181788 10.0047L3.31207 12.2654C2.25945 12.6632 1.23191 13.1244 0.235087 13.6466C0.182867 13.6739 0.136697 13.7115 0.0993358 13.7571C0.0619745 13.8027 0.0341887 13.8554 0.0176389 13.9119C0.00108912 13.9685 -0.00388502 14.0279 0.00301371 14.0864C0.00991243 14.1449 0.0285424 14.2015 0.0577904 14.2527L3.56656 20.393C3.62292 20.4916 3.71528 20.5645 3.82424 20.5963C3.9332 20.6282 4.05028 20.6166 4.15087 20.564C4.90274 20.1703 5.67963 19.8263 6.47652 19.5343L4.84707 24.4227C4.81817 24.5094 4.81707 24.603 4.84394 24.6903C4.8708 24.7777 4.92429 24.8545 4.99692 24.91C5.06956 24.9654 5.15771 24.9968 5.24906 24.9998C5.34041 25.0027 5.43039 24.977 5.50644 24.9263L13.1579 19.8254L20.8094 24.9263C20.8854 24.977 20.9754 25.0027 21.0667 24.9998C21.1581 24.9968 21.2462 24.9654 21.3189 24.91C21.3915 24.8545 21.445 24.7777 21.4719 24.6903C21.4987 24.603 21.4976 24.5094 21.4687 24.4227L19.8393 19.5343C20.6362 19.8263 21.4131 20.1703 22.1649 20.564C22.2655 20.6167 22.3826 20.6283 22.4916 20.5965C22.6006 20.5646 22.6929 20.4916 22.7492 20.393L26.258 14.2527C26.2873 14.2015 26.3059 14.1449 26.3128 14.0864C26.3197 14.0279 26.3147 13.9685 26.2982 13.9119C26.2816 13.8554 26.2538 13.8027 26.2165 13.7571C26.1791 13.7115 26.1329 13.6739 26.0807 13.6466ZM1.79502 10.0877H10.0877C10.1798 10.0877 10.2695 10.0588 10.3442 10.0049C10.4188 9.95113 10.4747 9.87518 10.5038 9.78785L13.1579 1.82554L15.812 9.78785C15.8411 9.87518 15.897 9.95113 15.9716 10.0049C16.0463 10.0588 16.136 10.0877 16.2281 10.0877H24.5208L21.9998 11.9084C16.2615 9.98845 10.0543 9.98845 4.31602 11.9084L1.79502 10.0877ZM20.2323 23.4874L13.4012 18.9333C13.3291 18.8853 13.2445 18.8597 13.1579 18.8597C13.0713 18.8597 12.9867 18.8853 12.9146 18.9333L6.08349 23.4874L7.51736 19.1858C11.1949 18.0697 15.1209 18.0697 18.7984 19.1858L20.2323 23.4874ZM22.1952 19.5945C19.3873 18.1979 16.2939 17.4711 13.1579 17.4711C10.0219 17.4711 6.92848 18.1979 4.12059 19.5945L1.04702 14.2158C4.80499 12.3279 8.95232 11.3446 13.1579 11.3446C17.3635 11.3446 21.5108 12.3279 25.2688 14.2158L22.1952 19.5945Z" fill="white"/>
<path d="M7.34881 14.7128H6.07417L5.68028 13.5006C5.65166 13.4125 5.59589 13.3357 5.52096 13.2813C5.44602 13.2268 5.35578 13.1975 5.26315 13.1975C5.17053 13.1975 5.08028 13.2268 5.00534 13.2813C4.93041 13.3357 4.87464 13.4125 4.84602 13.5006L4.45213 14.7128H3.17749C3.08487 14.7128 2.99463 14.7422 2.9197 14.7966C2.84476 14.851 2.78899 14.9278 2.76037 15.0159C2.73175 15.104 2.73175 15.1989 2.76037 15.287C2.78899 15.375 2.84476 15.4518 2.91969 15.5062L3.95089 16.2555L3.55703 17.4677C3.52842 17.5558 3.52842 17.6507 3.55705 17.7388C3.58567 17.8269 3.64145 17.9036 3.71638 17.958C3.79131 18.0125 3.88155 18.0418 3.97417 18.0418C4.06678 18.0418 4.15702 18.0125 4.23195 17.958L5.26315 17.2089L6.29435 17.958C6.36928 18.0125 6.45952 18.0418 6.55213 18.0418C6.64475 18.0418 6.73499 18.0125 6.80992 17.958C6.88485 17.9036 6.94063 17.8269 6.96925 17.7388C6.99788 17.6507 6.99788 17.5558 6.96927 17.4677L6.57541 16.2555L7.60661 15.5062C7.68154 15.4518 7.73731 15.375 7.76593 15.287C7.79455 15.1989 7.79455 15.104 7.76593 15.0159C7.73731 14.9278 7.68154 14.851 7.60661 14.7966C7.53167 14.7422 7.44143 14.7128 7.34881 14.7128ZM5.802 15.7331C5.72706 15.7875 5.67129 15.8643 5.64266 15.9524C5.61404 16.0405 5.61404 16.1354 5.64267 16.2235L5.71786 16.455L5.52094 16.3119C5.44602 16.2575 5.35578 16.2281 5.26315 16.2281C5.17053 16.2281 5.08028 16.2575 5.00536 16.3119L4.80844 16.455L4.88364 16.2235C4.91226 16.1354 4.91226 16.0405 4.88364 15.9524C4.85501 15.8643 4.79924 15.7875 4.7243 15.7331L4.52736 15.59H4.7708C4.86343 15.59 4.95368 15.5607 5.02861 15.5063C5.10355 15.4518 5.15932 15.375 5.18793 15.2869L5.26315 15.0554L5.33837 15.2869C5.36699 15.375 5.42276 15.4518 5.49769 15.5063C5.57263 15.5607 5.66288 15.59 5.7555 15.59H5.99895L5.802 15.7331Z" fill="white"/>
<path d="M12.1734 13.3971H10.8988L10.5049 12.1848C10.4762 12.0967 10.4205 12.02 10.3455 11.9655C10.2706 11.9111 10.1804 11.8817 10.0877 11.8817C9.99511 11.8817 9.90486 11.9111 9.82993 11.9655C9.75499 12.02 9.69922 12.0967 9.6706 12.1848L9.27671 13.3971H8.00207C7.90945 13.3971 7.81921 13.4264 7.74428 13.4808C7.66935 13.5353 7.61357 13.612 7.58495 13.7001C7.55633 13.7882 7.55633 13.8831 7.58495 13.9712C7.61357 14.0593 7.66934 14.136 7.74428 14.1905L8.77548 14.9397L8.38161 16.152C8.353 16.24 8.353 16.3349 8.38163 16.423C8.41026 16.5111 8.46603 16.5879 8.54096 16.6423C8.61589 16.6967 8.70613 16.726 8.79875 16.726C8.89137 16.726 8.9816 16.6967 9.05653 16.6423L10.0877 15.8931L11.1189 16.6423C11.1939 16.6967 11.2841 16.726 11.3767 16.726C11.4693 16.726 11.5596 16.6967 11.6345 16.6423C11.7094 16.5879 11.7652 16.5111 11.7938 16.423C11.8225 16.3349 11.8225 16.24 11.7939 16.152L11.4 14.9397L12.4312 14.1905C12.5061 14.136 12.5619 14.0593 12.5905 13.9712C12.6191 13.8831 12.6191 13.7882 12.5905 13.7001C12.5619 13.612 12.5061 13.5353 12.4312 13.4808C12.3563 13.4264 12.266 13.3971 12.1734 13.3971ZM10.6266 14.4173C10.5516 14.4718 10.4959 14.5485 10.4672 14.6366C10.4386 14.7247 10.4386 14.8196 10.4672 14.9077L10.5424 15.1392L10.3455 14.9961C10.2706 14.9417 10.1804 14.9124 10.0877 14.9124C9.99511 14.9124 9.90486 14.9417 9.82994 14.9961L9.63302 15.1392L9.70822 14.9077C9.73684 14.8196 9.73684 14.7247 9.70822 14.6366C9.67959 14.5485 9.62382 14.4718 9.54888 14.4173L9.35194 14.2743H9.59538C9.68801 14.2743 9.77826 14.245 9.85319 14.1905C9.92813 14.1361 9.9839 14.0593 10.0125 13.9712L10.0877 13.7397L10.163 13.9712C10.1916 14.0593 10.2473 14.1361 10.3223 14.1905C10.3972 14.245 10.4875 14.2743 10.5801 14.2743H10.8235L10.6266 14.4173Z" fill="white"/>
<path d="M18.5498 15.0159C18.5212 15.104 18.5212 15.1989 18.5498 15.287C18.5785 15.3751 18.6342 15.4518 18.7092 15.5062L19.7404 16.2555L19.3465 17.4677C19.3179 17.5558 19.3179 17.6507 19.3465 17.7388C19.3752 17.8269 19.4309 17.9036 19.5059 17.958C19.5808 18.0125 19.671 18.0418 19.7637 18.0418C19.8563 18.0418 19.9465 18.0125 20.0214 17.958L21.0526 17.2089L22.0838 17.958C22.1588 18.0125 22.249 18.0418 22.3416 18.0418C22.4342 18.0418 22.5245 18.0125 22.5994 17.958C22.6743 17.9036 22.7301 17.8269 22.7587 17.7388C22.7874 17.6507 22.7874 17.5558 22.7588 17.4677L22.3649 16.2555L23.3961 15.5062C23.471 15.4518 23.5268 15.375 23.5554 15.287C23.584 15.1989 23.584 15.104 23.5554 15.0159C23.5268 14.9278 23.471 14.851 23.3961 14.7966C23.3212 14.7422 23.2309 14.7128 23.1383 14.7128H21.8637L21.4698 13.5006C21.4411 13.4125 21.3854 13.3357 21.3104 13.2813C21.2355 13.2268 21.1453 13.1975 21.0526 13.1975C20.96 13.1975 20.8698 13.2268 20.7948 13.2813C20.7199 13.3357 20.6641 13.4125 20.6355 13.5006L20.2416 14.7128H18.967C18.8743 14.7128 18.7841 14.7422 18.7092 14.7966C18.6342 14.8511 18.5785 14.9278 18.5498 15.0159ZM20.5603 15.59C20.6529 15.59 20.7432 15.5607 20.8181 15.5063C20.893 15.4518 20.9488 15.375 20.9774 15.2869L21.0526 15.0554L21.1279 15.2869C21.1565 15.375 21.2122 15.4518 21.2872 15.5063C21.3621 15.5607 21.4524 15.59 21.545 15.59H21.7884L21.5915 15.7331C21.5166 15.7875 21.4608 15.8643 21.4322 15.9524C21.4035 16.0405 21.4035 16.1354 21.4322 16.2235L21.5073 16.455L21.3104 16.3119C21.2355 16.2575 21.1453 16.2281 21.0526 16.2281C20.96 16.2281 20.8698 16.2575 20.7948 16.3119L20.5979 16.455L20.6731 16.2235C20.7017 16.1354 20.7017 16.0405 20.6731 15.9524C20.6445 15.8643 20.5887 15.7875 20.5138 15.7331L20.3168 15.59H20.5603Z" fill="white"/>
<path d="M13.8846 14.1905L14.9158 14.9397L14.522 16.152C14.4934 16.24 14.4934 16.3349 14.522 16.423C14.5506 16.5111 14.6064 16.5879 14.6813 16.6423C14.7562 16.6967 14.8465 16.726 14.9391 16.726C15.0317 16.726 15.122 16.6967 15.1969 16.6423L16.2281 15.8931L17.2593 16.6423C17.3342 16.6967 17.4245 16.726 17.5171 16.726C17.6097 16.726 17.6999 16.6967 17.7749 16.6423C17.8498 16.5879 17.9056 16.5111 17.9342 16.423C17.9628 16.3349 17.9628 16.24 17.9342 16.152L17.5403 14.9397L18.5715 14.1905C18.6465 14.136 18.7022 14.0593 18.7309 13.9712C18.7595 13.8831 18.7595 13.7882 18.7309 13.7001C18.7022 13.612 18.6465 13.5353 18.5715 13.4808C18.4966 13.4264 18.4064 13.3971 18.3137 13.3971H17.0391L16.6452 12.1848C16.6166 12.0967 16.5608 12.02 16.4859 11.9655C16.411 11.9111 16.3207 11.8817 16.2281 11.8817C16.1355 11.8817 16.0452 11.9111 15.9703 11.9655C15.8953 12.02 15.8396 12.0967 15.811 12.1848L15.4171 13.3971H14.1424C14.0498 13.3971 13.9596 13.4264 13.8846 13.4808C13.8097 13.5353 13.7539 13.612 13.7253 13.7001C13.6967 13.7882 13.6967 13.8831 13.7253 13.9712C13.7539 14.0593 13.8097 14.136 13.8846 14.1905ZM15.7357 14.2743C15.8284 14.2743 15.9186 14.245 15.9935 14.1905C16.0685 14.1361 16.1243 14.0593 16.1529 13.9712L16.2281 13.7397L16.3033 13.9712C16.3319 14.0593 16.3877 14.1361 16.4626 14.1905C16.5376 14.245 16.6278 14.2743 16.7204 14.2743H16.9639L16.7669 14.4173C16.692 14.4718 16.6362 14.5485 16.6076 14.6366C16.579 14.7247 16.579 14.8196 16.6076 14.9077L16.6828 15.1392L16.4859 14.9961C16.411 14.9417 16.3207 14.9124 16.2281 14.9124C16.1355 14.9124 16.0452 14.9417 15.9703 14.9961L15.7734 15.1392L15.8486 14.9077C15.8772 14.8196 15.8772 14.7247 15.8486 14.6366C15.8199 14.5485 15.7642 14.4718 15.6892 14.4173L15.4923 14.2743L15.7357 14.2743Z" fill="white"/>
</svg>
