<svg width="25" height="27" viewBox="0 0 25 27" fill="none" xmlns="http://www.w3.org/2000/svg">
<path d="M24.7494 15.7497C24.7492 12.4754 23.3501 9.52837 21.1176 7.47272L23.2917 5.29864C23.731 4.85932 23.731 4.14699 23.2917 3.70767C22.8524 3.26835 22.1401 3.26835 21.7008 3.70767L19.2995 6.10899C18.5444 5.65385 17.7317 5.28487 16.8746 5.01572V1.12496C16.8746 0.503655 16.3709 0 15.7496 0H11.2497C10.6284 0 10.1248 0.503655 10.1248 1.12496V5.02479C9.56854 5.20145 9.02507 5.42056 8.49868 5.68243C7.9424 5.95917 7.71581 6.63447 7.99255 7.19076C8.26929 7.74704 8.9446 7.97364 9.50088 7.69689C10.118 7.38988 10.7624 7.1549 11.4256 6.99575C11.4504 6.9918 11.4752 6.98721 11.5001 6.98151C11.7925 6.9148 12.0839 6.86307 12.3747 6.825V7.87481C12.3747 8.49612 12.8784 8.99977 13.4997 8.99977C14.121 8.99977 14.6247 8.49612 14.6247 7.87481V6.825C14.9155 6.86307 15.2069 6.9148 15.4993 6.98151C15.5394 6.99064 15.5792 6.99728 15.619 7.00197C16.8755 7.30524 18.029 7.87175 19.018 8.64039L18.2725 9.38583C17.8332 9.82515 17.8332 10.5375 18.2725 10.9768C18.7118 11.4161 19.4242 11.4161 19.8635 10.9768L20.609 10.2313C21.5766 11.476 22.2246 12.9813 22.4296 14.6246H21.3746C20.7533 14.6246 20.2496 15.1283 20.2496 15.7496C20.2496 16.3709 20.7533 16.8745 21.3746 16.8745H22.4297C22.2249 18.5178 21.5769 20.0233 20.6093 21.2682L19.8635 20.5224C19.4242 20.0831 18.7118 20.0831 18.2725 20.5224C17.8332 20.9617 17.8332 21.674 18.2725 22.1134L19.0184 22.8593C17.7736 23.827 16.2681 24.4752 14.6247 24.6801V23.6245C14.6247 23.0032 14.121 22.4995 13.4997 22.4995C12.8784 22.4995 12.3748 23.0032 12.3748 23.6245V24.6777C11.3763 24.5502 10.4095 24.2544 9.50098 23.8025C8.9447 23.5257 8.26945 23.7523 7.99266 24.3086C7.71586 24.8649 7.94251 25.5401 8.49879 25.8169C10.0521 26.5897 11.7502 27.0001 13.4998 27.0001C19.713 27.0001 24.7494 21.9624 24.7494 15.7497ZM12.3747 2.24997H14.6247V4.55631C14.3881 4.53284 14.1494 4.51729 13.9088 4.50869C13.7725 4.50347 13.6361 4.49994 13.4996 4.49994C13.3928 4.49994 13.286 4.502 13.1793 4.50516C13.1635 4.50563 13.1476 4.50653 13.1318 4.50706C13.0534 4.50975 12.975 4.51296 12.8966 4.51739C12.8321 4.52087 12.7678 4.52546 12.7034 4.53005C12.6807 4.53174 12.658 4.53321 12.6353 4.53506C12.5483 4.54181 12.4614 4.54967 12.3747 4.55847V2.24997Z" fill="white"/>
<path d="M14.2952 16.5452L17.6701 13.1702C18.1095 12.7309 18.1095 12.0186 17.6701 11.5793C17.2308 11.14 16.5185 11.14 16.0792 11.5793L12.7042 14.9542C12.2649 15.3935 12.2649 16.1058 12.7042 16.5452C13.1436 16.9845 13.8558 16.9845 14.2952 16.5452Z" fill="white"/>
<path d="M6.74985 14.6247H1.12496C0.503655 14.6247 0 15.1283 0 15.7496C0 16.3709 0.503655 16.8746 1.12496 16.8746H6.74985C7.37116 16.8746 7.87481 16.3709 7.87481 15.7496C7.87481 15.1284 7.37116 14.6247 6.74985 14.6247Z" fill="white"/>
<path d="M6.74986 8.99982H3.37493C2.75362 8.99982 2.24997 9.50347 2.24997 10.1248C2.24997 10.7461 2.75362 11.2497 3.37493 11.2497H6.74986C7.37116 11.2497 7.87481 10.7461 7.87481 10.1248C7.87481 9.50347 7.37116 8.99982 6.74986 8.99982Z" fill="white"/>
<path d="M6.74986 20.2496H3.37493C2.75362 20.2496 2.24997 20.7532 2.24997 21.3745C2.24997 21.9958 2.75362 22.4995 3.37493 22.4995H6.74986C7.37116 22.4995 7.87481 21.9958 7.87481 21.3745C7.87481 20.7532 7.37116 20.2496 6.74986 20.2496Z" fill="white"/>
</svg>
