<svg width="26" height="19" viewBox="0 0 26 19" fill="none" xmlns="http://www.w3.org/2000/svg">
<path d="M15.7074 16.2883C15.7074 18.673 12.8021 19.9187 11.0869 18.2028C9.37471 16.4917 10.6117 13.5804 13.0006 13.5804C14.4964 13.5804 15.7074 14.7911 15.7074 16.2883ZM7.65198 10.9375C7.3249 11.2652 7.3249 11.7964 7.6525 12.1242C7.97958 12.4519 8.51057 12.4519 8.83817 12.1242C11.1385 9.82292 14.8624 9.82261 17.163 12.1242C17.3265 12.2878 17.5415 12.3701 17.7558 12.3701C18.4956 12.3701 18.8786 11.4679 18.3492 10.9375C15.3923 7.98046 10.6089 7.98051 7.65198 10.9375ZM3.59334 8.75817C3.15079 9.30982 3.55152 10.1221 4.24698 10.1221C4.49282 10.1221 4.73603 10.0146 4.90167 9.80798C9.04548 4.64016 16.8795 4.63035 21.0455 9.74138C21.3385 10.1006 21.8669 10.1541 22.2254 9.86094C22.5845 9.56834 22.6379 9.03976 22.3455 8.68056C17.4875 2.72444 8.40526 2.75695 3.59334 8.75817ZM25.8212 6.24744C19.2905 -2.07632 6.72037 -2.08864 0.179961 6.24744C-0.253631 6.8006 0.147253 7.60453 0.839364 7.60453C1.08782 7.60453 1.33418 7.49441 1.49982 7.28361C7.35698 -0.186764 18.6385 -0.194053 24.5014 7.28361C24.7876 7.64806 25.3149 7.71151 25.6792 7.42519C26.0435 7.13941 26.1069 6.61188 25.8212 6.24744Z" fill="white"/>
</svg>
