<svg width="17" height="17" viewBox="0 0 17 17" fill="none" xmlns="http://www.w3.org/2000/svg">
<path d="M15.429 3.5934C15.4287 3.58792 15.4281 3.58244 15.4272 3.577C15.4059 3.54664 15.3798 3.52052 15.3579 3.49077C15.1992 3.27456 15.0312 3.06646 14.8539 2.86644C14.8053 2.81178 14.7567 2.75772 14.7069 2.70427C14.5243 2.50874 14.3328 2.32227 14.1324 2.14495C14.0953 2.11214 14.0607 2.07816 14.0237 2.04595C13.5297 1.62281 12.9889 1.25764 12.4118 0.957658C12.3887 0.945524 12.3645 0.935204 12.3408 0.923034C12.0838 0.792437 11.8203 0.675043 11.5513 0.571384C11.4905 0.549534 11.4352 0.52886 11.3776 0.51064C11.1383 0.424418 10.8953 0.348907 10.6488 0.284106C10.5759 0.264677 10.503 0.244643 10.4289 0.227633C10.186 0.17116 9.9431 0.128031 9.69468 0.0928017C9.61938 0.0818771 9.54529 0.0672873 9.46935 0.0581775C8.82957 -0.0195756 8.18274 -0.0195756 7.54293 0.0581775C7.46702 0.0672873 7.39294 0.0818771 7.3176 0.0928017C7.06922 0.128031 6.82386 0.17116 6.58334 0.227633C6.50925 0.244643 6.43638 0.264677 6.3635 0.284106C6.11529 0.348871 5.87239 0.424382 5.63472 0.51064C5.57398 0.531279 5.51871 0.551954 5.46103 0.571384C5.19204 0.675043 4.9285 0.792402 4.6715 0.923034C4.64781 0.935169 4.62354 0.945488 4.60044 0.957658C4.02144 1.25732 3.4788 1.62246 2.98314 2.04595C2.9461 2.07812 2.91147 2.11214 2.87443 2.14495C2.67199 2.32309 2.48047 2.50955 2.29991 2.70427C2.25013 2.75772 2.20152 2.81178 2.15294 2.86644C1.9752 3.06603 1.80717 3.27413 1.64888 3.49074C1.62703 3.52049 1.60091 3.54661 1.57963 3.57696C1.57686 3.58226 1.5744 3.58774 1.57234 3.59336C-0.522404 6.52902 -0.522404 10.4708 1.57234 13.4064C1.5744 13.412 1.57682 13.4175 1.57963 13.4228C1.60088 13.4531 1.627 13.4793 1.64888 13.509C1.8072 13.7252 1.9752 13.9333 2.15294 14.1333C2.20152 14.188 2.25013 14.2421 2.29991 14.2955C2.48292 14.491 2.67441 14.6775 2.87443 14.8548C2.91147 14.8876 2.9461 14.9216 2.98314 14.9538C3.47706 15.377 4.01788 15.7421 4.59496 16.0421C4.61806 16.0543 4.64233 16.0646 4.66603 16.0767C4.92302 16.2073 5.18653 16.3247 5.45555 16.4284C5.51629 16.4502 5.57156 16.4709 5.62924 16.4891C5.86851 16.5754 6.11145 16.6509 6.35802 16.7157C6.4309 16.7351 6.50377 16.7551 6.57786 16.7721C6.8208 16.8286 7.0637 16.8717 7.31212 16.907C7.38742 16.9179 7.46151 16.9325 7.53745 16.9416C8.17723 17.0194 8.82406 17.0194 9.46387 16.9416C9.53978 16.9325 9.61386 16.9179 9.6892 16.907C9.93758 16.8717 10.1829 16.8286 10.4235 16.7721C10.4975 16.7551 10.5704 16.7351 10.6433 16.7157C10.8919 16.6509 11.1348 16.5754 11.3721 16.4891C11.4328 16.4685 11.4881 16.4478 11.5458 16.4284C11.8148 16.3247 12.0783 16.2074 12.3353 16.0767C12.359 16.0646 12.3833 16.0543 12.4064 16.0421C12.9834 15.7421 13.5243 15.377 14.0182 14.9538C14.0552 14.9216 14.0898 14.8876 14.1269 14.8548C14.3293 14.6771 14.5209 14.4907 14.7014 14.2955C14.7512 14.2421 14.7998 14.188 14.8484 14.1333C15.0261 13.9333 15.1942 13.7252 15.3524 13.509C15.3743 13.4793 15.4004 13.4531 15.4217 13.4228C15.4245 13.4175 15.4269 13.412 15.429 13.4064C17.5237 10.4708 17.5237 6.52905 15.429 3.5934ZM14.736 4.74247C15.3169 5.69903 15.6676 6.7774 15.7606 7.89263H12.1227C12.0782 7.16898 11.9643 6.4513 11.7827 5.74942C12.8102 5.55698 13.8049 5.21785 14.736 4.74247ZM10.0487 1.37973C10.0828 1.38763 10.1155 1.39856 10.1496 1.40646C10.367 1.45748 10.5826 1.51577 10.7933 1.58865C10.8255 1.59958 10.8571 1.61235 10.8887 1.62388C11.0976 1.69676 11.3035 1.77754 11.5051 1.86682C11.5404 1.88322 11.575 1.90144 11.6102 1.91785C11.8033 2.00976 11.992 2.10915 12.1762 2.21605L12.2977 2.28953C12.4726 2.39643 12.6426 2.5108 12.8078 2.63268C12.8504 2.66364 12.8928 2.69342 12.9348 2.7274C13.0967 2.84886 13.2518 2.97903 13.4 3.11791C13.4388 3.15314 13.4789 3.18777 13.5172 3.22421C13.6726 3.37178 13.8208 3.52785 13.9642 3.68941C13.9824 3.71065 14.0018 3.73008 14.02 3.75015C13.1977 4.14205 12.3265 4.42189 11.4298 4.58216C11.0144 3.44017 10.4657 2.3512 9.79496 1.33788C9.87929 1.35304 9.96555 1.36155 10.0487 1.37973ZM6.09633 7.8926C6.14422 7.23549 6.2561 6.5846 6.43036 5.9492C7.11847 6.03093 7.81081 6.07147 8.50376 6.07065C9.19734 6.07043 9.89032 6.02887 10.579 5.94614C10.7529 6.58257 10.8642 7.23449 10.9111 7.8926H6.09633ZM10.9111 9.10725C10.8633 9.76437 10.7514 10.4152 10.5771 11.0507C9.88901 10.9689 9.19667 10.9284 8.50372 10.9292C7.81017 10.9284 7.11722 10.969 6.42851 11.0507C6.25475 10.4152 6.14351 9.76433 6.09629 9.10725H10.9111ZM8.50372 1.60812C9.19485 2.58766 9.76329 3.64827 10.1963 4.76617C9.63411 4.82589 9.06913 4.85588 8.50372 4.85606C7.93895 4.85539 7.37457 4.82521 6.81294 4.76557C7.2465 3.64841 7.81426 2.58816 8.50372 1.60812ZM3.04396 3.68877C3.18669 3.52721 3.33547 3.37114 3.49094 3.22357C3.52919 3.18713 3.5693 3.1525 3.60816 3.11727C3.75797 2.98084 3.91305 2.85067 4.07336 2.72676C4.11528 2.69456 4.15776 2.66602 4.20029 2.63204C4.36547 2.51059 4.53553 2.39618 4.71043 2.28889L4.83189 2.21541C5.01611 2.10773 5.20478 2.0083 5.3979 1.91721C5.43313 1.9008 5.46775 1.88258 5.50298 1.86618C5.70461 1.77508 5.9105 1.6943 6.11942 1.62324C6.15099 1.61171 6.18016 1.59893 6.21475 1.58801C6.42549 1.51755 6.63989 1.45926 6.85852 1.40582C6.89254 1.39792 6.92531 1.38699 6.95994 1.3797C7.04314 1.36148 7.12939 1.35297 7.2138 1.33778C6.54281 2.35127 5.99388 3.44046 5.57828 4.58266C4.68158 4.42239 3.81038 4.14255 2.98809 3.75065C3.00631 3.72944 3.02574 3.71001 3.04396 3.68877ZM2.27144 4.74247C3.20238 5.21782 4.1968 5.55694 5.22421 5.74942C5.04276 6.45133 4.92907 7.16901 4.88473 7.89263H1.24692C1.33993 6.7774 1.69066 5.69903 2.27144 4.74247ZM2.27144 12.2574C1.69062 11.3009 1.3399 10.2225 1.24692 9.10725H4.88473C4.92928 9.83091 5.04315 10.5486 5.22482 11.2505C4.19723 11.4429 3.20259 11.782 2.27144 12.2574ZM6.95873 15.6201C6.92471 15.6122 6.89193 15.6013 6.85792 15.5934C6.64049 15.5424 6.42488 15.4841 6.21415 15.4112C6.18194 15.4003 6.15038 15.3875 6.11878 15.376C5.90986 15.3031 5.704 15.2223 5.50234 15.133C5.46711 15.1166 5.43249 15.0984 5.39726 15.082C5.20414 14.9901 5.01547 14.8907 4.83125 14.7838L4.70979 14.7103C4.53489 14.6034 4.36483 14.489 4.19965 14.3672C4.15712 14.3362 4.11464 14.3064 4.07272 14.2724C3.91077 14.151 3.75569 14.0208 3.60751 13.8819C3.56866 13.8467 3.52855 13.8121 3.4903 13.7756C3.33483 13.6281 3.18665 13.472 3.04331 13.3104C3.0251 13.2892 3.00567 13.2698 2.98745 13.2497C3.80978 12.8578 4.68093 12.578 5.57764 12.4177C5.99306 13.5597 6.54181 14.6486 7.21252 15.662C7.12815 15.6468 7.04193 15.6383 6.95873 15.6201ZM8.50372 15.3918C7.81259 14.4122 7.24415 13.3516 6.81112 12.2337C7.93586 12.1127 9.07034 12.1127 10.1951 12.2337C9.76158 13.3508 9.19321 14.4117 8.50372 15.3918ZM13.9635 13.3111C13.8208 13.4726 13.672 13.6287 13.5165 13.7763C13.4783 13.8127 13.4382 13.8473 13.3993 13.8826C13.2495 14.0194 13.0944 14.1496 12.9341 14.2731C12.8922 14.3053 12.8497 14.3369 12.8072 14.3678C12.642 14.4893 12.4719 14.6037 12.297 14.711L12.1756 14.7844C11.9918 14.8917 11.8031 14.9911 11.6096 15.0826C11.5743 15.099 11.5397 15.1173 11.5045 15.1337C11.3029 15.2248 11.097 15.3055 10.8881 15.3766C10.8565 15.3881 10.8273 15.4009 10.7927 15.4118C10.582 15.4823 10.3676 15.5406 10.149 15.594C10.1149 15.6019 10.0822 15.6129 10.0475 15.6202C9.96434 15.6384 9.87808 15.6469 9.79367 15.6621C10.4644 14.6488 11.0132 13.5598 11.4286 12.4178C12.3253 12.5781 13.1965 12.8579 14.0187 13.2498C14.0012 13.2704 13.9817 13.2898 13.9635 13.3111ZM14.736 12.2574C13.8051 11.7821 12.8107 11.4429 11.7833 11.2505C11.9647 10.5486 12.0784 9.83087 12.1227 9.10725H15.7606C15.6675 10.2225 15.3168 11.3008 14.736 12.2574Z" fill="#6ACA1F"/>
</svg>
