<svg width="30" height="30" viewBox="0 0 30 30" fill="none" xmlns="http://www.w3.org/2000/svg">
<path d="M27.1956 6.48108H15.2616C15.0189 6.48108 14.8221 6.67784 14.8221 6.92053V17.1699C14.8221 17.4126 15.0189 17.6093 15.2616 17.6093H27.1956C27.4383 17.6093 27.6351 17.4126 27.6351 17.1699V6.92053C27.6351 6.67784 27.4383 6.48108 27.1956 6.48108ZM26.7562 16.7304H15.701V7.35999H26.7562V16.7304Z" fill="black"/>
<path d="M21.2287 8.09692C19.0517 8.09692 17.2805 9.8681 17.2805 12.0452C17.2805 14.2222 19.0517 15.9934 21.2287 15.9934C23.4058 15.9934 25.177 14.2222 25.177 12.0452C25.177 9.8681 23.4057 8.09692 21.2287 8.09692ZM21.2287 15.1145C19.5363 15.1145 18.1594 13.7376 18.1594 12.0452C18.1594 10.3528 19.5363 8.97589 21.2287 8.97589C22.9212 8.97589 24.2981 10.3528 24.2981 12.0452C24.2981 13.7376 22.9212 15.1145 21.2287 15.1145Z" fill="black"/>
<path d="M21.2287 10.4257C20.3356 10.4257 19.6091 11.1522 19.6091 12.0452C19.6091 12.9382 20.3356 13.6647 21.2287 13.6647C22.1216 13.6647 22.8482 12.9382 22.8482 12.0452C22.8482 11.1522 22.1217 10.4257 21.2287 10.4257ZM21.2287 12.7859C20.8203 12.7859 20.488 12.4536 20.488 12.0452C20.488 11.6369 20.8203 11.3046 21.2287 11.3046C21.637 11.3046 21.9693 11.6369 21.9693 12.0452C21.9693 12.4536 21.6371 12.7859 21.2287 12.7859Z" fill="black"/>
<path d="M10.6933 7.74719H2.64319C2.40049 7.74719 2.20374 7.94395 2.20374 8.18665V16.465C2.20374 16.7077 2.40049 16.9045 2.64319 16.9045H10.6933C10.936 16.9045 11.1327 16.7077 11.1327 16.465V8.18665C11.1327 7.94395 10.936 7.74719 10.6933 7.74719ZM10.2538 16.0256H3.08264V8.6261H10.2538V16.0256Z" fill="black"/>
<path d="M4.36462 9.5144C4.12193 9.5144 3.92517 9.71116 3.92517 9.95386V11.5181C3.92517 11.7608 4.12193 11.9575 4.36462 11.9575C4.60732 11.9575 4.80408 11.7608 4.80408 11.5181V9.95386C4.80408 9.71116 4.60732 9.5144 4.36462 9.5144Z" fill="black"/>
<path d="M4.36462 12.6941C4.12193 12.6941 3.92517 12.8908 3.92517 13.1335V14.6978C3.92517 14.9405 4.12193 15.1372 4.36462 15.1372C4.60732 15.1372 4.80408 14.9405 4.80408 14.6978V13.1335C4.80408 12.8908 4.60732 12.6941 4.36462 12.6941Z" fill="black"/>
<path d="M6.66812 17.928C5.20567 17.928 4.01587 19.1178 4.01587 20.5802C4.01587 22.0427 5.20567 23.2325 6.66812 23.2325C8.13056 23.2325 9.32036 22.0427 9.32036 20.5802C9.32036 19.1178 8.13056 17.928 6.66812 17.928ZM6.66812 22.3536C5.6903 22.3536 4.89478 21.558 4.89478 20.5802C4.89478 19.6024 5.6903 18.8069 6.66812 18.8069C7.64593 18.8069 8.44145 19.6024 8.44145 20.5802C8.44145 21.558 7.64593 22.3536 6.66812 22.3536Z" fill="black"/>
<path d="M25.3414 21.7549H19.1201C18.8774 21.7549 18.6807 21.9516 18.6807 22.1943C18.6807 22.437 18.8774 22.6338 19.1201 22.6338H25.3414C25.5841 22.6338 25.7809 22.437 25.7809 22.1943C25.7809 21.9516 25.5841 21.7549 25.3414 21.7549Z" fill="black"/>
<path d="M27.8369 4.11626H18.4055C18.1628 4.11626 17.966 4.31302 17.966 4.55571C17.966 4.79841 18.1628 4.99517 18.4055 4.99517H27.8369C28.545 4.99517 29.1211 5.57126 29.1211 6.27937V17.811C29.1211 18.5191 28.545 19.0952 27.8369 19.0952H14.6205C13.9124 19.0952 13.3363 18.5191 13.3363 17.811V6.27937C13.3363 5.57126 13.9124 4.99517 14.6205 4.99517H16.6477C16.8904 4.99517 17.0871 4.79841 17.0871 4.55571C17.0871 4.31302 16.8904 4.11626 16.6477 4.11626H14.6205C13.5783 4.11626 12.706 4.85718 12.5024 5.83991H9.35596V5.26558C9.35596 4.38052 8.6359 3.6604 7.75078 3.6604H5.02166C4.1366 3.6604 3.41648 4.38046 3.41648 5.26558V5.83991H1.9616C0.879961 5.83991 0 6.71993 0 7.80151V24.378C0 25.4596 0.879961 26.3396 1.9616 26.3396H26.3147V26.3395C27.3963 26.3395 28.2763 25.4596 28.2763 24.3779V19.9291C29.2591 19.7255 30 18.8531 30 17.8109V6.27937C30 5.08663 29.0296 4.11626 27.8369 4.11626ZM4.29545 5.26558C4.29545 4.86515 4.62123 4.53931 5.02172 4.53931H7.7509C8.15133 4.53931 8.47717 4.86509 8.47717 5.26558V5.83991H4.29545V5.26558ZM27.3975 24.3779C27.3975 24.9749 26.9118 25.4606 26.3148 25.4606H1.9616C1.36459 25.4606 0.878906 24.9749 0.878906 24.378V7.80151C0.878906 7.20456 1.36459 6.71882 1.9616 6.71882H3.856H8.91656H12.4575V17.811C12.4575 17.8855 12.4613 17.9592 12.4687 18.0318C12.4872 18.2134 12.5282 18.3883 12.589 18.5539C12.6012 18.587 12.6141 18.6198 12.6278 18.6521C12.847 19.1696 13.2621 19.5847 13.7794 19.8039C13.8441 19.8313 13.9104 19.8556 13.9781 19.8767C14.0457 19.8978 14.1149 19.9157 14.1852 19.9301C14.3259 19.959 14.4715 19.9741 14.6206 19.9741H27.3975V24.3779Z" fill="black"/>
</svg>
