<svg width="24" height="24" viewBox="0 0 24 24" fill="none" xmlns="http://www.w3.org/2000/svg">
<path d="M12 0C5.37258 0 0 5.37258 0 12C0 18.6274 5.37258 24 12 24C18.6274 24 24 18.6274 24 12C24 5.37258 18.6274 0 12 0ZM12 22.5C6.201 22.5 1.5 17.799 1.5 12C1.5 6.201 6.201 1.5 12 1.5C17.799 1.5 22.5 6.201 22.5 12C22.5 17.799 17.799 22.5 12 22.5Z" fill="#555555"/>
<path d="M8.25 8.25C9.07842 8.25 9.75 8.92158 9.75 9.75H11.25C11.25 8.09316 9.90684 6.75 8.25 6.75C6.59316 6.75 5.25 8.09316 5.25 9.75H6.75C6.75 8.92158 7.42158 8.25 8.25 8.25Z" fill="#555555"/>
<path d="M15.75 6.75C14.0932 6.75 12.75 8.09316 12.75 9.75H14.25C14.25 8.92158 14.9216 8.25 15.75 8.25C16.5784 8.25 17.25 8.92158 17.25 9.75H18.75C18.75 8.09316 17.4068 6.75 15.75 6.75Z" fill="#555555"/>
<path d="M12 17.25C9.51473 17.25 7.5 15.2353 7.5 12.75H6C6 16.0637 8.68631 18.75 12 18.75C15.3137 18.75 18 16.0637 18 12.75H16.5C16.5 15.2353 14.4853 17.25 12 17.25Z" fill="#555555"/>
</svg>
