<svg width="46" height="48" viewBox="0 0 46 48" fill="none" xmlns="http://www.w3.org/2000/svg">
<path d="M32.4806 43.9936L31.6854 34.9445L33.8872 33.74C34.3051 33.5099 34.6194 33.1294 34.7655 32.6767C34.9116 32.2241 34.8784 31.7337 34.6727 31.3066L35.3722 30.9239L37.0362 33.9652C37.1232 34.1243 37.2702 34.2421 37.4449 34.2926C37.6196 34.3432 37.8076 34.3224 37.9676 34.2349C38.1276 34.1473 38.2466 34.0002 38.2982 33.8258C38.3498 33.6514 38.3299 33.4641 38.2429 33.305L36.579 30.2637L36.7514 30.1693C36.9114 30.0818 37.0303 29.9346 37.0819 29.7603C37.1336 29.5859 37.1137 29.3986 37.0267 29.2395C36.9396 29.0805 36.7926 28.9627 36.6179 28.9122C36.4432 28.8616 36.2552 28.8824 36.0952 28.9699L35.9228 29.0642L34.2587 26.0225C34.1717 25.8634 34.0247 25.7457 33.85 25.6951C33.6753 25.6446 33.4873 25.6653 33.3272 25.7529C33.1672 25.8404 33.0483 25.9876 32.9967 26.1619C32.945 26.3363 32.9649 26.5236 33.0519 26.6827L34.7159 29.7241L34.0177 30.1061C33.7689 29.7024 33.3739 29.41 32.9139 29.2889C32.4539 29.1679 31.964 29.2274 31.5449 29.4552L31.2173 29.6344L30.5406 21.9196C32.7019 20.7672 34.7724 19.4521 36.7339 17.9858C37.4505 17.4475 38.0388 16.7577 38.4564 15.9664L41.333 24.2543C41.4412 24.5663 41.6132 24.8522 41.8382 25.094C42.0632 25.3357 42.3363 25.5281 42.6403 25.6588C42.9443 25.7896 43.2725 25.8559 43.6042 25.8536C43.9359 25.8514 44.2639 25.7805 44.5674 25.6456C44.8709 25.5107 45.1434 25.3146 45.3675 25.0698C45.5917 24.8249 45.7627 24.5366 45.8697 24.2232C45.9767 23.9097 46.0174 23.5778 45.9893 23.2486C45.9611 22.9193 45.8647 22.5998 45.7061 22.3102L41.191 14.0571C41.6051 13.6603 41.8774 13.1393 41.9658 12.5745C42.0542 12.0098 41.9538 11.4327 41.6801 10.9323C41.4063 10.4319 40.9745 10.0361 40.4512 9.80602C39.928 9.5759 39.3423 9.52424 38.7848 9.65902L34.2697 1.40596C34.1113 1.11626 33.8942 0.862749 33.6321 0.661468C33.37 0.460188 33.0686 0.315512 32.7469 0.236586C32.4252 0.157661 32.0902 0.146204 31.7632 0.202938C31.4361 0.259672 31.124 0.383363 30.8467 0.566193C30.5694 0.749023 30.3329 0.987014 30.1521 1.26512C29.9713 1.54323 29.8502 1.8554 29.7964 2.18191C29.7425 2.50842 29.7572 2.84215 29.8395 3.16202C29.9217 3.48189 30.0697 3.78093 30.2741 4.04024L35.702 10.9319C34.8105 10.857 33.9125 10.9806 33.0728 11.2937C30.7801 12.1547 28.556 13.1891 26.4201 14.3879L20.2882 9.6575L20.613 9.47982C21.0309 9.24975 21.3452 8.86925 21.4913 8.41661C21.6374 7.96396 21.6042 7.4736 21.3984 7.04643L22.0994 6.66295L23.7633 9.70435C23.8503 9.8634 23.9973 9.98116 24.172 10.0317C24.3467 10.0823 24.5347 10.0615 24.6948 9.97396C24.8548 9.88641 24.9737 9.73927 25.0253 9.56489C25.0769 9.39052 25.057 9.2032 24.97 9.04415L23.3061 6.00276L23.4785 5.90844C23.6385 5.8209 23.7574 5.67375 23.8091 5.49938C23.8607 5.325 23.8408 5.13769 23.7538 4.97863C23.6668 4.81958 23.5197 4.70182 23.3451 4.65126C23.1704 4.60069 22.9823 4.62147 22.8223 4.70902L22.6499 4.80333L20.986 1.76194C20.899 1.60289 20.752 1.48513 20.5773 1.43456C20.4026 1.384 20.2146 1.40478 20.0545 1.49233C19.8945 1.57988 19.7756 1.72702 19.724 1.90139C19.6724 2.07577 19.6923 2.26308 19.7793 2.42214L21.4432 5.46353L20.745 5.8455C20.4962 5.44189 20.1012 5.14946 19.6412 5.02839C19.1812 4.90732 18.6913 4.96682 18.2722 5.19465L16.0708 6.39904L8.87915 0.84941C8.77346 0.767669 8.64591 0.718678 8.51225 0.708487C8.37858 0.698295 8.24465 0.727346 8.12697 0.792056L3.70511 3.21121C3.62151 3.25839 3.54852 3.32225 3.49072 3.39877C3.43292 3.4753 3.39157 3.56283 3.36927 3.65587C3.34696 3.7489 3.34418 3.84544 3.3611 3.93939C3.37802 4.03335 3.41428 4.12271 3.46759 4.20185L6.82218 9.04552L13.1219 18.1407L15.0966 20.992L12.4095 22.5641L10.4656 23.6864L4.71903 19.007C4.61338 18.921 4.4842 18.8685 4.34806 18.8563C4.21192 18.8441 4.07501 18.8726 3.95487 18.9384L0.422899 20.8707C0.262875 20.9582 0.143973 21.1054 0.0923484 21.2797C0.0407239 21.4541 0.060606 21.6414 0.147622 21.8005C0.160247 21.8233 0.174146 21.8455 0.189255 21.8668L4.09683 27.3625C3.13197 27.9237 2.33026 28.7264 1.77164 29.6907C1.21301 30.6549 0.916988 31.7469 0.91308 32.8579C0.913598 32.9724 0.942604 33.0849 0.997507 33.1853C1.05241 33.2856 1.1315 33.3707 1.22768 33.4329C2.16542 34.0287 3.24469 34.3683 4.35795 34.4179C5.47121 34.4676 6.57957 34.2254 7.57258 33.7157L10.0932 39.9698C10.103 39.994 10.1142 40.0177 10.1266 40.0406C10.2136 40.1997 10.3606 40.3174 10.5353 40.368C10.71 40.4186 10.898 40.3978 11.0581 40.3102L14.5904 38.3777C14.7106 38.312 14.8085 38.212 14.8716 38.0907C14.9346 37.9694 14.9601 37.8323 14.9445 37.6969L14.1048 30.3375L16.0948 29.3076L18.8714 27.8909L20.2078 31.0919L24.4705 41.3033L26.7404 46.7404C26.7782 46.8281 26.8338 46.907 26.9038 46.972C26.9737 47.0371 27.0565 47.087 27.1469 47.1185C27.2374 47.15 27.3334 47.1625 27.4291 47.1551C27.5248 47.1478 27.618 47.1208 27.703 47.0758L32.1248 44.6567C32.2423 44.5923 32.3385 44.4953 32.4017 44.3775C32.4649 44.2598 32.4923 44.1263 32.4806 43.9936V43.9936ZM32.1999 30.6557C32.2566 30.6245 32.3188 30.6048 32.3831 30.5976C32.4473 30.5904 32.5123 30.5959 32.5742 30.6138C32.6362 30.6316 32.694 30.6616 32.7442 30.7018C32.7944 30.742 32.8362 30.7918 32.867 30.8482L33.4294 31.8763C33.4915 31.9899 33.5056 32.1237 33.4688 32.2482C33.4319 32.3728 33.347 32.4779 33.2328 32.5405L31.5568 33.4574L31.3531 31.1199L32.1999 30.6557ZM44.0892 24.3569C43.9585 24.4285 43.8138 24.4709 43.6653 24.4812C43.5168 24.4914 43.368 24.4693 43.2293 24.4164C43.0906 24.3634 42.9653 24.2809 42.8621 24.1746C42.7589 24.0682 42.6803 23.9407 42.6317 23.8007L39.5908 15.0399L40.0294 14.7999L44.4994 22.9704C44.6287 23.2076 44.6581 23.4867 44.5812 23.7466C44.5042 24.0064 44.3272 24.2258 44.089 24.3566L44.0892 24.3569ZM40.4751 11.5915C40.6317 11.8787 40.6673 12.2167 40.5741 12.5313C40.481 12.8459 40.2665 13.1114 39.978 13.2696L38.3951 14.1356L37.2109 11.9712L38.7924 11.106C39.0814 10.9478 39.4209 10.9101 39.7364 11.0011C40.0519 11.0922 40.3176 11.3045 40.4751 11.5915V11.5915ZM31.3553 3.19227C31.268 3.08152 31.2047 2.95379 31.1695 2.81715C31.1344 2.68051 31.1281 2.53794 31.151 2.39845C31.174 2.25897 31.2257 2.1256 31.3029 2.00677C31.3801 1.88795 31.4811 1.78627 31.5996 1.70814C31.718 1.63002 31.8513 1.57716 31.9911 1.5529C32.1308 1.52865 32.2739 1.53352 32.4113 1.56723C32.5488 1.60093 32.6775 1.66272 32.7895 1.7487C32.9015 1.83468 32.9942 1.94297 33.0619 2.06673L37.5319 10.2372L37.0933 10.4771L31.3553 3.19227ZM17.251 7.31175L18.927 6.39483C19.0412 6.33201 19.1755 6.31681 19.3004 6.35259C19.4253 6.38837 19.5306 6.47219 19.5932 6.58563L20.1556 7.61371C20.2177 7.72734 20.2318 7.8611 20.1949 7.98562C20.1581 8.11014 20.0732 8.21525 19.959 8.27786L19.1074 8.74377L18.5097 8.28263L17.251 7.31175ZM13.9035 16.8542L8.38615 8.88761L9.67461 8.18271L15.8891 15.7679L13.9035 16.8542ZM14.6862 17.9844L17.2721 16.5697C17.3607 16.5212 17.4376 16.4539 17.4973 16.3726C17.5571 16.2913 17.5982 16.198 17.6177 16.0992C17.6372 16.0005 17.6348 15.8988 17.6104 15.8014C17.5861 15.704 17.5405 15.6132 17.4769 15.5355L10.3803 6.87448C10.2792 6.75103 10.1378 6.66693 9.9806 6.63675C9.82337 6.60657 9.66021 6.6322 9.5194 6.70921L7.6017 7.75836L5.03191 4.04375L8.38769 2.20784L15.5793 7.75747L16.3896 8.38281L25.1221 15.122L16.2506 20.2427L14.6862 17.9844ZM1.757 21.701L4.20497 20.3617L9.19297 24.4236L7.67812 25.2968L5.295 26.6727L1.757 21.701ZM2.30433 32.4743C2.36957 31.6689 2.63009 30.8903 3.06348 30.2056C3.49687 29.5209 4.09014 28.9505 4.79226 28.5436L5.58962 28.0833L10.7399 25.1098L13.0973 23.7484L26.5459 15.8788L26.5521 15.8754C28.7899 14.5844 31.1305 13.4805 33.5498 12.5751C34.2786 12.3024 35.0631 12.215 35.8324 12.3206L37.357 15.1074C37.0313 15.8124 36.5347 16.4262 35.9121 16.893C33.8886 18.4086 31.7455 19.758 29.5039 20.9279L29.5012 20.9294L28.8156 21.2844L15.4713 28.0951L13.0578 29.3443L13.0558 29.3454L7.84623 32.0419L6.957 32.5021C6.23534 32.8736 5.43479 33.0652 4.62429 33.0604C3.81378 33.0556 3.01761 32.8544 2.30433 32.4743V32.4743ZM13.5301 37.4052L11.0822 38.7444L8.80087 33.0842L12.799 31.0149L13.5301 37.4052ZM25.4471 40.0726L21.7137 31.1301L23.6993 30.0438L26.7356 39.3677L25.4471 40.0726ZM27.717 45.5097L25.9751 41.3422L27.8927 40.293C28.0335 40.216 28.1431 40.0924 28.2025 39.9437C28.2619 39.795 28.2673 39.6306 28.2179 39.4789L24.7509 28.8322C24.7198 28.7367 24.6679 28.6494 24.599 28.5763C24.5301 28.5033 24.4458 28.4463 24.3521 28.4096C24.2584 28.3728 24.1577 28.3571 24.057 28.3635C23.9563 28.37 23.8582 28.3984 23.7696 28.4469L21.1837 29.8616L20.1244 27.3243L29.2209 22.6148L31.0732 43.6736L27.717 45.5097Z" fill="black"/>
</svg>
