<svg width="45" height="59" viewBox="0 0 45 59" fill="none" xmlns="http://www.w3.org/2000/svg">
<path d="M31.0979 38.1745C34.1481 36.6494 37.7702 32.4554 39.2 30.549L37.7702 29.1192C34.7937 32.6537 31.9625 34.5908 29.1915 35.1855M31.0979 38.1745V44.8469M31.0979 38.1745L29.1915 35.1855M31.0979 44.8469L32.051 55.332H29.6681L27.7617 47.7064H26.3319L24.9021 55.332H22.5191L23.4723 44.8469M31.0979 44.8469H27.2851M23.4723 44.8469V38.1745M23.4723 44.8469H27.2851M23.4723 38.1745C21.0893 36.7447 15.9421 33.2179 14.417 30.549L16.3234 29.1192C19.2297 32.2193 22.0573 34.2954 24.9021 35.0592M23.4723 38.1745L24.9021 35.0592M27.2851 35.3859V44.8469M27.2851 35.3859C27.918 35.3883 28.5532 35.3225 29.1915 35.1855M27.2851 35.3859C26.488 35.3829 25.6944 35.272 24.9021 35.0592M35.3872 39.1277V48.6596M35.3872 50.566V51.5192M18.7064 43.4171V49.6128M18.7064 51.5192V52.949" stroke="black" stroke-width="1.3"/>
<path d="M13.9406 28.166C11.5614 25.311 10.3521 22.1888 10.0666 19.1106M39.6767 28.166C42.2761 24.0974 43.4283 20.4307 43.54 17.2043M10.0666 19.1106C11.0809 15.7745 15.4656 10.3413 21.566 17.2043C23.4724 13.8681 28.3337 11.4851 32.5277 17.2043C33.4809 13.8681 39.3864 11.1038 43.54 17.2043M10.0666 19.1106C9.22321 10.0174 16.4416 1.30854 25.3788 1.00801M43.54 17.2043C43.8916 7.04701 33.9317 1.25171 26.35 1.00801M25.3788 1.00801C25.5372 1.00269 25.6961 1 25.8555 1C26.0191 1 26.184 1.00267 26.35 1.00801M25.3788 1.00801C22.9958 3.07059 19.0877 11.4851 22.5192 28.6426M31.5746 29.1192C33.0163 20.7046 33.99 3.30208 26.35 1.00801" stroke="black" stroke-width="1.3"/>
<rect x="21.7394" y="55.5053" width="3.46596" height="2.51277" rx="1.25638" stroke="black" stroke-width="1.3"/>
<rect x="29.3648" y="55.5053" width="3.46596" height="2.51277" rx="1.25638" stroke="black" stroke-width="1.3"/>
<path d="M14.8937 42.4639V43.1139C15.2527 43.1139 15.5437 42.8228 15.5437 42.4639H14.8937ZM1.54901 42.4639L0.901257 42.4099C0.886161 42.591 0.947607 42.7702 1.07069 42.904C1.19377 43.0377 1.36724 43.1139 1.54901 43.1139L1.54901 42.4639ZM6.31497 39.1277L5.9993 39.6959C6.15877 39.7845 6.34812 39.802 6.52113 39.7441C6.69413 39.6863 6.83486 39.5584 6.90895 39.3917L6.31497 39.1277ZM12.9873 40.0809L12.3838 39.8395C12.2931 40.0661 12.3371 40.3244 12.4976 40.5083C12.6581 40.6922 12.9082 40.7707 13.145 40.7115L12.9873 40.0809ZM14.8937 41.8139H1.54901V43.1139H14.8937V41.8139ZM2.19677 42.5178C2.27125 41.624 2.58368 40.4794 3.19019 39.7983C3.47788 39.4752 3.81542 39.2729 4.22566 39.2216C4.64488 39.1692 5.22231 39.2642 5.9993 39.6959L6.63064 38.5595C5.69189 38.038 4.83556 37.8352 4.06428 37.9317C3.28403 38.0293 2.67432 38.4228 2.21932 38.9337C1.34044 39.9207 0.985638 41.3973 0.901257 42.4099L2.19677 42.5178ZM6.90895 39.3917C7.2007 38.7352 7.76752 37.8298 8.49116 37.2349C9.1946 36.6566 9.95232 36.4305 10.7902 36.8495L11.3716 35.6867C9.92188 34.9619 8.61435 35.4507 7.66559 36.2307C6.73703 36.9941 6.0647 38.0904 5.72099 38.8637L6.90895 39.3917ZM10.7902 36.8495C11.793 37.3509 12.2211 37.9759 12.3928 38.5059C12.5721 39.0594 12.4916 39.5701 12.3838 39.8395L13.5908 40.3223C13.8008 39.7974 13.9109 38.9736 13.6295 38.1052C13.3405 37.2133 12.6565 36.3292 11.3716 35.6867L10.7902 36.8495ZM13.145 40.7115C13.3084 40.6706 13.5594 40.6855 13.7637 40.8551C13.9587 41.017 14.2437 41.4313 14.2437 42.4639H15.5437C15.5437 41.2087 15.1932 40.3522 14.5939 39.8548C14.0039 39.365 13.3017 39.3323 12.8297 39.4503L13.145 40.7115Z" fill="black"/>
<path d="M16.3229 29.1192C16.1641 28.6426 14.8934 27.2128 13.94 28.166C13.4635 28.6424 13.6227 29.9135 14.417 30.549M39.2 30.549C39.6766 30.0724 40.5702 29.0596 39.6766 28.166C38.914 27.4034 38.2468 28.4837 37.7702 29.1192" stroke="black" stroke-width="1.3"/>
<rect x="24.5991" y="27.8628" width="5.37234" height="6.32554" rx="2.68617" stroke="black" stroke-width="1.3"/>
<path d="M26.3319 29.5958L26.7915 29.1361C26.5376 28.8823 26.1261 28.8823 25.8722 29.1361L26.3319 29.5958ZM24.4255 30.7224C25.1506 30.7224 26.0907 30.7561 26.7915 30.0554L25.8722 29.1361C25.6198 29.3886 25.289 29.4224 24.4255 29.4224V30.7224ZM25.8722 30.0554C26.5104 30.6936 28.2103 31.5462 30.386 30.6759L29.9032 29.4689C28.2662 30.1237 27.1065 29.4511 26.7915 29.1361L25.8722 30.0554Z" fill="black"/>
</svg>
