<svg width="48" height="47" viewBox="0 0 48 47" fill="none" xmlns="http://www.w3.org/2000/svg">
<path d="M39.4954 20.6434C38.78 20.9792 38.6857 20.0538 38.2023 19.9052C37.0506 19.6652 37.0663 20.9834 37.6918 21.5147C38.398 22.27 39.7521 22.4611 40.4916 21.6824C40.9654 21.0619 40.1536 20.2229 39.4954 20.6434Z" fill="black"/>
<path d="M35.9797 14.1789C32.7105 14.6235 34.1782 17.7371 35.541 15.8197C35.699 15.6929 35.9004 15.6329 36.1021 15.6527C36.5878 15.6776 36.6643 16.2384 37.121 16.3636C39.2808 16.2699 37.2002 13.9288 35.9797 14.1789Z" fill="black"/>
<path d="M43.616 16.1582C41.1622 14.4793 40.4127 17.818 42.3988 17.1771C42.5141 17.1883 42.574 17.1657 42.661 17.295C42.712 17.6637 42.4788 18.0998 42.8774 18.3879C44.2877 19.2223 44.4991 16.7744 43.616 16.1582Z" fill="black"/>
<path d="M23.878 37.2173C27.3406 36.5411 30.5328 34.5644 32.7566 31.7159C33.947 32.0782 34.9944 32.7113 35.8923 33.3291C35.8948 33.3328 35.897 33.3368 35.8996 33.3404C35.4791 35.2802 37.4352 36.335 38.8218 35.2187C41.0035 33.1854 38.5074 29.6099 36.8059 28.2218C40.2483 27.3308 43.2853 24.8307 44.8295 21.608C47.9188 15.2324 45.07 7.77539 38.9322 4.8635C31.6724 1.44553 23.3653 5.6557 21.4949 13.0778L19.0676 8.22317C24.356 2.72454 24.7709 4.00621 19.9874 1.55441C19.585 1.31225 19.0846 1.67585 18.9944 1.76389L14.4352 5.02038C14.0731 4.88525 13.2776 4.2995 12.8554 4.4282C12.8579 4.42765 10.0097 5.13944 10.0055 5.14063H8.11112C8.95391 1.18272 5.35575 0.39648 2.9738 3.05482C0.0402489 6.21612 1.18 10.6595 4.80258 9.25111L6.23378 11.6362C4.98865 11.482 3.87213 12.0254 3.62758 13.0994C3.19283 15.5268 6.90051 17.1796 8.62721 15.7752C8.71652 19.3178 8.04888 18.3363 10.5686 20.0466C11.9033 21.0882 12.1959 20.427 12.568 19.1404C12.9839 17.893 13.6703 15.8334 13.6722 15.8279C13.6747 15.829 18.8259 18.4049 19.8679 18.9258C20.1788 19.1538 20.6329 19.2049 21.3436 18.5527C21.6796 20.3039 22.3924 21.9611 23.4326 23.4095C20.1711 23.6837 16.1164 24.6768 14.4743 25.9912C12.7366 28.6882 16.6714 31.092 18.2416 28.4158C19.4922 28.4385 20.739 28.4449 22.0115 28.4617C21.8335 28.7743 21.6109 29.0593 21.3505 29.3075C20.966 29.677 20.5089 29.9626 20.0082 30.1461C19.437 30.3393 18.8306 30.4054 18.2312 30.3398C17.8234 30.3043 17.3927 30.2435 16.9926 30.3614C15.6318 31.2227 14.8276 32.3454 14.7803 33.9199C14.918 36.2494 17.4902 36.0496 18.4099 34.4736C18.4182 34.4713 18.4261 34.4683 18.4343 34.4657C18.9943 34.6078 19.6001 34.7846 20.2126 34.9488C18.9655 38.9304 23.1246 40.6586 23.7601 37.2988C23.802 37.2756 23.8415 37.2483 23.878 37.2173ZM30.1719 32.3736C27.7414 31.6337 25.5098 30.3533 23.6444 28.6283C23.6669 28.5932 23.689 28.5592 23.7112 28.5246C24.8993 28.1534 25.9944 27.5325 26.9231 26.7037C28.4474 27.6671 30.1616 28.2902 31.9487 28.5305L31.744 30.6211C31.2712 31.2493 30.7452 31.8356 30.1719 32.3736ZM25.4619 23.5839C24.0976 22.0993 23.172 20.2653 22.7879 18.2859C23.4548 18.3855 24.1348 18.3528 24.7891 18.1898C24.8896 20.8264 25.9623 23.3324 27.8005 25.2251C28.0711 25.4992 28.3571 25.7575 28.6571 25.9988C27.4533 25.3958 26.3702 24.5773 25.4615 23.5839H25.4619ZM38.173 33.5198C38.1284 33.901 37.7577 34.3802 37.3818 34.1348C37.3198 34.009 37.2968 33.8675 37.3158 33.7285C37.3974 33.6696 37.466 33.5945 37.5174 33.508C37.5687 33.4214 37.6017 33.3253 37.6143 33.2254C37.8004 33.1185 37.9795 32.9997 38.1504 32.8697C38.1953 33.0835 38.203 33.3034 38.173 33.5198ZM37.5958 31.4095C37.3204 31.6802 37.0022 31.9037 36.6542 32.071C35.6903 31.4122 34.5624 30.7406 33.2485 30.3308L33.4143 28.6382C33.886 28.6448 34.3576 28.6253 34.8271 28.5797C35.9047 29.2623 37.02 30.3306 37.5958 31.4095ZM36.3826 26.8174C30.6966 27.4309 26.1526 23.0295 26.2535 17.6033C27.2541 17.0526 28.1609 16.2246 28.8756 15.497C31.0066 19.2645 35.5381 21.9069 38.914 18.4145C39.2897 18.091 39.5592 17.8531 39.7432 18.0707C40.3595 20.3314 40.6279 21.5724 42.8873 22.0771C41.4003 24.4264 39.0745 26.1214 36.3826 26.8174ZM31.9661 11.0423C31.1359 11.4492 30.3706 11.977 29.6952 12.6084C28.2932 11.2614 26.6456 10.196 24.8419 9.47005C25.0386 9.21302 25.2462 8.96498 25.4648 8.72594C27.736 9.16673 29.9278 9.94765 31.9661 11.0423ZM43.667 20.6268C42.8362 20.7838 41.8564 20.1736 41.5915 19.3351C41.1259 16.0343 39.3914 15.6908 37.2684 17.935C34.3653 19.9256 31.2986 16.9007 29.9322 14.4163C33.9564 9.97337 39.7453 11.3643 44.2809 13.4694C44.8719 15.7972 44.6658 18.4179 43.667 20.6268ZM43.618 11.583C40.7653 10.3297 36.7876 9.51071 33.7669 10.3822C31.5983 9.06701 29.2385 8.09689 26.772 7.5066C32.4953 3.01443 40.68 5.20911 43.618 11.5834V11.583ZM24.0115 10.7236C25.7349 11.3727 27.3098 12.3622 28.6425 13.633C27.1554 15.2005 25.0101 17.4793 22.5963 16.7379C22.5466 15.7721 22.622 14.804 22.8204 13.8576C23.0538 12.758 23.4556 11.701 24.0115 10.724V10.7236ZM19.7098 3.05776L21.3411 3.87301L18.0603 7.15337L15.8405 5.82158L19.7098 3.05776ZM12.948 5.91898L14.1485 6.51924L17.3295 8.42788L16.9861 9.80171L11.8363 6.19685L12.948 5.91898ZM3.13775 7.94861C1.65982 6.64729 4.73024 2.10776 6.45162 3.10072C7.84757 4.61491 4.71253 8.80938 3.13775 7.94861ZM8.74957 9.69541C9.38297 8.85657 11.7343 9.97337 11.4197 10.9095C10.9232 11.6158 8.57607 10.7288 8.74911 9.69541H8.74957ZM7.77092 14.539C7.37188 15.2989 4.90447 14.4461 5.07724 13.3673C5.69888 12.5555 7.9379 13.5695 7.77092 14.539ZM12.3368 15.1896L11.1721 18.6838L10.096 17.9664V14.0398L12.3464 15.1648C12.3433 15.1733 12.3396 15.1812 12.3368 15.1896ZM20.2997 17.4996L10.5417 12.6208C13.6329 12.656 13.5111 9.53541 11.3003 8.42053C8.6854 6.96666 6.08416 8.98049 7.81783 11.2588L7.67775 11.1888L6.04404 8.46551C6.64753 7.94051 7.15238 7.31192 7.53482 6.60938H9.86426C17.4805 11.7316 17.7921 13.1672 18.4049 10.1822L20.4546 14.2816C20.5222 14.4167 20.6298 14.5277 20.7628 14.5995C20.8958 14.6712 21.0476 14.7002 21.1977 14.6825C21.113 15.4102 21.091 16.1439 21.1321 16.8755L20.2997 17.4996ZM16.3473 28.1174C15.7656 28.1926 15.3293 27.3714 15.6205 26.9157C15.8056 26.7575 16.2716 26.6392 16.5831 26.4884C16.6412 26.8915 16.7804 27.2787 16.992 27.6266C16.9384 27.7587 16.8503 27.874 16.7369 27.9603C16.6235 28.0467 16.4889 28.1009 16.3473 28.1174ZM20.5933 26.9769C19.8445 26.9695 19.0736 26.9614 18.3039 26.9476C18.1014 26.6604 18.0037 26.3123 18.0271 25.9617C20.1545 25.2659 22.3715 24.8819 24.609 24.8219C24.9515 25.1762 25.3147 25.5099 25.6967 25.8212C25.0481 26.3495 24.3132 26.762 23.5244 27.0404C22.6047 26.9627 21.5217 27.0032 20.5929 26.9769H20.5933ZM16.6173 34.1773C15.5341 34.2408 16.9609 31.9708 17.5164 31.7716C17.601 31.775 17.6885 31.7789 17.7791 31.7835C17.5714 32.2466 17.4592 32.7468 17.4491 33.2542C17.1556 33.7276 16.9373 34.0483 16.6169 34.1773H16.6173ZM19.8839 33.3353C19.571 33.2484 19.2511 33.1601 18.9292 33.0767C18.9843 32.5927 19.1898 32.1381 19.5167 31.7769C20.8203 31.5804 22.0016 30.8986 22.8239 29.8681C24.577 31.4473 26.6186 32.6729 28.8366 33.4777C27.2665 34.6231 25.4643 35.4103 23.5571 35.7836C23.3908 35.555 23.2933 35.2836 23.276 35.0014C26.8019 33.6103 25.2955 31.6181 24.2353 32.558C23.4642 33.4256 23.1602 33.7588 21.3211 33.7129C20.8462 33.6027 20.3573 33.4671 19.8835 33.3353H19.8839ZM22.0553 37.612C21.3068 37.3183 21.3401 35.8425 21.7064 35.1833C21.745 35.1828 21.783 35.1822 21.8206 35.1814C21.8693 35.6942 22.0499 36.1857 22.345 36.6079C22.3106 36.9616 22.3402 37.4048 22.0549 37.612H22.0553Z" fill="black"/>
<path d="M15.1447 39.6562C15.0332 39.6562 14.9222 39.6611 14.8115 39.6682C14.337 38.501 13.5037 37.515 12.432 36.8526C12.3702 36.8105 12.3461 36.7975 12.2237 36.7279C12.9338 32.6463 7.83392 30.7367 5.59848 33.9055C4.75588 33.3433 3.76509 33.0444 2.75214 33.0469C2.55737 33.0469 2.37058 33.1242 2.23285 33.262C2.09513 33.3997 2.01776 33.5865 2.01776 33.7812V44.7969C2.01776 44.9916 2.09513 45.1784 2.23285 45.3162C2.37058 45.4539 2.55737 45.5312 2.75214 45.5312H19.551C19.7457 45.5312 19.9325 45.4539 20.0702 45.3162C20.208 45.1784 20.2853 44.9916 20.2853 44.7969C20.2838 43.434 19.7417 42.1273 18.778 41.1636C17.8142 40.1999 16.5076 39.6578 15.1447 39.6562ZM3.48651 34.5891C4.99574 34.7968 5.55754 36.3876 6.40125 35.5235C7.39265 32.7997 10.8883 33.4665 10.8221 36.1692C8.23149 35.4183 8.28657 37.1056 9.16626 37.4269C12.6626 37.4551 14.9058 40.9243 13.1778 44.0624H3.48651V34.5891ZM14.8098 44.0625C15.1843 43.1316 15.3155 42.1206 15.1909 41.125C16.0291 41.1366 16.8382 41.4342 17.4842 41.9684C18.1302 42.5026 18.5743 43.2414 18.7432 44.0625H14.8098Z" fill="black"/>
<path d="M46.073 35.9253C45.9281 35.0177 44.6635 35.2862 43.9371 35.2678C41.5346 35.4119 39.2758 36.461 37.6159 38.2039C36.6341 38.1293 35.6494 38.3029 34.7524 38.7087C33.8554 39.1146 33.0749 39.7397 32.4829 40.5264C27.6147 39.4206 25.8413 45.5599 27.7261 45.531H45.2421C45.8787 45.5585 46.1448 45.0726 46.0803 44.4765C46.0711 42.6906 46.0965 36.158 46.073 35.9253ZM44.6116 44.0625H28.5482C30.0042 40.2822 32.9679 42.7865 33.3515 41.8577C34.8822 39.5727 36.1497 39.8007 38.2979 39.5954C39.9595 37.7973 42.1416 36.6712 44.6116 36.7193V44.0625Z" fill="black"/>
</svg>
