<svg width="30" height="30" viewBox="0 0 30 30" fill="none" xmlns="http://www.w3.org/2000/svg">
<g clip-path="url(#clip0)">
<path d="M16.3277 13.4818C16.5565 13.253 16.5565 12.8819 16.3277 12.6531C16.0989 12.4242 15.7279 12.4243 15.499 12.6531C15.2239 12.9283 14.776 12.9283 14.5008 12.6531C14.272 12.4243 13.901 12.4243 13.6721 12.6531C13.4432 12.8819 13.4433 13.2529 13.6721 13.4818C14.0382 13.8478 14.519 14.0308 14.9999 14.0308C15.4808 14.0308 15.9616 13.8478 16.3277 13.4818Z" fill="#555555"/>
<path d="M15.0076 3.22998C14.0166 3.22998 13.2104 4.03623 13.2104 5.02717C13.2104 6.01811 14.0167 6.82436 15.0076 6.82436C15.9986 6.82436 16.8048 6.01811 16.8048 5.02717C16.8048 4.03623 15.9986 3.22998 15.0076 3.22998ZM15.0076 5.65254C14.6628 5.65254 14.3823 5.37199 14.3823 5.02723C14.3823 4.68246 14.6629 4.40191 15.0076 4.40191C15.3524 4.40191 15.633 4.68246 15.633 5.02723C15.633 5.37199 15.3525 5.65254 15.0076 5.65254Z" fill="#555555"/>
<path d="M15 28.8281C14.8459 28.8281 14.6947 28.8908 14.5857 28.9998C14.4768 29.1088 14.4141 29.26 14.4141 29.4141C14.4141 29.5682 14.4768 29.7193 14.5857 29.8283C14.6947 29.9372 14.8459 30 15 30C15.1541 30 15.3053 29.9373 15.4143 29.8283C15.5232 29.7193 15.5859 29.5682 15.5859 29.4141C15.5859 29.26 15.5232 29.1088 15.4143 28.9998C15.3053 28.8908 15.1541 28.8281 15 28.8281Z" fill="#555555"/>
<path d="M20.9153 17.6845H18.0084V15.9667C19.4678 14.992 20.4309 13.3301 20.4309 11.4473V9.24691H25.4169C25.7405 9.24691 26.0028 8.98459 26.0028 8.66098C26.0028 8.33736 25.7405 8.07504 25.4169 8.07504H20.9154V4.30043C20.9154 2.37439 19.3485 0.80748 17.4225 0.80748H15.5859V0.585938C15.5859 0.262324 15.3236 0 14.9999 0C14.6763 0 14.414 0.262324 14.414 0.585938V0.807539H12.5774C10.6514 0.807539 9.08444 2.37445 9.08444 4.30049V8.66104C9.08444 8.94996 9.29379 9.18949 9.56895 9.2376V11.4474C9.56895 13.3302 10.5321 14.992 11.9914 15.9667V17.6845H9.08455C5.50993 17.6845 2.60168 20.5927 2.60168 24.1673V29.4141C2.60168 29.7376 2.86401 30 3.18762 30H12.3632C12.6868 30 12.9492 29.7376 12.9492 29.4141C12.9492 29.0905 12.6868 28.8281 12.3632 28.8281H7.38276V25.3125H8.55463V25.7812C8.55463 26.8151 9.39574 27.6562 10.4296 27.6562C11.4635 27.6562 12.3046 26.8151 12.3046 25.7812V25.3125H17.6953V25.7812C17.6953 26.8151 18.5364 27.6562 19.5703 27.6562C20.6041 27.6562 21.4453 26.8151 21.4453 25.7812V25.3125H22.6171V28.8281H17.6367C17.313 28.8281 17.0507 29.0905 17.0507 29.4141C17.0507 29.7376 17.313 30 17.6367 30H26.8122C27.1358 30 27.3981 29.7376 27.3981 29.4141V24.1673C27.3981 20.5927 24.49 17.6845 20.9153 17.6845ZM10.2563 4.30049C10.2563 3.02062 11.2976 1.97941 12.5774 1.97941H17.4224C18.7023 1.97941 19.7435 3.02068 19.7435 4.30049V8.0751H10.2563V4.30049ZM10.7408 11.4474V9.24697H19.2591V11.4474C19.2591 13.7959 17.3484 15.7065 14.9999 15.7065C12.6514 15.7065 10.7408 13.7959 10.7408 11.4474ZM14.9999 16.8785C15.6443 16.8785 16.2626 16.7654 16.8366 16.5585V18.0694C16.8366 19.0821 16.0127 19.9061 14.9999 19.9061C13.9872 19.9061 13.1633 19.0821 13.1633 18.0694V16.5585C13.7372 16.7654 14.3556 16.8785 14.9999 16.8785ZM6.79682 24.1406C6.47321 24.1406 6.21088 24.403 6.21088 24.7266V28.8281H3.77362V24.1673C3.77362 21.4177 5.87403 19.1495 8.55463 18.8828V24.1406H6.79682ZM11.1328 25.7812C11.1328 26.169 10.8173 26.4844 10.4296 26.4844C10.0419 26.4844 9.72651 26.169 9.72651 25.7812V18.8563H11.1328V25.7812ZM12.3046 24.1406V19.4038C12.7973 20.3949 13.8202 21.0779 14.9999 21.0779C16.1797 21.0779 17.2026 20.395 17.6953 19.4038V24.1406H12.3046ZM20.2734 25.7812C20.2734 26.169 19.958 26.4844 19.5703 26.4844C19.1825 26.4844 18.8671 26.169 18.8671 25.7812V18.8563H20.2734V25.7812ZM26.2263 28.8281H23.789V24.7266C23.789 24.403 23.5267 24.1406 23.2031 24.1406H21.4453V18.8828C24.1259 19.1495 26.2263 21.4177 26.2263 24.1673V28.8281Z" fill="#555555"/>
</g>
<defs>
<clipPath id="clip0">
<rect width="30" height="30" fill="white"/>
</clipPath>
</defs>
</svg>
