<svg width="53" height="57" viewBox="0 0 53 57" fill="none" xmlns="http://www.w3.org/2000/svg">
<path d="M49.2449 35.5876V21.9794L44.7088 17.4433V12.9072L41.8738 10.0722M39.6057 55.433V50.8969M41.8738 10.0722L39.6057 7.80414V50.8969M41.8738 10.0722V48.6289L39.6057 50.8969" stroke="black" stroke-width="1.2"/>
<path d="M41.8738 17.4433L49.2449 24.8144M41.8738 13.4742L44.7088 16.3093M37.9047 55.433C37.8468 51.6158 37.7395 46.4713 37.5793 40.9742M37.9047 55.433H27.1315V40.9742M37.9047 55.433H52.0799M27.1315 8.93814V1C29.3352 1 34.0012 2.60586 35.5124 8.93814M27.1315 8.93814H35.5124M27.1315 8.93814V23.6804M35.5124 8.93814C35.5566 9.12309 35.598 9.31207 35.6366 9.50515C36.1454 12.049 36.5643 17.3667 36.8994 23.6804M27.1315 23.6804H36.8994M27.1315 23.6804V32.1856M36.8994 23.6804C37.0426 26.3797 37.1705 29.2611 37.2836 32.1856M27.1315 32.1856H37.2836M27.1315 32.1856V40.9742M37.2836 32.1856C37.3969 35.1184 37.4953 38.0947 37.5793 40.9742M27.1315 40.9742H37.5793M28.8325 3.83505H30.5335M28.8325 5.53608H31.6676M28.8325 7.23711H32.2346M28.8325 11.2062H32.8016M28.8325 12.9072H32.8016M28.8325 14.6082H32.8016M28.8325 16.3093H32.8016M28.8325 18.0103H32.8016M28.8325 19.7113H32.8016M28.8325 25.9485H33.9356M28.8325 28.2165H33.9356M10.6882 50.3299V40.9742H11.8222M18.0593 50.3299V40.9742H11.8222M11.8222 40.9742V32.1856H17.4923M18.6263 40.9742V32.1856H17.4923M10.6882 32.1856V22.5464H11.8222M17.4923 32.1856V22.5464H11.8222M11.8222 22.5464V14.6082H12.9562M18.6263 22.5464V14.6082H16.9253M12.9562 14.6082V12.3402H16.9253V14.6082M12.9562 14.6082H16.9253M3.31705 50.3299H1.04901V55.433H3.31705M3.31705 50.3299H18.6263V55.433H3.31705M3.31705 50.3299V55.433M52.0799 53.732V56" stroke="black" stroke-width="1.2"/>
<path d="M7.85314 50.3299V55.433M16.3583 50.8969V54.866M8.42015 49.7629V41.2577H7.85314M2.18303 41.2577V49.7629M2.18303 41.2577H7.85314M2.18303 41.2577H1.04901V32.1856H1.61602M7.85314 41.2577V32.1856M7.85314 32.1856H1.61602M7.85314 32.1856H8.42015V20.8453H6.71911M1.61602 32.1856V26.5155M3.31705 20.8453H1.61602V26.5155M3.31705 20.8453V19.1443H6.71911V20.8453M3.31705 20.8453H6.71911M4.45107 22.5464V31.0515M6.71911 22.5464V26.5155M6.71911 31.0515V26.5155M1.61602 26.5155H6.71911" stroke="black" stroke-width="1.2"/>
<path d="M1.04901 33.8866H2.75004M6.1521 33.8866H5.01808M1.04901 36.7217H6.1521M1.04901 38.9897H6.1521M5.01808 33.8866V40.6907M5.01808 33.8866H2.75004M2.75004 33.8866V41.2577M11.8222 16.8763H16.3583M11.8222 20.8454H15.7913M14.0902 15.7423V22.5464M12.9562 24.2474V31.6186M15.2243 24.2474V32.1856M10.6882 26.5155H15.7913M10.6882 28.7835H15.7913M14.0902 33.3196V40.6907M16.3583 33.3196V39.5567M16.3583 40.6907V39.5567M11.8222 37.2887H16.9253M11.8222 33.8866H16.9253M11.8222 39.5567H16.3583" stroke="black" stroke-width="1.2"/>
<path d="M12.3892 42.3918V44.0928M12.3892 48.6289V47.4948M14.6573 42.3918V48.6289M15.7913 44.0928H12.3892M12.3892 44.0928V47.4948M15.7913 47.4948H12.3892" stroke="black" stroke-width="1.2"/>
<path d="M6.71913 42.3918V43.5258M6.71913 49.1959V43.5258M4.45109 42.3918V49.1959M2.75006 43.5258H6.71913" stroke="black" stroke-width="1.2"/>
<path d="M2.75005 45.7938H6.71913M2.18304 48.0618H6.71913M18.6263 21.4124C19.1934 20.8454 20.8944 19.7113 23.1624 19.7113V32.1856M18.0593 55.433H23.1624V40.6907M23.1624 40.6907H18.6263M23.1624 40.6907V32.1856M23.1624 32.1856H18.6263M20.3274 23.1134H18.0593M20.3274 25.3814H18.0593M20.3274 27.6495H18.0593M20.3274 29.9175H17.4923M20.8944 35.0206H18.6263M20.8944 37.8557H18.6263M20.8944 43.5258H18.0593M20.8944 46.3608H18.0593M20.8944 48.6289H18.0593" stroke="black" stroke-width="1.2"/>
<path d="M52.0799 55.433V42.3918M43.5748 55.433V33.8866M43.5748 33.8866V29.9175L52.0799 38.4227V42.3918M43.5748 33.8866L52.0799 42.3918" stroke="black" stroke-width="1.2"/>
</svg>
