<svg width="42" height="42" viewBox="0 0 42 42" fill="none" xmlns="http://www.w3.org/2000/svg">
<path d="M17.6424 37.5646C17.4899 37.4119 17.2782 37.3242 17.0625 37.3242C16.8468 37.3242 16.6351 37.4119 16.4825 37.5646C16.33 37.7172 16.2422 37.9288 16.2422 38.1445C16.2422 38.3603 16.3299 38.5719 16.4825 38.7244C16.6351 38.877 16.8468 38.9648 17.0625 38.9648C17.2782 38.9648 17.4899 38.8771 17.6424 38.7244C17.795 38.5719 17.8828 38.3603 17.8828 38.1445C17.8828 37.9288 17.795 37.7171 17.6424 37.5646Z" fill="black"/>
<path d="M28.6605 2.28845H23.5114C23.0584 2.28845 22.691 2.65571 22.691 3.10876C22.691 3.56182 23.0584 3.92908 23.5114 3.92908H28.6605C29.1134 3.92908 29.4808 3.56182 29.4808 3.10876C29.4808 2.65571 29.1134 2.28845 28.6605 2.28845Z" fill="black"/>
<path d="M37.2422 18.5391C37.6952 18.5391 38.0625 18.1718 38.0625 17.7188V2.96576C38.0625 1.33038 36.732 0 35.0967 0H17.0751C15.4398 0 14.1094 1.33038 14.1094 2.96576V8.63002C11.7415 10.5501 9.78945 12.9986 8.45135 15.7367C7.05395 18.5962 6.31534 21.79 6.31534 24.9728V33.5508H5.57812C4.67348 33.5508 3.9375 34.2868 3.9375 35.1914V41.1797C3.9375 41.6327 4.30484 42 4.75781 42C5.21079 42 5.57812 41.6327 5.57812 41.1797V35.1914H20.1331V41.1797C20.1331 41.6327 20.5004 42 20.9534 42C21.4064 42 21.7737 41.6327 21.7737 41.1797V37.5703H35.0967C36.732 37.5703 38.0625 36.2398 38.0625 34.6046V24.5379C38.0625 24.0849 37.6952 23.7176 37.2422 23.7176C36.7892 23.7176 36.4219 24.0849 36.4219 24.5379V30.5977H24.1233L26.7321 26.9215C27.3544 26.0447 27.4345 24.9066 26.941 23.9512C26.4474 22.9959 25.473 22.4024 24.3977 22.4024C23.7859 22.4024 23.1786 22.6037 22.6876 22.9693L17.5067 26.8291C17.3182 26.9695 17.0848 27.0469 16.8497 27.0469C16.2433 27.0469 15.75 26.5535 15.75 25.9471V24.9375V6.23782H36.4219V17.7188C36.4219 18.1718 36.7892 18.5391 37.2422 18.5391ZM36.4219 32.2383V34.6046C36.4219 35.3352 35.8274 35.9297 35.0967 35.9297H21.7737V35.1914C21.7737 34.6529 21.5117 34.1755 21.1098 33.8763C21.7928 33.43 22.4104 32.879 22.9361 32.2366C22.947 32.2371 22.9578 32.2383 22.9688 32.2383H36.4219ZM16.8497 28.6875C17.4357 28.6875 18.017 28.4947 18.4869 28.1448L23.6677 24.285C23.8773 24.129 24.1365 24.043 24.3977 24.043C24.8636 24.043 25.2694 24.2902 25.4832 24.7042C25.6969 25.1181 25.6636 25.592 25.394 25.972L21.9324 30.8499C20.7322 32.5411 18.7775 33.5508 16.7038 33.5508H7.95597V24.9728C7.95597 19.5335 10.179 14.4584 14.1094 10.7997V24.9375V25.9471C14.1094 27.4582 15.3387 28.6875 16.8497 28.6875ZM15.75 4.5972V2.96576C15.75 2.23511 16.3445 1.64062 17.0751 1.64062H35.0967C35.8274 1.64062 36.4219 2.23511 36.4219 2.96576V4.5972H15.75Z" fill="black"/>
<path d="M26.6658 33.4343C26.5133 33.2817 26.3017 33.1938 26.0859 33.1938C25.8702 33.1938 25.6586 33.2816 25.506 33.4343C25.3534 33.5868 25.2656 33.7984 25.2656 34.0142C25.2656 34.2308 25.3533 34.4415 25.506 34.5941C25.6586 34.7476 25.8702 34.8345 26.0859 34.8345C26.3017 34.8345 26.5133 34.7475 26.6658 34.5941C26.8184 34.4415 26.9062 34.2307 26.9062 34.0142C26.9062 33.7984 26.8185 33.5868 26.6658 33.4343Z" fill="black"/>
<path d="M32.2682 13.0255C31.9232 12.6022 31.4121 12.3594 30.866 12.3594H28.6245L27.93 11.1562C27.7035 10.7639 27.2018 10.6295 26.8094 10.856C26.4171 11.0825 26.2826 11.5842 26.5092 11.9765L26.7302 12.3594H25.4419L25.6629 11.9765C25.8894 11.5842 25.755 11.0825 25.3626 10.856C24.9701 10.6294 24.4687 10.7639 24.2421 11.1562L23.5474 12.3594H21.3059C20.7599 12.3594 20.2487 12.6021 19.9037 13.0255C19.5587 13.4488 19.4239 13.9983 19.534 14.5332L20.6131 19.7747C20.7855 20.6115 21.5307 21.2187 22.385 21.2187H29.787C30.6412 21.2187 31.3864 20.6115 31.5589 19.7746L32.638 14.5332C32.7481 13.9983 32.6133 13.4487 32.2682 13.0255ZM31.0311 14.2024L29.9521 19.4436C29.936 19.5216 29.8666 19.5782 29.7871 19.5782H22.3851C22.3055 19.5782 22.2362 19.5216 22.2201 19.4438L21.1411 14.2024C21.1277 14.1376 21.1525 14.0904 21.1754 14.0621C21.1985 14.0338 21.2399 14.0001 21.306 14.0001H22.6003L22.1346 14.8067C21.908 15.199 22.0425 15.7007 22.4348 15.9272C22.564 16.0018 22.7051 16.0372 22.8442 16.0372C23.1277 16.0372 23.4034 15.8902 23.5554 15.627L24.4947 14.0001H27.6774V14L28.6167 15.6269C28.7687 15.8901 29.0443 16.0372 29.3279 16.0372C29.4671 16.0372 29.6081 16.0017 29.7373 15.9272C30.1296 15.7007 30.2641 15.199 30.0375 14.8066L29.5718 14H30.8661C30.9322 14 30.9736 14.0337 30.9967 14.062C31.0197 14.0903 31.0444 14.1376 31.0311 14.2024Z" fill="black"/>
<path d="M37.8221 20.42C37.6696 20.2675 37.4579 20.1797 37.2422 20.1797C37.0264 20.1797 36.8148 20.2675 36.6622 20.42C36.5096 20.5726 36.4219 20.7843 36.4219 21C36.4219 21.2157 36.5096 21.4274 36.6622 21.5799C36.8148 21.7325 37.0264 21.8203 37.2422 21.8203C37.4579 21.8203 37.6696 21.7325 37.8221 21.5799C37.9747 21.4274 38.0625 21.2157 38.0625 21C38.0625 20.7843 37.9747 20.5726 37.8221 20.42Z" fill="black"/>
</svg>
