<svg width="25" height="25" viewBox="0 0 25 25" fill="none" xmlns="http://www.w3.org/2000/svg">
<g clip-path="url(#clip0)">
<path d="M21.3398 0.0065918H3.6603C1.55145 0.0065918 -0.124276 1.79012 0.00724627 3.89507L1.34965 21.5668C1.47249 23.4886 3.07589 24.9934 5.00237 24.9934H19.9977C21.9242 24.9934 23.5276 23.4886 23.6504 21.5668L24.9928 3.89512C25.1243 1.79032 23.4488 0.0065918 21.3398 0.0065918ZM23.5319 3.79927L22.1895 21.4702C22.1173 22.6248 21.1546 23.5293 19.9977 23.5293H5.00237C3.84546 23.5293 2.88268 22.6249 2.81055 21.4702L1.4682 3.79927C1.39182 2.53621 2.39251 1.47066 3.6603 1.47066H21.3398C22.6051 1.47066 23.6084 2.53397 23.5319 3.79927Z" fill="#555555"/>
<path d="M4.44818 5.60223L3.86255 6.04141L8.25369 11.898L8.83932 11.459C10.9948 9.84341 14.0054 9.84341 16.1609 11.459L16.7465 11.898L21.1377 6.04141L20.552 5.60223C15.8112 2.04698 9.18894 2.04698 4.44818 5.60223ZM16.4317 9.87723C15.4456 9.27935 14.3488 8.92754 13.2321 8.82056V5.86294H11.768V8.82056C10.6513 8.92754 9.55452 9.27935 8.56837 9.87723L5.92572 6.35257C9.8917 3.74628 15.1084 3.74628 19.0744 6.35257L16.4317 9.87723Z" fill="#555555"/>
</g>
<defs>
<clipPath id="clip0">
<rect width="25" height="25" fill="white"/>
</clipPath>
</defs>
</svg>
