<svg width="32" height="32" viewBox="0 0 32 32" fill="none" xmlns="http://www.w3.org/2000/svg">
<path d="M7.31719 23.8215L7.04669 23.0204L6.01412 22.2793H4.38506L3.35244 23.0204L3.08194 23.8215H1.26744L0 25.0889V27.2229H9.40625V25.0889L8.13881 23.8215H7.31719V23.8215ZM8.46869 26.2853H0.9375V25.4772L1.65575 24.7589H3.75475L4.14412 23.606L4.68663 23.2167H5.71244L6.25494 23.606L6.64431 24.7589H7.75044L8.46869 25.4772V26.2853Z" fill="#555555"/>
<path d="M31.0293 6.60768H29.7997L29.6278 6.09856L28.8306 5.52637H27.5982L26.8011 6.09856L26.6291 6.60768H26.0957L25.125 7.57831V9.27255H32V7.57831L31.0293 6.60768ZM26.0625 8.33505V7.96655L26.484 7.54512H27.3021L27.5928 6.68424L27.8999 6.46387H28.5289L28.836 6.68424L29.1267 7.54512H30.6409L31.0624 7.96655V8.33505H26.0625Z" fill="#555555"/>
<path d="M9.15021 17.3621L8.4873 16.6992L7.8244 17.3621L8.4873 18.025L9.15021 17.3621Z" fill="#555555"/>
<path d="M9.59265 19.1304L10.2556 18.4675L9.59265 17.8046L8.92974 18.4675L9.59265 19.1304Z" fill="#555555"/>
<path d="M11.0637 20.6016L11.7266 19.9387L10.6972 18.9093L10.0343 19.5722L11.0637 20.6016Z" fill="#555555"/>
<path d="M22.5279 6.62402L21.7177 6.15259L20.3165 8.5608L21.1267 9.03223L22.5279 6.62402Z" fill="#555555"/>
<path d="M24.0992 3.92371L23.2889 3.45215L22.8174 4.26243L23.6277 4.73399L24.0992 3.92371Z" fill="#555555"/>
<path d="M23.3135 5.27454L22.5032 4.80298L22.0316 5.61326L22.8419 6.08482L23.3135 5.27454Z" fill="#555555"/>
<path d="M28.7169 15.6654L25.9524 12.9009L20.6183 18.2351V12.9742L26.959 1.94974L23.57 0.000488281L17.5876 10.4019H15.2814L14.7452 9.46974L9.29891 0.000488281L5.91004 1.94974L12.2507 12.9742V18.2351L6.9166 12.9009L4.1521 15.6654L11.9098 23.4231H13.6082C12.4388 24.2902 11.6792 25.6802 11.6792 27.2446C11.6792 29.8667 13.8124 31.9999 16.4345 31.9999C19.0566 31.9999 21.1898 29.8667 21.1898 27.2446C21.1898 25.6802 20.4303 24.2902 19.2608 23.4231H20.9592V23.4231L28.7169 15.6654ZM23.9153 1.28061L25.679 2.29493L20.8924 10.6172L19.3243 9.26299L23.9153 1.28061ZM11.9767 10.6172L7.19004 2.29499L8.95372 1.28061L13.5448 9.26299L11.9767 10.6172ZM12.2508 22.4382L5.47791 15.6654L6.91666 14.2267L12.2508 19.5609V22.4382ZM12.4527 11.4449L14.0208 10.0906L14.4108 10.7689L12.8427 12.1232L12.4527 11.4449ZM13.1882 22.4856V18.1562H13.9271V22.4856H13.1882ZM19.994 26.1249H20.0845C20.1934 26.4792 20.2523 26.8551 20.2523 27.2446C20.2523 29.3498 18.5397 31.0624 16.4345 31.0624C14.3293 31.0624 12.6167 29.3498 12.6167 27.2446C12.6167 26.8551 12.6756 26.4792 12.7845 26.1249H12.875C13.1162 26.1249 13.3125 26.3212 13.3125 26.5624V28.0342C13.3125 28.6012 13.7738 29.0624 14.3407 29.0624H18.5282C19.0952 29.0624 19.5565 28.6012 19.5565 28.0342V26.5624C19.5565 26.3212 19.7528 26.1249 19.994 26.1249ZM14.25 28.0342V26.9249H18.619V28.0342C18.619 28.0842 18.5783 28.1249 18.5282 28.1249H14.3407C14.2907 28.1249 14.25 28.0842 14.25 28.0342ZM19.6727 25.2257C19.2604 25.3248 18.92 25.6101 18.7455 25.9874H14.1235C13.949 25.6101 13.6085 25.3248 13.1962 25.2257C13.8715 24.1466 15.0702 23.4268 16.4344 23.4268C17.7987 23.4268 18.9973 24.1466 19.6727 25.2257ZM14.8646 22.4856V18.1562H18.0043V22.4856H14.8646ZM19.6807 22.4856H18.9418V18.1562H19.6807V22.4856ZM19.6808 17.2187H13.1882V16.1562H19.6808V17.2187ZM19.6808 15.2187H13.1882V13.0636L15.1847 11.3394H17.6844L19.6808 13.0636V15.2187ZM20.0263 12.1232L18.4582 10.7689L18.8482 10.0906L20.4164 11.4449L20.0263 12.1232ZM20.6183 22.4382V19.5609L25.9524 14.2267L27.3911 15.6655L20.6183 22.4382Z" fill="#555555"/>
<path d="M15.46 0H14.5225V0.9375H15.46V0Z" fill="#555555"/>
<path d="M15.46 3.125H14.5225V6.26562H15.46V3.125Z" fill="#555555"/>
<path d="M15.46 1.5625H14.5225V2.5H15.46V1.5625Z" fill="#555555"/>
<path d="M18.1475 3.81006H17.21V7.56006H18.1475V3.81006Z" fill="#555555"/>
<path d="M18.1475 0.834717H17.21V2.87253H18.1475V0.834717Z" fill="#555555"/>
</svg>
