<svg width="35" height="35" viewBox="0 0 35 35" fill="none" xmlns="http://www.w3.org/2000/svg">
<path d="M23.9636 24.3923C24.1794 24.576 24.5029 24.55 24.6864 24.3343C26.3071 22.4307 27.1998 20.0034 27.1998 17.4998C27.1998 11.6836 22.4678 6.95166 16.6516 6.95166C10.8354 6.95166 6.10352 11.6836 6.10352 17.4998C6.10352 23.316 10.8354 28.0479 16.6516 28.0479C18.7662 28.0479 20.8063 27.4244 22.5515 26.2448C22.7861 26.0862 22.8477 25.7675 22.6892 25.5329C22.5307 25.2983 22.2118 25.2367 21.9773 25.3952C20.4024 26.4598 18.5608 27.0225 16.6517 27.0225C11.4008 27.0225 7.12897 22.7506 7.12897 17.4998C7.12897 12.249 11.4009 7.97705 16.6517 7.97705C21.9025 7.97705 26.1744 12.249 26.1744 17.4999C26.1744 19.7601 25.3687 21.9513 23.9057 23.6696C23.7221 23.8852 23.7481 24.2088 23.9636 24.3923Z" fill="#555555"/>
<path d="M8.96167 18.3614C8.96167 18.6446 9.19122 18.8741 9.47437 18.8741H11.1538C11.9158 20.0221 13.1712 21.0938 14.6773 22.3794L16.0751 23.5837C16.2342 23.7239 16.439 23.8011 16.6516 23.8011C16.8639 23.8011 17.0686 23.724 17.2239 23.5874L18.6239 22.381C20.1312 21.0944 21.3871 20.0223 22.1491 18.8741H23.7715C24.0547 18.8741 24.2842 18.6446 24.2842 18.3614C24.2842 18.0783 24.0547 17.8487 23.7715 17.8487H22.6817C22.8518 17.3941 22.9432 16.9172 22.9432 16.4027C22.9432 14.2087 21.403 12.5542 19.3605 12.5542C18.6167 12.5542 17.936 12.7895 17.3375 13.2534C17.0641 13.4652 16.8369 13.7038 16.6516 13.9372C16.4662 13.7038 16.2389 13.4652 15.9657 13.2535C15.367 12.7895 14.6863 12.5542 13.9426 12.5542C11.9001 12.5542 10.3598 14.2087 10.3598 16.4027C10.3598 16.9172 10.4512 17.3942 10.6212 17.8487H9.4743C9.19122 17.8487 8.96167 18.0783 8.96167 18.3614ZM17.9564 21.6027L16.6516 22.727L15.3449 21.6011C14.1301 20.5642 13.1254 19.7065 12.4319 18.874H14.1866C14.3714 18.874 14.5418 18.7746 14.6328 18.6138L15.0082 17.9503L16.2054 20.066C16.2964 20.2268 16.4668 20.3262 16.6516 20.3262C16.8363 20.3262 17.0067 20.2268 17.0977 20.066L18.5433 17.5112L19.1671 18.6138C19.2581 18.7746 19.4285 18.874 19.6133 18.874H20.871C20.1775 19.7067 19.1722 20.5648 17.9564 21.6027ZM11.3852 16.4027C11.3852 14.7932 12.4846 13.5796 13.9426 13.5796C14.4535 13.5796 14.9228 13.7426 15.3378 14.0641C15.7579 14.3895 16.0395 14.8119 16.2016 15.1089C16.2914 15.2736 16.4641 15.376 16.6517 15.376C16.8392 15.376 17.0119 15.2735 17.1017 15.1089C17.2637 14.8119 17.5451 14.3897 17.9656 14.0639C18.3803 13.7425 18.8496 13.5796 19.3606 13.5796C20.8185 13.5796 21.9179 14.7932 21.9179 16.4027C21.9179 16.9135 21.7936 17.3869 21.5619 17.8487H19.9123L18.9894 16.2177C18.8985 16.0569 18.728 15.9575 18.5433 15.9575C18.3585 15.9575 18.1881 16.0569 18.0971 16.2177L16.6516 18.7725L15.4544 16.6568C15.3634 16.4959 15.193 16.3966 15.0082 16.3966C14.8234 16.3966 14.6529 16.4959 14.5619 16.6568L13.8876 17.8487H11.7411C11.5096 17.3869 11.3852 16.9135 11.3852 16.4027Z" fill="#555555"/>
<path d="M30.3125 21.8665L28.9531 21.0816C29.2846 19.9445 29.4625 18.7426 29.4625 17.5C29.4625 16.2574 29.2847 15.0555 28.9531 13.9184L30.3125 13.1335C31.1271 12.6632 31.4072 11.6178 30.9369 10.8032C30.4666 9.98874 29.4213 9.7086 28.6079 10.1781L27.5561 10.7812C27.1884 10.1865 26.7734 9.62391 26.3165 9.09877L25.2674 6.82883C24.5324 5.23824 23.9158 3.5782 23.4345 1.89458L23.2418 1.22186C23.0364 0.50251 22.3706 0 21.6225 0H11.675C10.9275 0 10.2616 0.501758 10.0555 1.22056L9.86263 1.89485C9.38111 3.57998 8.76444 5.24043 8.02992 6.82992L6.99318 9.07197C6.14094 10.0477 5.42857 11.1623 4.89379 12.3912C4.7808 12.6508 4.89967 12.9529 5.1593 13.0659C5.419 13.1789 5.72101 13.06 5.83401 12.8004C7.70808 8.49406 11.953 5.71156 16.6486 5.71156C23.1488 5.71156 28.437 10.9998 28.437 17.5C28.437 24.0002 23.1488 29.2884 16.6486 29.2884C10.1484 29.2884 4.86023 24.0002 4.86023 17.5C4.86023 16.698 4.94117 15.8967 5.10079 15.1186C5.15766 14.8412 4.9789 14.5703 4.70157 14.5133C4.42423 14.4566 4.15319 14.6351 4.09631 14.9125C3.92282 15.7583 3.83484 16.6289 3.83484 17.5C3.83484 20.7112 5.02217 23.6502 6.98087 25.9012L8.02992 28.1712C8.76478 29.7616 9.38145 31.4216 9.86277 33.1054L10.0555 33.7781C10.2608 34.4975 10.9268 35 11.675 35H21.6225C22.3706 35 23.0364 34.4975 23.2417 33.7784L23.4346 33.1041C23.9157 31.4207 24.5323 29.7606 25.2673 28.17L26.3165 25.9012C26.7734 25.3761 27.1884 24.8135 27.556 24.2188L28.6066 24.8212C28.8745 24.9758 29.1674 25.0493 29.4567 25.0493C30.0466 25.0493 30.6213 24.7434 30.9369 24.1968C31.4072 23.3822 31.1271 22.3368 30.3125 21.8665ZM29.1193 11.0669C29.444 10.8794 29.8612 10.991 30.0489 11.316C30.1398 11.4734 30.1639 11.6568 30.1169 11.8324C30.0699 12.0079 29.9572 12.1547 29.7998 12.2456L28.6192 12.9272C28.4547 12.4981 28.2678 12.08 28.0599 11.6744L29.1193 11.0669ZM26.3031 9.08359C26.2749 9.05126 26.2465 9.01906 26.218 8.98707L26.2199 8.98502C26.2521 9.01435 26.28 9.0475 26.3031 9.08359ZM8.9702 7.2396C9.7227 5.60841 10.3546 3.9051 10.8486 2.17677L11.0414 1.50288C11.1219 1.22179 11.3825 1.02539 11.675 1.02539H21.6226C21.9151 1.02539 22.1755 1.22192 22.256 1.50384L22.4488 2.17677C22.9437 3.90845 23.5779 5.61613 24.3336 7.25259C22.1912 5.64184 19.5295 4.68624 16.6487 4.68624C13.8204 4.68617 11.1425 5.61497 8.9702 7.2396ZM22.4487 32.8222L22.2558 33.4967C22.1755 33.7781 21.9151 33.9747 21.6225 33.9747H11.675C11.3823 33.9747 11.1218 33.7781 11.0414 33.4962L10.8486 32.8233C10.3535 31.0914 9.71935 29.3837 8.96364 27.7474C11.1061 29.3582 13.7679 30.3138 16.6486 30.3138C19.5289 30.3138 22.1903 29.3585 24.3326 27.7482C23.5772 29.3841 22.9434 31.0913 22.4487 32.8222ZM30.0489 23.684C29.8613 24.0089 29.4444 24.1208 29.118 23.9323L28.06 23.3257C28.2679 22.9201 28.4547 22.502 28.6193 22.0729L29.7998 22.7545C29.9573 22.8454 30.0699 22.9922 30.117 23.1677C30.1639 23.3433 30.1398 23.5266 30.0489 23.684Z" fill="#555555"/>
</svg>
