<svg width="27" height="27" viewBox="0 0 27 27" fill="none" xmlns="http://www.w3.org/2000/svg">
<path d="M25.5031 15.29C25.2167 15.2347 24.9406 15.4221 24.8855 15.708C23.8373 21.1482 19.0489 25.0966 13.5 25.0966C8.068 25.0966 3.36494 21.3127 2.18575 16.0498L2.32338 16.1875C2.42637 16.2905 2.56132 16.342 2.69627 16.342C2.83121 16.342 2.96616 16.2905 3.0691 16.1875C3.27508 15.9816 3.27508 15.6477 3.06915 15.4418L1.98467 14.3572C1.88579 14.2583 1.75164 14.2027 1.61178 14.2027C1.47193 14.2027 1.33778 14.2583 1.2389 14.3572L0.15447 15.4418C-0.051458 15.6477 -0.051458 15.9816 0.154522 16.1875C0.360397 16.3935 0.694364 16.3935 0.900292 16.1875L1.09551 15.9923C2.27239 21.8841 7.47527 26.1513 13.5 26.1513C19.5535 26.1513 24.7774 21.8432 25.9212 15.9076C25.9763 15.6216 25.7891 15.3451 25.5031 15.29Z" fill="white"/>
<path d="M26.8455 10.8124C26.6396 10.6065 26.3056 10.6065 26.0997 10.8125L25.9045 11.0077C24.7276 5.11591 19.5247 0.848694 13.5 0.848694C7.44646 0.848694 2.22259 5.15678 1.07883 11.0923C1.02372 11.3784 1.21088 11.6549 1.49686 11.71C1.7832 11.765 2.05937 11.5778 2.11448 11.2919C3.16279 5.85181 7.95113 1.90338 13.5 1.90338C18.932 1.90338 23.6351 5.68723 24.8143 10.9501L24.6766 10.8125C24.4708 10.6066 24.1369 10.6065 23.9309 10.8124C23.7249 11.0184 23.7249 11.3522 23.9308 11.5582L25.0152 12.6427C25.1141 12.7417 25.2483 12.7972 25.3881 12.7972C25.528 12.7972 25.6621 12.7417 25.761 12.6427L26.8454 11.5582C27.0515 11.3523 27.0515 11.0184 26.8455 10.8124Z" fill="white"/>
<path d="M13.5 22.4142C18.4153 22.4142 22.4142 18.4153 22.4142 13.5C22.4142 8.58473 18.4153 4.58582 13.5 4.58582C8.58475 4.58582 4.58585 8.58473 4.58585 13.5C4.58585 18.4153 8.58475 22.4142 13.5 22.4142ZM13.5 5.64051C17.8338 5.64051 21.3595 9.16623 21.3595 13.5C21.3595 17.8338 17.8338 21.3595 13.5 21.3595C9.16626 21.3595 5.64054 17.8338 5.64054 13.5C5.64054 9.16623 9.16626 5.64051 13.5 5.64051Z" fill="white"/>
<path d="M14.0565 15.8246C14.1204 15.8501 14.1863 15.8621 14.2512 15.8621C14.4608 15.8621 14.6591 15.7362 14.7413 15.5295L16.2008 11.8603C16.3084 11.5896 16.1762 11.283 15.9057 11.1753C15.6351 11.0678 15.3284 11.1998 15.2208 11.4705L13.7613 15.1397C13.6537 15.4103 13.7859 15.717 14.0565 15.8246Z" fill="white"/>
<path d="M17.0366 12.1927H18.2473L16.9594 15.1224C16.8422 15.389 16.9633 15.7002 17.2299 15.8174C17.299 15.8478 17.371 15.8622 17.4419 15.8622C17.6447 15.8621 17.8381 15.7445 17.9249 15.5469L19.538 11.8777C19.6096 11.7146 19.5942 11.5264 19.4968 11.3772C19.3994 11.228 19.2334 11.1381 19.0552 11.1381H17.0366C16.7454 11.1381 16.5093 11.3743 16.5093 11.6655C16.5092 11.9566 16.7453 12.1927 17.0366 12.1927Z" fill="white"/>
<path d="M10.2863 14.5198C10.3812 14.6805 10.5538 14.779 10.7404 14.779H12.0444C12.0429 14.9734 12.0414 15.1596 12.0399 15.3301C12.0374 15.6213 12.2715 15.8594 12.5627 15.862H12.5674C12.8565 15.862 13.0921 15.6288 13.0946 15.3392C13.0958 15.2012 13.0974 15.0053 13.0992 14.7762C13.3648 14.7489 13.572 14.5245 13.572 14.2517C13.572 13.9813 13.3685 13.7584 13.1062 13.7279C13.1109 12.8695 13.1127 12.0053 13.102 11.8759C13.0738 11.5368 12.8666 11.2593 12.5743 11.1687C12.2823 11.0784 11.9754 11.1873 11.753 11.4602C11.5442 11.7163 10.6524 13.3195 10.2787 13.9969C10.1885 14.1603 10.1914 14.3591 10.2863 14.5198ZM12.0546 12.9879C12.0538 13.2157 12.0527 13.4664 12.0513 13.7243H11.6373C11.7839 13.4632 11.9263 13.2116 12.0546 12.9879Z" fill="white"/>
<path d="M9.9673 15.8894C10.2585 15.8857 10.4916 15.6467 10.488 15.3555C10.4844 15.0665 10.249 14.8348 9.96082 14.8348C9.95855 14.8348 9.95628 14.8348 9.95401 14.8348C9.66529 14.8384 9.36197 14.8411 9.0879 14.8424C9.27764 14.5855 9.52122 14.2489 9.82893 13.8093C10.0717 13.4625 10.2303 13.1328 10.3007 12.8294C10.318 12.7621 10.3323 12.6669 10.3325 12.5684C10.3337 11.7599 9.67473 11.1021 8.86621 11.1021C8.16716 11.1021 7.56214 11.5995 7.42746 12.2847C7.37135 12.5705 7.55745 12.8477 7.84327 12.9038C8.12925 12.9601 8.40626 12.7738 8.46237 12.488C8.50008 12.2961 8.66993 12.1568 8.86621 12.1568C9.08416 12.1568 9.26304 12.3271 9.27691 12.5416L9.26768 12.6138C9.23619 12.7341 9.15767 12.929 8.96488 13.2045C8.38496 14.033 8.03902 14.486 7.85318 14.7293C7.61488 15.0413 7.48362 15.2132 7.57132 15.4986C7.62294 15.6663 7.75467 15.8002 7.92411 15.8567C7.99451 15.8802 8.05088 15.8989 8.77108 15.8989C9.05384 15.8989 9.43891 15.896 9.9673 15.8894Z" fill="white"/>
</svg>
