<svg width="27" height="27" viewBox="0 0 27 27" fill="none" xmlns="http://www.w3.org/2000/svg">
<path d="M19.4358 16.4891C20.886 16.4891 22.0617 15.322 22.0617 13.8822C22.0617 12.4425 20.886 11.2753 19.4358 11.2753C17.9855 11.2753 16.8099 12.4425 16.8099 13.8822C16.8099 15.322 17.9855 16.4891 19.4358 16.4891Z" fill="white"/>
<path d="M26.2596 14.1158C25.6709 13.8996 25.0181 14.1969 24.7993 14.7803L23.3294 18.7094L13.4042 15.6166L14.9607 12.4229C15.2339 11.8622 14.9977 11.188 14.4328 10.9167C13.8689 10.6455 13.1889 10.88 12.9157 11.4403L10.7861 15.8095C10.6422 16.1044 10.6349 16.4471 10.7657 16.7482C10.897 17.0488 11.1531 17.2785 11.4681 17.3764L13.0912 17.8821L9.19606 20.0847L6.69028 20.8162C6.68784 20.8173 6.6854 20.8177 6.68296 20.8182L6.60132 20.8423L3.0324 16.4277C2.44375 15.6991 1.3709 15.5833 0.637426 16.1671C-0.096559 16.752 -0.21373 17.8165 0.374922 18.5452L4.65841 23.8435C4.987 24.2498 5.47896 24.4756 5.9874 24.4756C6.14732 24.4756 6.30923 24.4535 6.46818 24.4066L6.82255 24.3029L9.74934 26.6289C10.0604 26.8765 10.4377 27 10.8139 27C11.193 27 11.5717 26.875 11.8843 26.6246L15.0347 24.1007C15.0454 24.092 15.0531 24.0813 15.0633 24.0722L20.2013 20.0992L23.6774 21.1826C23.7907 21.2177 23.905 21.2347 24.0182 21.2347C24.4809 21.2347 24.913 20.9519 25.0827 20.4997L26.9284 15.5663C27.1472 14.982 26.8477 14.3324 26.2596 14.1158Z" fill="white"/>
<path d="M23.1782 10.8574C23.1782 11.1238 23.396 11.34 23.6643 11.34C23.9326 11.34 24.1504 11.1238 24.1504 10.8574V3.49866C24.1504 3.2323 23.9326 3.01611 23.6643 3.01611C23.396 3.01611 23.1782 3.2323 23.1782 3.49866V10.8574Z" fill="white"/>
<path d="M22.4442 7.84184V0.482548C22.4442 0.216193 22.2264 0 21.9581 0C21.6898 0 21.472 0.216193 21.472 0.482548V7.84179C21.472 8.1082 21.6898 8.32434 21.9581 8.32434C22.2269 8.32439 22.4442 8.1082 22.4442 7.84184Z" fill="white"/>
<path d="M5.76481 9.10377V16.4625C5.76481 16.7294 5.98258 16.9451 6.25088 16.9451C6.51918 16.9451 6.73695 16.7294 6.73695 16.4625V9.10377C6.73695 8.83737 6.51918 8.62123 6.25088 8.62123C5.98253 8.62118 5.76481 8.83737 5.76481 9.10377Z" fill="white"/>
<path d="M7.471 6.08767V13.4469C7.471 13.7133 7.68877 13.9295 7.95707 13.9295C8.22542 13.9295 8.44314 13.7133 8.44314 13.4469V6.08767C8.44314 5.82127 8.22537 5.60512 7.95707 5.60512C7.68877 5.60512 7.471 5.82132 7.471 6.08767Z" fill="white"/>
</svg>
