<svg width="23" height="29" viewBox="0 0 23 29" fill="none" xmlns="http://www.w3.org/2000/svg">
<path d="M20.9056 9.84762L14.7108 6.33258L14.8568 3.41934C14.8572 3.40905 14.8581 3.39882 14.8581 3.38835C14.8581 1.51699 13.3411 0 11.4697 0C9.59836 0 8.08136 1.51699 8.08136 3.38835C8.08136 3.39863 8.08167 3.40886 8.08223 3.41934L8.22926 6.37739L2.09769 9.8478C1.12727 10.399 0.528077 11.4293 0.528883 12.5454V14.0431C0.525722 14.7252 1.07601 15.2807 1.75808 15.2838C1.88149 15.2837 2.00422 15.2652 2.12224 15.2289L8.57221 13.262L8.79492 17.7486C8.80335 17.9154 8.71831 18.0731 8.57432 18.1577L6.84919 19.1755C6.20133 19.5602 5.88509 20.3262 6.07296 21.0558L6.07526 21.0648C6.31135 21.9673 7.23435 22.5075 8.13684 22.2715C8.19287 22.2568 8.24816 22.2393 8.3024 22.2189L11.3423 21.079C11.444 21.0408 11.5561 21.0408 11.6578 21.079L14.6976 22.2189C15.5712 22.5464 16.5448 22.1038 16.8723 21.2303C16.8927 21.176 16.9102 21.1208 16.9248 21.0648L16.9253 21.0627C17.1149 20.3279 16.7926 19.5567 16.1364 19.1754L14.3699 18.1536C14.2238 18.0696 14.1373 17.9106 14.1461 17.7423L14.3688 13.2609L20.8815 15.2314C20.999 15.2672 21.1213 15.2855 21.2442 15.2856C21.9253 15.2811 22.4742 14.7261 22.4712 14.045V12.5434C22.4718 11.4287 21.8741 10.3994 20.9056 9.84762ZM1.76856 14.0431V12.5454C1.76738 11.876 2.12633 11.2577 2.70817 10.9268L8.3006 7.76273L8.51382 11.9853L1.76856 14.0431ZM15.5158 20.2485C15.6906 20.35 15.7763 20.5556 15.7255 20.7512L15.7251 20.7527C15.6616 20.9926 15.4156 21.1356 15.1757 21.072C15.1612 21.0682 15.147 21.0637 15.133 21.0584L12.0931 19.9184C11.7107 19.7751 11.2893 19.7751 10.907 19.9184L7.86709 21.0584C7.63465 21.1455 7.37562 21.0278 7.28847 20.7953C7.28326 20.7814 7.27874 20.7674 7.27495 20.753L7.27266 20.7442C7.22252 20.5499 7.30663 20.3459 7.47907 20.2434L9.20414 19.2256C9.74563 18.9074 10.065 18.3143 10.0328 17.687L9.32147 3.3739C9.33046 2.18716 10.2998 1.23236 11.4865 1.24135C12.6606 1.25021 13.6102 2.19981 13.6191 3.3739L12.908 17.6807C12.875 18.3133 13.2001 18.9108 13.7492 19.2267L15.5158 20.2485ZM21.2315 14.045L14.4278 11.985L14.6421 7.71872L20.2928 10.9259C20.8738 11.2571 21.2322 11.8746 21.2315 12.5434V14.045Z" fill="white"/>
<path d="M2.88427 18.7856C2.54193 18.7856 2.26443 19.0631 2.26443 19.4054V25.062C2.26443 25.4044 2.54193 25.6819 2.88427 25.6819C3.2266 25.6819 3.5041 25.4044 3.5041 25.062V19.4054C3.5041 19.0631 3.2266 18.7856 2.88427 18.7856Z" fill="white"/>
<path d="M20.1158 18.7856C19.7734 18.7856 19.4959 19.0631 19.4959 19.4054V25.062C19.4959 25.4044 19.7734 25.6819 20.1158 25.6819C20.4581 25.6819 20.7356 25.4044 20.7356 25.062V19.4054C20.7356 19.0631 20.4581 18.7856 20.1158 18.7856Z" fill="white"/>
<path d="M11.5 23.5191C11.1577 23.5191 10.8802 23.7966 10.8802 24.139V28.3802C10.8802 28.7225 11.1577 29 11.5 29C11.8424 29 12.1199 28.7225 12.1199 28.3802V24.139C12.1199 23.7966 11.8424 23.5191 11.5 23.5191Z" fill="white"/>
</svg>
