<svg width="18" height="18" viewBox="0 0 18 18" fill="none" xmlns="http://www.w3.org/2000/svg">
<path d="M9 0C13.9705 0 18 4.02954 18 9C18 13.9705 13.9705 18 9 18C4.02954 18 0 13.9705 0 9C0 4.02954 4.02954 0 9 0ZM9 16.5C13.142 16.5 16.5 13.142 16.5 9C16.5 4.85796 13.142 1.50001 9 1.50001C4.85796 1.50001 1.50001 4.85796 1.50001 9C1.50001 13.142 4.85796 16.5 9 16.5Z" fill="white"/>
<path d="M5.24999 5.24998H12.75C13.1642 5.24998 13.5 5.58576 13.5 5.99997C13.5 6.41418 13.1642 6.74996 12.75 6.74996H5.25003C4.83581 6.74996 4.50004 6.41418 4.50004 5.99997C4.5 5.5858 4.83578 5.24998 5.24999 5.24998Z" fill="white"/>
<path d="M5.24999 8.25001H12.75C13.1642 8.25001 13.5 8.58579 13.5 9C13.5 9.41421 13.1642 9.74999 12.75 9.74999H5.25003C4.83581 9.74999 4.50004 9.41421 4.50004 9C4.50004 8.58579 4.83578 8.25001 5.24999 8.25001Z" fill="white"/>
<path d="M5.24999 11.25H12.75C13.1642 11.25 13.5 11.5858 13.5 12C13.5 12.4142 13.1642 12.75 12.75 12.75H5.25003C4.83581 12.75 4.50004 12.4142 4.50004 12C4.5 11.5858 4.83578 11.25 5.24999 11.25Z" fill="white"/>
</svg>
