<svg width="24" height="30" viewBox="0 0 24 30" fill="none" xmlns="http://www.w3.org/2000/svg">
<path d="M12.9791 6.63592L12.0582 6.28357L11.1085 7.75169L8.37456 6.25421L9.87105 0.557887L8.4609 0L6.41762 5.34397L4.20167 4.72736L4.05778 5.07971C3.82755 5.07971 3.53976 5.07971 3.51098 5.13843C3.48221 5.22652 3.68366 5.4027 3.85633 5.57887L3.74121 5.90186L5.78449 6.98827L3.74121 12.3322L5.12258 12.8901L7.79899 7.69297L10.8207 8.48575L10.533 10.2181L11.4539 10.5705L12.1158 8.80874L12.5475 8.92619L12.6626 8.63257L12.2885 8.39767L12.9791 6.63592Z" fill="white"/>
<path d="M20.3465 21.6401C21.2386 20.9354 21.4113 19.6435 20.7206 18.7333C20.0299 17.823 18.7636 17.6468 17.8715 18.3515C16.9794 19.0562 16.8067 20.3482 17.4974 21.2584C18.1881 22.1687 19.4543 22.3448 20.3465 21.6401Z" fill="white"/>
<path d="M23.2531 23.3725L19.3104 23.813L17.1233 22.3155C17.2672 21.1997 16.2599 20.0252 15.6268 19.0856L16.1736 21.1116L16.1448 21.0823L15.0512 18.2635L16.5765 13.7417L15.4541 13.3012L13.3245 17.9405C13.2382 18.146 13.2382 18.3809 13.3245 18.5865L14.2454 20.9061L11.6266 22.4329L13.8713 20.7299L13.0367 18.7333C13.0367 18.7039 13.0079 18.6746 13.0079 18.6452C11.8568 19.0563 10.533 19.8491 9.32429 20.6418C7.77024 21.6989 7.77024 23.2551 7.97169 24.2534L5.23773 25.1343L0.920945 22.1687L3.05176e-05 23.4019L1.69797 24.87L6.15864 26.6318L8.48971 25.7803L6.18742 27.0135L1.46774 25.1343L0.777052 26.5731L5.69819 29.2744C5.84208 29.3331 5.98597 29.3919 6.15864 29.3919C6.33132 29.3919 6.50399 29.3625 6.67666 29.2744L11.1373 26.8373C11.1661 26.8373 11.1661 26.8373 11.1949 26.808L15.9721 24.0479C16.0585 23.9892 16.1736 23.9304 16.2599 23.8423L18.7061 25.516C18.85 25.6041 19.0227 25.6628 19.1953 25.6628C19.2529 25.6628 19.3104 25.6628 19.3392 25.6628L23.5409 24.6351L23.2531 23.3725Z" fill="white"/>
<path d="M10.6768 13.5361C10.7632 13.771 10.8783 13.9765 10.9646 14.2114C11.051 14.4463 11.1373 14.6519 11.1949 14.8868C11.2812 15.1217 11.3387 15.3272 11.3963 15.5621C11.4251 15.6796 11.4539 15.7677 11.4826 15.8851C11.5114 16.0026 11.5114 16.0906 11.5402 16.2081C11.569 16.4136 11.5978 16.5898 11.6265 16.7953C11.6553 16.9715 11.6553 17.1477 11.6841 17.2945C11.6841 17.4413 11.6841 17.5588 11.6841 17.6762C11.6841 17.7937 11.6841 17.8818 11.6841 17.9405L12.3172 17.5C12.3172 17.412 12.2884 17.3532 12.2884 17.2651C12.2597 17.1183 12.2309 16.9422 12.2021 16.7366C12.1733 16.5604 12.1158 16.3549 12.0582 16.1494C12.0294 16.0319 12.0007 15.9438 11.9719 15.8264C11.9431 15.7089 11.8855 15.6208 11.8568 15.5034C11.7992 15.2685 11.6841 15.063 11.5978 14.8281C11.5114 14.5932 11.3963 14.3876 11.2812 14.1527C11.1661 13.9178 11.051 13.7123 10.9358 13.5067C10.8207 13.3012 10.6768 13.0957 10.5617 12.8901C10.2739 12.391 10.0437 12.0386 9.81349 11.745C9.35303 11.1577 9.00769 10.8348 9.00769 10.8348C9.00769 10.8348 9.32425 11.2165 9.72715 11.8331C9.9286 12.1267 10.1588 12.5084 10.3603 12.9195C10.4466 13.0957 10.5617 13.3306 10.6768 13.5361Z" fill="white"/>
<path d="M10.1876 17.7349C10.2164 17.9111 10.2164 18.0873 10.2452 18.2341C10.2452 18.3809 10.2452 18.4983 10.2452 18.6158C10.2452 18.7626 10.2452 18.8507 10.2452 18.9094L10.8783 18.469C10.8783 18.3809 10.8495 18.2928 10.8495 18.2047C10.8208 18.0579 10.792 17.8817 10.7632 17.6762C10.7344 17.5 10.6769 17.2945 10.6193 17.0889C10.5905 16.9715 10.5618 16.8834 10.533 16.766C10.5042 16.6485 10.4466 16.5604 10.4179 16.443C10.3603 16.2081 10.274 16.0025 10.1589 15.7676C10.0725 15.5327 9.95741 15.3272 9.8423 15.0923C9.72718 14.8574 9.61207 14.6519 9.49696 14.4463C9.38184 14.2408 9.23795 14.0352 9.12283 13.8297C8.86383 13.448 8.60482 13.0956 8.37459 12.802C7.91413 12.2148 7.56879 11.8918 7.56879 11.8918C7.56879 11.8918 7.88535 12.2735 8.28825 12.8901C8.48971 13.1837 8.71993 13.5654 8.92138 13.9765C9.0365 14.1821 9.12284 14.3876 9.23795 14.5931C9.32429 14.828 9.4394 15.0336 9.52573 15.2685C9.61207 15.5034 9.69841 15.7089 9.75596 15.9438C9.8423 16.1787 9.89986 16.3842 9.95741 16.6191C9.98619 16.7366 10.015 16.8247 10.0437 16.9421C10.0725 17.0596 10.0725 17.1477 10.1013 17.2651C10.1589 17.3532 10.1876 17.5587 10.1876 17.7349Z" fill="white"/>
</svg>
