<svg width="18" height="18" viewBox="0 0 18 18" fill="none" xmlns="http://www.w3.org/2000/svg">
<path d="M15.3598 2.63604C11.8506 -0.873086 6.14097 -0.873086 2.63185 2.63604C-0.877282 6.14517 -0.877282 11.8548 2.63185 15.364C6.14097 18.8731 11.8506 18.8731 15.3598 15.364C18.8689 11.8548 18.8689 6.14517 15.3598 2.63604ZM3.54097 14.4548C0.533082 11.4469 0.533081 6.55306 3.54097 3.54517C6.54886 0.537277 11.4427 0.537277 14.4506 3.54517C17.4585 6.55306 17.4585 11.4469 14.4506 14.4548C11.4427 17.4627 6.54886 17.4627 3.54097 14.4548Z" fill="#6ACA1F"/>
<path d="M12.0263 5.96954C11.7752 5.71847 11.3682 5.71847 11.1171 5.96955L5.96535 11.1213C5.71428 11.3724 5.71427 11.7794 5.96535 12.0305C6.21642 12.2815 6.62342 12.2815 6.8745 12.0305L12.0263 6.87869C12.2773 6.62761 12.2774 6.22062 12.0263 5.96954Z" fill="#6ACA1F"/>
<path d="M12.0263 11.1213L6.87452 5.96956C6.62344 5.71848 6.21644 5.71848 5.96536 5.96956C5.71429 6.22064 5.71429 6.62763 5.96536 6.87871L11.1171 12.0305C11.3682 12.2816 11.7752 12.2816 12.0263 12.0305C12.2774 11.7794 12.2774 11.3724 12.0263 11.1213Z" fill="#6ACA1F"/>
</svg>
