<svg width="23" height="29" viewBox="0 0 23 29" fill="none" xmlns="http://www.w3.org/2000/svg">
<path fill-rule="evenodd" clip-rule="evenodd" d="M4.57745 9.64705C4.8746 9.74529 5.19497 9.58421 5.29298 9.28707C6.1822 6.59775 8.6839 4.791 11.5184 4.791C15.133 4.791 18.0739 7.73167 18.0739 11.3465C18.0739 14.1402 16.8224 15.8094 15.8171 17.1506C15.0856 18.1261 14.4539 18.9689 14.4539 19.9908C14.4539 20.0581 14.4531 20.1247 14.4515 20.1908H12.0848V18.8896C12.0848 18.5768 11.8312 18.3232 11.5184 18.3232C11.2055 18.3232 10.952 18.5768 10.952 18.8896V20.1908H8.585C8.58345 20.1247 8.58257 20.0581 8.58257 19.9908C8.58257 18.9686 7.95089 18.1261 7.21943 17.1504C6.4789 16.1625 5.63969 15.0427 5.22351 13.4517C5.1443 13.149 4.83455 12.9678 4.5321 13.047C4.22965 13.126 4.04844 13.4358 4.12765 13.7382C4.60002 15.5443 5.54986 16.8116 6.31318 17.8298C6.94817 18.677 7.44975 19.3461 7.44975 19.9908C7.44975 20.2621 7.46126 20.5267 7.4836 20.7791V25.5701C7.4836 25.5854 7.48471 25.6002 7.48582 25.6151C7.48626 25.6186 7.48604 25.6224 7.48648 25.6259C7.48847 25.6469 7.49179 25.6673 7.49599 25.6876C7.69269 26.6103 8.19626 27.4497 8.91444 28.0504C9.64635 28.6628 10.5712 29 11.5184 29C12.4655 29 13.3902 28.6628 14.1223 28.0504C14.8402 27.4497 15.344 26.6107 15.5405 25.6881V25.6881C15.5447 25.6679 15.548 25.6469 15.5502 25.6259C15.5505 25.6224 15.5505 25.6186 15.5507 25.6151C15.5518 25.6 15.5529 25.5852 15.5529 25.5699V20.7791C15.5752 20.5267 15.587 20.2621 15.587 19.9908C15.587 19.3461 16.0886 18.677 16.7235 17.8298C17.7714 16.432 19.2067 14.5177 19.2067 11.3465C19.2067 7.10707 15.7576 3.65819 11.5184 3.65819C8.19427 3.65819 5.26046 5.77734 4.21748 8.93152C4.11924 9.22844 4.28053 9.54881 4.57745 9.64705ZM11.5184 27.8672C10.3667 27.8672 9.32819 27.1707 8.83612 26.1363H14.2006C13.7083 27.1707 12.6698 27.8672 11.5184 27.8672ZM14.4203 25.0035H8.61642V23.73H14.4203V25.0035ZM14.4203 22.5972H8.61642V21.3236H14.4203V22.5972Z" fill="white"/>
<path fill-rule="evenodd" clip-rule="evenodd" d="M11.5184 2.64198C11.8312 2.64198 12.0848 2.38842 12.0848 2.07557V0.566406C12.0848 0.253555 11.8312 0 11.5184 0C11.2055 0 10.952 0.253555 10.952 0.566406V2.07557C10.952 2.38842 11.2055 2.64198 11.5184 2.64198Z" fill="white"/>
<path fill-rule="evenodd" clip-rule="evenodd" d="M0.738281 11.9129H2.24744C2.5603 11.9129 2.81385 11.6593 2.81385 11.3465C2.81385 11.0336 2.5603 10.7801 2.24744 10.7801H0.738281C0.42543 10.7801 0.171875 11.0336 0.171875 11.3465C0.171875 11.6593 0.42543 11.9129 0.738281 11.9129Z" fill="white"/>
<path fill-rule="evenodd" clip-rule="evenodd" d="M14.1117 12.4908C14.1117 12.178 13.8581 11.9244 13.5453 11.9244H9.49147C9.17862 11.9244 8.92506 12.178 8.92506 12.4908C8.92506 12.8037 9.17862 13.0572 9.49147 13.0572H10.952V14.3584C10.952 14.6712 11.2055 14.9248 11.5184 14.9248C11.8312 14.9248 12.0848 14.6712 12.0848 14.3584V13.0572H13.5453C13.8581 13.0572 14.1117 12.8037 14.1117 12.4908Z" fill="white"/>
<path fill-rule="evenodd" clip-rule="evenodd" d="M4.56241 5.19147C4.67303 5.30209 4.81796 5.35741 4.96288 5.35741C5.1078 5.35741 5.25272 5.30209 5.36334 5.19147C5.58459 4.97021 5.58459 4.61156 5.36334 4.39053L4.29624 3.32343C4.07499 3.10218 3.71634 3.10218 3.49509 3.32343C3.27406 3.54446 3.27406 3.90311 3.49509 4.12437L4.56241 5.19147Z" fill="white"/>
<path fill-rule="evenodd" clip-rule="evenodd" d="M3.50504 19.9262C3.64996 19.9262 3.79488 19.8709 3.90551 19.7603L4.97261 18.6932C5.19386 18.4719 5.19386 18.1135 4.97261 17.8922C4.75136 17.671 4.39271 17.671 4.17168 17.8922L3.10435 18.9593C2.88332 19.1806 2.88332 19.5392 3.10435 19.7603C3.21498 19.8709 3.3599 19.9262 3.50504 19.9262Z" fill="white"/>
<path fill-rule="evenodd" clip-rule="evenodd" d="M18.0739 5.3574C18.2188 5.3574 18.3637 5.30209 18.4743 5.19146L19.5414 4.12436C19.7627 3.90311 19.7627 3.54446 19.5414 3.32321C19.3204 3.10196 18.9617 3.10218 18.7405 3.32321L17.6734 4.39031C17.4521 4.61156 17.4521 4.97021 17.6732 5.19146C17.7838 5.30209 17.9289 5.3574 18.0739 5.3574Z" fill="white"/>
<path fill-rule="evenodd" clip-rule="evenodd" d="M18.0641 17.8922C17.8429 18.1133 17.8429 18.4719 18.0641 18.6932L19.1312 19.7603C19.2418 19.8709 19.3868 19.9262 19.5317 19.9262C19.6766 19.9262 19.8215 19.8709 19.9322 19.7603C20.1534 19.5392 20.1534 19.1806 19.9322 18.9593L18.8651 17.8922C18.6438 17.671 18.2851 17.671 18.0641 17.8922Z" fill="white"/>
<path fill-rule="evenodd" clip-rule="evenodd" d="M20.7893 11.9129H22.2984C22.6113 11.9129 22.8649 11.6593 22.8649 11.3465C22.8649 11.0336 22.6113 10.7801 22.2984 10.7801H20.7893C20.4764 10.7801 20.2229 11.0336 20.2229 11.3465C20.2229 11.6593 20.4764 11.9129 20.7893 11.9129Z" fill="white"/>
<path fill-rule="evenodd" clip-rule="evenodd" d="M11.5184 16.0576C11.2064 16.0576 10.952 16.3121 10.952 16.624C10.952 16.936 11.2064 17.1904 11.5184 17.1904C11.8303 17.1904 12.0848 16.936 12.0848 16.624C12.0848 16.3121 11.8303 16.0576 11.5184 16.0576Z" fill="white"/>
<path fill-rule="evenodd" clip-rule="evenodd" d="M4.96288 11.3465C4.96288 11.0345 4.70844 10.7801 4.39647 10.7801C4.08428 10.7801 3.83006 11.0345 3.83006 11.3465C3.83006 11.6585 4.08428 11.9129 4.39647 11.9129C4.70844 11.9129 4.96288 11.6585 4.96288 11.3465Z" fill="white"/>
</svg>
