<svg width="27" height="26" viewBox="0 0 27 26" fill="none" xmlns="http://www.w3.org/2000/svg">
<path d="M24.8479 2.54283L23.9552 2.22049C23.6914 2.12527 23.4002 2.26195 23.305 2.52557C23.2098 2.7894 23.3465 3.0804 23.6103 3.17581L24.5029 3.49815C24.9074 3.64415 25.1175 4.09186 24.9715 4.49632L24.5095 5.77557C24.3635 6.18004 23.9158 6.39011 23.5113 6.24411L18.4195 4.40508C18.3782 4.3902 18.3388 4.37215 18.3013 4.35112C18.2447 4.31938 18.1928 4.2809 18.1463 4.23627L18.7871 1.70097C18.9787 1.6008 19.2032 1.58414 19.4119 1.65952L19.9586 1.85689C20.2224 1.9523 20.5134 1.81563 20.6086 1.5518C20.7039 1.28798 20.5674 0.996979 20.3036 0.901764L19.7569 0.704193C19.3564 0.559784 18.9307 0.561966 18.5447 0.700226C18.2114 0.266998 17.6905 0 17.1212 0H8.8762C8.32435 0 7.8088 0.258865 7.47297 0.677414C7.10322 0.561966 6.70074 0.56752 6.32841 0.702011L1.23719 2.54065C0.786308 2.70351 0.425682 3.0322 0.221764 3.46642C0.0180439 3.90044 -0.00437124 4.38782 0.158486 4.8389L0.620476 6.11815C0.870812 6.81143 1.50617 7.25597 2.19886 7.29961L6.57557 12.6166L5.29949 15.7346C5.29493 15.746 5.29076 15.7573 5.28699 15.7686C4.98945 16.6749 5.33004 17.6626 6.11536 18.1708C6.34626 18.3201 6.60155 18.4221 6.86855 18.4751C7.05779 18.9823 7.54696 19.3443 8.11924 19.3443H9.5794C9.82339 19.3443 10.0557 19.2927 10.2657 19.1999V24.3581C10.2657 25.2635 11.0023 26 11.9076 26C12.3474 26 12.7475 25.8264 13.0426 25.5442C13.3378 25.8264 13.7377 26 14.1777 26C15.083 26 15.8195 25.2635 15.8195 24.3581V19.1997C16.0296 19.2925 16.2619 19.3443 16.5059 19.3443H17.966C18.5385 19.3443 19.0279 18.9819 19.2169 18.4745C19.7553 18.3642 20.2226 18.044 20.5291 17.5642C20.8992 16.9849 20.9657 16.2605 20.707 15.6255L19.4143 12.351L23.8531 7.30318C24.5585 7.27203 25.2105 6.82492 25.4648 6.12073L25.9268 4.84148C26.263 3.91035 25.779 2.87926 24.8479 2.54283ZM16.3228 14.3286C15.9247 14.0944 15.4617 13.9595 14.9674 13.9595H14.9328C15.1719 13.6001 15.3115 13.1692 15.3115 12.706C15.3115 11.4549 14.2937 10.4371 13.0426 10.4371C11.7916 10.4371 10.7735 11.4549 10.7735 12.706C10.7735 13.1692 10.9134 13.6001 11.1524 13.9595H11.1179C10.4952 13.9595 9.92217 14.1733 9.46673 14.5308L7.66836 12.346V7.78381L9.33719 7.3492C9.52167 7.30119 9.66291 7.2276 9.77062 7.14607C9.81525 7.14905 9.85949 7.15044 9.90333 7.15044H16.2177C16.2815 7.15044 16.3462 7.14726 16.4109 7.14131C16.5334 7.23553 16.6822 7.30675 16.8504 7.35019L18.3203 7.73303V12.0572L16.3228 14.3286ZM11.7892 12.706C11.7892 12.0149 12.3515 11.4528 13.0426 11.4528C13.7337 11.4528 14.2959 12.0149 14.2959 12.706C14.2959 13.3971 13.7337 13.9593 13.0426 13.9593C12.3515 13.9595 11.7892 13.3971 11.7892 12.706ZM6.02213 7.16313C5.83944 7.21054 5.34591 7.13437 4.95751 6.90268L4.49631 6.62755L8.01133 5.35822C8.04168 5.34711 8.07163 5.33521 8.10119 5.32271C8.17756 5.29057 8.25075 5.25269 8.32117 5.21083L8.91587 6.40935L6.02213 7.16313ZM3.45708 7.19011L4.4372 7.77489C5.01186 8.11766 5.78568 8.27377 6.27762 8.14603L6.65253 8.04843V11.1122L3.38845 7.14667C3.41126 7.16115 3.43328 7.17583 3.45708 7.19011ZM21.6505 6.65215L21.2287 6.90387C20.8407 7.13536 20.3474 7.21153 20.1653 7.16412L17.2392 6.40201L17.7665 5.21381C17.8153 5.24297 17.8655 5.26994 17.917 5.29434C17.9686 5.31874 18.0212 5.34135 18.0751 5.36079L21.6505 6.65215ZM19.3357 7.99765L19.9098 8.14722C20.0251 8.17697 20.1556 8.19145 20.2954 8.19145C20.7531 8.19145 21.3097 8.03831 21.7492 7.77588L22.4558 7.35435L19.3357 10.9023V7.99765ZM8.8762 1.01562H17.1212C17.4128 1.01562 17.6748 1.1769 17.8085 1.42763L17.1754 3.93277C17.1575 3.93396 17.1395 3.93515 17.1214 3.93515H15.1445C14.864 3.93515 14.6367 4.16267 14.6367 4.44296C14.6367 4.72345 14.864 4.95097 15.1445 4.95097H16.7721L16.2472 6.13382C16.2373 6.13422 16.2272 6.13481 16.2175 6.13481H9.91344L9.32589 4.95097H10.9035C11.184 4.95097 11.4113 4.72365 11.4113 4.44316C11.4113 4.16287 11.184 3.93515 10.9035 3.93515H8.88334L8.21306 1.38696C8.35331 1.16043 8.60444 1.01562 8.8762 1.01562ZM1.5758 5.77319L1.11381 4.49394C0.967812 4.08968 1.17788 3.64177 1.58215 3.49577L6.67336 1.65714C6.85784 1.59048 7.05938 1.59782 7.23791 1.67221L7.91671 4.25273C7.84312 4.31799 7.75782 4.36977 7.66518 4.40329L3.19643 6.01698C3.19663 6.01678 3.19624 6.01698 3.19643 6.01698L2.57397 6.24173C2.37798 6.31255 2.16633 6.30283 1.97768 6.21416C1.78924 6.12589 1.64642 5.96918 1.5758 5.77319ZM6.24688 16.101L7.30852 13.507L8.79229 15.3096C8.56695 15.7019 8.43741 16.1558 8.43741 16.6398V16.6755H8.11924C7.58802 16.6755 7.12841 16.9875 6.91398 17.4378C6.82749 17.4079 6.74457 17.3682 6.66701 17.318C6.27346 17.0633 6.10207 16.5648 6.24688 16.101ZM17.966 18.3287H16.5059C16.1274 18.3287 15.8195 18.0208 15.8195 17.6423V16.9294C15.8195 16.6489 15.592 16.4216 15.3117 16.4216C15.0312 16.4216 14.8039 16.6489 14.8039 16.9294V24.3581C14.8039 24.7035 14.5228 24.9844 14.1777 24.9844C13.8317 24.9844 13.5504 24.7035 13.5504 24.3581V19.7825C13.5504 19.502 13.3231 19.2747 13.0426 19.2747C12.7622 19.2747 12.5348 19.502 12.5348 19.7825V24.3581C12.5348 24.7035 12.2533 24.9844 11.9076 24.9844C11.5622 24.9844 11.2814 24.7035 11.2814 24.3581V17.6992C11.282 17.6804 11.2824 17.6614 11.2824 17.6423V16.9294C11.2824 16.6489 11.054 16.4216 10.7735 16.4216C10.4931 16.4216 10.2657 16.6489 10.2657 16.9294V17.6784C10.2469 18.0402 9.94617 18.3287 9.5792 18.3287H8.11924C7.94349 18.3287 7.80047 18.1856 7.80047 18.0099C7.80047 17.8341 7.94349 17.6911 8.11924 17.6911H8.94523C9.22571 17.6911 9.45304 17.4638 9.45304 17.1833V16.6398C9.45304 15.7218 10.1999 14.9749 11.1179 14.9749H14.9674C15.8854 14.9749 16.6322 15.7218 16.6322 16.6398V17.1833C16.6322 17.4638 16.8596 17.6911 17.14 17.6911H17.966C18.1418 17.6911 18.2848 17.8341 18.2848 18.0099C18.2848 18.1856 18.1418 18.3287 17.966 18.3287ZM19.7634 16.0014C19.7642 16.0034 19.765 16.0054 19.7658 16.0072C19.9011 16.3375 19.8664 16.715 19.6732 17.0173C19.5488 17.2121 19.373 17.3549 19.1693 17.4332C18.9537 16.9853 18.4953 16.6755 17.966 16.6755H17.6477V16.6398C17.6477 16.0223 17.4372 15.4534 17.0851 14.9997L18.6607 13.2079L19.7634 16.0014Z" fill="white"/>
<path d="M21.4565 2.22168C21.5372 2.41528 21.7352 2.54382 21.9456 2.53509C22.1567 2.52617 22.3439 2.38374 22.4086 2.1828C22.4737 1.98126 22.4031 1.75334 22.2346 1.6246C22.0658 1.49567 21.8292 1.48595 21.6505 1.6006C21.4469 1.73152 21.3634 1.99832 21.4565 2.22168Z" fill="white"/>
<path d="M12.5404 4.63736C12.6209 4.83057 12.8163 4.95693 13.0256 4.95038C13.2408 4.94364 13.432 4.79586 13.4951 4.59035C13.558 4.38524 13.4796 4.15435 13.3047 4.03017C13.1365 3.91095 12.9089 3.9052 12.735 4.01589C12.5297 4.14641 12.4485 4.41341 12.5404 4.63736Z" fill="white"/>
</svg>
