<svg width="19" height="17" viewBox="0 0 19 17" fill="none" xmlns="http://www.w3.org/2000/svg">
<path d="M8.35046 11.4283V11.8818C8.35046 12.0358 8.47534 12.1606 8.62934 12.1606C8.78334 12.1606 8.90822 12.0358 8.90822 11.8818V11.4283C8.90822 11.2743 8.78338 11.1494 8.62934 11.1494C8.4753 11.1494 8.35046 11.2743 8.35046 11.4283Z" fill="#6ACA1F"/>
<path d="M17.8319 12.1202C17.7248 12.0206 17.5591 12.0206 17.452 12.1202L16.8417 12.688V9.38941L17.1967 9.72373C17.5141 10.0234 17.9615 10.0976 18.3544 9.92705C19.0537 9.65315 19.2184 8.66348 18.6636 8.1661L16.8417 6.45028V3.01065C16.8417 2.65187 16.5498 2.35997 16.191 2.35997H14.977C14.6183 2.35997 14.3264 2.65187 14.3264 3.01065V4.08136L10.5071 0.48461C9.94238 -0.0472788 9.05758 -0.0472788 8.49281 0.48461L6.70552 2.16782C6.59341 2.27339 6.5881 2.44989 6.69372 2.56203C6.79929 2.67414 6.97578 2.67944 7.08793 2.57383L8.87523 0.890624C9.22554 0.560684 9.77446 0.560684 10.1248 0.890624L18.2813 8.57212C18.3836 8.66849 18.4423 8.80435 18.4423 8.94492C18.4423 9.15574 18.3267 9.33145 18.1332 9.41502C17.9397 9.49855 17.7325 9.46222 17.5791 9.31768L15.2863 7.1584C15.1742 7.05282 14.9977 7.05813 14.8921 7.1702C14.7865 7.28231 14.7918 7.4588 14.9039 7.56441L16.284 8.86413V13.8365H14.929V13.3282C14.929 13.2508 14.8968 13.1768 14.8401 13.1241L13.7609 12.1201C13.6539 12.0205 13.4881 12.0205 13.381 12.1201L12.3019 13.1241C12.2452 13.1768 12.213 13.2508 12.213 13.3282V13.8365H11.8144V11.633C11.8144 11.479 11.6895 11.3541 11.5355 11.3541C11.3815 11.3541 11.2566 11.479 11.2566 11.633V13.8365H10.858V13.3282C10.858 13.2508 10.8258 13.1768 10.7691 13.1241L9.68993 12.1201C9.58287 12.0205 9.4171 12.0205 9.31004 12.1201L8.2309 13.1241C8.17419 13.1768 8.14198 13.2508 8.14198 13.3282V13.8365H7.74335V9.25675H11.2566V10.5176C11.2566 10.6716 11.3815 10.7965 11.5355 10.7965C11.6895 10.7965 11.8144 10.6716 11.8144 10.5176V8.97791C11.8144 8.8239 11.6895 8.69903 11.5355 8.69903H7.46451C7.31051 8.69903 7.18564 8.8239 7.18564 8.97791V13.8365H6.78701V13.3283C6.78701 13.2509 6.7548 13.1769 6.69809 13.1241L5.61895 12.1202C5.51189 12.0206 5.34613 12.0206 5.23906 12.1202L4.15992 13.1241C4.10322 13.1769 4.07101 13.2509 4.07101 13.3283V13.8365H2.71604V8.86417L9.5 2.47523L14.0922 6.80007C14.2044 6.90568 14.3809 6.90034 14.4865 6.78827C14.592 6.67612 14.5868 6.49967 14.4746 6.39406L9.69119 1.88916C9.58376 1.78804 9.41621 1.78804 9.30881 1.88916L1.42092 9.31772C1.26743 9.46226 1.06025 9.49863 0.866801 9.41506C0.673275 9.33149 0.557754 9.15574 0.557754 8.94495C0.557754 8.80438 0.616424 8.66853 0.718771 8.57215L6.27627 3.33828C6.38838 3.23271 6.39369 3.05622 6.28807 2.94407C6.1825 2.83196 6.006 2.82666 5.89386 2.93223L0.336359 8.16614C-0.218463 8.66359 -0.0536231 9.65319 0.645666 9.92705C1.03854 10.0977 1.48593 10.0234 1.80333 9.72373L2.15836 9.38938V12.688L1.54802 12.1201C1.44099 12.0205 1.27519 12.0205 1.16813 12.1201L0.0889883 13.1241C0.0322109 13.1769 0 13.2508 0 13.3283V16.6353C0 16.7893 0.124873 16.9142 0.278877 16.9142H2.43716C2.59116 16.9142 2.71604 16.7893 2.71604 16.6353V15.9001H4.07101V16.6353C4.07101 16.7893 4.19588 16.9142 4.34989 16.9142H6.50817C6.66217 16.9142 6.78705 16.7893 6.78705 16.6353V15.9001H8.14202V16.6353C8.14202 16.7893 8.26689 16.9142 8.4209 16.9142H10.5792C10.7332 16.9142 10.8581 16.7893 10.8581 16.6353V15.9001H12.213V16.6353C12.213 16.7893 12.3379 16.9142 12.4919 16.9142H14.6502C14.8042 16.9142 14.9291 16.7893 14.9291 16.6353V15.9001H16.284V16.6353C16.284 16.7893 16.4089 16.9142 16.5629 16.9142H18.7212C18.8752 16.9142 19.0001 16.7893 19.0001 16.6353V13.3283C19.0001 13.2508 18.9679 13.1769 18.9112 13.1241L17.8319 12.1202ZM14.8841 3.01065C14.8841 2.9594 14.9258 2.91769 14.977 2.91769H16.191C16.2423 2.91769 16.284 2.9594 16.284 3.01065V5.92503L14.8841 4.60665V3.01065ZM2.15828 16.3564H0.557717V13.4497L1.35798 12.7052L2.15828 13.4497V16.3564ZM2.71604 15.3425V14.3942H4.07101V15.3425H2.71604ZM6.22929 16.3564H4.62873V13.4497L5.42903 12.7052L6.22933 13.4497L6.22929 16.3564ZM6.78701 15.3425V14.3942H8.14198V15.3425H6.78701ZM10.3003 16.3564H8.69974V13.4497L9.5 12.7052L10.3003 13.4497V16.3564ZM10.858 15.3425V14.3942H12.213V15.3425H10.858ZM14.3713 16.3564H12.7707V13.4497L13.571 12.7052L14.3713 13.4497L14.3713 16.3564ZM14.929 15.3425V14.3942H16.284V15.3425H14.929ZM18.4423 16.3564H16.8417V13.4497L17.642 12.7052L18.4423 13.4497L18.4423 16.3564Z" fill="#6ACA1F"/>
</svg>
