<svg width="28" height="27" viewBox="0 0 28 27" fill="none" xmlns="http://www.w3.org/2000/svg">
<path d="M21.2969 20.2787L21.2606 20.1446C21.1677 19.8016 20.8818 19.5447 20.5334 19.4894L20.3168 19.4554L20.2094 19.2646C19.9665 18.8346 19.5152 18.5673 19.0312 18.5673C18.2818 18.5673 17.6719 19.1772 17.6719 19.9266C17.6755 19.9352 17.6787 19.9633 17.6796 19.9923L17.6905 20.3254L17.5346 20.3798H21.2969V20.8329H22.2031V14.4891H21.2969V20.2787Z" fill="white"/>
<path d="M18.7313 15.1095C18.9624 15.5553 19.4286 15.8485 19.9375 15.8485C20.687 15.8485 21.2969 15.2386 21.2969 14.4891V11.4768L19.5836 9.33484L20.2918 8.76843L21.2969 10.0249V7.23914H22.2031V11.8374L23.2086 10.5809L23.9168 11.1473L22.2031 13.2893V14.4891C22.2031 15.2386 22.813 15.8485 23.5625 15.8485C24.312 15.8485 24.9219 15.2386 24.9219 14.4891C24.9219 14.3342 24.8911 14.1733 24.8294 14.0106L24.6831 13.6232L25.056 13.4429C25.5327 13.2127 25.8281 12.7451 25.8281 12.2235C25.8281 11.745 25.578 11.3105 25.1598 11.0608L24.6994 10.7871L25.046 10.3788C25.196 10.2017 25.375 9.90714 25.375 9.50476C25.375 9.09876 25.1888 8.71542 24.8634 8.45306L24.5693 8.21562L24.7501 7.88393C24.8639 7.67414 24.9219 7.45709 24.9219 7.23914C24.9219 6.48967 24.312 5.87976 23.5625 5.87976C23.5684 5.88203 23.5444 5.88475 23.5199 5.88565L23.152 5.90106L23.0613 5.5449C22.9077 4.94179 22.3681 4.52039 21.75 4.52039C21.1319 4.52039 20.5923 4.94179 20.4382 5.5449L20.3476 5.90106L19.9076 5.8784C19.188 5.87976 18.5781 6.48967 18.5781 7.23914C18.5781 7.45709 18.6361 7.67414 18.7499 7.88348L18.9307 8.21517L18.6366 8.4526C18.3112 8.71542 18.125 9.09876 18.125 9.50476V9.84415C18.6873 10.7223 19.0312 11.8705 19.0312 13.1298C19.0312 13.833 18.9234 14.5018 18.7313 15.1095Z" fill="white"/>
<path d="M6.34375 6.33288H5.62509L3.67983 8.27814C3.4655 8.49247 3.31234 8.76117 3.23305 9.05163H6.34375V9.95788H5.62509L3.67983 11.9031C3.4655 12.1175 3.31234 12.3862 3.23305 12.6766H7.25V16.3016C6.50053 16.3016 5.89062 16.9115 5.89062 17.661C5.89062 17.6605 5.89108 17.6601 5.89108 17.6601C5.89334 17.6601 5.89561 17.6818 5.89652 17.7036L5.91192 18.0715L5.55577 18.1622C4.95266 18.3158 4.53125 18.8554 4.53125 19.4735C4.53125 19.8115 4.66356 20.1314 4.88786 20.3798H12.3304C12.5552 20.1314 12.6875 19.8115 12.6875 19.4735C12.688 18.5677 11.7826 17.8527 10.8505 18.2061L10.4622 18.3538L10.2819 17.9795C10.0517 17.5033 9.5845 17.2079 9.0625 17.2079C9.01583 17.2079 8.97097 17.216 8.92611 17.2219L8.61934 17.265L8.42858 17.0003C8.35608 16.8717 8.26092 16.7634 8.1558 16.6664V12.6766H11.7976C11.8112 12.4682 11.8347 12.2638 11.8664 12.0631C11.8229 12.0074 11.7767 11.9534 11.726 11.9031L9.78116 9.95788H9.0625V9.05163H12.1732C12.0939 8.76117 11.9403 8.49247 11.7264 8.27814L9.78116 6.33288H9.0625V5.42663L12.2344 5.42028C12.2344 5.2848 12.1664 5.15792 12.0468 5.07228C10.2823 3.80897 8.85995 2.10386 7.93286 0.142734C7.84359 -0.0475781 7.56311 -0.0475781 7.47339 0.142734C6.5463 2.10386 5.12348 3.80897 3.35902 5.07228C3.23984 5.15792 3.17188 5.28525 3.17188 5.42028V5.42663H6.34375V6.33288Z" fill="white"/>
<path d="M13.2167 13.3812L13.9708 12.8787L14.9531 14.3518V10.8641H15.8594V12.2906L16.8649 11.0341L17.5731 11.6005L15.8594 13.7424V17.1467C17.1431 16.8218 18.125 15.1466 18.125 13.1298C18.125 10.8809 16.9056 9.05164 15.4062 9.05164C13.9069 9.05164 12.6875 10.8809 12.6875 13.1298C12.6875 15.1466 13.6694 16.8214 14.9531 17.1467V15.9858L13.2167 13.3812Z" fill="white"/>
<path d="M26.2812 21.286H15.8594V17.1467C15.7117 17.1839 15.5608 17.2079 15.4062 17.2079C15.2517 17.2079 15.1008 17.1839 14.9531 17.1467V21.286H4.07812C3.57742 21.286 3.17188 21.6916 3.17188 22.1923C3.17188 22.693 2.76633 23.0985 2.26562 23.0985H0.90625C0.405547 23.0985 0 23.5041 0 24.0048C0 24.5055 0.405547 24.911 0.90625 24.911H4.53125C4.03055 24.911 3.625 25.3166 3.625 25.8173C3.625 26.318 4.03055 26.7235 4.53125 26.7235H22.2031C22.7038 26.7235 23.1094 26.318 23.1094 25.8173C23.1094 25.3166 22.7038 24.911 22.2031 24.911H21.2969H20.8438C20.343 24.911 19.9375 24.5055 19.9375 24.0048C19.9375 23.5041 20.343 23.0985 20.8438 23.0985H26.2812C26.782 23.0985 27.1875 22.693 27.1875 22.1923C27.1875 21.6916 26.782 21.286 26.2812 21.286ZM11.7812 24.911H10.1953C9.57045 24.911 9.0625 24.4031 9.0625 23.7782C9.0625 23.6536 8.96055 23.5517 8.83594 23.5517H7.25V22.6454H8.83594C9.4608 22.6454 9.96875 23.1534 9.96875 23.7782C9.96875 23.9028 10.0707 24.0048 10.1953 24.0048H11.7812V24.911Z" fill="white"/>
</svg>
