<svg width="27" height="27" viewBox="0 0 27 27" fill="none" xmlns="http://www.w3.org/2000/svg">
<path d="M26.1363 0.201984H11.7834C11.3059 0.201984 10.9197 0.589401 10.9197 1.0662V7.1618L11.5442 6.43166C11.8407 6.08452 12.2317 5.87045 12.6472 5.78102V1.93008H25.2725V13.2144H12.6472V11.3255L12.2583 11.7803C11.9184 12.1769 11.4385 12.423 10.9197 12.4715V14.0784C10.9197 14.5552 11.3059 14.9421 11.7834 14.9421H16.4448L14.0766 25.6938C13.9705 26.176 14.2752 26.6528 14.7578 26.7592C15.236 26.8642 15.7168 26.5605 15.8219 26.0788L18.2747 14.9421H19.7005L22.1533 26.0788C22.2452 26.4958 22.615 26.7803 23.0252 26.7798C23.0888 26.7798 23.1539 26.7734 23.2184 26.7592C23.7009 26.6528 24.0056 26.176 23.8985 25.6938L21.5306 14.9421H26.1364C26.6134 14.9421 27.0001 14.5552 27.0001 14.0784V1.0662C27 0.589401 26.6134 0.201984 26.1363 0.201984Z" fill="white"/>
<path d="M19.2753 5.24801C19.2072 5.07642 19.0142 4.99217 18.8428 5.06009L13.754 6.85621C13.287 6.49461 12.6132 6.55922 12.2237 7.01218L10.609 8.89784L9.17726 7.67055C9.18669 7.7719 9.20816 7.87038 9.20816 7.97438V10.6387L10.0047 11.3212C10.4774 11.7261 11.1846 11.6635 11.5798 11.1999L13.5021 8.95208L19.1325 5.65799C19.2736 5.57666 19.3361 5.40287 19.2753 5.24801Z" fill="white"/>
<path d="M6.06495 5.72579H5.10601C4.37179 5.72579 3.72617 6.08264 3.3158 6.62658L0.372269 9.33662C-0.0863746 9.74517 -0.127974 10.4529 0.285042 10.9143L2.68656 13.5948C3.09599 14.0532 3.80473 14.0938 4.26332 13.6817C4.72312 13.2697 4.76196 12.5638 4.34994 12.1046L2.69462 10.2561L5.04582 8.15219L3.67646 10.0126L5.01597 11.5082C5.75616 12.3353 5.68637 13.6062 4.85962 14.3469C4.29515 14.853 3.52484 14.9717 2.85704 14.7383C2.85704 14.7383 2.86742 19.9057 2.86742 25.4396C2.86742 26.1798 3.46735 26.7798 4.20759 26.7798C4.94706 26.7798 5.54777 26.1798 5.54777 25.4396C5.54777 19.9074 5.54777 23.0644 5.54777 17.4523H6.44172C6.44172 23.0603 6.44172 19.9057 6.44172 25.4396C6.44172 25.826 6.33397 26.1838 6.16217 26.5006C6.38705 26.6735 6.66688 26.7798 6.97187 26.7798C7.7125 26.7798 8.31244 26.1798 8.31244 25.4396C8.31244 19.9074 8.31415 22.2265 8.31415 7.97432C8.31426 6.73246 7.30754 5.72579 6.06495 5.72579Z" fill="white"/>
<path d="M4.39126 4.92149C4.7496 5.10775 5.15191 5.22334 5.58408 5.22334C6.01734 5.22334 6.41965 5.10775 6.77904 4.92116C7.61787 4.48657 8.19608 3.62137 8.19608 2.61156C8.19608 1.16904 7.02665 0 5.58402 0C4.14161 0 2.97246 1.16904 2.97246 2.61156C2.97252 3.62192 3.55132 4.48746 4.39126 4.92149Z" fill="white"/>
</svg>
